<svg id="Capa_1" enable-background="new 0 0 512 512" height="512" viewBox="0 0 512 512" width="512" xmlns="http://www.w3.org/2000/svg"><g><ellipse cx="68.371" cy="271.592" fill="#ffbf9e" rx="47.67" ry="42.689"/><ellipse cx="443.629" cy="271.592" fill="#ffbf9e" rx="47.67" ry="42.689"/><path d="m256 489.001 109.986-27.983c-17.325-43.787-60.036-74.762-109.986-74.762s-92.661 30.975-109.986 74.763z" fill="#efedff"/><path d="m256 438.954c31.024 0 60.768-4.747 87.707-13.754-21.637-23.916-52.916-38.944-87.707-38.944s-66.07 15.028-87.707 38.944c26.939 9.007 56.683 13.754 87.707 13.754z" fill="#d4d4ff"/><path d="m139.269 485.536c-1.602 9.936 6.022 18.964 16.087 18.964h201.289c10.065 0 17.688-9.028 16.086-18.964-1.372-8.512-3.658-16.716-6.745-24.517h-219.972c-3.087 7.8-5.373 16.005-6.745 24.517z" fill="#de5c6e"/><path d="m441.891 261.65c0 90.455-83.226 147.304-185.891 147.304s-185.891-56.849-185.891-147.304 83.226-163.783 185.891-163.783 185.891 73.328 185.891 163.783z" fill="#ffd4be"/><g><ellipse cx="176.443" cy="286.164" fill="#eda1ab" rx="29.355" ry="23.377"/><ellipse cx="335.557" cy="286.164" fill="#eda1ab" rx="29.355" ry="23.377"/><g><path d="m208.301 232.439h-29.5c-5.761 0-10.432 4.671-10.432 10.432v14.75c0 13.907 11.274 25.182 25.182 25.182 13.907 0 25.182-11.274 25.182-25.182v-14.75c0-5.762-4.67-10.432-10.432-10.432z" fill="#4e5660"/></g></g><path d="m74.815 147.221c-10.275 16.533-18.303 58.975-14.331 88.753 2.013 15.091 19.778 22.301 31.814 12.976 20.047-15.531 47.263-45.695 60.728-93.318 20.265-71.665-56.089-44.006-78.211-8.411z" fill="#d2996f"/><path d="m437.185 147.221c10.275 16.533 18.303 58.975 14.331 88.753-2.013 15.091-19.778 22.301-31.814 12.976-20.047-15.531-47.262-45.695-60.728-93.318-20.265-71.665 56.089-44.006 78.211-8.411z" fill="#d2996f"/><path d="m256 7.5c79.778 0 63.026 57.267 125.964 57.267 34.073 0 71.751 15.765 55.221 82.455-35.852 14.229-83.417 29.273-181.185 29.273s-145.333-15.044-181.185-29.273c-16.531-66.69 21.147-82.455 55.22-82.455 62.939-.001 46.187-57.267 125.965-57.267z" fill="#6171a3"/><path d="m223.521 11.697c-43.925 13.205-40.969 53.069-93.485 53.069-34.073 0-71.751 15.765-55.22 82.455 35.851 14.23 83.416 29.273 181.185 29.273-67.916-20.251-74.657-119.338-32.48-164.797z" fill="#475a99"/><ellipse cx="256" cy="65.627" fill="#efedff" rx="33.511" ry="25.228"/><path d="m256 98.355c22.613 0 41.011-14.682 41.011-32.728s-18.398-32.727-41.011-32.727-41.011 14.682-41.011 32.728 18.398 32.727 41.011 32.727zm0-50.455c14.099 0 26.011 8.118 26.011 17.728 0 9.609-11.912 17.728-26.011 17.728s-26.011-8.118-26.011-17.728 11.912-17.728 26.011-17.728zm62.448 196.261c-4.142 0-7.5 3.358-7.5 7.5v12c0 4.142 3.358 7.5 7.5 7.5s7.5-3.358 7.5-7.5v-12c0-4.142-3.358-7.5-7.5-7.5zm-47.762 13.754c-10.707-4.597-24.04-.245-39.629 12.939-3.163 2.675-3.558 7.407-.883 10.57 2.674 3.162 7.406 3.559 10.57.883 10.274-8.69 19.254-12.657 24.023-10.609 2.735 1.175 3.789 4.351 3.844 5.313.236 4.108 3.753 7.294 7.918 7.058 4.136-.238 7.295-3.783 7.058-7.918-.36-6.269-4.551-14.649-12.901-18.236zm189.307-34.25c.863-28.488-6.138-61.215-14.829-77.575 7.513-32.682 3.071-57.001-13.222-72.309-3.02-2.837-7.766-2.689-10.601.331-2.836 3.019-2.688 7.765.33 10.601 11.975 11.251 15.036 30.403 9.116 56.962-37.069 14.371-84.605 27.319-174.786 27.319s-137.717-12.948-174.786-27.319c-5.291-23.739-3.406-41.602 5.617-53.134 10.523-13.451 29.304-16.274 43.205-16.274 32.838 0 46.499-14.46 59.711-28.442 14.004-14.824 27.233-28.825 66.252-28.825s52.248 14.001 66.253 28.824c13.212 13.983 26.873 28.442 59.711 28.442 3.87 0 7.625.22 11.16.655 4.112.503 7.854-2.418 8.359-6.529s-2.417-7.854-6.529-8.359c-4.14-.509-8.51-.767-12.99-.767-26.374 0-36.274-10.478-48.808-23.744-14.846-15.712-31.673-33.522-77.156-33.522s-62.31 17.81-77.156 33.522c-12.534 13.266-22.434 23.744-48.808 23.744-24.718 0-43.743 7.618-55.02 22.031-12.073 15.432-14.821 37.893-8.181 66.794-8.691 16.36-15.691 49.086-14.828 77.573-22.843 6.408-38.806 25.667-38.806 47.927 0 29.896 28.93 53.762 62.425 49.744 19.805 42.116 59.046 69.715 103.419 83.716-25.156 19.418-42.063 47.546-47.181 79.289-2.335 14.493 8.81 27.66 23.491 27.66h16.405c4.142 0 7.5-3.358 7.5-7.5s-3.358-7.5-7.5-7.5h-16.405c-5.536 0-9.536-4.976-8.682-10.271 1.007-6.246 2.535-12.332 4.544-18.211h209.565c2.009 5.879 3.537 11.965 4.544 18.211.854 5.294-3.146 10.271-8.682 10.271h-148.983c-4.142 0-7.5 3.358-7.5 7.5s3.358 7.5 7.5 7.5h148.983c14.677 0 25.827-13.163 23.491-27.658-5.117-31.744-22.027-59.87-47.184-79.288 44.587-14.068 83.69-41.757 103.422-83.717 33.613 4.032 62.425-19.945 62.425-49.744.001-22.261-15.963-41.52-38.805-47.928zm-203.993-39.67c25.005 0 46.836-.98 66.147-2.702-34.477 23.523-76.144 49.025-96.081 59.268-1.139-8.798-8.662-15.622-17.766-15.622h-29.5c-9.888 0-17.932 8.044-17.932 17.932v10.199c-14.47-1.094-33.967-4.825-51.551-8.952 14.191-13.605 32.008-35.452 44.476-67.286 27.17 4.404 60.22 7.163 102.207 7.163zm-44.767 58.876v14.75c0 9.749-7.932 17.682-17.682 17.682s-17.682-7.932-17.682-17.682v-14.75c0-1.617 1.315-2.932 2.932-2.932h29.5c1.617 0 2.932 1.315 2.932 2.932zm-183.032 28.721c0-14.59 10.223-27.387 25.191-32.643 1.283 6.195 4.608 11.589 9.403 15.472-.92 18.964 1.711 36.566 6.978 52.324-23.266.742-41.572-15.786-41.572-35.153zm39.718-36.609c-3.399-25.484 2.609-60.695 10.441-78.336 17.022 6.488 36.234 12.641 60.374 17.463-15.249 37.205-38.181 58.957-51.028 68.911-7.483 5.798-18.541 1.305-19.787-8.038zm286.453 218.536h-196.743c9.133-17.64 22.968-32.656 40.358-43.36 36.438 8.214 77.963 8.58 116.026 0 17.391 10.703 31.225 25.72 40.359 43.36zm28.54-90.271c-32.478 24.638-77.549 38.207-126.912 38.207s-94.434-13.569-126.912-38.207c-35.242-26.735-51.83-62.941-51.457-102.742 6.195.601 12.321-.949 17.542-4.404 11.839 2.989 44.612 10.825 67.467 12.107 4.41 12.838 16.596 22.093 30.911 22.093 18.021 0 32.682-14.661 32.682-32.682v-.464c14.14-6.247 40.006-21.988 55.395-31.606 26.281-16.425 54.316-35.152 71.839-47.979 1.598-.242 3.18-.488 4.739-.74 16.538 42.226 42.5 66.889 56.903 78.048 5.535 4.289 12.339 6.299 19.262 5.626.38 39.962-16.359 76.115-51.459 102.743zm41.383-120.226c-12.848-9.954-35.78-31.706-51.029-68.911 24.141-4.822 43.353-10.976 60.375-17.463 7.831 17.641 13.84 52.852 10.441 78.336-1.246 9.338-12.301 13.838-19.787 8.038zm17.933 63.722c5.267-15.759 7.897-33.36 6.977-52.323 4.795-3.883 8.119-9.275 9.402-15.47 14.968 5.255 25.192 18.051 25.192 32.641 0 19.455-18.407 35.891-41.571 35.152zm-141.193-194.438c-1.417-3.893-5.72-5.9-9.613-4.483l-35.422 12.893-35.422-12.893c-3.89-1.417-8.196.59-9.613 4.483-1.416 3.892.59 8.196 4.483 9.613l18.624 6.779-18.624 6.779c-3.893 1.417-5.899 5.721-4.483 9.613 1.415 3.887 5.716 5.9 9.613 4.482l35.422-12.894 35.422 12.893c3.907 1.422 8.202-.606 9.613-4.482 1.417-3.893-.59-8.196-4.483-9.613l-18.624-6.779 18.624-6.779c3.893-1.416 5.9-5.72 4.483-9.612z"/></g></svg>