<svg id="Capa_1" enable-background="new 0 0 512 512" height="512" viewBox="0 0 512 512" width="512" xmlns="http://www.w3.org/2000/svg"><g><path d="m448.807 265.987c0 28.662 4.825 65.528 31.957 91.974 8.884 8.659 8.017 23.126-1.688 30.854-36.27 28.879-98.045 51.486-223.076 51.486s-186.806-22.607-223.077-51.486c-9.705-7.728-10.572-22.195-1.688-30.854 27.133-26.446 31.957-63.312 31.957-91.974z" fill="#6171a3"/><ellipse cx="56.485" cy="261.72" fill="#ffcbbe" rx="48.985" ry="43.867"/><ellipse cx="455.515" cy="261.72" fill="#ffcbbe" rx="48.985" ry="43.867"/><path d="m214.637 426.449c0 28.735-40.468 52.03-95.388 52.03-25.7 0-46.534-23.295-46.534-52.03s20.834-52.03 46.534-52.03c54.92 0 95.388 23.295 95.388 52.03z" fill="#8cd6fe"/><path d="m297.363 426.449c0 28.735 40.468 52.03 95.388 52.03 25.7 0 46.534-23.295 46.534-52.03s-20.834-52.03-46.534-52.03c-54.92 0-95.388 23.295-95.388 52.03z" fill="#8cd6fe"/><path d="m405.516 476.48c-6.407-39.218-27.796-73.221-57.981-96.138-30.51 8.697-50.173 26.079-50.173 46.107 0 28.735 40.468 52.03 95.388 52.03 4.43 0 8.708-.707 12.766-1.999z" fill="#5fc5fc"/><path d="m119.249 478.479c54.92 0 95.388-23.294 95.388-52.03 0-20.028-19.663-37.41-50.172-46.107-30.162 22.892-51.566 56.866-57.982 96.138 4.059 1.292 8.337 1.999 12.766 1.999z" fill="#5fc5fc"/><path d="m256 473.598 111.096-21.809c-18.901-42.558-61.529-72.241-111.096-72.241s-92.196 29.684-111.097 72.241z" fill="#f5ea72"/><path d="m256 432.872c31.657 0 62.011-4.821 89.516-13.971-22.21-24.187-54.09-39.353-89.516-39.353s-67.306 15.166-89.516 39.353c27.505 9.15 57.859 13.971 89.516 13.971z" fill="#ebca5f"/><path d="m447.021 251.503c0 92.951-85.523 151.369-191.021 151.369s-191.021-58.418-191.021-151.369 85.523-168.303 191.021-168.303 191.021 75.352 191.021 168.303z" fill="#ffddcf"/><path d="m470.793 156.707c-48.847-76.764-167.22-93.167-209.339-79.279-3.544 1.168-7.364 1.168-10.907 0-42.12-13.888-160.493 2.516-209.34 79.279-6.285 9.877-2.687 22.477 6.706 28.084 1.755 1.047 2.433 3.236 1.737 5.158-6.3 17.412-8.616 40.594-.556 63.811 3.836 11.048 17.462 15.002 26.671 7.794 17.865-13.984 37.741-40.228 49.958-66.71.921-1.997 2.859-3.314 5.051-3.497 46.121-3.843 92.427-17.259 119.277-34.889 3.613-2.373 8.283-2.373 11.896 0 26.849 17.63 73.156 31.046 119.277 34.889 2.191.183 4.13 1.5 5.051 3.497 12.217 26.481 32.093 52.725 49.958 66.71 9.209 7.208 22.835 3.254 26.671-7.794 8.06-23.216 5.744-46.398-.556-63.811-.695-1.922-.017-4.111 1.737-5.158 9.395-5.607 12.993-18.207 6.708-28.084z" fill="#6171a3"/><ellipse cx="83.799" cy="37.96" fill="#f5ea72" rx="29.713" ry="27.015"/><ellipse cx="428.201" cy="37.96" fill="#f5ea72" rx="29.713" ry="27.015"/><path d="m136.047 481.567c-1.646 10.211 6.188 19.488 16.53 19.488h206.844c10.342 0 18.176-9.277 16.53-19.488-1.682-10.431-4.698-20.414-8.856-29.778h-222.192c-4.158 9.363-7.174 19.347-8.856 29.778z" fill="#6171a3"/><g><g><path d="m203.749 282.132c.007 13.438-13.667 24.338-30.541 24.346s-30.559-10.878-30.566-24.315c-.007-13.438 13.667-24.338 30.541-24.347 16.874-.008 30.559 10.878 30.566 24.316z" fill="#eda1ab"/><path d="m308.251 282.08c.007 13.438 13.691 24.324 30.565 24.315 16.874-.008 30.548-10.908 30.541-24.346s-13.691-24.324-30.566-24.316c-16.873.008-30.547 10.909-30.54 24.347z" fill="#eda1ab"/><path d="m285.944 271.091c-.009-18.509-13.419-20.242-29.959-20.233-16.541.008-29.949 1.754-29.939 20.263.009 18.509 13.426 33.506 29.966 33.498s29.941-15.019 29.932-33.528z" fill="#4e5660"/></g></g><path d="m512 261.72c0-21.664-14.886-40.777-36.826-48.159-.878-9.69-2.972-17.869-4.968-23.85 11.242-8.353 14.976-24.361 6.914-37.03-20.764-32.631-56.474-58.51-101.246-73.603 7.983-6.972 16.174-13.334 24.118-18.645 6.83 7.365 16.938 12.042 28.209 12.042 20.52 0 37.213-15.483 37.213-34.515s-16.694-34.515-37.213-34.515c-24.577 0-42.592 21.892-35.775 43.993-11.156 7.373-22.605 16.53-33.412 26.585-37.28-9.803-76.716-11.366-99.909-3.718-2.032.669-4.179.668-6.21 0-22.213-7.325-60.641-6.611-99.874 3.751-10.817-10.068-22.279-19.237-33.448-26.618 6.81-22.077-11.173-43.993-35.775-43.993-20.519 0-37.213 15.483-37.213 34.515s16.694 34.515 37.213 34.515c11.27 0 21.379-4.678 28.209-12.042 7.956 5.319 16.16 11.692 24.154 18.677-13.713 4.611-27.257 10.421-39.964 17.531-3.615 2.022-4.905 6.593-2.882 10.208 2.022 3.615 6.594 4.906 10.207 2.882 14.567-8.152 29.982-14.361 45.234-18.925 8.885 8.761 17.141 18.027 23.995 27.124 2.501 3.32 7.205 3.962 10.503 1.477 3.308-2.493 3.97-7.195 1.477-10.503-5.705-7.572-12.21-15.166-19.2-22.498 34.51-7.771 66.177-7.291 82.664-1.855 5.104 1.683 10.5 1.684 15.604 0 21.162-6.978 54.949-4.25 82.638 1.884-6.98 7.323-13.476 14.907-19.174 22.469-2.493 3.309-1.831 8.011 1.477 10.503 3.303 2.488 8.007 1.837 10.503-1.477 6.855-9.099 15.113-18.367 24.001-27.129 45.213 13.562 81.118 38.346 101.218 69.934 3.956 6.216 1.638 14.119-4.223 17.616-4.796 2.863-6.877 8.814-4.946 14.15 6.79 18.767 6.981 40.198.523 58.799-2.147 6.182-9.79 8.398-14.963 4.348-17.104-13.388-36.302-39.086-47.771-63.946-2.04-4.421-6.347-7.421-11.238-7.829-44.866-3.738-90.314-16.96-115.783-33.685-6.114-4.014-14.015-4.015-20.129.001-25.469 16.724-70.917 29.946-115.783 33.684-4.891.408-9.197 3.407-11.238 7.829-11.469 24.86-30.667 50.558-47.771 63.946-5.175 4.051-12.817 1.834-14.963-4.348-6.458-18.601-6.267-40.032.523-58.799 1.93-5.336-.149-11.287-4.946-14.15-5.842-3.487-8.192-11.38-4.223-17.617 7.095-11.15 16.112-21.484 26.802-30.717 3.135-2.708 3.481-7.443.773-10.578-2.707-3.135-7.444-3.482-10.578-.773-11.796 10.188-21.772 21.633-29.652 34.016-8.062 12.669-4.328 28.678 6.914 37.031-1.995 5.98-4.089 14.159-4.968 23.849-21.936 7.381-36.822 26.493-36.822 48.158 0 26.194 21.676 47.856 49.57 50.969-4.885 15.985-12.781 29.386-23.57 39.901-12.081 11.778-11.01 31.533 2.252 42.092 11.098 8.837 23.443 16.32 37.578 22.789-4.992 36.2 20.563 68.508 53.419 68.508 3.056 0 6.107-.071 9.13-.211.785 12.74 11.32 22.787 24.199 22.787h156.862c4.142 0 7.5-3.358 7.5-7.5s-3.358-7.5-7.5-7.5h-156.862c-5.831 0-10.021-5.243-9.126-10.794 1.309-8.12 3.478-15.976 6.417-23.472h212.263c2.939 7.496 5.108 15.352 6.417 23.471.895 5.554-3.298 10.794-9.126 10.794h-13.906c-4.142 0-7.5 3.358-7.5 7.5s3.358 7.5 7.5 7.5h13.906c12.867 0 23.413-10.035 24.199-22.787 3.024.14 6.074.211 9.13.211 32.878 0 58.407-32.335 53.419-68.508 14.135-6.469 26.48-13.953 37.579-22.789 13.253-10.552 14.341-30.306 2.251-42.092-10.789-10.515-18.687-23.916-23.572-39.901 27.893-3.111 49.571-24.774 49.571-50.968zm-83.799-243.275c12.249 0 22.213 8.754 22.213 19.515s-9.965 19.515-22.213 19.515-22.213-8.754-22.213-19.515c0-10.76 9.965-19.515 22.213-19.515zm-344.402 39.031c-12.248 0-22.213-8.754-22.213-19.515s9.965-19.515 22.213-19.515 22.213 8.754 22.213 19.515c0 10.76-9.965 19.515-22.213 19.515zm-3.41 209.983c18.926-14.815 39.189-41.713 51.788-68.704 47.631-4.076 94.316-17.855 121.991-36.028 1.113-.73 2.551-.73 3.663-.001 27.676 18.173 74.361 31.953 121.991 36.028 12.599 26.992 32.862 53.89 51.788 68.704 1.991 1.558 4.189 2.777 6.505 3.646-23.949 165.57-340.25 165.937-364.233-.016 2.315-.869 4.517-2.072 6.507-3.629zm-65.389-5.739c0-13.503 8.545-25.656 21.634-31.92.555 8.258 2.16 17.156 5.376 26.42 2.648 7.626 8.702 13.439 16.836 15.616 1.182 8.805 3.124 17.33 5.819 25.533-25.624 4.532-49.665-12.708-49.665-35.649zm22.595 121.228c-6.076-4.838-6.867-14.02-1.125-19.616 13.669-13.323 23.325-30.424 28.769-50.874 1.669-.237 3.325-.542 4.964-.915 9.71 21.27 24.852 40.026 45 55.561-20.396 1.673-37.67 15.862-45.496 35.613-12.024-5.699-22.602-12.197-32.112-19.769zm93.015 87.666c-3.744.236-7.543.365-11.361.365-21.523 0-39.034-19.976-39.034-44.53s17.51-44.53 39.034-44.53c7.07 0 14.047.424 20.778 1.23 11.581 6.236 24.112 11.459 37.362 15.612-23.381 17.924-39.861 43.161-46.779 71.853zm26.444-26.325c9.377-16.345 22.8-30.269 39.327-40.418 37.674 8.515 80.191 8.825 119.238 0 16.527 10.149 29.951 24.073 39.327 40.418zm235.697 26.69c-3.816 0-7.615-.129-11.357-.365-6.918-28.693-23.401-53.929-46.781-71.854 13.249-4.152 25.779-9.375 37.36-15.611 6.731-.806 13.708-1.23 20.778-1.23 21.523 0 39.034 19.976 39.034 44.53s-17.511 44.53-39.034 44.53zm82.778-107.647c5.743 5.597 4.951 14.778-1.124 19.616-9.511 7.572-20.089 14.07-32.113 19.769-7.826-19.751-25.099-33.94-45.496-35.613 20.147-15.535 35.29-34.292 45-55.561 1.64.374 3.295.678 4.964.915 5.445 20.45 15.101 37.551 28.769 50.874zm-28.195-65.963c2.695-8.202 4.636-16.726 5.819-25.529 8.169-2.183 14.204-8.036 16.837-15.62 3.217-9.267 4.823-18.167 5.377-26.428 13.089 6.265 21.633 18.424 21.633 31.928 0 23.034-24.152 40.163-49.666 35.649zm-191.338 14.75h.019c20.65-.01 37.44-18.417 37.429-41.032-.006-11.428-4.343-19.418-12.892-23.748-6.515-3.3-14.493-3.982-24.461-3.982h-.11c-12.155.006-37.449.019-37.436 27.767.005 10.798 3.803 20.987 10.694 28.69 7.099 7.936 16.6 12.305 26.757 12.305zm-.008-53.761h.12c6.768 0 13.579.293 17.667 2.363 2.423 1.227 4.665 3.333 4.669 10.374.007 14.343-10.058 26.018-22.436 26.024h-.011c-5.832 0-11.363-2.594-15.578-7.305-4.429-4.951-6.87-11.591-6.874-18.697-.005-9.721 3.09-12.749 22.443-12.759zm50.454 4.746h.004c4.142-.002 7.499-3.362 7.496-7.504-.002-3.883 3.156-7.044 7.039-7.046h.004c3.881 0 7.04 3.157 7.042 7.039.002 4.142 3.359 7.497 7.5 7.497h.004c4.142-.002 7.499-3.361 7.496-7.503-.003-5.888-2.298-11.422-6.464-15.584-4.163-4.159-9.695-6.449-15.579-6.449h-.011c-12.155.007-22.038 9.9-22.031 22.054.003 4.141 3.36 7.496 7.5 7.496zm-129.996.065h.004c4.142-.002 7.498-3.362 7.496-7.504-.001-1.881.73-3.65 2.06-4.981s3.098-2.064 4.979-2.066h.004c3.881 0 7.041 3.157 7.043 7.039.002 4.142 3.359 7.497 7.5 7.497h.003c4.143-.002 7.499-3.361 7.497-7.503-.003-5.888-2.298-11.422-6.464-15.583-4.163-4.159-9.695-6.449-15.579-6.449h-.011c-5.888.003-11.422 2.298-15.584 6.464-4.161 4.165-6.451 9.702-6.448 15.59.003 4.142 3.36 7.496 7.5 7.496z"/></g></svg>