<svg id="Capa_1" enable-background="new 0 0 512.004 512.004" height="512" viewBox="0 0 512.004 512.004" width="512" xmlns="http://www.w3.org/2000/svg"><g><g><path d="m178.247 311.706c-1.084-25.994-24.05-46.761-52.237-46.761-28.878 0-52.289 21.795-52.289 48.68 0 24.101 18.906 44.284 43.798 48.045 7.204 1.088 13.232 6.196 15.558 13.101 6.657 19.756 26.47 34.088 49.887 34.088 28.878 0 52.289-21.795 52.289-48.68.001-28.223-25.924-51.064-57.006-48.473z" fill="#de5c6e"/><path d="m195.452 343.274c-23.454 6.339-62.803 38.854-165.014 10.22-12.953-3.629-25.161 7.62-22.59 20.824 8.097 41.572 34.882 50.374 29.98 78.143-1.621 9.181 5.356 17.624 14.68 17.624h124.679l80.176-67.299z" fill="#6171a3"/><path d="m257.364 402.786-61.911-59.512c-9.996 2.702-22.887 10.156-42.294 15.607-.98 1.077-1.949 2.167-2.904 3.273-12.029 13.939-15.115 33.305-8.251 50.222-4.772 10.989-8.144 22.52-10.07 34.463-1.277 7.921-.441 15.909 2.273 23.246h42.981z" fill="#475a99"/><path d="m372.248 311.706c1.084-25.994 24.05-46.761 52.237-46.761 28.878 0 52.289 21.795 52.289 48.68 0 24.101-18.906 44.284-43.798 48.045-7.204 1.088-13.232 6.196-15.558 13.101-6.657 19.756-26.47 34.088-49.887 34.088-28.878 0-52.289-21.795-52.289-48.68 0-28.223 25.924-51.064 57.006-48.473z" fill="#de5c6e"/><ellipse cx="92.437" cy="243.16" fill="#ffcbbe" rx="46.445" ry="41.593"/><ellipse cx="458.058" cy="243.16" fill="#ffcbbe" rx="46.445" ry="41.593"/><path d="m373.307 470.086c9.806 0 17.234-8.796 15.673-18.477-8.841-54.843-56.396-96.73-113.733-96.73s-104.892 41.887-113.733 96.73c-1.561 9.681 5.867 18.477 15.673 18.477z" fill="#f1b260"/><path d="m275.248 426.93c33.344 0 65.373-5.276 94.365-15.281 12.472-4.304 16.565-19.931 7.944-29.919-25.633-29.701-62.989-46.825-102.309-46.825-39.339 0-76.687 17.137-102.31 46.826-8.62 9.988-4.526 25.614 7.945 29.919 28.991 10.005 61.021 15.28 94.365 15.28z" fill="#6171a3"/><path d="m456.364 233.473c0 88.132-81.089 143.521-181.117 143.521s-181.116-55.39-181.116-143.521c0-88.132 81.089-159.577 181.117-159.577s181.116 71.445 181.116 159.577z" fill="#ffddcf"/><path d="m281.196 139.76c18.797 13.744 51.014 18.372 75.208 12.572 4.543-1.089 9.247 1.091 11.324 5.274 8.611 17.341 22.437 34.54 42.63 44.498 3.657 1.803 5.939 5.659 5.621 9.723-1.274 16.333 11.571 31.164 28.777 31.33 15.259.148 27.885-11.151 29.297-26.345.939-10.099-3.284-19.255-10.333-25.144-3.16-2.641-3.698-7.342-1.306-10.694 6.125-8.585 9.694-18.887 9.694-29.966 0-30.889-27.588-55.224-60.088-54.202-4.885.154-9.233-2.893-10.966-7.463-16.473-43.447-76.792-60.922-120.179-35.94-3.494 2.012-7.761 2.012-11.255 0-43.387-24.982-103.706-7.507-120.179 35.94-1.733 4.57-6.081 7.617-10.966 7.463-32.5-1.022-60.088 23.313-60.088 54.202 0 11.079 3.569 21.381 9.694 29.966 2.392 3.352 1.854 8.053-1.306 10.694-7.049 5.889-11.272 15.045-10.333 25.144 1.412 15.194 14.038 26.493 29.297 26.345 17.206-.166 30.051-14.997 28.777-31.33-.317-4.065 1.965-7.92 5.621-9.723 20.193-9.958 34.019-27.157 42.63-44.498 2.078-4.184 6.782-6.363 11.324-5.274 24.194 5.8 56.411 1.172 75.208-12.572 3.548-2.594 8.35-2.594 11.897 0z" fill="#de5c6e"/><path d="m275.248 162.783c-33.821 0-51.253.657-84.295-5.327-13.569-2.457-22.577-15.449-20.12-29.018s15.447-22.575 29.018-20.12c28.642 5.188 42.827 4.528 75.397 4.528 32.71 0 46.853.641 75.396-4.528 13.566-2.456 26.561 6.551 29.018 20.12 2.458 13.569-6.55 26.56-20.119 29.018-32.602 5.903-49.464 5.327-84.295 5.327z" fill="#6171a3"/><path d="m265.364 92.222-19.293 26.686c-6.404 8.857-6.404 20.823 0 29.681l19.293 26.686c4.868 6.734 14.898 6.734 19.767 0l19.293-26.686c6.404-8.857 6.404-20.824 0-29.681l-19.293-26.686c-4.868-6.734-14.898-6.734-19.767 0z" fill="#f1b260"/></g><g><g fill="#eda1ab"><ellipse cx="191.682" cy="251.973" rx="30.834" ry="24.555"/><ellipse cx="358.813" cy="251.973" rx="30.834" ry="24.555"/></g></g><path d="m121.13 427.959c4.108-.534 7.005-4.296 6.472-8.403-.534-4.108-4.296-7.004-8.403-6.472-19.28 2.507-30.82-5.513-52.737-1.677-4.08.714-6.809 4.601-6.095 8.681s4.602 6.81 8.681 6.095c18.65-3.264 30.21 4.617 52.082 1.776zm390.874-184.799c0-20.445-13.655-38.427-34.326-45.733-2.215-4.358-5.293-8.292-9.147-11.513-.12-.101-.149-.39-.012-.583 13.886-19.458 14.593-44.378 2.9-64.192-2.104-3.568-6.704-4.751-10.27-2.647-3.567 2.105-4.753 6.703-2.647 10.271 8.735 14.803 8.196 33.298-2.192 47.857-4.669 6.544-3.525 15.683 2.604 20.805 5.55 4.637 8.347 11.451 7.674 18.695-1.754 18.863-25.021 26.123-37.46 12.544-4.063-4.434-6.129-10.357-5.669-16.251.549-7.032-3.382-13.877-9.781-17.034-18.913-9.327-30.652-25.092-37.502-37.788 8.611-7.373 12.983-18.811 10.868-30.488-3.189-17.615-20.112-29.358-37.734-26.164-18.206 3.297-30.151 4.158-45.461 4.369l-12.638-17.479c-8.115-11.224-24.278-10.573-31.922-.001-.001 0-.001 0-.001.001l-12.639 17.482c-15.289-.209-27.23-1.07-45.461-4.372-17.62-3.19-34.543 8.551-37.732 26.164-2.154 11.896 2.437 23.269 10.868 30.489-6.85 12.696-18.588 28.461-37.501 37.788-6.399 3.156-10.33 10.001-9.781 17.033.933 11.964-8.472 23.123-21.372 23.248-20.715.132-29.427-25.416-14.082-38.235 6.128-5.122 7.271-14.261 2.602-20.805-12.704-17.805-10.835-41.8 5.645-57.771 10.006-9.696 24.007-14.988 38.408-14.545 8.018.267 15.33-4.69 18.215-12.3 14.76-38.931 69.88-54.868 109.423-32.1 5.777 3.328 12.958 3.329 18.739 0 39.757-22.892 94.743-6.622 109.425 32.1 2.885 7.609 10.2 12.572 18.214 12.3 8.106-.249 15.904 1.231 23.213 4.413 3.795 1.652 8.218-.084 9.87-3.882 1.654-3.798-.084-8.217-3.882-9.871-9.229-4.018-19.484-5.977-29.673-5.652-1.597.039-3.102-1.004-3.717-2.626-18.165-47.912-83.682-66.989-130.935-39.781-1.18.68-2.59.68-3.77 0-47.412-27.299-112.833-7.962-130.934 39.78-.615 1.621-2.099 2.667-3.718 2.626-18.432-.587-36.414 6.26-49.318 18.765-21.522 20.855-24.646 53.11-7.417 77.255.138.194.11.483-.009.583-3.855 3.221-6.933 7.155-9.148 11.513-20.672 7.307-34.327 25.289-34.327 45.734 0 20.625 14.056 38.308 33.903 45.565-12.002 22.696-6.332 51.082 15.365 68.07-15.989-1.382-34.255-4.627-55.298-10.522-18.375-5.146-35.604 10.845-31.975 29.479 8.237 42.29 34.07 52.1 29.956 75.406-2.436 13.804 8.113 26.428 22.065 26.428h6.657c4.142 0 7.5-3.358 7.5-7.5s-3.358-7.5-7.5-7.5h-6.657c-4.705 0-8.095-4.274-7.293-8.82 5.561-31.501-22.29-41.271-30.004-80.881-1.499-7.693 5.57-14.311 13.204-12.167 71.131 19.926 113.05 11.175 141.65.5 2.772 1.388 5.599 2.713 8.471 3.983-3.987 3.669-7.759 7.555-11.277 11.631-8.571 9.932-8.523 24.72.208 34.569-6.654 12.177-11.143 25.272-13.358 39.016-.67 4.153-.206 8.343 1.266 12.17h-60.045c-4.142 0-7.5 3.358-7.5 7.5s3.358 7.5 7.5 7.5h277.976c14.418 0 25.374-12.931 23.078-27.171-2.055-12.749-6.068-24.94-11.948-36.358 18.79-5.239 34.089-19.09 40.088-36.892 1.431-4.246 5.188-7.417 9.57-8.079 39.736-6.003 61.749-46.796 43.992-80.357 19.853-7.256 33.916-24.942 33.916-45.572zm-201.501-90.178c7.044-9.744 8.098-22.316 3.211-32.928 11.885-.472 23.171-1.622 38.267-4.356 9.478-1.716 18.585 4.599 20.302 14.077 1.721 9.498-4.575 18.58-14.075 20.301-20.124 3.644-34.236 4.741-49.272 5.074zm-58.354-29.68 19.293-26.685h-.001c1.875-2.592 5.738-2.593 7.611 0l19.294 26.685c4.518 6.248 4.518 14.645 0 20.892l-19.294 26.686c-1.874 2.592-5.737 2.592-7.61 0l-19.293-26.686c-4.518-6.248-4.518-14.644 0-20.892zm-73.936 6.473c1.716-9.477 10.825-15.792 20.301-14.077 15.111 2.737 26.396 3.888 38.267 4.36-4.886 10.611-3.831 23.182 3.212 32.925l1.577 2.18c-14.979-.329-29.082-1.429-49.28-5.087-9.501-1.721-15.798-10.8-14.077-20.301zm-124.722 113.385c0-10.899 5.87-20.837 15.389-27.151.669 12.847 7.725 23.84 18.281 29.851.918 10.905 3.047 21.379 6.337 31.363-22.873.544-40.007-15.754-40.007-34.063zm72.538 113.349c-2.35-1.111-4.825-1.868-7.389-2.256-31.998-4.834-47.126-37.878-30.774-62.191 3.595.276 7.146.284 11.451-.216 11.549 24.584 30.301 44.46 53.261 59.375-7.791 2.263-16.555 4.163-26.549 5.288zm28.413-22.184c-29.514-21.353-47.226-50.163-51.677-83.769 23.297 1.64 40.895-17.939 39.228-39.312-.075-.959.526-1.952 1.462-2.413 22.545-11.118 36.315-29.647 44.231-44.411.637.155 1.279.298 1.93.416 26.122 4.731 43.061 5.374 62.891 5.456l6.779 9.376c7.871 10.886 24.051 10.887 31.922 0l6.785-9.384c20.444-.089 36.771-.719 62.885-5.448.651-.118 1.292-.261 1.929-.416 7.917 14.764 21.688 33.293 44.233 44.411.936.461 1.536 1.453 1.461 2.414-1.671 21.432 15.991 40.946 39.225 39.311-4.45 33.606-22.159 62.417-51.673 83.769-31.347 22.678-74.249 35.168-120.806 35.168-46.556 0-89.459-12.489-120.805-35.168zm24.173 52.305c4.74-5.492 9.996-10.602 15.654-15.243 24.669 8.57 52.207 13.106 80.978 13.106 28.772 0 56.309-4.535 80.978-13.106 5.658 4.641 10.914 9.751 15.653 15.242 5.184 6.006 2.73 15.361-4.714 17.929-28.59 9.868-59.516 14.871-91.917 14.871-32.402 0-63.327-5.003-91.917-14.871-7.442-2.568-9.899-11.921-4.715-17.928zm194.692 75.956h-196.12c-5.273 0-9.082-4.74-8.269-9.783 1.897-11.771 5.702-22.997 11.317-33.465 59.147 19.953 129.708 20.348 190.027-.001 5.613 10.469 9.417 21.696 11.315 33.466.812 5.042-2.995 9.783-8.27 9.783zm58.548-108.332c-10.034 1.516-18.29 8.46-21.545 18.121-3.411 10.122-11.004 18.505-20.766 23.603.521-6.906-1.698-13.804-6.31-19.15-3.517-4.076-7.295-7.957-11.281-11.627 34.12-15.079 63.367-39.598 79.225-73.355 4.291.499 7.871.491 11.451.216 16.311 24.253 1.295 57.347-30.774 62.192zm25.141-77.031c3.29-9.983 5.419-20.459 6.337-31.363 10.538-6.001 17.61-16.981 18.281-29.849 9.518 6.315 15.389 16.251 15.389 27.15.001 18.502-17.352 34.6-40.007 34.062zm-158.8-44.335c2.722-3.123 2.396-7.86-.727-10.582-3.125-2.721-7.862-2.396-10.582.727-2.939 3.372-7.181 5.306-11.64 5.306s-8.701-1.934-11.64-5.306c-2.723-3.123-7.458-3.447-10.582-.727-3.123 2.722-3.448 7.459-.727 10.582 5.788 6.642 14.152 10.451 22.948 10.451 8.798 0 17.162-3.809 22.95-10.451zm31.058 2.311c4.143 0 7.5-3.358 7.5-7.5 0-3.532 2.874-6.406 6.406-6.406s6.406 2.874 6.406 6.406c0 4.142 3.357 7.5 7.5 7.5s7.5-3.358 7.5-7.5c0-11.803-9.603-21.406-21.406-21.406-11.804 0-21.406 9.603-21.406 21.406 0 4.142 3.357 7.5 7.5 7.5zm-119.602-26.666c-4.142 0-7.5 3.358-7.5 7.5v12c0 4.142 3.358 7.5 7.5 7.5s7.5-3.358 7.5-7.5v-12c0-4.142-3.357-7.5-7.5-7.5z"/></g></svg>