<svg id="Capa_1" enable-background="new 0 0 512.001 512.001" height="512" viewBox="0 0 512.001 512.001" width="512" xmlns="http://www.w3.org/2000/svg"><g><path d="m64.092 382.602-7.889 2.268c-6.669 1.918-13.363-2.946-13.6-9.881l-.28-8.203c-.12-3.515-1.228-6.925-3.197-9.84l-4.595-6.801c-3.885-5.75-1.328-13.619 5.195-15.988l7.715-2.802c3.306-1.201 6.207-3.308 8.37-6.081l5.049-6.472c4.268-5.471 12.542-5.471 16.81 0l5.049 6.472c2.163 2.773 5.064 4.881 8.37 6.081l7.715 2.802c6.522 2.368 9.079 10.238 5.195 15.988l-4.595 6.801c-1.969 2.914-3.077 6.325-3.197 9.84l-.28 8.203c-.237 6.935-6.931 11.798-13.6 9.881l-7.889-2.268c-3.38-.972-6.966-.972-10.346 0z" fill="#ebca5f"/><path d="m363.589 504.501c11.368 0 19.978-10.197 18.169-21.42-10.249-63.576-65.376-112.132-131.844-112.132s-121.594 48.556-131.844 112.132c-1.809 11.223 6.801 21.42 18.169 21.42z" fill="#efedff"/><path d="m153.767 411.82c29.581 9.677 62.171 14.765 96.148 14.765s66.567-5.089 96.148-14.765c-24.291-25.194-58.387-40.871-96.148-40.871s-71.857 15.677-96.148 40.871z" fill="#d4d4ff"/><path d="m147.304 419.025c-14.984 17.968-25.343 39.929-29.232 64.057-1.809 11.223 6.801 21.42 18.169 21.42h41.887c-2.237-34.027-12.655-67.418-30.824-85.477z" fill="#6171a3"/><path d="m352.526 419.025c14.984 17.968 25.343 39.929 29.232 64.057 1.809 11.223-6.801 21.42-18.169 21.42h-41.887c2.237-34.027 12.655-67.418 30.824-85.477z" fill="#6171a3"/><path d="m459.872 230.211c0 102.165-94.001 166.374-209.957 166.374s-209.957-64.208-209.957-166.374c0-102.165 94.001-184.987 209.957-184.987s209.957 82.822 209.957 184.987z" fill="#efedff"/><path d="m437.563 439.838-7.888 2.268c-6.669 1.918-13.363-2.946-13.6-9.881l-.28-8.203c-.12-3.515-1.228-6.925-3.197-9.84l-4.595-6.802c-3.884-5.75-1.328-13.619 5.195-15.988l7.715-2.802c3.306-1.201 6.207-3.308 8.37-6.081l5.049-6.472c4.268-5.471 12.542-5.471 16.81 0l5.049 6.472c2.163 2.773 5.064 4.881 8.37 6.081l7.715 2.802c6.522 2.368 9.079 10.238 5.195 15.988l-4.595 6.802c-1.969 2.914-3.077 6.324-3.197 9.84l-.28 8.203c-.237 6.935-6.931 11.798-13.6 9.881l-7.888-2.268c-3.382-.972-6.967-.972-10.348 0z" fill="#ebca5f"/><path d="m142.806 75.404-7.889 2.268c-6.669 1.918-13.363-2.946-13.6-9.881l-.28-8.203c-.12-3.515-1.228-6.925-3.197-9.84l-4.595-6.801c-3.884-5.75-1.327-13.619 5.195-15.988l7.715-2.802c3.306-1.201 6.207-3.308 8.37-6.081l5.049-6.472c4.268-5.471 12.542-5.471 16.81 0l5.049 6.472c2.163 2.773 5.064 4.881 8.37 6.081l7.715 2.802c6.522 2.368 9.079 10.238 5.195 15.988l-4.595 6.801c-1.969 2.914-3.077 6.325-3.197 9.84l-.28 8.203c-.237 6.935-6.931 11.799-13.6 9.881l-7.888-2.268c-3.381-.972-6.967-.972-10.347 0z" fill="#ebca5f"/><path d="m249.916 330.658c80.175 0 129.118-56.749 129.118-74.657s0-94.548 0-94.548c-18.743-16.139-73.929-28.635-129.119-28.635-55.189 0-110.376 12.495-129.119 28.635v94.548s48.944 74.657 129.12 74.657z" fill="#8cd6fe"/><path d="m249.916 330.658c80.175 0 129.118-56.749 129.118-74.657s0-94.548 0-94.548c-18.743-16.139-73.929-28.635-129.119-28.635-55.189 0-110.376 12.495-129.119 28.635v94.548s48.944 74.657 129.12 74.657z" fill="#8cd6fe"/><path d="m251.569 330.64c79.19-.775 127.465-56.854 127.465-74.638 0-8.792 0-31.741 0-52.827z" fill="#5fc5fc"/><path d="m120.797 254.565 121.663-121.663c-52.631 1.058-103.764 13.138-121.663 28.55z" fill="#5fc5fc"/><path d="m249.915 348.465c-49.052 0-95.214-22.113-122.06-42.807-18.416-14.198-29.41-36.617-29.41-59.973v-75.299c0-13.729 8.531-26.201 21.229-31.036 40.282-15.336 84.101-23.112 130.241-23.112 46.141 0 89.96 7.776 130.24 23.11 12.7 4.837 21.231 17.309 21.231 31.037v75.299c0 23.355-10.994 45.775-29.411 59.972-26.845 20.696-73.008 42.809-122.06 42.809zm-106.287-180.054c-5.805 1.948-9.742 7.353-9.742 13.476v63.798c0 12.443 5.834 24.369 15.607 31.904 22.222 17.13 60.272 35.434 100.421 35.434s78.199-18.305 100.421-35.435c9.773-7.534 15.608-19.461 15.608-31.903v-63.798c0-6.123-3.937-11.528-9.742-13.476-33.099-11.107-68.795-16.732-106.288-16.732-37.491.001-73.184 5.625-106.285 16.732z" fill="#6171a3"/><path d="m266.228 312.036c-5.376.635-10.823.988-16.313.988-40.149 0-78.199-18.305-100.421-35.434-9.773-7.535-15.607-19.462-15.607-31.904v-63.798c0-6.123 3.937-11.528 9.742-13.476 17.765-5.962 36.284-10.328 55.42-13.108-11.203-6.211-15.407-23.739-4.198-35.197-26.131 3.731-51.28 10.146-75.176 19.243-12.698 4.836-21.229 17.308-21.229 31.036v75.299c0 23.355 10.994 45.774 29.41 59.973 26.846 20.694 73.008 42.807 122.06 42.807 8.93 0 17.762-.74 26.401-2.064-11.961-5.151-17.972-23.954-10.089-34.365z" fill="#475a99"/><path d="m334.758 391.814c77.153-23.721 132.614-81.137 132.614-161.603 0-62.891-34.289-119.776-88.84-155.238-3.473-2.257-8.118-1.273-10.376 2.2s-1.272 8.118 2.2 10.376c48.832 31.744 82.016 83.238 82.016 142.662 0 46.53-20.238 86.477-58.527 115.524-36.851 27.955-87.966 43.351-143.93 43.351-104.149 0-202.457-55.523-202.457-158.874 0-57.404 31.808-111.31 85.18-144.638 3.594-.14 5.255-1.08 12.24-2.96h.001c2.027-.584 4.171-.584 6.2 0l7.888 2.268c11.354 3.265 22.763-5.005 23.169-16.833l.177-5.165c21.679-6.74 44.393-10.158 67.602-10.158 31.469 0 61.621 6.157 89.619 18.3 3.801 1.646 8.216-.095 9.865-3.896 1.648-3.8-.097-8.217-3.896-9.865-29.894-12.964-62.054-19.538-95.588-19.538-20.391 0-40.432 2.491-59.803 7.394 4.84-9.6.28-21.464-10.034-25.209l-7.715-2.801c-1.983-.721-3.719-1.981-5.017-3.645l-5.049-6.472c-7.266-9.314-21.358-9.331-28.637 0l-5.05 6.473c-1.298 1.664-3.032 2.924-5.016 3.644l-7.716 2.802c-11.124 4.04-15.462 17.448-8.849 27.236l4.595 6.8c1.181 1.749 1.844 3.788 1.916 5.898l.28 8.202c.122 3.581 1.272 6.956 3.262 9.792-53.188 36.367-84.626 92.551-84.626 152.372 0 31.362 8.424 59.143 23.326 82.984-.783.868-.731.885-5.885 7.467-1.299 1.664-3.033 2.924-5.018 3.645l-7.714 2.801c-11.126 4.04-15.463 17.448-8.85 27.237l4.595 6.801c1.181 1.748 1.844 3.787 1.915 5.897l.28 8.204c.405 11.805 11.797 20.106 23.169 16.832l7.89-2.268c2.027-.584 4.171-.583 6.2 0l7.889 2.268c11.367 3.271 22.762-5.021 23.168-16.833.417-7.13-.143-8.942 1.135-12.061 17.79 12.159 38.232 21.779 60.517 28.63-29.038 21.815-48.567 53.845-54.408 90.073-2.546 15.805 9.618 30.113 25.574 30.113h55c4.143 0 7.5-3.358 7.5-7.5s-3.357-7.5-7.5-7.5h-6.205c-3.157-32.184-13.218-60.45-27.722-78.083 7.819-8.434 16.846-15.853 26.913-22.006 20.791 4.717 42.874 7.173 65.687 7.173s44.896-2.456 65.688-7.173c10.067 6.153 19.094 13.572 26.913 22.006-14.504 17.633-24.566 45.9-27.722 78.083h-87.522c-4.143 0-7.5 3.358-7.5 7.5s3.357 7.5 7.5 7.5h136.321c15.977 0 28.118-14.332 25.573-30.114-5.841-36.229-25.368-68.262-54.405-90.075zm-213.758-357.805c4.929-2.233 12.983-3.043 19.438-11.319l5.05-6.472c1.261-1.617 3.711-1.63 4.982 0 3.686 4.041 6.895 11.402 16.773 14.99l7.715 2.801c1.937.703 2.694 3.033 1.54 4.74l-4.595 6.801c-5.882 8.709-4.153 16.565-4.758 21.985-.072 2.052-2.044 3.5-4.032 2.929-5.424-1.117-12.273-5.174-22.379-2.268l-7.89 2.268c-1.98.569-3.961-.87-4.031-2.93-.6-5.378 1.118-13.288-4.759-21.985l-4.595-6.8c-1.154-1.71-.392-4.038 1.541-4.74zm-32.569 340.724c-.072 2.066-2.061 3.497-4.032 2.929l-7.889-2.268c-10.1-2.904-17.003 1.161-22.379 2.268-1.98.57-3.962-.871-4.032-2.929-.6-5.378 1.118-13.289-4.759-21.986l-4.595-6.8c-1.151-1.705-.4-4.036 1.541-4.741 5.035-2.281 12.97-3.028 19.438-11.319l3.007-3.854c7.873 10.173 17.102 19.552 27.618 28.058-4.83 8.172-3.338 14.852-3.918 20.642zm81.527 122.268h-33.717c-6.905 0-11.816-6.209-10.766-12.726 3.161-19.604 10.814-37.832 22.12-53.496 11.466 15.185 19.508 38.926 22.363 66.222zm193.632 0h-33.718c2.855-27.297 10.896-51.038 22.362-66.223 11.306 15.664 18.959 33.893 22.12 53.497 1.052 6.528-3.87 12.726-10.764 12.726zm111.245-112.657-7.714-2.801c-1.984-.721-3.719-1.981-5.018-3.646l-5.048-6.471c-7.352-9.423-21.456-9.204-28.639 0l-5.047 6.471c-1.299 1.665-3.034 2.925-5.017 3.645l-7.717 2.802c-11.103 4.031-15.473 17.431-8.849 27.235l4.595 6.801c1.182 1.75 1.845 3.789 1.916 5.897l.28 8.204c.407 11.841 11.83 20.095 23.168 16.832l7.889-2.268h.001c2.027-.583 4.171-.583 6.2 0l7.888 2.268c11.355 3.264 22.764-5.006 23.17-16.832l.28-8.203c.071-2.11.734-4.149 1.914-5.897l4.597-6.803c6.614-9.787 2.273-23.195-8.849-27.234zm-3.578 18.838c-2.695 4.737-8.714 10.081-9.074 20.584l-.28 8.203c-.071 2.068-2.058 3.494-4.032 2.929l-7.888-2.268c-10.1-2.905-17.011 1.163-22.381 2.269-1.979.569-3.96-.871-4.03-2.929-.607-5.436 1.123-13.276-4.759-21.985l-4.595-6.802c-1.156-1.71-.394-4.038 1.539-4.739 4.982-2.257 12.975-3.034 19.44-11.32l5.047-6.471c1.265-1.621 3.717-1.624 4.984 0 3.679 4.034 6.895 11.402 16.772 14.99l7.714 2.801c1.939.703 2.693 3.033 1.543 4.738zm-354.251-270.841c-15.588 5.936-26.061 21.225-26.061 38.045v75.299c0 25.664 12.086 50.304 32.331 65.913 27.824 21.449 75.704 44.367 126.639 44.367 50.937 0 98.815-22.919 126.639-44.368 20.245-15.607 32.332-40.247 32.332-65.912v-75.299c0-16.82-10.474-32.11-26.063-38.046-41.136-15.661-85.853-23.602-132.908-23.602-47.056 0-91.773 7.941-132.909 23.603zm276.879 38.045v75.299c0 21.046-9.903 41.245-26.49 54.032-25.866 19.94-70.311 41.248-117.48 41.248-47.167 0-91.613-21.307-117.481-41.247-16.587-12.788-26.489-32.987-26.489-54.033v-75.299c0-10.636 6.59-20.292 16.399-24.027 39.425-15.01 82.347-22.621 127.571-22.621 45.225 0 88.146 7.61 127.57 22.62 9.81 3.736 16.4 13.392 16.4 24.028zm-252.643-9.085c-8.886 2.981-14.855 11.254-14.855 20.586v63.797c0 14.752 6.927 28.899 18.528 37.844 23.2 17.884 62.968 36.995 105 36.995 42.033 0 81.8-19.11 105-36.995 11.603-8.945 18.529-23.092 18.529-37.843v-63.797c0-9.332-5.97-17.605-14.855-20.586-33.855-11.361-70.418-17.122-108.674-17.122-38.254 0-74.818 5.76-108.673 17.121zm217.202 20.587v63.797c0 10.133-4.743 19.839-12.688 25.963-21.243 16.376-57.577 33.875-95.842 33.875s-74.599-17.499-95.842-33.875c-7.944-6.124-12.687-15.83-12.687-25.964v-63.797c0-2.879 1.859-5.437 4.627-6.366 32.315-10.844 67.273-16.342 103.901-16.342 36.63 0 71.588 5.499 103.902 16.342 2.77.93 4.629 3.488 4.629 6.367zm-117.475 56.881c-2.721-3.123-7.459-3.448-10.581-.727-3.123 2.721-3.449 7.458-.728 10.582 5.108 5.862 12.491 9.225 20.255 9.225 7.763 0 15.145-3.362 20.255-9.224 2.722-3.123 2.397-7.86-.726-10.582-3.122-2.722-7.861-2.397-10.581.726-2.261 2.593-5.521 4.08-8.948 4.08-3.427-.001-6.688-1.488-8.946-4.08zm56.704-3.662c4.143 0 7.5-3.358 7.5-7.5 0-3.455 2.81-6.265 6.265-6.265s6.266 2.811 6.266 6.265c0 4.142 3.358 7.5 7.5 7.5 4.143 0 7.5-3.358 7.5-7.5 0-11.726-9.54-21.265-21.266-21.265s-21.265 9.54-21.265 21.265c0 4.142 3.357 7.5 7.5 7.5zm-109.281-28.765c-11.726 0-21.265 9.54-21.265 21.265 0 4.142 3.357 7.5 7.5 7.5s7.5-3.358 7.5-7.5c0-3.455 2.811-6.265 6.265-6.265 3.455 0 6.266 2.811 6.266 6.265 0 4.142 3.357 7.5 7.5 7.5s7.5-3.358 7.5-7.5c0-11.725-9.54-21.265-21.266-21.265z"/></g></svg>