<svg id="Capa_1" enable-background="new 0 0 512.007 512.007" height="512" viewBox="0 0 512.007 512.007" width="512" xmlns="http://www.w3.org/2000/svg"><g><ellipse cx="71.803" cy="275.856" fill="#f2bb88" rx="46.798" ry="41.909"/><ellipse cx="440.204" cy="275.856" fill="#f2bb88" rx="46.798" ry="41.909"/><path d="m354.809 504.507c9.881 0 17.365-8.863 15.793-18.618-8.909-55.26-56.824-97.465-114.598-97.465s-105.69 42.206-114.598 97.466c-1.572 9.755 5.912 18.618 15.793 18.618h197.61z" fill="#8cd6fe"/><path d="m370.602 485.89c-8.908-55.26-56.824-97.465-114.598-97.465-34.374 0-65.258 14.942-86.513 38.684 27.637 9.249 57.338 13.597 86.795 13.597-.494 4.714-.744 9.481-.723 14.289.091 20.909 1.428 36.585 2.99 49.513h96.257c9.88-.001 17.364-8.864 15.792-18.618z" fill="#5fc5fc"/><path d="m438.497 266.096c0 88.802-81.705 144.612-182.494 144.612s-182.493-55.811-182.493-144.612c0-88.802 81.705-160.79 182.494-160.79s182.493 71.988 182.493 160.79z" fill="#f2d1a5"/><g><g><ellipse cx="176.359" cy="298.947" fill="#eda1ab" rx="29.387" ry="23.403"/><ellipse cx="335.648" cy="298.947" fill="#eda1ab" rx="29.387" ry="23.403"/><path d="m279.697 280.966c0-14.643-10.608-16.019-23.694-16.019-13.085 0-23.693 1.376-23.693 16.019s10.608 26.513 23.693 26.513c13.086-.001 23.694-11.871 23.694-26.513z" fill="#4e5660"/></g></g><path d="m256.004 78.164c-239.428 0-232.413 194.188-181.85 201.372 35.746 5.078 60.379-32.047 70.349-62.394 1.82-5.541 7.362-8.933 13.149-8.213 30.483 3.794 72.193-4.057 93.297-13.627 3.219-1.46 6.892-1.46 10.111 0 21.103 9.57 62.813 17.421 93.297 13.627 5.787-.72 11.329 2.672 13.149 8.213 9.97 30.347 34.603 67.473 70.349 62.394 50.562-7.184 57.577-201.372-181.851-201.372z" fill="#6171a3"/><path d="m264.997 112.265c-12.66 0-22.923-10.263-22.923-22.923 0-30.216 16.291-58.601 44.697-77.876 10.479-7.111 24.731-4.379 31.84 6.097 7.109 10.475 4.379 24.731-6.097 31.839-15.63 10.606-24.594 25.164-24.594 39.94 0 12.66-10.262 22.923-22.923 22.923z" fill="#d5364c"/><path d="m256.004 53.118c64.285 0 94.161 7.926 118.994 32.759 8.316 8.316 13.459 19.804 13.459 32.493 0 25.378-20.573 45.952-45.952 45.952-35.082 0-43.755-22.655-86.501-22.655s-51.419 22.655-86.501 22.655c-25.379 0-45.952-20.573-45.952-45.952 0-12.689 5.143-24.177 13.459-32.493 24.833-24.834 54.708-32.759 118.994-32.759z" fill="#de5c6e"/><path d="m232.477 144.383c-40.365-7.733-41.161-65.972-21.283-89.378-35.105 3.581-56.005 12.692-74.185 30.872-8.316 8.316-13.459 19.804-13.459 32.493 0 25.379 20.573 45.952 45.952 45.952 27.508 0 38.784-13.925 62.975-19.939z" fill="#d5364c"/><path d="m446.89 504.507c11.561 0 22.163-6.78 26.67-17.426 3.961-9.357 6.394-20.504 6.394-34.249 0-53.44-43.127-96.807-96.475-97.195-54.284-.396-98.151 44.944-97.917 99.229.079 18.314 1.226 34.831 3.226 49.642h158.102z" fill="#d2996f"/><circle cx="338.093" cy="451.583" fill="#f5ea72" r="18.601"/><circle cx="393.827" cy="408.026" fill="#4dc176" r="18.601"/><path d="m393.827 381.924c-14.393 0-26.102 11.709-26.102 26.101 0 14.393 11.709 26.102 26.102 26.102 14.392 0 26.101-11.709 26.101-26.102 0-14.392-11.709-26.101-26.101-26.101zm0 37.203c-6.121 0-11.102-4.98-11.102-11.102 0-6.121 4.98-11.101 11.102-11.101 6.121 0 11.101 4.98 11.101 11.101 0 6.122-4.98 11.102-11.101 11.102zm21.298-65.908c7.221-8.8 13.241-18.311 17.987-28.385 32.87 3.918 61.391-19.49 61.391-48.978 0-15.53-7.853-29.831-21.215-39.152 2.27-21.857-2.265-46.27-12.814-68.025-13.714-28.283-37.077-51.909-67.677-68.488-2.63-7.291-6.853-13.975-12.496-19.618-15.419-15.419-32.666-24.808-57.928-29.918 9.037-10.161 10.419-25.551 2.444-37.305-4.564-6.725-11.472-11.269-19.451-12.798-7.984-1.531-16.083.143-22.806 4.707-16.029 10.877-28.727 24.79-36.991 40.441-59.695.919-89.131 10.141-113.862 34.873-5.654 5.654-9.883 12.352-12.512 19.659-15.227 8.25-28.696 18.194-40.026 29.635-2.914 2.943-2.892 7.692.052 10.606 2.938 2.911 7.687 2.896 10.607-.051 7.685-7.76 16.491-14.77 26.252-20.97.581 28.974 24.314 52.369 53.424 52.369 37.225 0 46.015-22.655 86.502-22.655 40.499 0 49.232 22.655 86.502 22.655 29.108 0 52.84-23.393 53.423-52.364 22.774 14.512 40.285 33.57 51.048 55.767 10.269 21.177 14.155 45.026 10.663 65.432-3.036 17.74-11.217 30.086-20.842 31.454-13.691 1.942-26.585-3.328-38.36-15.665-9.815-10.283-18.492-25.462-23.809-41.644-2.917-8.881-11.825-14.486-21.201-13.314-28.426 3.539-69.111-3.872-89.272-13.016-5.181-2.349-11.123-2.348-16.306 0-20.16 9.143-60.845 16.552-89.271 13.015-9.37-1.166-18.284 4.433-21.201 13.314-9.51 28.946-31.929 61.603-62.169 57.31-5.952-.846-11.492-5.965-15.6-14.416-13.394-27.555-4.345-66.273 9.73-90.585 2.076-3.585.853-8.173-2.732-10.249-3.586-2.075-8.174-.851-10.248 2.733-15.586 26.92-19.993 54.688-17.638 77.11-13.362 9.32-21.216 23.622-21.216 39.153 0 29.568 28.616 52.853 61.284 48.984 19.291 41.115 57.934 68.308 101.413 82.069-24.628 19.079-41.183 46.663-46.2 77.788-2.307 14.307 8.699 27.311 23.196 27.311h243.708c4.143 0 7.5-3.358 7.5-7.5s-3.357-7.5-7.5-7.5h-105.494c-1.497-13.163-2.287-27.317-2.352-42.174-.221-50.826 40.953-92.143 90.362-91.696 49.091.357 89.029 40.595 89.029 89.695 0 11.857-1.897 22.104-5.801 31.325-3.305 7.806-11.063 12.85-19.764 12.85h-10.701c-4.143 0-7.5 3.358-7.5 7.5s3.357 7.5 7.5 7.5h10.701c14.739 0 27.919-8.637 33.576-22.002 13.417-31.694 8.926-78.378-23.422-110.95-11.923-12.008-26.259-20.767-41.917-25.837zm-124.142-335.547c3.41-2.314 7.514-3.163 11.561-2.386 4.045.775 7.548 3.079 9.861 6.489 4.775 7.037 2.935 16.646-4.102 21.421-2.058 1.396-4.043 2.895-5.944 4.465-11.541-1.221-24.53-1.858-39.351-2.006 6.973-10.636 16.468-20.176 27.975-27.983zm51.523 139.15c-32.372 0-42.071-22.655-86.502-22.655-44.37 0-54.169 22.655-86.502 22.655-21.202 0-38.451-17.25-38.451-38.452 0-10.271 4-19.928 11.263-27.189 23.136-23.136 50.761-30.563 113.69-30.563s90.555 7.426 113.691 30.563c7.262 7.261 11.262 16.918 11.262 27.189 0 21.202-17.249 38.452-38.451 38.452zm102.193 128.668c11.365-4.197 20.463-15.723 25.328-32 6.043 6.156 9.476 14.03 9.476 22.366 0 18.876-17.785 35.005-40.542 34.375 2.667-7.987 4.591-16.255 5.738-24.741zm-402.702-32.007c4.039 13.601 12.113 27.148 25.315 32.007 1.142 8.536 3.028 16.797 5.654 24.743-34.292.885-52.967-34.377-30.969-56.75zm238.338 243.524h-123.137c-5.348 0-9.212-4.808-8.388-9.924 5.037-31.246 23.307-58.449 50.294-75.067 27.907 6.291 57.47 7.689 85.802 4.644-4.549 12.057-6.901 24.964-6.844 38.237.065 14.773.835 28.886 2.273 42.11zm12.25-96.432c-91.762 13.465-195.001-24.474-209.806-113.12 34.517-1.266 58.414-36.208 68.849-67.973.685-2.085 2.829-3.391 5.098-3.111 31.95 3.98 75.392-4.295 97.319-14.238 1.244-.564 2.673-.565 3.917-.001 21.928 9.944 65.368 18.216 97.32 14.239 2.269-.28 4.412 1.026 5.098 3.111 3.52 10.713 11.733 31.106 27.208 47.319 12.435 13.029 26.672 20.042 41.638 20.643-3.875 23.336-14.141 44.103-30.607 61.882-43.703-6.608-84.649 14.717-106.034 51.249zm19.407 51.008c0 14.393 11.709 26.102 26.102 26.102 14.392 0 26.101-11.709 26.101-26.102 0-14.392-11.709-26.101-26.101-26.101-14.393 0-26.102 11.709-26.102 26.101zm37.202 0c0 6.122-4.979 11.102-11.101 11.102-6.121 0-11.102-4.98-11.102-11.102 0-6.121 4.98-11.101 11.102-11.101s11.101 4.98 11.101 11.101zm-18.458-200.076c-4.143 0-7.5 3.358-7.5 7.5v12c0 4.142 3.357 7.5 7.5 7.5s7.5-3.358 7.5-7.5v-12c0-4.142-3.357-7.5-7.5-7.5zm-149.465 0c-4.143 0-7.5 3.358-7.5 7.5v12c0 4.142 3.357 7.5 7.5 7.5s7.5-3.358 7.5-7.5v-12c0-4.142-3.357-7.5-7.5-7.5zm94.878 9.269c-5.448-2.763-11.993-3.329-20.146-3.329-8.152 0-14.697.566-20.145 3.329-5.04 2.556-11.048 8.133-11.048 20.189 0 18.755 13.993 34.013 31.193 34.013s31.193-15.258 31.193-34.013c.001-12.056-6.007-17.633-11.047-20.189zm-20.145 39.202c-8.929 0-16.193-8.529-16.193-19.013 0-5.907.655-8.518 16.193-8.518s16.193 2.611 16.193 8.518c0 10.484-7.265 19.013-16.193 19.013z"/></g></svg>