<svg id="Capa_1" enable-background="new 0 0 512 512" height="512" viewBox="0 0 512 512" width="512" xmlns="http://www.w3.org/2000/svg"><g><path d="m85.084 379.669c-14.424 0-26.116 11.032-26.116 24.64s11.693 24.64 26.116 24.64h13.463c-10.772 3.038-18.626 12.455-18.626 23.606 0 13.608 11.693 24.64 26.116 24.64h107.693v-97.526z" fill="#d4d4ff"/><path d="m426.916 379.669c14.424 0 26.116 11.032 26.116 24.64s-11.693 24.64-26.116 24.64h-13.463c10.772 3.038 18.626 12.455 18.626 23.606 0 13.608-11.693 24.64-26.116 24.64h-107.692v-97.526z" fill="#d4d4ff"/><ellipse cx="89.847" cy="298.251" fill="#b8866b" rx="42.213" ry="37.803"/><ellipse cx="422.153" cy="298.251" fill="#b8866b" rx="42.213" ry="37.803"/><path d="m345.125 504.5c8.913 0 15.664-7.995 14.245-16.794-8.035-49.846-51.257-87.916-103.37-87.916s-95.335 38.07-103.37 87.916c-1.419 8.799 5.332 16.794 14.245 16.794z" fill="#8cd6fe"/><path d="m256 449.89c28.354 0 55.533-4.426 80.092-12.813-19.207-22.793-47.951-37.287-80.092-37.287s-60.885 14.493-80.092 37.287c24.559 8.387 51.738 12.813 80.092 12.813z" fill="#5fc5fc"/><path d="m420.614 289.446c0 80.101-73.7 130.444-164.614 130.444s-164.614-50.342-164.614-130.444 73.7-145.036 164.614-145.036 164.614 64.935 164.614 145.036z" fill="#cc9e83"/><path d="m259.386 195.436c28.066 22.181 73.205 24.814 99.508 18.632 4.076-.958 7.839 2.579 7.123 6.704-7.987 46.046 12.804 70.676 38.098 70.676 24.981 0 42.917-14.281 42.917-36.763 0-14.014-6.374-26.537-16.38-34.833-2.901-2.405-4.143-6.256-3.069-9.868 10.952-36.818-22.704-73.334-64.719-68.48-3.869.447-7.629-1.522-9.432-4.975-10.077-19.298-31.555-32.629-56.44-32.629-13.333 0-25.683 3.834-35.832 10.357-3.129 2.011-7.193 2.011-10.321 0-10.149-6.522-22.499-10.357-35.832-10.357-24.885 0-46.363 13.332-56.44 32.629-1.803 3.453-5.563 5.422-9.432 4.975-42.015-4.854-75.671 31.661-64.719 68.48 1.074 3.612-.168 7.463-3.069 9.868-10.006 8.296-16.38 20.82-16.38 34.833 0 22.483 17.936 36.763 42.917 36.763 25.295 0 46.085-24.63 38.098-70.676-.715-4.125 3.048-7.662 7.123-6.704 26.303 6.183 71.441 3.549 99.508-18.632 1.996-1.577 4.778-1.577 6.773 0z" fill="#6171a3"/><g><g fill="#eda1ab"><ellipse cx="177.623" cy="316.976" rx="28.919" ry="23.03"/><ellipse cx="334.377" cy="316.976" rx="28.92" ry="23.03"/></g></g><path d="m426.917 372.168h-29.981c7.827-8.865 14.258-18.572 19.204-28.947 29.756 3.281 55.727-17.959 55.727-44.971 0-13.706-6.69-26.426-18.137-34.984 3.193-16.854-2.947-36.468-18.29-49.188-.618-.513-.874-1.262-.667-1.956 5.724-19.245 1.199-39.34-12.413-55.131-2.705-3.137-7.44-3.488-10.578-.784-3.137 2.705-3.488 7.441-.784 10.578 10.21 11.845 13.636 26.811 9.397 41.06-1.92 6.454.227 13.433 5.47 17.781 21.727 18.014 19.822 58.323-21.75 58.323-8.788 0-16.455-3.592-22.173-10.387-9.34-11.1-12.372-29.393-8.536-51.507 1.633-9.416-6.922-17.476-16.229-15.287-26.662 6.267-68.368 2.363-93.141-17.215-4.732-3.74-11.342-3.74-16.073 0-24.773 19.578-66.48 23.482-93.141 17.215-9.304-2.188-17.863 5.868-16.229 15.287 3.836 22.115.805 40.408-8.536 51.508-5.718 6.795-13.385 10.387-22.173 10.387-21.515 0-35.418-11.487-35.418-29.264 0-11.267 4.981-21.858 13.667-29.06 5.243-4.348 7.391-11.327 5.47-17.78-9.33-31.369 19.691-63.169 56.671-58.891 6.918.796 13.726-2.8 16.94-8.954 14.701-28.152 53.85-37.248 81.57-19.435 5.598 3.598 12.833 3.597 18.43 0 27.743-17.829 66.87-8.713 81.569 19.434 3.214 6.155 10.021 9.751 16.941 8.955 7.082-.82 14.072-.34 20.772 1.426 4.007 1.055 8.108-1.337 9.163-5.343s-1.337-8.108-5.343-9.163c-8.513-2.243-17.367-2.854-26.313-1.822-.794.095-1.564-.309-1.923-.996-17.538-33.586-61.862-46.326-96.581-28.761v-23.461c22.288-.642 43.099-4.127 59.243-9.992 26.055-9.466 31.524-21.739 31.524-30.367s-5.469-20.901-31.524-30.367c-17.943-6.519-41.646-10.109-66.742-10.109s-48.799 3.59-66.743 10.109c-26.055 9.466-31.524 21.738-31.524 30.367s5.469 20.901 31.524 30.367c16.144 5.865 36.955 9.35 59.243 9.992v23.461c-34.672-17.541-79.02-4.866-96.581 28.762-.358.687-1.137 1.083-1.922.996-47-5.434-85.363 35.732-72.769 78.069.207.693-.049 1.443-.667 1.955-15.322 12.704-21.49 32.317-18.288 49.199-11.444 8.557-18.139 21.27-18.139 34.974 0 27.041 26.001 48.249 55.727 44.971 4.946 10.375 11.377 20.083 19.204 28.947h-29.981c-18.536 0-33.616 14.418-33.616 32.14 0 15.233 11.143 28.025 26.044 31.318-13.848 21.27 2.158 49.068 28.525 49.068h39.507c-.108.605-.22 1.21-.318 1.818-2.153 13.355 8.122 25.487 21.649 25.487h10.817c4.142 0 7.5-3.358 7.5-7.5s-3.358-7.5-7.5-7.5h-10.817c-4.207 0-7.539-3.769-6.841-8.1 4.491-27.858 20.743-52.129 44.761-67.024 32.502 7.269 69.124 7.444 102.411 0 24.017 14.895 40.269 39.166 44.761 67.024.699 4.335-2.634 8.1-6.841 8.1h-131.396c-4.142 0-7.5 3.358-7.5 7.5s3.358 7.5 7.5 7.5h131.395c13.526 0 23.802-12.131 21.649-25.487-.098-.608-.211-1.212-.319-1.818h39.507c26.318 0 42.406-27.748 28.525-49.068 14.901-3.292 26.044-16.085 26.044-31.318.002-17.723-15.078-32.141-33.614-32.141zm1.096-77.834c8.474-3.625 15.295-9.245 19.896-16.375 19.984 19.291 4.439 50.662-25.91 50.59 3.544-10.884 5.575-22.348 6.014-34.215zm-255.28-253.858c0-8.891 28.598-25.476 83.267-25.476s83.267 16.585 83.267 25.476-28.598 25.476-83.267 25.476-83.267-16.585-83.267-25.476zm-108.628 237.504c4.6 7.12 11.417 12.733 19.883 16.354.438 11.867 2.47 23.33 6.014 34.215-30.169.072-45.985-31.188-25.897-50.569zm85.186 191.715h-43.254c-10.265 0-18.616-7.689-18.616-17.14 0-7.463 5.413-14.202 13.162-16.388 3.604-1.017 5.906-4.537 5.393-8.246-.513-3.71-3.684-6.472-7.429-6.472h-13.463c-10.265 0-18.616-7.689-18.616-17.14s8.351-17.14 18.616-17.14h45.557c16.307 13.411 35.401 23.107 55.409 29.599-17.241 13.708-29.987 32.063-36.759 52.927zm-5.158-90.964c-27.113-20.568-42.509-48.203-44.907-80.332 18.372 2.351 32.384-3.386 42.309-15.181 11.868-14.103 16.18-35.813 12.232-61.326 25.218 5.214 71.085 4.086 102.233-19.593 31.148 23.679 77.014 24.806 102.233 19.593-3.948 25.512.364 47.222 12.232 61.326 8.536 10.144 20.486 15.73 33.65 15.73 2.98 0 5.865-.192 8.652-.548-2.398 32.128-17.788 59.764-44.901 80.331-59.044 44.792-164.252 45.122-223.733 0zm282.784 42.718h-13.463c-3.745 0-6.916 2.763-7.429 6.472-.513 3.71 1.789 7.229 5.393 8.246 7.75 2.186 13.162 8.925 13.162 16.388 0 9.451-8.351 17.14-18.616 17.14h-43.256c-6.774-20.863-19.519-39.219-36.763-52.926 20.051-6.505 39.134-16.211 55.415-29.601h45.557c10.265 0 18.616 7.689 18.616 17.14s-8.351 17.141-18.616 17.141zm-109.395-150.799c-11.726 0-21.265 9.54-21.265 21.265 0 4.142 3.358 7.5 7.5 7.5s7.5-3.358 7.5-7.5c0-3.455 2.811-6.265 6.265-6.265 3.455 0 6.265 2.81 6.265 6.265 0 4.142 3.358 7.5 7.5 7.5s7.5-3.358 7.5-7.5c.001-11.725-9.539-21.265-21.265-21.265zm64.069 150.799h-11.775c-4.142 0-7.5 3.358-7.5 7.5s3.358 7.5 7.5 7.5h11.775c4.142 0 7.5-3.358 7.5-7.5s-3.358-7.5-7.5-7.5zm-258.682 7.5c0 4.142 3.358 7.5 7.5 7.5h11.775c4.142 0 7.5-3.358 7.5-7.5s-3.358-7.5-7.5-7.5h-11.775c-4.142 0-7.5 3.358-7.5 7.5zm152.619-126.6c-3.122-2.721-7.86-2.396-10.581.727-2.259 2.593-5.521 4.08-8.947 4.08s-6.688-1.487-8.947-4.08c-2.721-3.123-7.459-3.448-10.582-.727s-3.448 7.458-.727 10.582c5.109 5.863 12.492 9.225 20.255 9.225s15.147-3.362 20.255-9.225c2.723-3.123 2.397-7.861-.726-10.582zm-81.05-31.699c-11.726 0-21.265 9.54-21.265 21.265 0 4.142 3.358 7.5 7.5 7.5s7.5-3.358 7.5-7.5c0-3.455 2.811-6.265 6.265-6.265 3.455 0 6.265 2.81 6.265 6.265 0 4.142 3.358 7.5 7.5 7.5s7.5-3.358 7.5-7.5c0-11.725-9.54-21.265-21.265-21.265z"/></g></svg>