<svg id="Capa_1" enable-background="new 0 0 512 512" height="512" viewBox="0 0 512 512" width="512" xmlns="http://www.w3.org/2000/svg"><g><g fill="#5ec783"><path d="m397.269 269.413c0 23.797 20.364 43.088 46.937 43.088s41.642-17.262 50.472-43.088c8.42-24.627 11.213-83.568-15.361-83.568-26.572 0-82.048 59.771-82.048 83.568z"/><path d="m114.731 269.413c0 23.797-20.364 43.088-46.937 43.088s-41.642-17.262-50.472-43.088c-8.42-24.627-11.213-83.568 15.361-83.568 26.572 0 82.048 59.771 82.048 83.568z"/><path d="m357.586 504.5c10.159 0 17.854-9.112 16.237-19.142-9.159-56.815-58.423-100.208-117.823-100.208s-108.664 43.393-117.823 100.208c-1.617 10.029 6.078 19.142 16.237 19.142z"/></g><path d="m256 438.06c31.239 0 61.19-4.772 88.32-13.827-21.832-24.008-53.314-39.083-88.32-39.083s-66.489 15.075-88.32 39.083c27.131 9.055 57.082 13.827 88.32 13.827z" fill="#3cb767"/><path d="m443.63 259.378c0 91.301-84.005 148.682-187.63 148.682s-187.63-57.381-187.63-148.682 84.005-165.315 187.63-165.315 187.63 74.014 187.63 165.315z" fill="#cc9e83"/><path d="m249.792 67.854c-145.775-28.198-193.91 88.075-193.9 154.961.002 14.285 16.472 22.406 27.704 13.58 19.17-15.063 41.705-38.427 55.767-58.426-.274 13.565.984 23.332 2.479 30.603 1.403 6.823 8.596 10.779 15.128 8.359 26.007-9.634 68.696-32.235 92.596-59.408 3.409-3.876 9.461-3.876 12.87 0 23.899 27.173 66.589 49.774 92.596 59.408 6.532 2.42 13.726-1.536 15.128-8.359 1.495-7.271 2.753-17.038 2.479-30.603 14.062 19.999 36.596 43.363 55.766 58.426 11.232 8.826 27.702.705 27.704-13.58.01-66.886-48.125-183.159-193.9-154.961-4.098.793-8.32.793-12.417 0z" fill="#6171a3"/><ellipse cx="256" cy="161.008" fill="#efedff" rx="54.395" ry="54.395" transform="matrix(.707 -.707 .707 .707 -38.869 228.178)"/><path d="m304.275 186.067c-69.25-3.771-70.636-58.952-60.63-78.027-24.086 5.597-42.039 27.179-42.039 52.968 0 30.041 24.353 54.395 54.395 54.395 21-.001 39.209-11.91 48.274-29.336z" fill="#d4d4ff"/><circle cx="256" cy="161.008" fill="#5ec783" r="20.581"/><ellipse cx="60.737" cy="36.691" fill="#5ec783" rx="33.007" ry="29.191"/><ellipse cx="451.263" cy="36.691" fill="#5ec783" rx="33.007" ry="29.191"/><g><g><ellipse cx="172.154" cy="291.7" fill="#eda1ab" rx="30.938" ry="24.637"/><ellipse cx="339.847" cy="291.7" fill="#eda1ab" rx="30.938" ry="24.637"/><ellipse cx="256" cy="272.77" fill="#4e5660" rx="16.423" ry="18.377"/></g></g><path d="m241.706 146.219c-3.871 3.742-6.287 8.979-6.287 14.789 0 11.367 9.214 20.581 20.581 20.581 4.687 0 8.994-1.585 12.455-4.223-14.933-7.643-23.043-19.273-26.749-31.147z" fill="#3cb767"/><path d="m177.325 242.469c-4.142 0-7.5 3.358-7.5 7.5v12c0 4.142 3.358 7.5 7.5 7.5s7.5-3.358 7.5-7.5v-12c0-4.142-3.358-7.5-7.5-7.5zm321.4-53.736c-4.858-6.796-11.569-10.388-19.406-10.388-5.824 0-12.573 2.063-20.135 6.118-8.083-36.003-26.251-70.309-54.732-94.289 5.087-9.871 8.922-18.917 17.713-27.995 7.369 6.901 17.686 11.204 29.098 11.204 22.336 0 40.508-16.459 40.508-36.691s-18.172-36.692-40.508-36.692-40.507 16.459-40.507 36.691c0 4.589.943 8.979 2.649 13.032-10.392 10.032-15.169 19.477-21.116 31.279-8.474-5.705-17.54-10.478-27.134-14.235-3.857-1.511-8.209.391-9.719 4.248-1.511 3.857.392 8.208 4.248 9.718 8.858 3.469 17.221 7.914 25.023 13.258-5.624 7.612-13.708 14.043-29.432 19.303-3.929 1.314-6.048 5.564-4.733 9.492 1.305 3.902 5.538 6.054 9.491 4.733 19.272-6.447 29.617-15.047 36.542-24.33 33.686 29.431 52.041 77.448 52.034 119.624-.002 8.06-9.255 12.645-15.57 7.684-19.11-15.017-40.918-37.86-54.266-56.843-4.243-6.035-13.784-2.916-13.633 4.466.218 10.794-.543 20.261-2.327 28.942-.481 2.34-2.97 3.653-5.176 2.836-14.16-5.246-30.817-13.451-45.69-22.446 3.808-8.024 5.948-16.989 5.948-26.446 0-34.129-27.766-61.895-61.895-61.895s-61.895 27.766-61.895 61.895c0 9.457 2.139 18.421 5.948 26.446-14.872 8.994-31.529 17.2-45.689 22.445-2.232.829-4.701-.521-5.177-2.836-1.784-8.678-2.544-18.145-2.326-28.941.15-7.379-9.388-10.505-13.634-4.466-13.348 18.983-35.155 41.826-54.265 56.842-6.314 4.959-15.569.38-15.57-7.684-.005-34.612 13.692-86.181 52.013-119.651 6.925 9.293 17.272 17.903 36.561 24.356 3.921 1.31 8.175-.797 9.492-4.733 1.314-3.928-.805-8.178-4.733-9.492-15.75-5.269-23.834-11.712-29.459-19.34 31.86-21.821 72.53-28.132 121.101-18.737 5.064.98 10.201.981 15.264 0 22.285-4.31 43.217-5.295 62.21-2.931 4.104.517 7.857-2.405 8.369-6.516.512-4.11-2.405-7.857-6.516-8.369-20.562-2.561-43.076-1.521-66.912 3.089-3.173.613-6.393.613-9.567 0-45.667-8.834-92.427-5.765-131.516 20.49-6.038-11.98-10.745-21.255-21.105-31.257 10.086-23.953-9.571-49.721-37.857-49.721-22.335 0-40.507 16.459-40.507 36.691s18.171 36.691 40.507 36.691c11.416 0 21.736-4.306 29.106-11.211 8.784 9.071 12.604 18.101 17.695 27.982-30.637 25.796-47.409 61.849-54.678 94.332-7.58-4.071-14.343-6.14-20.178-6.14-7.837 0-14.548 3.592-19.407 10.389-14.173 19.824-9.595 63.965-3.05 83.105 10.926 31.959 30.295 48.163 57.569 48.163 2.084 0 4.171-.111 6.247-.327 19.943 42.339 59.447 70.256 104.441 84.422-25.438 19.591-42.539 47.998-47.709 80.067-2.352 14.585 8.868 27.836 23.641 27.836h11.204c4.142 0 7.5-3.358 7.5-7.5s-3.358-7.5-7.5-7.5h-11.204c-5.643 0-9.698-5.074-8.833-10.448 5.191-32.203 24.028-60.236 51.851-77.351 18.548 4.183 38.235 6.359 58.568 6.359 20.332 0 40.02-2.176 58.567-6.359 27.823 17.115 46.66 45.148 51.852 77.351.867 5.375-3.191 10.448-8.833 10.448h-156.057c-4.142 0-7.5 3.358-7.5 7.5s3.358 7.5 7.5 7.5h156.057c14.769 0 25.995-13.249 23.642-27.835-5.17-32.067-22.26-60.481-47.693-80.072 44.686-14.073 84.375-41.856 104.425-84.418 2.076.216 4.162.327 6.246.327 27.274 0 46.644-16.204 57.569-48.163 6.545-19.141 11.123-63.282-3.05-83.106zm-47.462-173.733c14.065 0 25.508 9.731 25.508 21.691 0 11.961-11.442 21.691-25.508 21.691-14.064 0-25.507-9.731-25.507-21.691s11.442-21.691 25.507-21.691zm-390.526 43.383c-14.065 0-25.507-9.731-25.507-21.691 0-11.961 11.443-21.692 25.507-21.692s25.507 9.731 25.507 21.691c.001 11.961-11.442 21.692-25.507 21.692zm-36.319 208.604c-8.027-23.477-8.561-73.642 8.264-73.642 2.53 0 7.961.961 17.337 6.819-1.105 8.024-1.628 15.66-1.627 22.652.001 9.262 5.043 17.551 13.198 21.847-1.941 20.256 0 40.808 6.546 60.331-23.646.203-36.07-15.637-43.718-38.007zm231.582-152.874c25.857 0 46.895 21.037 46.895 46.895s-21.037 46.894-46.895 46.894-46.895-21.037-46.895-46.895 21.037-46.894 46.895-46.894zm0 286.447c-100.122 0-188.003-56.643-179.582-153.248 4.218-.58 8.293-2.255 11.812-5.02 14.842-11.663 31.241-27.822 44.488-43.544.433 3.907 1.024 7.675 1.777 11.335 2.332 11.344 14.264 17.89 25.08 13.881 15.077-5.585 32.774-14.307 48.502-23.837 11.36 13.89 28.621 22.775 47.923 22.775s36.563-8.885 47.923-22.775c15.73 9.531 33.427 18.253 48.503 23.838 10.841 4.015 22.755-2.568 25.08-13.882.752-3.661 1.344-7.429 1.776-11.335 13.246 15.722 29.646 31.882 44.488 43.545 3.517 2.764 7.591 4.439 11.807 5.02 8.565 97.397-80.631 153.247-179.577 153.247zm231.582-133.573c-7.619 22.284-19.983 38.184-43.717 38.006 6.623-19.755 8.468-40.398 6.544-60.329 8.156-4.296 13.199-12.585 13.2-21.848.001-7.406-.553-15.01-1.601-22.669 9.36-5.843 14.783-6.802 17.311-6.802 16.911 0 16.267 50.233 8.263 73.642zm-231.582-20.094c-13.191 0-23.922 11.608-23.922 25.877s10.731 25.877 23.922 25.877 23.923-11.608 23.923-25.877-10.731-25.877-23.923-25.877zm0 36.754c-4.92 0-8.922-4.879-8.922-10.877 0-5.997 4.003-10.877 8.922-10.877 4.92 0 8.923 4.879 8.923 10.877 0 5.997-4.003 10.877-8.923 10.877zm78.675-41.178c-4.143 0-7.5 3.358-7.5 7.5v12c0 4.142 3.357 7.5 7.5 7.5s7.5-3.358 7.5-7.5v-12c0-4.142-3.357-7.5-7.5-7.5zm-78.675-53.38c15.484 0 28.081-12.597 28.081-28.081s-12.597-28.081-28.081-28.081-28.081 12.597-28.081 28.081 12.597 28.081 28.081 28.081zm0-41.163c7.213 0 13.081 5.868 13.081 13.081s-5.868 13.081-13.081 13.081-13.081-5.868-13.081-13.081 5.868-13.081 13.081-13.081z"/></g></svg>