<svg id="Capa_1" enable-background="new 0 0 512.016 512.016" height="512" viewBox="0 0 512.016 512.016" width="512" xmlns="http://www.w3.org/2000/svg"><g><g><path d="m405.353 96.962c-19.878-19.878-27.233-47.529-22.076-73.166 2.262-11.242-9.425-20.071-19.521-14.632-30.461 16.408-50.995 48.87-50.27 86.059.994 51.005 42.601 92.612 93.606 93.606 37.19.724 69.651-19.809 86.059-50.27 5.439-10.096-3.39-21.783-14.632-19.521-25.636 5.158-53.288-2.198-73.166-22.076z" fill="#f5ea72"/><ellipse cx="62.772" cy="276.279" fill="#ffd4be" rx="45.571" ry="40.81"/><ellipse cx="413.514" cy="276.279" fill="#ffd4be" rx="45.571" ry="40.81"/><path d="m334.358 504.516c9.622 0 16.91-8.631 15.379-18.13-8.675-53.811-55.335-94.91-111.593-94.91s-102.919 41.099-111.593 94.91c-1.531 9.499 5.757 18.13 15.379 18.13z" fill="#6171a3"/><path d="m383.635 125.139c-20.29-17.876-43.993-31.568-69.763-40.608-.321 3.513-.456 7.08-.386 10.692.993 51.005 42.601 92.612 93.606 93.606 7.887.154 15.557-.658 22.91-2.308-10.541-22.751-26.166-43.584-46.367-61.382z" fill="#ebca5f"/><path d="m60.434 258.363c0-86.474 79.563-156.574 177.709-156.574s177.709 70.101 177.709 156.574c0 55.388-2.708 104.086 13.121 145.101 7.947 20.59-10.215 41.744-31.731 36.83-12.299-2.809-23.811-6.57-34.086-10.493-16.324-6.232-34.688-3.116-48.081 8.106-9.519 7.975-19.934 15.387-30.554 21.857-28.485 17.354-64.27 17.354-92.755 0-10.62-6.47-21.035-13.882-30.554-21.857-13.393-11.222-31.757-14.338-48.081-8.106-10.275 3.923-21.787 7.684-34.086 10.493-21.516 4.914-39.678-16.24-31.731-36.83 15.829-41.015 13.12-89.713 13.12-145.101z" fill="#efedff"/></g><path d="m161.211 437.908c9.519 7.975 19.934 15.387 30.554 21.857 24.015 14.631 53.218 16.926 78.861 6.887-134.89-35.475-123.52-272.342-99.929-353.181-64.697 23.404-110.264 79.455-110.264 144.892 0 55.388 2.708 104.086-13.121 145.101-7.947 20.59 10.215 41.745 31.731 36.83 12.299-2.809 23.811-6.57 34.086-10.493 16.325-6.231 34.689-3.115 48.082 8.107z" fill="#d4d4ff"/><g><g><ellipse cx="154.297" cy="287.838" fill="#eda1ab" rx="30.938" ry="24.637"/><ellipse cx="321.99" cy="287.838" fill="#eda1ab" rx="30.938" ry="24.637"/><ellipse cx="238.143" cy="268.908" fill="#4e5660" rx="16.423" ry="18.377"/></g></g><path d="m159.468 265.607c4.143 0 7.5-3.358 7.5-7.5v-12c0-4.142-3.357-7.5-7.5-7.5s-7.5 3.358-7.5 7.5v12c0 4.143 3.358 7.5 7.5 7.5zm157.35 0c4.143 0 7.5-3.358 7.5-7.5v-12c0-4.142-3.357-7.5-7.5-7.5s-7.5 3.358-7.5 7.5v12c0 4.143 3.357 7.5 7.5 7.5zm160.222-153.922c-51.365 10.332-96.771-34.913-86.409-86.41 3.519-17.498-14.771-31.149-30.431-22.714-38.196 20.575-58.626 61.86-53.448 103.404-21.229-7.527-44.381-11.676-68.608-11.676-28.362 0-55.582 5.529-80.904 16.434-3.804 1.638-5.56 6.05-3.922 9.854 1.64 3.804 6.049 5.559 9.855 3.922 23.436-10.093 48.66-15.211 74.971-15.211 93.853 0 170.209 66.874 170.209 149.074 0 56.036-2.817 105.201 13.625 147.801 5.798 15.026-7.4 30.39-23.064 26.819-10.564-2.413-21.694-5.84-33.082-10.188-18.811-7.182-40.107-3.595-55.572 9.364-9.124 7.645-19.096 14.777-29.64 21.201-26.199 15.962-58.751 15.962-84.95 0-10.546-6.425-20.519-13.558-29.641-21.202-15.467-12.958-36.764-16.544-55.572-9.363-11.385 4.347-22.515 7.774-33.081 10.188-15.663 3.577-28.864-11.795-23.064-26.818 16.478-42.695 13.624-91.884 13.624-147.802 0-46.14 23.835-88.948 65.393-117.447 3.417-2.343 4.287-7.011 1.944-10.427-2.344-3.417-7.014-4.286-10.427-1.944-36.608 25.104-60.693 60.465-68.834 99.838-26.045 3.048-46.31 23.439-46.31 47.895 0 23.523 18.425 43.212 43.117 47.456-.805 28.394-3.622 54.023-12.502 77.029-10.009 25.933 12.754 53.155 40.399 46.843 11.248-2.569 23.054-6.202 35.091-10.797 7.698-2.939 15.964-3.404 23.734-1.582-10.484 14.892-17.492 31.967-20.394 49.965-2.267 14.055 8.545 26.824 22.782 26.824h152.105c4.143 0 7.5-3.358 7.5-7.5s-3.357-7.5-7.5-7.5h-152.106c-5.086 0-8.758-4.571-7.974-9.435 2.694-16.71 9.425-32.522 19.558-46.104 4.751 3.31 14.145 12.384 34.351 24.694 31.008 18.892 69.542 18.899 100.56 0 20.336-12.389 29.587-21.374 34.35-24.694 10.133 13.583 16.865 29.395 19.559 46.104.782 4.852-2.878 9.436-7.975 9.436h-4.35c-4.143 0-7.5 3.358-7.5 7.5s3.357 7.5 7.5 7.5h4.35c14.236 0 25.048-12.766 22.783-26.823-2.901-17.996-9.902-35.074-20.382-49.968 7.767-1.819 16.029-1.353 23.722 1.585 12.04 4.597 23.847 8.229 35.092 10.797 27.635 6.317 50.406-20.907 40.398-46.843-8.879-23.006-11.697-48.635-12.502-77.03 24.691-4.244 43.116-23.933 43.116-47.456 0-24.467-20.283-44.865-46.343-47.899-2.326-11.112-5.922-21.831-10.646-32.041 37.786-.216 72.158-20.806 90.158-54.222 8.432-15.649-5.203-33.954-22.713-30.431zm-452.339 164.593c0-15.545 12.361-28.709 28.933-32.316-1.404 14.43-.296 30.112-.555 64.534-16.411-3.754-28.378-16.799-28.378-32.218zm426.885 0c0 15.419-11.967 28.463-28.378 32.218-.276-36.791.872-49.843-.578-64.539 16.583 3.6 28.956 16.769 28.956 32.321zm34.963-141.276c-16.714 31.025-49.976 49.059-85.11 46.012-17.696-29.2-45.077-53.133-78.316-68.404-8.568-37.902 8.713-77.732 44.19-96.842 4.55-2.45 9.611 1.583 8.612 6.55-12.446 61.852 42.063 116.554 104.073 104.073 4.988-1.006 8.99 4.082 6.551 8.611zm-224.483 133.906c0-14.269-10.731-25.877-23.923-25.877-13.191 0-23.922 11.608-23.922 25.877 0 14.268 10.731 25.877 23.922 25.877 13.192 0 23.923-11.608 23.923-25.877zm-32.845 0c0-5.998 4.002-10.877 8.922-10.877s8.923 4.879 8.923 10.877c0 5.997-4.003 10.877-8.923 10.877s-8.922-4.879-8.922-10.877z"/></g></svg>