<svg id="Capa_1" enable-background="new 0 0 512 512" height="512" viewBox="0 0 512 512" width="512" xmlns="http://www.w3.org/2000/svg"><g><path d="m156.891 104.136c27.487 27.487 34.419 65.119 15.483 84.055s-56.568 12.004-84.055-15.483-43.371-74.072-24.435-93.007c18.935-18.936 65.52-3.051 93.007 24.435z" fill="#d4d4ff"/><path d="m151.885 198.253c-1.086-7.512-3.437-15.998-7.422-25.598-22.139-53.335-60.275-76.334-85.85-85.161-9.738 21.882 5.463 60.971 29.706 85.214 19.517 19.517 44.144 28.657 63.566 25.545z" fill="#6171a3"/><path d="m355.109 104.136c-27.487 27.487-34.418 65.119-15.483 84.055s56.568 12.004 84.055-15.483 43.371-74.072 24.436-93.007-65.522-3.051-93.008 24.435z" fill="#d4d4ff"/><path d="m360.115 198.253c1.086-7.512 3.437-15.998 7.422-25.598 22.139-53.335 60.275-76.334 85.85-85.161 9.738 21.882-5.463 60.971-29.706 85.214-19.517 19.517-44.144 28.657-63.566 25.545z" fill="#6171a3"/><path d="m256 477.638c84.183 0 145.313-4.324 197.199-28.82 13.589-6.415 19.589-22.523 13.386-36.21-12.088-26.674-15.583-70.724-15.583-154.973 0-130.392-121.833-163.115-195.002-163.115s-195.002 32.724-195.002 163.115c0 84.25-3.496 128.3-15.583 154.973-6.203 13.687-.203 29.794 13.386 36.21 51.886 24.496 113.016 28.82 197.199 28.82z" fill="#de5c6e"/><path d="m256 477.638c68.912 0 122.37-2.905 167.961-17.394-32.089-34.798-31.292-141.016-31.292-174.166h-273.338c0 33.149.797 139.368-31.292 174.166 45.591 14.489 99.049 17.394 167.961 17.394z" fill="#d5364c"/><ellipse cx="82.352" cy="288.947" fill="#ffcbbe" rx="44.118" ry="39.508"/><ellipse cx="429.648" cy="288.947" fill="#ffcbbe" rx="44.117" ry="39.508"/><path d="m349.145 504.5c9.315 0 16.37-8.355 14.888-17.551-8.398-52.094-53.569-91.882-108.033-91.882s-99.635 39.787-108.033 91.882c-1.482 9.196 5.573 17.551 14.888 17.551z" fill="#d4d4ff"/><path d="m256 446.074c29.297 0 57.38-4.542 82.777-13.15-20.066-23.186-49.708-37.856-82.777-37.856-33.07 0-62.711 14.671-82.777 37.856 25.397 8.608 53.48 13.15 82.777 13.15z" fill="#9ea2e3"/><path d="m428.039 279.746c0 83.715-77.025 136.328-172.039 136.328-95.015 0-172.039-52.613-172.039-136.328s77.024-151.579 172.039-151.579 172.039 67.864 172.039 151.579z" fill="#ffddcf"/><path d="m256 114.997c-147.38 0-192.585 122.954-168.655 134.698 24.971.177 42.938-10.202 52.089-23.076 1.838-2.586 4.982-3.936 8.126-3.511 41.323 5.586 81.197-10.992 102.068-33.167 3.468-3.685 9.276-3.685 12.744 0 20.87 22.176 60.744 38.753 102.068 33.167 3.144-.425 6.288.925 8.126 3.511 9.152 12.874 27.118 23.253 52.089 23.076 23.93-11.744-21.275-134.698-168.655-134.698z" fill="#de5c6e"/><path d="m256 142.812c16.24 0 32.582-4.676 43-11.292 5.993-3.806 9.01-10.891 8-17.918-4.194-29.179-15.079-64.035-27.573-91.154-9.182-19.93-37.671-19.93-46.853 0-12.494 27.118-23.38 61.975-27.574 91.154-1.01 7.027 2.007 14.112 8 17.918 10.419 6.616 26.76 11.292 43 11.292z" fill="#f5ea72"/><path d="m293.265 57.712c-4.146-12.415-8.86-24.457-13.839-35.264-9.182-19.93-37.671-19.93-46.853 0-8.277 17.966-15.834 39.325-21.222 60.182 23.586-2.637 55.464-10.772 81.914-24.918z" fill="#5ec783"/><g><g><ellipse cx="176.443" cy="302.142" fill="#eda1ab" rx="29.355" ry="23.377"/><ellipse cx="335.557" cy="302.142" fill="#eda1ab" rx="29.355" ry="23.377"/><path d="m256 277.305c-11.646 0-22.017-7.826-28.54 1.825-6.617 9.79 8.202 24.97 28.54 24.97s35.156-15.18 28.539-24.97c-6.522-9.651-16.893-1.825-28.539-1.825z" fill="#4e5660"/></g></g><path d="m459.76 327.092c13.011-8.543 21.505-22.453 21.505-38.145 0-16.259-9.112-30.613-22.928-39.057-1.106-30.134-8.696-56.629-22.644-79.216 25.414-30.131 38.702-75.303 17.727-96.277-22.661-22.659-73.392-5.787-103.614 24.436-1.161 1.161-2.312 2.371-3.449 3.619-12.675-4.561-24.872-7.716-35.628-9.894-5.354-24.246-14.169-50.848-24.49-73.25-5.488-11.909-17.075-19.308-30.239-19.308s-24.751 7.399-30.238 19.31c-10.321 22.401-19.136 49.003-24.49 73.249-10.758 2.177-22.958 5.333-35.635 9.896-9.296-10.235-21.276-19.257-33.968-25.978-3.661-1.938-8.199-.542-10.138 3.118s-.543 8.199 3.118 10.138c9.629 5.099 18.559 11.571 25.942 18.751-9.203 4.09-18.454 8.984-27.402 14.841-17.765-20.725-37.205-32.584-52.884-39.335 6.346-5.305 15.915-5.52 23.019-4.7 4.112.475 7.835-2.477 8.31-6.593.474-4.115-2.479-7.835-6.593-8.309-15.523-1.787-28.127 1.674-36.461 10.008-20.975 20.974-7.687 66.146 17.727 96.277-13.948 22.587-21.538 49.082-22.644 79.216-13.816 8.444-22.928 22.798-22.928 39.057 0 15.691 8.494 29.601 21.505 38.145-1.869 40.712-5.994 65.511-13.656 82.42-7.834 17.285-.201 37.961 17.015 46.088 24.808 11.712 52.373 19.368 86.147 23.902-.449 2.066-.844 4.151-1.183 6.253-2.218 13.75 8.362 26.245 22.292 26.245h135.963c4.143 0 7.5-3.358 7.5-7.5s-3.357-7.5-7.5-7.5h-135.963c-4.684 0-8.235-4.191-7.483-8.857 4.718-29.262 21.797-54.749 47.033-70.359 16.981 3.81 34.996 5.79 53.596 5.79s36.615-1.98 53.596-5.79c25.236 15.611 42.315 41.097 47.033 70.359.757 4.7-2.837 8.858-7.483 8.858h-14.432c-4.143 0-7.5 3.358-7.5 7.5s3.357 7.5 7.5 7.5h14.432c13.926 0 24.51-12.491 22.292-26.245-.339-2.102-.734-4.187-1.183-6.253 33.775-4.534 61.339-12.19 86.146-23.902 17.216-8.128 24.849-28.803 17.015-46.088-7.663-16.909-11.788-41.708-13.657-82.42zm6.506-38.145c0 18.258-17.263 32.279-37.155 31.995 6.814-20.801 7.97-42.863 4.611-63.8 18.279 1.778 32.544 15.36 32.544 31.805zm-39.487-131.08c-7.345-9.406-15.933-18.002-25.729-25.739 16.585-18.932 34.685-29.261 47.348-34.668 2.325 16.136-6.08 40.598-21.619 60.407zm14.903-73.869c-15.676 6.752-35.107 18.611-52.868 39.33-8.951-5.859-18.204-10.754-27.41-14.846 25.83-25.143 65.18-37.039 80.278-24.484zm-202.297-58.412c6.519-14.148 26.706-14.158 33.23 0 4.112 8.926 7.97 18.546 11.449 28.401-20.819 10.156-44.043 16.48-62.445 19.608 4.829-16.527 10.951-33.216 17.766-48.009zm-26.961 89.083c1.143-7.95 2.837-16.474 4.958-25.233 24.301-3.318 50.072-10.968 71.417-21.113 4.94 16.021 8.729 32.095 10.777 46.346.608 4.231-1.196 8.36-4.597 10.52-9.685 6.15-24.984 10.123-38.979 10.123s-29.295-3.974-38.98-10.124c-3.4-2.159-5.205-6.289-4.596-10.519zm-148.82-17.208c12.664 5.405 30.764 15.731 47.349 34.665-9.786 7.729-18.377 16.323-25.729 25.738-15.539-19.81-23.944-44.269-21.62-60.403zm134.591 11.099c-.215 1.333-.431 2.669-.619 3.974-1.446 10.062 3.03 19.999 11.403 25.316 12.103 7.686 30.12 12.461 47.02 12.461s34.917-4.775 47.021-12.461c8.373-5.317 12.85-15.254 11.403-25.316-.188-1.305-.404-2.639-.619-3.971 72.468 16.505 123.557 60.254 129.14 134.965-6.306-1.533-12.403-1.89-18.465-1.336-19.701.097-36.853-7.33-45.801-19.918-3.463-4.873-9.295-7.402-15.244-6.599-40.772 5.51-77.4-11.535-95.602-30.875-6.42-6.822-17.244-6.824-23.667 0-18.2 19.34-54.821 36.385-95.601 30.876-5.94-.807-11.782 1.725-15.244 6.598-8.947 12.588-26.044 20.046-45.8 19.919-6.097-.557-12.195-.189-18.476 1.339 5.572-74.578 56.539-118.432 129.151-134.972zm-152.461 180.387c0-16.445 14.264-30.028 32.544-31.805-3.373 21.014-2.177 43.078 4.61 63.798-21.153.275-37.154-14.814-37.154-31.993zm100.186 175.98c-33.214-4.287-60.015-11.607-83.917-22.892-9.853-4.651-14.229-16.464-9.757-26.332 8.081-17.831 12.566-42.671 14.676-81.895 6.77 1.936 14.189 2.646 21.813 1.787 18.367 38.723 54.387 64.082 94.861 77.081-17.298 13.603-30.309 31.674-37.676 52.251zm110.08-56.353c-100.49 0-178.899-60.899-162.498-151.548 22.088-1.368 41.246-10.87 52.046-26.062.221-.31.624-.479 1.008-.422 46.06 6.225 87.7-13.324 108.534-35.46.507-.539 1.314-.539 1.82.001 23.1 24.545 65.671 41.255 108.534 35.459.397-.05.787.113 1.008.423v.001c10.801 15.192 29.956 24.694 52.046 26.061 1.355 7.495 2.041 15.112 2.041 22.72 0 83.69-79.682 128.827-164.539 128.827zm193.997 33.462c-23.903 11.285-50.704 18.605-83.918 22.892-7.366-20.577-20.373-38.65-37.668-52.254 41.14-13.213 76.712-38.836 94.854-77.078 7.609.858 15.029.153 21.813-1.787 2.11 39.223 6.595 64.064 14.676 81.896 4.473 9.867.096 21.679-9.757 26.331zm-113.665-175.569c-3.123-2.722-7.859-2.396-10.582.726-1.844 2.116-4.506 3.33-7.302 3.33s-5.457-1.214-7.301-3.33c-2.723-3.123-7.461-3.448-10.582-.726-3.123 2.721-3.448 7.459-.727 10.582 4.694 5.386 11.477 8.475 18.609 8.475 7.133 0 13.916-3.089 18.61-8.475 2.723-3.123 2.398-7.861-.725-10.582zm-124.898-.001c-3.123-2.721-7.86-2.396-10.581.728-1.844 2.116-4.505 3.329-7.301 3.329s-5.458-1.214-7.302-3.33c-2.723-3.123-7.461-3.448-10.582-.726-3.123 2.721-3.448 7.459-.727 10.582 4.694 5.386 11.477 8.475 18.61 8.475 7.134 0 13.917-3.089 18.609-8.475 2.723-3.125 2.397-7.862-.726-10.583zm53.864 1.891c-3.108.711-6.32 1.447-9.298 1.447-2.977 0-6.19-.736-9.298-1.447-7.246-1.658-18.196-4.167-25.455 6.572-3.672 5.433-3.847 12.188-.478 18.531 5.672 10.68 20.159 18.139 35.23 18.139s29.559-7.459 35.23-18.139c3.369-6.344 3.194-13.098-.478-18.531-7.257-10.739-18.208-8.231-25.453-6.572zm12.684 18.068c-2.619 4.932-11.213 10.175-21.982 10.175s-19.363-5.242-21.982-10.174c-1.071-2.018-.542-2.8-.343-3.096.656-.971 1.144-1.524 2.765-1.524 1.319 0 3.391.367 6.915 1.174 3.737.856 7.973 1.826 12.645 1.826 4.673 0 8.908-.97 12.646-1.826 7.854-1.796 8.489-1.411 9.68.351.198.294.728 1.077-.344 3.094z"/></g></svg>