<svg id="Capa_1" enable-background="new 0 0 512.004 512.004" height="512" viewBox="0 0 512.004 512.004" width="512" xmlns="http://www.w3.org/2000/svg"><g><path d="m236.865 378.036-73.236 73.236c-6.909 6.909-18.11 6.909-25.019 0l-16.397-16.397c-6.909-6.909-6.909-18.11 0-25.019l73.236-73.236c6.909-6.909 18.11-6.909 25.019 0l16.397 16.397c6.908 6.91 6.908 18.111 0 25.019z" fill="#ebca5f"/><path d="m119.548 309.402-24.554 24.554c-7.394 7.394-7.394 19.383 0 26.777l40.601 40.601 51.331-51.332-40.601-40.601c-7.394-7.393-19.382-7.393-26.777.001z" fill="#d2996f"/><path d="m8.29 139.536c-3.897-17.43 7.073-34.719 24.504-38.615 27.751-6.204 97.576-18.593 146.435.32 16.656 6.447 24.931 25.176 18.484 41.832-6.447 16.655-25.174 24.932-41.832 18.484-21.765-8.425-64.542-7.451-108.975 2.484-17.431 3.896-34.72-7.075-38.616-24.505z" fill="#d5364c"/><path d="m47.278 250.851c-12.841-12.414-13.187-32.886-.773-45.727 19.765-20.444 71.267-69.194 122.474-80.27 17.456-3.776 34.668 7.315 38.444 24.771s-7.313 34.668-24.771 38.444c-22.811 4.934-58.001 29.274-89.647 62.008-12.413 12.842-32.886 13.188-45.727.774z" fill="#d5364c"/><path d="m410.053 481.271c11.151 0 19.598-10.003 17.823-21.012-10.054-62.367-64.132-109.999-129.335-109.999s-119.281 47.633-129.335 109.999c-1.775 11.009 6.672 21.012 17.823 21.012z" fill="#6171a3"/><path d="m298.541 405.409c33.491 0 65.613-5.03 94.758-14.597-23.856-24.983-57.487-40.552-94.758-40.552s-70.902 15.569-94.758 40.552c29.145 9.567 61.267 14.597 94.758 14.597z" fill="#475a99"/><path d="m504.504 212.2c0 100.222-92.212 163.209-205.962 163.209s-205.963-62.988-205.963-163.209 92.212-181.468 205.962-181.468 205.963 81.246 205.963 181.468z" fill="#6171a3"/><path d="m442.878 218.264c0-81.265-64.622-107.617-144.337-107.617s-144.336 26.352-144.336 107.617 64.622 92.54 144.336 92.54c79.715 0 144.337-11.275 144.337-92.54z" fill="#f2d1a5"/><path d="m115.004 128.041c31.731 9.47 76.881 18.783 134.001 18.875 17.748.029 32.782-13.838 33.188-31.581.416-18.206-14.218-33.096-32.33-33.096-35.769 0-65.676-3.91-90.514-9.422-6.766-1.502-13.875.404-18.954 5.12-11.641 10.809-21.897 22.804-30.508 35.759-3.527 5.306-.988 12.524 5.117 14.345z" fill="#de5c6e"/><path d="m482.079 128.041c-31.731 9.47-76.881 18.783-134.001 18.875-17.748.029-32.782-13.838-33.188-31.581-.416-18.206 14.218-33.096 32.33-33.096 35.769 0 65.676-3.91 90.514-9.422 6.766-1.502 13.875.404 18.954 5.12 11.641 10.809 21.897 22.804 30.508 35.759 3.526 5.306.987 12.524-5.117 14.345z" fill="#de5c6e"/><path d="m341.84 77.964h-86.599c-11.56 0-20.931 9.371-20.931 20.931v31.365c0 11.56 9.371 20.931 20.931 20.931h86.599c11.56 0 20.931-9.371 20.931-20.931v-31.364c.001-11.56-9.371-20.932-20.931-20.932z" fill="#efedff"/><g><g><ellipse cx="218.896" cy="237.908" fill="#eda1ab" rx="29.387" ry="23.403"/><ellipse cx="378.186" cy="237.908" fill="#eda1ab" rx="29.387" ry="23.403"/><path d="m322.235 219.927c0-14.643-10.608-16.019-23.693-16.019-13.086 0-23.694 1.376-23.694 16.019s10.608 26.513 23.694 26.513c13.085 0 23.693-11.87 23.693-26.513z" fill="#4e5660"/></g></g><path d="m255.242 77.964c-11.56 0-20.931 9.371-20.931 20.931v31.365c0 8.268 4.807 15.396 11.767 18.797l71.093-71.093z" fill="#d4d4ff"/><path d="m298.541 253.94c17.2 0 31.193-15.258 31.193-34.013 0-12.057-6.008-17.634-11.048-20.189-5.448-2.763-11.994-3.329-20.145-3.329-8.152 0-14.697.566-20.146 3.329-5.04 2.556-11.048 8.133-11.048 20.189.001 18.755 13.994 34.013 31.194 34.013zm0-42.531c15.539 0 16.193 2.611 16.193 8.519 0 10.484-7.264 19.013-16.193 19.013s-16.193-8.529-16.193-19.013c0-5.908.655-8.519 16.193-8.519zm192.776-80.405c5.497-5.484 6.826-14.384 2.125-21.459-8.889-13.374-19.539-25.857-31.651-37.103-6.882-6.391-16.482-8.987-25.682-6.946-.778.173-1.563.335-2.345.503-11.486-8.333-23.937-15.619-37.083-21.654-3.764-1.729-8.217-.077-9.945 3.687s-.078 8.217 3.687 9.945c7.686 3.528 15.11 7.518 22.219 11.911-17.95 2.772-36.693 4.361-55.993 4.747-4.316-2.644-9.387-4.171-14.809-4.171h-86.599c-5.422 0-10.493 1.527-14.809 4.171-19.299-.386-38.04-1.975-55.989-4.747 33.266-20.506 73.124-31.657 114.097-31.657 20.069 0 39.87 2.619 58.853 7.783 3.994 1.089 8.119-1.272 9.206-5.268 1.087-3.997-1.271-8.118-5.268-9.206-20.266-5.514-41.392-8.309-62.79-8.309-49.315 0-97.19 15.168-135.236 42.764-.777-.167-1.559-.329-2.332-.5-9.198-2.042-18.8.555-25.682 6.946-3.94 3.658-7.707 7.459-11.327 11.367-37.231-1.179-73.921 5.571-92.808 9.793-21.488 4.805-34.99 26.082-30.186 47.571 4.191 18.745 20.8 31.161 38.8 31.161 8.854 0 12.166-2.706 38.074-6.228-16.281 13.309-29.312 26.133-36.73 33.806-15.304 15.829-14.88 41.027.952 56.332 14.1 13.633 35.334 14.602 50.405 4.099 4.852 15.071 12.07 29.478 22.292 43.287-1.783 1.693-11.589 11.562-25.073 25.024-10.306 10.307-10.306 27.077 0 37.384l32.868 32.868-5.649 5.649c-9.822 9.822-9.822 25.803 0 35.625l16.397 16.397c7.633 7.634 18.942 9.317 28.212 5.127-.839 14.659 10.785 27.068 25.512 27.068h15.124c4.142 0 7.5-3.358 7.5-7.5s-3.358-7.5-7.5-7.5h-15.124c-6.684 0-11.436-6.01-10.419-12.318 5.749-35.66 26.652-66.687 57.517-85.572 41.32 9.366 87.415 9.388 128.828 0 30.866 18.885 51.768 49.912 57.517 85.572 1.018 6.317-3.744 12.318-10.419 12.318h-171.883c-4.142 0-7.5 3.358-7.5 7.5s3.358 7.5 7.5 7.5h171.882c15.762 0 27.738-14.138 25.228-29.705-5.72-35.483-24.81-66.869-53.203-88.285 75.926-23.437 129.926-79.921 129.926-158.581 0-28.077-7.144-55.988-20.687-81.196zm-51.958-50.864c4.386-.972 8.956.258 12.226 3.294 11.249 10.444 21.129 22.023 29.365 34.414.742 1.117.257 2.628-1.016 3.007-34.799 10.386-72.087 16.434-111.018 18.074.877-2.734 1.356-5.645 1.356-8.667v-31.366c0-3.383-.597-6.629-1.686-9.641 24.693-1.108 48.443-4.16 70.773-9.115zm-197.548 18.756c0-7.406 6.025-13.432 13.431-13.432h86.599c7.406 0 13.431 6.025 13.431 13.432v31.365c0 7.406-6.025 13.431-13.431 13.431h-86.599c-7.406 0-13.431-6.025-13.431-13.431zm13.431 59.796h86.599c5.561 0 10.751-1.611 15.137-4.382 17.919-.327 35.527-1.558 52.756-3.674 17.005 16.263 25.644 38.984 25.644 67.628 0 34.857-12.11 57.109-38.112 70.027-26.627 13.229-64.848 15.013-98.724 15.013s-72.097-1.784-98.724-15.013c-26.002-12.918-38.112-35.17-38.112-70.027 0-28.644 8.639-51.365 25.644-67.628 17.229 2.116 34.837 3.347 52.756 3.674 4.385 2.771 9.574 4.382 15.136 4.382zm-139.11-40.844c8.235-12.39 18.115-23.968 29.365-34.414 3.27-3.036 7.842-4.266 12.226-3.294 22.33 4.956 46.081 8.006 70.773 9.115-1.089 3.012-1.686 6.258-1.686 9.641v31.365c0 3.025.479 5.938 1.358 8.674-38.932-1.641-76.22-7.695-111.021-18.081-1.271-.379-1.755-1.89-1.015-3.006zm-27.887 126.372c-4.986 5.126-10.748 8.092-18.07 8.216-6.629.113-12.914-2.366-17.684-6.978-9.869-9.541-10.138-25.251-.594-35.122 7.408-7.662 20.626-20.646 37.07-33.935-5.125 23.563-4.994 46.8-.722 67.819zm-42.977-87.5c-13.397 2.995-26.664-5.421-29.659-18.82-2.995-13.396 5.421-26.664 18.82-29.66 16.122-3.604 45.683-9.121 76.971-9.539-2.712 3.545-5.31 7.157-7.761 10.844-4.701 7.074-3.371 15.973 2.125 21.458-3.15 5.864-5.953 11.874-8.4 18-16.562 1.137-34.453 3.773-52.096 7.717zm55.029 198.711c-4.458-4.458-4.458-11.712 0-16.171l23.979-23.978c13.324 14.82 28.878 26.715 45.671 36.234l-36.782 36.782zm66.92 81.647-8.892 8.891c-3.973 3.975-10.439 3.974-14.413.001l-16.397-16.397c-3.973-3.974-3.973-10.439 0-14.412l56.396-56.396c9.854 4.658 20.254 8.671 31.098 12.018-22.364 16.87-38.959 39.922-47.792 66.295zm-67.138-224.878c0-26.345 6.527-51.568 19.401-75.062 16.135 4.533 32.758 8.179 49.792 10.934-14.98 18.238-22.567 41.773-22.567 70.192 0 40.636 15.19 67.936 46.438 83.461 29.406 14.609 69.781 16.579 105.398 16.579s75.993-1.97 105.398-16.579c31.248-15.525 46.438-42.825 46.438-83.461 0-28.419-7.587-51.954-22.568-70.192 17.035-2.756 33.658-6.402 49.792-10.935 12.874 23.494 19.401 48.717 19.401 75.062.002 207.595-396.923 207.604-396.923.001zm123.73 5.268c4.142 0 7.5-3.358 7.5-7.5v-12c0-4.142-3.358-7.5-7.5-7.5s-7.5 3.358-7.5 7.5v12c0 4.142 3.358 7.5 7.5 7.5zm149.464 0c4.142 0 7.5-3.358 7.5-7.5v-12c0-4.142-3.358-7.5-7.5-7.5s-7.5 3.358-7.5 7.5v12c0 4.142 3.358 7.5 7.5 7.5z"/></g></svg>