<svg id="Capa_1" enable-background="new 0 0 511.984 511.984" height="512" viewBox="0 0 511.984 511.984" width="512" xmlns="http://www.w3.org/2000/svg"><g><path d="m372.399 109.15c-7.874-158.259-72.18-84.498-116.407-84.498s-108.533-73.761-116.407 84.498z" fill="#cb775a"/><path d="m428.512 292.104c63.858-117.85 37.828-207.971-18.635-227.345-62.328-21.388-100.407 15.903-153.885 15.903s-91.558-37.291-153.885-15.903c-56.463 19.374-82.493 109.495-18.635 227.345z" fill="#d2996f"/><ellipse cx="81.858" cy="288.329" fill="#ffcbbe" rx="44.241" ry="39.618"/><ellipse cx="430.125" cy="288.329" fill="#ffcbbe" rx="44.241" ry="39.618"/><path d="m349.397 504.484c9.341 0 16.416-8.379 14.93-17.6-8.422-52.24-53.719-92.139-108.335-92.139s-99.913 39.898-108.335 92.139c-1.487 9.222 5.589 17.6 14.929 17.6z" fill="#efedff"/><path d="m255.992 394.745c-43.522 0-81.127 25.336-98.869 62.063 8.109 17.954 29.221 27.83 49.087 20.512 19.338-7.125 37.245-18.346 49.782-27.3 12.476 8.91 30.269 20.066 49.497 27.194 19.981 7.407 41.157-2.444 49.33-20.493-17.76-36.68-55.339-61.976-98.827-61.976z" fill="#d4d4ff"/><path d="m324.16 400.087c4.231 11.231 7.711 27.058 7.154 40.809-.339 8.353-8.601 13.908-16.44 11.003-31.174-11.557-58.882-36.088-58.882-36.088s-27.846 24.654-59.116 36.174c-7.601 2.8-15.819-2.635-16.19-10.727-.634-13.835 2.87-29.841 7.138-41.171z" fill="#efedff"/><path d="m428.512 279.101c0 83.949-77.24 136.709-172.52 136.709s-172.52-52.76-172.52-136.709 77.24-152.002 172.52-152.002 172.52 68.054 172.52 152.002z" fill="#ffddcf"/><g fill="#ebca5f"><path d="m156.705 182.217c-7.678 36.081-38.752 75.837-66.111 95.513-7.857 5.651-18.819.529-19.47-9.127-2.399-35.596 15.904-77.8 44.488-92.998z"/><path d="m355.278 182.217c7.678 36.081 38.752 75.837 66.111 95.513 7.857 5.651 18.819.529 19.47-9.127 2.399-35.596-15.904-77.8-44.488-92.998z"/><path d="m255.992 114.567c45.266 0 113.285 1.733 163.361 52.57 5.701 5.787 3.265 15.579-4.443 18.145-57.079 19.001-126.375 2.823-152.38-17.004-3.851-2.936-9.226-2.936-13.078 0-26.005 19.827-95.3 36.005-152.38 17.004-7.708-2.566-10.144-12.357-4.443-18.145 50.078-50.836 118.096-52.57 163.363-52.57z"/></g><g><g fill="#eda1ab"><ellipse cx="176.435" cy="284.644" rx="29.355" ry="23.377"/><ellipse cx="335.548" cy="284.644" rx="29.355" ry="23.377"/></g></g><path d="m277.384 256.129c-3.124-2.721-7.86-2.396-10.582.727-2.729 3.132-6.669 4.929-10.81 4.929s-8.081-1.796-10.81-4.929c-2.721-3.123-7.459-3.447-10.582-.727-3.122 2.722-3.448 7.459-.727 10.582 5.579 6.402 13.641 10.073 22.119 10.073 8.477 0 16.54-3.671 22.119-10.073 2.721-3.123 2.395-7.861-.727-10.582zm179.473-8.181c20.325-55.116 21.98-105.936 4.533-143.709-10.676-23.115-27.647-39.221-49.079-46.574-14.35-4.924-27.472-6.908-39.765-7.026-5.756-23.661-14.783-38.679-27.511-45.805-28.28-15.835-64.033 12.318-89.043 12.318-25.036 0-60.752-28.156-89.044-12.318-12.728 7.125-21.753 22.145-27.509 45.804-12.294.118-25.417 2.102-39.767 7.027-3.918 1.344-6.004 5.61-4.66 9.528s5.612 6.006 9.528 4.66c59.655-20.469 96.132 16.31 151.451 16.31 55.379 0 91.772-36.788 151.451-16.31 17.465 5.993 31.411 19.367 40.33 38.677 14.776 31.993 13.795 76.914-2.4 124.883-4.034-17.149-11.716-33.531-22.031-46.389 8.063-6.737 9.105-19.28 1.355-27.149-53.987-54.807-128.613-54.807-168.705-54.807s-114.717 0-168.705 54.807c-7.754 7.872-6.705 20.416 1.357 27.151-10.318 12.861-18.001 29.247-22.035 46.4-10.034-29.644-14.356-58.203-12.52-83.308 1.896-25.92 10.137-47.552 23.832-62.557 2.793-3.06 2.576-7.803-.483-10.596s-7.803-2.576-10.596.483c-15.986 17.516-25.569 42.266-27.713 71.575-2.142 29.286 3.382 62.665 15.993 96.927-15.243 8.313-25.005 23.398-25.005 40.378 0 28.177 27.161 50.265 58.168 46.753 17.253 36.39 50.206 61.313 88.568 75.072-.832 3.277-1.532 6.573-2.094 9.839-18.26 17.571-30.491 40.786-34.507 65.697-2.221 13.776 8.378 26.293 22.334 26.293h131.315c4.142 0 7.5-3.358 7.5-7.5s-3.358-7.5-7.5-7.5h-131.313c-4.71 0-8.281-4.213-7.525-8.906 2.559-15.87 8.952-30.952 18.423-43.908 2.073 11.667 14.39 19.124 25.984 14.853 19.57-7.21 37.604-19.138 49.023-27.634v37.217c0 4.142 3.358 7.5 7.5 7.5s7.5-3.358 7.5-7.5v-37.217c11.371 8.459 29.3 20.323 48.775 27.542 11.662 4.322 23.995-2.991 26.202-14.796 9.486 12.964 15.893 28.057 18.454 43.943.755 4.687-2.808 8.907-7.525 8.907h-19.175c-4.142 0-7.5 3.358-7.5 7.5s3.358 7.5 7.5 7.5h19.175c13.952 0 24.555-12.514 22.333-26.294-4.016-24.91-16.247-48.125-34.507-65.696-.562-3.267-1.263-6.564-2.094-9.84 38.369-13.761 71.317-38.687 88.568-75.072 31.03 3.514 58.168-18.605 58.168-46.753 0-16.981-9.763-32.067-25.009-40.38zm-200.865-174.786c-35.579 0-64.898-17.716-101.263-21.739 4.625-17.539 11.177-28.815 19.547-33.501 20.457-11.453 53.704 14.23 81.716 14.23 28.047 0 61.25-25.688 81.716-14.23 8.375 4.689 14.939 15.946 19.564 33.499-36.282 4.009-65.751 21.741-101.28 21.741zm-158.018 99.239c21.182-21.504 47.303-35.671 79.854-43.311 27.611-6.48 54.824-7.023 78.164-7.023 23.339 0 50.552.542 78.164 7.023 32.552 7.64 58.673 21.807 79.854 43.311 1.815 1.842.964 4.956-1.468 5.765-53.768 17.899-120.96 2.83-145.463-15.851-6.524-4.975-15.644-4.979-22.172 0-36.357 27.721-109.227 27.915-145.464 15.852-2.435-.811-3.283-3.926-1.469-5.766zm-52.857 115.927c0-11.728 7.176-22.178 18.312-27.794-.045 2.878.022 5.74.213 8.573.518 7.687 5.213 14.22 12.532 17.101.596 11.884 2.692 23.323 6.264 34.222-21.134.294-37.321-14.752-37.321-32.102zm41.099-16.687c-3.087 2.222-7.353.242-7.608-3.543-1.728-25.635 8.309-55.015 24.667-73.146 12.325 3.323 25.627 5.34 39.407 6.011-12.884 29.858-37.423 56.983-56.466 70.678zm108.067 173.306c-2.847 1.047-5.967-1.014-6.105-4.032-.355-7.738.74-16.989 3.009-26.193 13.957 3.9 28.728 6.505 44.03 7.745-10.582 7.512-25.376 16.748-40.934 22.48zm129.537-4.355c-.133 3.271-3.283 5.406-6.339 4.274-15.445-5.726-30.158-14.918-40.701-22.4 15.297-1.241 30.062-3.845 44.014-7.743 2.236 9.071 3.336 18.204 3.026 25.869zm49.276-67.37c-30.016 22.627-71.604 35.088-117.104 35.088s-87.088-12.461-117.104-35.088c-29.415-22.174-45.819-52.246-47.711-87.253 1.315-.571 2.589-1.281 3.797-2.15 21.912-15.759 50.532-47.89 63.833-82.686 9.009-.238 18.125-1.013 27.22-2.374 27.908-4.177 53.319-13.342 67.975-24.516 1.171-.894 2.809-.894 3.982.001 14.655 11.173 40.066 20.338 67.974 24.515 9.096 1.361 18.214 2.147 27.224 2.385 13.302 34.792 41.919 66.919 63.829 82.676 1.208.868 2.482 1.579 3.797 2.15-1.894 35.006-18.297 65.078-47.712 87.252zm52.672-101.581c-19.042-13.695-43.595-40.814-56.481-70.67 13.787-.67 27.1-2.686 39.431-6.01 16.353 18.132 26.386 47.506 24.659 73.137-.256 3.781-4.517 5.766-7.609 3.543zm3.778 48.79c3.572-10.899 5.668-22.339 6.264-34.222 7.313-2.879 12.013-9.408 12.532-17.101.191-2.833.257-5.697.213-8.575 11.137 5.616 18.312 16.068 18.312 27.797-.001 17.408-16.256 32.393-37.321 32.101zm-236.003-77.791c-4.142 0-7.5 3.358-7.5 7.5v12c0 4.142 3.358 7.5 7.5 7.5s7.5-3.358 7.5-7.5v-12c0-4.142-3.358-7.5-7.5-7.5zm124.898 0c-4.142 0-7.5 3.358-7.5 7.5v12c0 4.142 3.358 7.5 7.5 7.5s7.5-3.358 7.5-7.5v-12c0-4.142-3.358-7.5-7.5-7.5z"/></g></svg>