<svg id="Capa_1" enable-background="new 0 0 512 512" height="512" viewBox="0 0 512 512" width="512" xmlns="http://www.w3.org/2000/svg"><g><path d="m454.156 233.515c0 60.445 8.418 85.601 30.9 108.083 7.908 7.908 12.799 18.833 12.799 30.9 0 24.134-19.565 43.699-43.699 43.699h-396.312c-24.134 0-43.699-19.565-43.699-43.699 0-12.067 4.891-22.992 12.799-30.9 22.482-22.482 30.9-47.637 30.9-108.083z" fill="#6171a3"/><path d="m414.822 298.27c0 39.019 5.434 55.258 19.947 69.77 5.105 5.105 8.262 12.157 8.262 19.947 0 15.579-12.63 28.209-28.209 28.209h-317.644c-15.579 0-28.209-12.63-28.209-28.209 0-7.79 3.157-14.842 8.262-19.947 14.513-14.513 19.947-30.751 19.947-69.77z" fill="#475a99"/><path d="m474.877 207.784c26.666-53.333-15.814-137.683-81.601-136.079-4.074.099-7.993-1.661-10.475-4.894-21.977-28.626-83.252-45.301-126.801-17.539-43.549-27.762-104.824-11.087-126.8 17.54-2.482 3.232-6.401 4.993-10.475 4.894-65.788-1.604-108.267 82.746-81.601 136.079h437.753z" fill="#6171a3"/><ellipse cx="57.844" cy="239.242" fill="#b8866b" rx="50.344" ry="45.084"/><ellipse cx="454.156" cy="239.242" fill="#b8866b" rx="50.344" ry="45.084"/><path d="m362.291 482.75c10.629 0 18.681-9.534 16.989-20.028-9.583-59.447-61.13-104.849-123.28-104.849s-113.697 45.403-123.28 104.849c-1.692 10.494 6.36 20.028 16.989 20.028z" fill="#efedff"/><path d="m214.85 354.671c7.829 9.889 19.366 77.741 19.366 128.08h-33.376c-3.681-25.377-23.124-55.147-43.101-70.293-7.488-5.677-8.57-16.605-2.182-23.497 16.615-17.93 42.667-34.29 59.293-34.29z" fill="#d4d4ff"/><path d="m297.15 354.671c-7.829 9.889-19.366 77.741-19.366 128.08h33.376c3.681-25.377 23.124-55.147 43.101-70.293 7.488-5.677 8.57-16.605 2.182-23.497-16.615-17.93-42.667-34.29-59.293-34.29z" fill="#d4d4ff"/><path d="m89.322 134.861c-18.779 26.524-29.642 57.849-29.642 91.414 0 95.53 87.895 155.568 196.32 155.568s196.32-60.039 196.32-155.568c0-33.565-10.863-64.89-29.642-91.414z" fill="#cc9e83"/><path d="m63.015 194.393c53.095 7.408 85.17-22.41 101.708-51.629l-100.98-1.103c.001.001-22.602 26.366-.728 52.732z" fill="#6171a3"/><path d="m448.985 194.393c-53.095 7.408-85.17-22.41-101.708-51.629l100.98-1.103c-.001.001 22.602 26.366.728 52.732z" fill="#6171a3"/><path d="m32.719 158.688h446.559c6.148 0 10.78-5.695 9.412-11.688-2.176-9.539-5.601-19-10.242-28.029-2.519-4.9-7.618-7.935-13.127-7.935h-418.646c-5.51 0-10.609 3.035-13.128 7.935-4.641 9.029-8.065 18.49-10.241 28.029-1.366 5.993 3.266 11.688 9.413 11.688z" fill="#5ec783"/><ellipse cx="256" cy="103.366" fill="#efedff" rx="74.117" ry="74.116" transform="matrix(.993 -.122 .122 .993 -10.703 32.02)"/><path d="m256 29.25c-40.933 0-74.116 33.183-74.116 74.116 0 17.144 5.836 32.915 15.609 45.471l103.978-103.978c-12.556-9.773-28.327-15.609-45.471-15.609z" fill="#d4d4ff"/><ellipse cx="256" cy="103.366" fill="#6171a3" rx="28.503" ry="28.503" transform="matrix(.892 -.452 .452 .892 -19.089 126.752)"/><g><g><path d="m203.749 259.878c.007 13.438-13.667 24.338-30.541 24.346s-30.559-10.878-30.566-24.315c-.007-13.438 13.667-24.338 30.541-24.347s30.559 10.878 30.566 24.316z" fill="#eda1ab"/><path d="m308.251 259.825c.007 13.438 13.691 24.324 30.566 24.315 16.874-.008 30.548-10.908 30.541-24.346s-13.691-24.324-30.565-24.316c-16.875.009-30.549 10.909-30.542 24.347z" fill="#eda1ab"/><path d="m285.944 248.837c-.009-18.509-13.419-20.242-29.96-20.233-16.54.008-29.948 1.754-29.939 20.263s13.426 33.506 29.966 33.498c16.541-.009 29.942-15.02 29.933-33.528z" fill="#4e5660"/></g></g><path d="m321.685 239.482h.014c4.136 0 7.492-3.349 7.5-7.486l.022-12c.008-4.142-3.344-7.506-7.486-7.514h-.014c-4.136 0-7.492 3.349-7.5 7.486l-.022 12c-.009 4.142 3.343 7.506 7.486 7.514zm144.448 51.203c26.166-5.028 45.867-26.181 45.867-51.443 0-17.809-9.798-33.567-24.741-43.084 2.862-10.53 3.803-22.01 2.765-33.749 5.009-4.034 7.465-10.558 5.978-17.077-2.347-10.283-6.009-20.306-10.884-29.79-3.452-6.716-10.015-11.112-17.475-11.875-7.585-10.347-16.492-18.93-26.553-25.506-3.466-2.266-8.114-1.293-10.381 2.174s-1.294 8.115 2.174 10.382c5.462 3.571 10.536 7.866 15.191 12.819h-110.462c.051-23.504-9.954-45.484-27.214-60.948 28.78.846 54.886 13.723 66.453 28.792 3.884 5.058 10.064 7.992 16.606 7.823 5.968-.14 8.963.476 10.262.476 3.755 0 6.996-2.815 7.44-6.635.478-4.114-2.471-7.837-6.585-8.315-3.778-.439-7.638-.615-11.483-.52-1.75.033-3.366-.691-4.342-1.962-19.348-25.202-61.662-39.275-99.282-33.288-10.22-4.617-21.543-7.209-33.467-7.209s-23.248 2.592-33.469 7.208c-37.617-5.984-79.933 8.085-99.28 33.287-.977 1.271-2.595 1.989-4.344 1.963-28.674-.72-55.65 13.638-74.572 39.461-7.453.768-14.009 5.163-17.458 11.874-4.876 9.485-8.537 19.508-10.882 29.79-1.495 6.553.996 13.067 5.982 17.081-1.04 11.737-.097 23.216 2.763 33.746-14.943 9.516-24.74 25.274-24.74 43.082 0 25.261 19.698 46.412 45.862 51.442-4.057 19.299-11.171 32.559-24.221 45.61-9.67 9.671-14.996 22.528-14.996 36.203 0 28.231 22.968 51.199 51.199 51.199h79.687c-5.942 11.92-10.101 24.719-12.215 37.832-1.404 8.71 1.788 17.294 8.54 22.962 3.158 2.651 7.891 2.264 10.566-.923 2.663-3.172 2.25-7.903-.923-10.566-2.669-2.24-3.931-5.637-3.375-9.085 2.449-15.194 7.994-29.913 16.137-43.036 15.974 13.377 29.915 35.021 35.315 54.37h-17.841c-4.142 0-7.5 3.358-7.5 7.5s3.358 7.5 7.5 7.5h188.556c15.239 0 26.82-13.668 24.394-28.722-2.114-13.114-6.273-25.912-12.215-37.831h79.687c28.231 0 51.199-22.968 51.199-51.199 0-13.675-5.326-26.533-14.996-36.203-13.052-13.053-20.169-26.308-24.227-45.61zm30.867-51.443c0 22.089-21.463 38.96-45.762 37.496 8.733-24.321 10.475-50.341 6.709-74.925 21.854 1.69 39.053 17.826 39.053 37.429zm-427.879-36.641c43.719 3.669 71.84-16.841 88.413-36.413h46.424c14.137 11.731 32.278 18.795 52.041 18.795s37.904-7.064 52.041-18.795h46.424c16.574 19.573 44.693 40.087 88.418 36.413 1.281 7.824 1.937 15.76 1.937 23.674 0 95.681-90.763 148.068-188.82 148.068-113.952.001-203.807-68.41-186.878-171.742zm-5.07-15.636c-.707-.098-3.421-.307-6.207-.307-6.75 0-13.229 1.067-19.257 3.008-1.717-7.385-2.338-15.317-1.836-23.478h99.912c-15.635 13.975-39.084 25.456-72.612 20.777zm311.289-20.777h99.92c.504 8.162-.114 16.097-1.83 23.483-9.044-2.915-19.144-3.582-25.515-2.701-33.504 4.666-56.943-6.812-72.575-20.782zm89.981-47.653c2.758 0 5.231 1.48 6.457 3.864 4.303 8.369 7.532 17.207 9.6 26.268.3 1.31-.777 2.52-2.1 2.52h-157.2c6.926-9.544 11.833-20.635 14.102-32.652zm-209.321-81.785c36.732 0 66.616 29.884 66.616 66.616s-29.884 66.617-66.616 66.617-66.616-29.884-66.616-66.617 29.884-66.616 66.616-66.616zm-137.459 42.453c6.525.18 12.724-2.765 16.607-7.824 11.568-15.069 37.673-27.951 66.455-28.793-17.23 15.436-27.266 37.404-27.216 60.949h-110.47c15.152-16.08 34.438-24.796 54.624-24.332zm-87.922 69.465c2.067-9.06 5.297-17.898 9.599-26.269 1.225-2.383 3.699-3.864 6.457-3.864h129.145c2.269 12.018 7.176 23.108 14.102 32.652h-157.203c-1.332.001-2.397-1.216-2.1-2.519zm-15.619 90.574c0-19.602 17.199-35.739 39.054-37.429-3.759 24.54-2.045 50.539 6.704 74.911-24.123 1.512-45.758-15.294-45.758-37.482zm135.055 144.619c-6.102 6.585-7.941 16.26-4.369 24.835h-87.842c-19.96 0-36.199-16.239-36.199-36.199 0-9.669 3.765-18.759 10.602-25.597 15.583-15.582 24.137-31.906 28.714-55.158 1.976-.097 3.946-.285 5.903-.566 18.982 38.746 53.911 65.883 94.856 81.567-4.195 3.565-8.132 7.306-11.665 11.118zm56.978 91.389c-5.724-24.82-23.756-52.842-44.764-68.769-3.899-2.956-4.633-8.732-1.212-12.423 5.074-5.475 11.094-10.813 17.554-15.581 12.218 3.636 25.013 6.387 38.237 8.211 4.565 22.777 9.122 57.557 9.782 88.563h-19.597zm63.333 0h-28.736c-.62-29.965-4.777-63.387-9.175-86.86 15.466 1.252 31.121 1.292 47.088 0-4.397 23.471-8.556 56.895-9.177 86.86zm15.003 0c.661-31.007 5.217-65.787 9.782-88.563 13.225-1.824 26.019-4.576 38.237-8.211 6.459 4.767 12.479 10.105 17.554 15.581 3.42 3.689 2.688 9.466-1.212 12.423-21.008 15.927-39.045 43.95-44.77 68.769h-19.591zm76.922 0h-41.868c5.4-19.351 19.343-40.997 35.319-54.373 8.144 13.12 13.684 27.842 16.134 43.038.938 5.823-3.453 11.335-9.585 11.335zm91.865-66.554h-87.843c3.573-8.577 1.729-18.255-4.369-24.835-3.534-3.813-7.478-7.551-11.674-11.114 40.214-15.402 75.62-42.277 94.867-81.571 1.956.281 3.926.469 5.901.566 4.578 23.252 13.132 39.575 28.714 55.158 6.838 6.837 10.603 15.928 10.603 25.597 0 19.961-16.239 36.199-36.199 36.199zm-198.159-118.831h.018c20.649-.01 37.44-18.417 37.429-41.032-.015-27.748-25.284-27.742-37.464-27.729-12.155.006-37.449.019-37.436 27.767.012 22.158 16.304 40.994 37.453 40.994zm-.009-53.761h.124c17.019 0 22.326 1.774 22.332 12.736.007 14.344-10.059 26.018-22.437 26.025h-.01c-12.897 0-22.446-12.296-22.453-26.002-.004-9.721 3.091-12.75 22.444-12.759zm.012-96.735c19.852 0 36.003-16.151 36.003-36.003s-16.15-36.003-36.003-36.003c-19.852 0-36.003 16.151-36.003 36.003s16.151 36.003 36.003 36.003zm0-57.006c11.581 0 21.003 9.422 21.003 21.003s-9.422 21.003-21.003 21.003-21.003-9.422-21.003-21.003 9.422-21.003 21.003-21.003zm-74.018 155.959h.017c4.134-.001 7.49-3.347 7.499-7.483.008-3.614 2.95-6.548 6.562-6.548h.015c3.628.008 6.556 2.95 6.548 6.577-.009 4.142 3.341 7.507 7.483 7.517h.017c4.134 0 7.49-3.347 7.499-7.483.026-11.917-9.596-21.584-21.515-21.61h-.049c-11.88 0-21.535 9.599-21.561 21.515-.008 4.14 3.343 7.506 7.485 7.515z"/></g></svg>