<svg id="Capa_1" enable-background="new 0 0 512 512" height="512" viewBox="0 0 512 512" width="512" xmlns="http://www.w3.org/2000/svg"><g><path d="m452.252 324.208c0-83.281-87.873-150.793-196.269-150.793s-196.269 67.512-196.269 150.793 87.873 136.452 196.269 136.452 196.269-53.172 196.269-136.452z" fill="#6171a3"/><ellipse cx="79.431" cy="288.322" fill="#b8866b" rx="44.86" ry="40.173"/><ellipse cx="432.569" cy="288.322" fill="#b8866b" rx="44.86" ry="40.173"/><path d="m350.712 504.5c9.471 0 16.646-8.496 15.138-17.846-8.539-52.971-54.47-93.427-109.85-93.427s-101.31 40.457-109.85 93.427c-1.507 9.351 5.667 17.846 15.138 17.846z" fill="#de5c6e"/><path d="m256 444.586c29.659 0 58.089-4.585 83.809-13.277-20.397-23.337-50.379-38.083-83.809-38.083-33.429 0-63.411 14.746-83.809 38.083 25.72 8.692 54.151 13.277 83.809 13.277z" fill="#d5364c"/><path d="m430.933 275.966c0 85.123-78.32 138.621-174.933 138.621s-174.933-53.498-174.933-138.621 78.32-154.128 174.933-154.128 174.933 69.005 174.933 154.128z" fill="#d2996f"/><path d="m436.705 178.689c-30.367-91.442-58.019-171.189-180.705-171.189s-150.338 79.747-180.705 171.189l180.705 10.59z" fill="#de5c6e"/><path d="m436.705 178.689c-6.112-18.407-12.116-36.338-18.806-53.242-44.054 6.192-107.309 12.635-161.899 12.635s-117.846-6.443-161.898-12.634c-6.69 16.904-12.694 34.835-18.806 53.242l180.704 10.589z" fill="#d5364c"/><path d="m332.125 112.834c0-42.042-34.082-58.117-76.125-58.117-42.042 0-76.124 16.075-76.124 58.117s34.082 76.124 76.124 76.124 76.125-34.082 76.125-76.124z" fill="#f5ea72"/><path d="m291.308 147.234c-1.325-18.988-13.214-40.352-35.119-54.584-6.188-4.02-14.371-.734-16.232 6.406-5.132 19.687-19.389 29.658-19.389 51.714 0 19.593 15.903 35.472 35.505 35.432 20.755-.041 36.68-18.263 35.235-38.968z" fill="#de5c6e"/><path d="m75.295 178.689c-9.971 22.873-13.405 66.684-1.569 98.524 4.183 11.254 18.789 14.344 27.134 5.712 19.216-19.878 41.58-62.143 45.089-90.672z" fill="#6171a3"/><path d="m436.705 178.689c9.971 22.873 13.405 66.684 1.569 98.524-4.183 11.254-18.789 14.344-27.134 5.712-19.216-19.878-41.58-62.143-45.089-90.672z" fill="#6171a3"/><path d="m256 138.082c-23.412 0-48.418-1.186-72.82-3.028 9.509 31.201 38.509 53.905 72.82 53.905s63.312-22.704 72.821-53.905c-24.403 1.841-49.409 3.028-72.821 3.028z" fill="#ebca5f"/><path d="m291.308 147.234c-.226-3.239-.767-6.548-1.605-9.878-11.433.465-22.743.726-33.703.726-10.894 0-22.133-.257-33.496-.717-1.196 4.017-1.936 8.398-1.936 13.405 0 19.593 15.903 35.472 35.505 35.432 20.755-.041 36.68-18.263 35.235-38.968z" fill="#d5364c"/><path d="m256 216.423c-87.437 0-187.854-14.601-220.239-21.263-13.075-2.689-21.495-15.469-18.805-28.544 2.689-13.075 15.458-21.5 28.545-18.806 34.366 7.068 131.391 20.271 210.499 20.271 79.109 0 176.133-13.203 210.499-20.271 13.077-2.69 25.855 5.73 28.545 18.806 2.69 13.075-5.73 25.855-18.805 28.544-32.385 6.662-132.802 21.263-220.239 21.263z" fill="#de5c6e"/><g><g><ellipse cx="176.355" cy="304.93" fill="#eda1ab" rx="29.387" ry="23.403"/><ellipse cx="335.645" cy="304.93" fill="#eda1ab" rx="29.387" ry="23.403"/><path d="m279.694 286.948c0-14.643-10.608-16.019-23.694-16.019s-23.694 1.376-23.694 16.019 10.608 26.513 23.694 26.513 23.694-11.87 23.694-26.513z" fill="#4e5660"/></g></g><path d="m276.146 266.759c-5.448-2.763-11.993-3.329-20.146-3.329-8.152 0-14.697.566-20.145 3.329-5.04 2.556-11.048 8.133-11.048 20.189 0 18.755 13.993 34.013 31.193 34.013s31.193-15.258 31.193-34.013c0-12.056-6.008-17.633-11.047-20.189zm-20.146 39.202c-8.929 0-16.193-8.529-16.193-19.013 0-5.907.655-8.518 16.193-8.518s16.193 2.611 16.193 8.518c0 10.484-7.264 19.013-16.193 19.013zm246.391-140.856c-3.529-17.148-20.254-28.164-37.402-24.64-7.659 1.575-18.463 3.458-31.492 5.43-27.333-77.586-62.997-145.895-177.497-145.895-40.082 0-72.263 8.196-98.38 25.057-3.48 2.247-4.48 6.889-2.233 10.369 2.247 3.479 6.891 4.479 10.368 2.233 23.619-15.247 53.138-22.659 90.245-22.659 49.682 0 85.34 12.962 112.219 40.792 22.034 22.813 36.305 53.532 50.131 92.292-26.206 3.62-58.58 7.272-91.832 9.686 8.519-13.309 13.107-28.777 13.107-44.935 0-41.701-30.479-65.617-83.624-65.617s-83.625 23.917-83.625 65.617c0 16.157 4.588 31.625 13.109 44.935-33.254-2.414-65.63-6.066-91.836-9.686 13.072-36.67 26.436-65.971 46.632-88.525 2.763-3.086 2.501-7.828-.585-10.59-3.086-2.764-7.827-2.501-10.591.585-22.328 24.937-36.607 56.674-50.594 96.343-13.03-1.972-23.836-3.855-31.496-5.43-17.142-3.528-33.875 7.478-37.404 24.64-3.518 17.105 7.535 33.884 24.641 37.402 6.313 1.299 15.202 2.897 26.057 4.631-1.457 10.998-2.034 23.945-.998 37.17-19.266 7.303-32.237 24.634-32.237 44.014 0 17.259 10.125 32.404 25.25 40.772 2.352 58.412 44.705 99.004 98.395 120.305-5.835 11.155-9.913 23.298-11.971 36.061-2.243 13.907 8.457 26.54 22.542 26.54h141.256c4.143 0 7.5-3.358 7.5-7.5s-3.357-7.5-7.5-7.5h-141.258c-4.839 0-8.512-4.329-7.733-9.152 4.807-29.82 22.224-55.787 47.956-71.675 14.994 3.371 30.767 5.336 46.989 5.799v44.556c0 4.142 3.357 7.5 7.5 7.5s7.5-3.358 7.5-7.5v-44.556c16.223-.463 31.996-2.428 46.989-5.799 25.732 15.888 43.149 41.855 47.956 71.675.777 4.816-2.886 9.152-7.733 9.152h-12.071c-4.143 0-7.5 3.358-7.5 7.5s3.357 7.5 7.5 7.5h12.071c14.085 0 24.785-12.632 22.542-26.54-2.058-12.768-6.143-24.914-11.981-36.073 53.671-21.295 96.011-61.88 98.372-120.275 15.144-8.364 25.284-23.519 25.284-40.79 0-19.379-12.971-36.707-32.237-44.01 1.036-13.227.46-26.175-.997-37.174 10.854-1.733 19.742-3.332 26.055-4.63 17.105-3.522 28.158-20.3 24.641-37.405zm-246.391-102.888c37.61 0 68.624 13.013 68.624 50.617 0 17.244-6.349 33.542-17.918 46.213-2.967.166-5.932.322-8.893.464 4.809-21.385-7.285-53.495-37.539-73.151-10.567-6.867-24.451-1.184-27.575 10.804-4.777 18.327-19.632 29.136-19.632 53.605 0 2.939.318 5.866.918 8.731-2.893-.139-5.792-.292-8.691-.454-11.571-12.671-17.919-28.969-17.919-46.213 0-37.61 31.028-50.616 68.625-50.616zm26.036 97.928c-17.964.576-33.878.589-52.348-.008-1.068-2.986-1.62-6.12-1.62-9.366 0-19.488 13.705-28.947 19.147-49.823.576-2.21 3.005-3.231 4.888-2.008 18.296 11.887 30.451 30.593 31.724 48.818.295 4.234-.322 8.45-1.791 12.387zm-239.965 128.177c0-11.974 7.598-22.861 19.224-28.541 1.252 6.863 3.015 13.625 5.401 20.045 1.56 4.196 4.212 7.765 7.601 10.428 1.082 10.69 3.382 20.941 6.836 30.693-20.831.884-39.062-13.701-39.062-32.625zm33.059-78.92c16.359 2.394 35.701 4.901 56.687 7.145-8.41 22.461-23.145 47.507-36.349 61.164-4.507 4.664-12.441 2.999-14.711-3.112-7.778-20.923-8.13-46.179-5.627-65.197zm83.487 227.002c-53.955-20.585-86.439-57.056-90.863-101.619 6.804 1.417 13.177 1.528 19.538.634 18.817 37.484 54.689 62.638 95.381 75.646-9.297 7.277-17.387 15.818-24.056 25.339zm97.383-29.318c-44.362 0-85.383-11.786-115.504-33.187-28.154-20.003-45.438-47.001-50.417-78.533 6.063-.226 11.844-2.751 16.174-7.229 15.433-15.965 32.07-44.596 40.95-70.024 79.699 7.701 137.922 7.699 217.596 0 8.879 25.429 25.515 54.059 40.948 70.024 4.324 4.474 10.096 6.998 16.153 7.229-4.979 31.53-22.243 58.533-50.396 78.534-30.121 21.401-71.142 33.186-115.504 33.186zm124.185-190.539c20.985-2.244 40.326-4.751 56.685-7.145 2.502 19.018 2.151 44.274-5.627 65.198-2.268 6.104-10.199 7.781-14.711 3.112-13.203-13.658-27.937-38.704-36.347-61.165zm-26.816 219.849c-6.666-9.516-14.743-18.06-24.035-25.334 40.681-13.007 76.57-38.198 95.367-75.629 6.44.892 12.836.745 19.511-.641-4.426 44.554-36.903 81.019-90.843 101.604zm116.56-148.074c0 17.936-17.057 33.506-39.061 32.62 3.453-9.75 5.753-19.999 6.835-30.687 3.39-2.664 6.042-6.232 7.601-10.428 2.386-6.419 4.148-13.178 5.4-20.04 11.625 5.678 19.225 16.561 19.225 28.535zm-213.929-79.399c-86.869 0-186.579-14.496-218.729-21.108-9.003-1.852-14.821-10.684-12.969-19.688 1.844-8.976 10.605-14.837 19.688-12.97 34.626 7.122 132.362 20.425 212.01 20.425s177.384-13.303 212.01-20.425c8.923-1.838 17.812 3.851 19.688 12.97 1.852 9.003-3.967 17.835-12.97 19.688-32.149 6.612-131.859 21.108-218.728 21.108zm-74.732 48.567c-4.143 0-7.5 3.358-7.5 7.5v12c0 4.142 3.357 7.5 7.5 7.5s7.5-3.358 7.5-7.5v-12c0-4.142-3.358-7.5-7.5-7.5zm149.464 0c-4.143 0-7.5 3.358-7.5 7.5v12c0 4.142 3.357 7.5 7.5 7.5s7.5-3.358 7.5-7.5v-12c0-4.142-3.357-7.5-7.5-7.5z"/></g></svg>