<svg id="Capa_1" enable-background="new 0 0 512 512" height="512" viewBox="0 0 512 512" width="512" xmlns="http://www.w3.org/2000/svg"><g><path d="m29.302 40.304c28.354 32.532 71.598 62.927 122.426 81.721 10.092-12.045 16.131-27.24 16.131-43.773 0-39.076-33.645-70.753-75.147-70.753-26.667.001-50.072 13.09-63.41 32.805z" fill="#cb775a"/><path d="m151.728 122.026c-24.199-59.769-75.213-81.721-122.426-81.721-7.421 10.968-11.738 23.98-11.738 37.948 0 39.076 33.645 70.753 75.147 70.753 23.944 0 45.255-10.556 59.017-26.98z" fill="#ebca5f"/><path d="m482.698 40.304c-28.353 32.532-71.598 62.927-122.426 81.721-10.092-12.045-16.131-27.24-16.131-43.773 0-39.076 33.645-70.753 75.147-70.753 26.667.001 50.072 13.09 63.41 32.805z" fill="#cb775a"/><path d="m360.272 122.026c24.199-59.769 75.212-81.721 122.426-81.721 7.421 10.968 11.738 23.98 11.738 37.948 0 39.076-33.645 70.753-75.147 70.753-23.944 0-45.256-10.556-59.017-26.98z" fill="#ebca5f"/><path d="m388.398 482.99c-10.292-63.843-65.651-112.604-132.398-112.604s-122.106 48.761-132.399 112.604c-1.817 11.27 6.83 21.51 18.246 21.51h228.305c11.416 0 20.063-10.24 18.246-21.51z" fill="#d2996f"/><path d="m256 426.13c34.085 0 66.778-5.102 96.456-14.803-24.387-25.241-58.586-40.942-96.456-40.942s-72.069 15.701-96.456 40.942c29.677 9.702 62.371 14.803 96.456 14.803z" fill="#cb775a"/><path d="m466.84 229.056c0 102.595-94.396 167.075-210.84 167.075s-210.84-64.48-210.84-167.075 94.396-185.765 210.84-185.765 210.84 83.17 210.84 185.765z" fill="#d2996f"/><path d="m390.582 198.872c-38.601-36.514-72.924-60.092-134.582-60.092s-95.982 23.578-134.583 60.092c-3.39 9.545-5.099 20.05-5.099 31.446 0 60.167 62.538 108.942 139.681 108.942 77.144 0 139.681-48.775 139.681-108.942.001-11.397-1.708-21.901-5.098-31.446z" fill="#ffddcf"/><path d="m256 134.779c-74.702 0-120.074 23.243-134.583 64.092 39.952-5.7 108.835-20.814 134.583-56.605 25.747 35.791 94.631 50.905 134.582 56.605-14.509-40.849-59.88-64.092-134.582-64.092z" fill="#6171a3"/><path d="m256 142.266c30.78 0 60.98-5.192 58.856-28.47-2.906-31.834-28.076-70.505-58.856-70.505s-55.95 38.671-58.856 70.506c-2.125 23.277 28.076 28.469 58.856 28.469z" fill="#ebca5f"/><g><g><ellipse cx="176.355" cy="263.178" fill="#eda1ab" rx="29.387" ry="23.403"/><ellipse cx="335.645" cy="263.178" fill="#eda1ab" rx="29.387" ry="23.403"/><path d="m279.693 245.196c0-14.643-10.608-16.019-23.693-16.019-13.086 0-23.694 1.376-23.694 16.019s10.608 26.513 23.694 26.513c13.085 0 23.693-11.87 23.693-26.513z" fill="#4e5660"/></g></g><path d="m310.331 504.5c0-33.529-24.325-55.709-54.331-55.709s-54.331 22.18-54.331 55.709z" fill="#ebca5f"/><path d="m256 100.471c8.39 0 15.191-6.425 15.191-12.153s-6.801-8.59-15.191-8.59-15.191 2.862-15.191 8.59c-.001 5.728 6.801 12.153 15.191 12.153zm74.732 142.267c4.142 0 7.5-3.358 7.5-7.5v-12c0-4.142-3.358-7.5-7.5-7.5s-7.5 3.358-7.5 7.5v12c0 4.142 3.358 7.5 7.5 7.5zm171.204-164.485c0-43.149-37.076-78.253-82.648-78.253-35.02 0-65.739 20.683-77.554 51.212-53.483-20.202-116.055-20.933-171.474.002-11.813-30.53-42.528-51.214-77.548-51.214-3.949 0-7.92.267-11.801.793-4.104.556-6.981 4.334-6.425 8.439.556 4.104 4.333 6.987 8.439 6.425 31.992-4.332 62.687 12.89 73.488 41.31-9.747 4.43-19.134 9.527-28.092 15.264-21.77-22.031-50.818-35.432-83.472-38.652 2.495-2.344 5.195-4.522 8.093-6.495 3.424-2.331 4.31-6.997 1.978-10.42-2.331-3.424-6.996-4.311-10.42-1.978-21.563 14.681-34.436 38.445-34.436 63.567 0 30.399 18.613 57.801 47.132 70.649-12.79 24.833-19.536 52.025-19.536 80.153 0 80.951 55.866 138.512 133.208 162.271-29.178 21.902-48.803 54.078-54.67 90.47-2.556 15.852 9.648 30.203 25.65 30.203h195.25c4.142 0 7.5-3.358 7.5-7.5s-3.358-7.5-7.5-7.5h-19.665c-3.446-33.291-29.279-55.709-61.432-55.709-32.116 0-57.982 22.378-61.432 55.709h-52.72c-6.967 0-11.897-6.265-10.841-12.816 5.897-36.58 27.35-68.404 59.025-87.759 42.317 9.604 89.531 9.625 131.939 0 31.675 19.355 53.127 51.179 59.025 87.759 1 6.202-3.287 11.83-9.211 12.698-4.098.601-6.934 4.41-6.333 8.509.599 4.084 4.391 6.932 8.509 6.333 14.233-2.087 24.174-15.477 21.844-29.927-5.867-36.394-25.499-68.565-54.682-90.466 77.419-23.779 133.219-81.381 133.219-162.275 0-28.127-6.746-55.318-19.535-80.15 28.516-12.848 47.128-40.253 47.128-70.652zm-199.599 418.747h-92.675c7.235-54.328 85.443-54.311 92.675 0zm164.784-463.432c-32.643 3.226-61.678 16.636-83.442 38.662-8.957-5.737-18.344-10.834-28.091-15.264 16.728-44.014 76.66-56.035 111.533-23.398zm-211.121 17.223c21.075 0 48.113 27.82 51.387 63.687.359 3.942-.558 6.966-2.887 9.518-4.485 4.913-16.54 10.77-48.5 10.77s-44.015-5.857-48.5-10.77c-2.33-2.552-3.247-5.576-2.887-9.518 3.273-35.867 30.312-63.687 51.387-63.687zm0 103.228c29.764 31.816 90.776 45.776 128.855 51.587 2.144 7.364 3.326 15.566 3.326 24.711 0 55.935-59.296 101.442-132.181 101.442s-132.181-45.507-132.181-101.442c0-9.145 1.182-17.348 3.326-24.711 38.079-5.811 99.091-19.771 128.855-51.587zm-121.804 35.226c16.714-28.234 50.8-39.788 81.141-44.231 6.682 2.06 14.693 3.444 24.084 4.163-26.635 23.089-74.874 34.752-105.225 40.068zm138.378-40.068c9.393-.719 17.405-2.103 24.088-4.163 30.341 4.443 64.427 15.998 81.141 44.231-30.352-5.316-78.591-16.977-105.229-40.068zm-239.155-101.309c32.242.909 61.056 12.505 82.339 33.042-20.974 15.606-38.192 34.185-51.109 54.885-35.286-15.052-50.363-55.279-31.23-87.927zm425.921 181.188c0 160.735-235.244 201.493-347.894 116.035-38.459-29.175-58.787-69.299-58.787-116.035 0-86.627 70.851-159.007 164.415-174.975-15.415 15.685-25.558 38.85-27.4 59.033-.711 7.788 1.432 14.801 6.187 20.349-56.302 13.107-87.044 46.982-87.044 96.854 0 31.461 15.555 60.919 43.799 82.948 27.694 21.599 64.409 33.494 103.382 33.494s75.689-11.895 103.382-33.494c28.244-22.029 43.799-51.487 43.799-82.948 0-49.873-30.726-83.763-87.029-96.871 4.745-5.545 6.883-12.552 6.173-20.332-1.844-20.209-12.009-43.39-27.41-59.035 93.571 15.965 164.427 88.347 164.427 174.977zm-11.989-93.261c-12.909-20.686-30.121-39.269-51.109-54.885 21.288-20.541 50.108-32.137 82.358-33.042 18.875 32.085 4.529 72.665-31.249 87.927zm-295.471-9.352c4.142 0 7.5-3.358 7.5-7.5v-12c0-4.142-3.358-7.5-7.5-7.5s-7.5 3.358-7.5 7.5v12c0 4.142 3.358 7.5 7.5 7.5zm208.239-27c-4.142 0-7.5 3.358-7.5 7.5v12c0 4.142 3.358 7.5 7.5 7.5s7.5-3.358 7.5-7.5v-12c0-4.142-3.358-7.5-7.5-7.5zm-104.119 179.766c17.2 0 31.193-15.258 31.193-34.013 0-12.057-6.008-17.634-11.048-20.189-5.448-2.763-11.994-3.329-20.146-3.329s-14.697.566-20.146 3.329c-5.04 2.556-11.048 8.133-11.048 20.189.001 18.755 13.995 34.013 31.195 34.013zm0-42.531c15.539 0 16.193 2.611 16.193 8.519 0 10.484-7.264 19.013-16.193 19.013s-16.193-8.529-16.193-19.013c-.001-5.908.654-8.519 16.193-8.519zm-74.732 6.06c4.142 0 7.5-3.358 7.5-7.5v-12c0-4.142-3.358-7.5-7.5-7.5s-7.5 3.358-7.5 7.5v12c0 4.142 3.358 7.5 7.5 7.5z"/></g></svg>