<svg id="Capa_1" enable-background="new 0 0 512.012 512.012" height="512" viewBox="0 0 512.012 512.012" width="512" xmlns="http://www.w3.org/2000/svg"><g><path d="m240.262 433.41c0 36.229-77.422 65.599-141.696 65.599s-91.06-29.37-91.06-65.599c0-36.23 26.786-65.599 91.06-65.599s141.696 29.369 141.696 65.599z" fill="#d4d4ff"/><path d="m271.75 433.41c0 36.229 77.422 65.599 141.696 65.599s91.06-29.37 91.06-65.599c0-36.23-26.786-65.599-91.06-65.599-64.274-.001-141.696 29.369-141.696 65.599z" fill="#d4d4ff"/><path d="m456.461 281.523c9.267 84.504 8.103 169.008-118.074 169.008h-164.762c-126.177 0-127.341-84.504-118.074-169.008z" fill="#d2996f"/><ellipse cx="66.54" cy="269.324" fill="#ffcbbe" rx="48.136" ry="43.107"/><ellipse cx="445.472" cy="269.324" fill="#ffcbbe" rx="48.136" ry="43.107"/><path d="m357.636 504.512c10.163 0 17.861-9.116 16.244-19.15-9.163-56.84-58.449-100.251-117.874-100.251s-108.711 43.412-117.874 100.251c-1.617 10.034 6.081 19.15 16.244 19.15z" fill="#5ec783"/><path d="m256.006 438.251c31.308 0 61.325-4.789 88.512-13.874-21.847-24.116-53.409-39.267-88.512-39.267s-66.665 15.151-88.511 39.267c27.186 9.086 57.203 13.874 88.511 13.874z" fill="#3cb767"/><ellipse cx="256.006" cy="403.581" fill="#ffddcf" rx="40.56" ry="57.912"/><path d="m289.428 436.383c4.499-9.326 7.138-20.622 7.138-32.802 0-4.004-.285-7.913-.827-11.689-12.431-4.387-25.801-6.781-39.733-6.781s-27.303 2.395-39.733 6.781c-.542 3.775-.827 7.685-.827 11.689 0 12.18 2.639 23.476 7.138 32.802 10.924 1.232 22.087 1.869 33.422 1.869 11.336-.001 22.498-.637 33.422-1.869z" fill="#ffcbbe"/><path d="m443.717 259.285c0 91.34-84.041 148.746-187.711 148.746s-187.711-57.406-187.711-148.746 84.041-165.386 187.711-165.386 187.711 74.046 187.711 165.386z" fill="#ffddcf"/><path d="m263.596 80.749c149.923-57.088 199.927 90.167 187.236 142.03-1.314 5.369-6.273 9.081-11.798 8.914-80.411-2.432-149.484-39.154-175.317-68.774-4.096-4.697-11.324-4.697-15.421 0-25.833 29.62-94.906 66.342-175.317 68.774-5.525.167-10.484-3.545-11.798-8.914-12.692-51.863 37.313-199.118 187.236-142.03 4.883 1.859 10.296 1.859 15.179 0z" fill="#d2996f"/><path d="m63.941 76.883-5.398 11.123c-3.33 6.862-13.105 6.862-16.435 0l-5.398-11.123c-2.738-5.641-7.294-10.198-12.935-12.935l-11.123-5.398c-6.861-3.33-6.861-13.105 0-16.435l11.123-5.398c5.641-2.738 10.198-7.294 12.935-12.935l5.398-11.123c3.33-6.862 13.105-6.862 16.435 0l5.398 11.123c2.738 5.641 7.294 10.198 12.935 12.935l11.123 5.398c6.861 3.33 6.861 13.105 0 16.435l-11.123 5.398c-5.641 2.737-10.197 7.293-12.935 12.935z" fill="#8cd6fe"/><path d="m452.902 148.085-6.004 12.372c-3.704 7.632-14.577 7.632-18.281 0l-6.004-12.372c-3.045-6.275-8.113-11.343-14.388-14.388l-12.372-6.004c-7.632-3.704-7.632-14.577 0-18.281l12.372-6.004c6.275-3.045 11.343-8.113 14.388-14.388l6.004-12.372c3.704-7.632 14.577-7.632 18.281 0l6.004 12.372c3.045 6.275 8.113 11.343 14.388 14.388l12.372 6.004c7.632 3.704 7.632 14.577 0 18.281l-12.372 6.004c-6.274 3.045-11.342 8.113-14.388 14.388z" fill="#8cd6fe"/><ellipse cx="256.006" cy="54.766" fill="#de5c6e" rx="37.883" ry="47.254"/><path d="m316.036 103.437c21.116-21.116 26.241-50.227 11.447-65.021-14.91-14.91-42.95-9.211-63.158 9.661-4.668 4.359-11.971 4.359-16.638 0-20.208-18.871-48.249-24.57-63.158-9.661-14.794 14.794-9.669 43.905 11.447 65.021z" fill="#f2bcd5"/><path d="m256.006 123.849c-21.027 0-64.593-4.859-94.51-23.071-9.504-5.786-12.519-18.181-6.733-27.685 5.786-9.505 18.182-12.519 27.685-6.733 18.347 11.169 51.593 17.195 73.559 17.195s55.211-6.026 73.559-17.195c9.504-5.784 21.9-2.772 27.685 6.733 5.786 9.504 2.771 21.899-6.733 27.685-29.919 18.212-73.485 23.071-94.512 23.071z" fill="#5ec783"/><g><g fill="#eda1ab"><ellipse cx="177.629" cy="284.855" rx="28.919" ry="23.03"/><ellipse cx="334.383" cy="284.855" rx="28.919" ry="23.03"/></g></g><path d="m9.378 65.297 11.122 5.398c4.108 1.994 7.469 5.354 9.462 9.462l5.398 11.123c6.054 12.475 23.859 12.512 29.93 0l5.398-11.123c1.994-4.108 5.354-7.469 9.462-9.462l11.122-5.398c12.476-6.054 12.513-23.858.001-29.93l-11.123-5.398c-4.108-1.994-7.469-5.354-9.462-9.462l-5.397-11.123c-4.771-9.83-15.091-9.409-14.965-9.372-6.425 0-12.16 3.591-14.965 9.372l-5.398 11.122c-1.994 4.108-5.354 7.469-9.462 9.462l-11.124 5.399c-12.474 6.055-12.51 23.858.001 29.93zm6.548-16.435 11.123-5.398c7.123-3.458 12.95-9.285 16.408-16.408l5.397-11.123c.605-1.245 2.34-1.239 2.941 0l5.398 11.123c3.458 7.124 9.285 12.951 16.409 16.408l11.123 5.398c1.241.602 1.242 2.337 0 2.94l-11.123 5.398c-7.124 3.457-12.951 9.285-16.409 16.409l-5.398 11.123c-.602 1.241-2.337 1.242-2.94-.001l-5.398-11.122c-3.456-7.125-9.283-12.952-16.407-16.409l-11.123-5.398c-1.241-.602-1.242-2.338-.001-2.94zm448.868 319.548c2.459-14.877 3.114-32.072 2.094-52.383 20.077-7.646 34.221-25.698 34.221-46.703 0-23.396-17.883-43.508-42.118-49.056 2.71-15.62.832-36.27-5.211-56.811l5.872-12.099c2.299-4.739 6.176-8.616 10.915-10.916l12.372-6.004c13.245-6.428 13.283-25.33 0-31.776l-12.372-6.004c-4.739-2.3-8.615-6.176-10.915-10.915l-6.004-12.372c-6.429-13.249-25.33-13.283-31.776 0-5.381 10.379-6.026 14.368-10.858 19.031-14.84-13.675-31.987-23.088-51.087-28.036-4.52-4.682-10.482-7.523-16.74-8.247-2.263-23.009-22.034-38.536-49.711-32.301-17.927-31.725-56.997-31.744-74.935 0-27.388-6.169-47.41 9.006-49.709 32.286-6.518.759-12.351 3.694-16.735 8.246-27.722 7.196-51.822 24.197-69.819 49.295-2.414 3.366-1.642 8.052 1.724 10.465 3.351 2.403 8.041 1.657 10.465-1.724 13.346-18.612 30.414-32.127 49.888-39.735-.303 9.637 4.436 19.17 13.243 24.532 31.335 19.076 76.603 24.165 98.41 24.165s67.075-5.089 98.41-24.165c8.824-5.372 13.565-14.929 13.242-24.585 10.727 4.163 20.654 10.099 29.687 17.75l-4.768 2.314c-13.245 6.428-13.283 25.33 0 31.776l12.372 6.004c4.739 2.3 8.616 6.176 10.916 10.916l6.004 12.372c3.458 7.126 11.112 11.09 19.076 9.656 4.518 17.892 5.552 35.549 2.601 47.608-.469 1.915-2.267 3.271-4.286 3.201-83.914-2.538-148.741-41.957-169.892-66.207-7.072-8.109-19.634-8.13-26.725 0-21.15 24.251-85.977 63.67-169.891 66.207-2.04.069-3.818-1.285-4.286-3.2-4.259-17.402-.448-44.515 9.709-69.074 1.583-3.828-.237-8.214-4.064-9.797-3.827-1.584-8.213.236-9.797 4.064-10.527 25.453-14.791 53.899-11.303 74.081-24.229 5.552-42.107 25.661-42.107 49.054 0 21.005 14.143 39.057 34.221 46.703-1.02 20.308-.365 37.501 2.093 52.377-30.106 11.343-47.212 34.72-47.212 65.005 0 21.396 8.375 39.456 24.221 52.225 28.771 23.186 75.51 23.479 111.888 17.911 4.413 5.227 11.029 8.466 18.261 8.466h203.26c7.233 0 13.849-3.239 18.261-8.466 27.012 4.134 59.03 4.841 85.066-3.749 3.934-1.298 6.07-5.539 4.772-9.473s-5.54-6.071-9.472-4.773c-22.73 7.501-51.126 6.941-74.703 3.655.083-1.669-.004-3.357-.275-5.039-1.602-9.939-4.351-19.526-8.136-28.609 45.191-6.896 76.23-28.83 88.391-72.345 23.245 9.353 35.467 26.576 35.467 50.196 0 14.286-4.517 26.311-13.424 35.742-2.844 3.011-2.709 7.758.302 10.602s7.758 2.709 10.602-.302c11.461-12.134 17.52-28.055 17.52-46.041-.003-30.282-17.111-53.656-47.215-64.998zm-185.767-339.49c-7.015 3.391-13.758 8.014-19.821 13.674-1.795 1.677-4.605 1.675-6.4 0-6.058-5.657-12.797-10.278-19.807-13.668 12.205-18.59 33.89-18.488 46.028-.006zm-36.458 24.638c7.535 7.036 19.34 7.036 26.875 0 23.97-22.383 57.169-21.878 58.917 4.956-.914.427-1.814.903-2.695 1.439-16.557 10.079-48.419 16.102-69.659 16.102s-53.102-6.023-69.658-16.101c-.878-.534-1.779-1.011-2.696-1.441 1.748-26.842 34.932-27.351 58.916-4.955zm104.047 40.814c-28.499 17.349-70.365 21.978-90.61 21.978s-62.111-4.629-90.61-21.978c-5.957-3.627-7.853-11.422-4.227-17.379s11.395-7.87 17.379-4.227c19.724 12.007 53.896 18.289 77.459 18.289 23.562 0 57.734-6.282 77.458-18.289 5.957-3.627 13.753-1.73 17.379 4.227 3.625 5.956 1.729 13.752-4.228 17.379zm93.535 62.811c-.975 2.009-3.811 2.009-4.786 0l-6.004-12.373c-3.764-7.755-10.107-14.098-17.861-17.861l-12.372-6.004c-2.004-.973-2.012-3.809 0-4.786l12.372-6.004c7.755-3.763 14.098-10.106 17.862-17.861l6.004-12.372c.975-2.009 3.811-2.009 4.786 0l6.004 12.372c3.763 7.755 10.107 14.098 17.861 17.861l12.372 6.004c2.004.973 2.012 3.809 0 4.786l-12.372 6.004c-7.755 3.764-14.098 10.107-17.861 17.861zm-362.869 81.852c79.795-3.534 149.363-39.881 176.665-71.186 1.106-1.268 3.008-1.272 4.117-.001 27.308 31.312 96.876 67.653 176.666 71.187 14.839 101.301-76.021 161.496-178.724 161.496-49.861 0-95.39-13.707-128.198-38.596-41.557-31.525-57.334-76.421-50.526-122.9zm211.084 174.606c-3.106 22.914-16.562 40.351-32.36 40.351s-29.255-17.437-32.361-40.351c20.794 2.455 42.827 2.584 64.721 0zm-214.456-94.166c19.829 42.209 59.179 70.306 104.55 84.59-13.334 10.268-24.375 22.958-32.611 37.329-70.281-8.823-88.811-51.943-85.869-121.826 4.64.498 9.027.5 13.93-.093zm-48.006-50.15c0-17.376 14.592-32.218 33.819-35.086.868.777 1.809 1.467 2.802 2.078-3.474 23.149-1.766 46.797 5.529 68.574-23.817.791-42.15-16.137-42.15-35.566zm104.824 214.844c-.271 1.682-.358 3.37-.275 5.039-10.904 1.52-21.6 2.302-31.887 2.302-53.104 0-83.56-21.176-83.56-58.1 0-23.62 12.222-40.842 35.467-50.196 12.137 43.429 43.097 65.441 88.391 72.351-3.784 9.082-6.534 18.667-8.136 28.604zm226.908 12.843h-203.26c-5.647 0-9.707-5.077-8.84-10.456 5.194-32.218 24.039-60.264 51.877-77.387 3.587.809 7.214 1.546 10.882 2.203 2.793 32.776 22.93 57.62 47.711 57.62s44.918-24.844 47.711-57.62c3.668-.657 7.295-1.394 10.882-2.203 27.837 17.123 46.682 45.169 51.877 77.387.868 5.39-3.204 10.456-8.84 10.456zm8.537-55.619c-8.235-14.372-19.279-27.061-32.612-37.33 45.069-14.19 84.617-42.165 104.547-84.598 4.759.582 9.087.623 13.927.103 2.938 69.86-15.539 112.992-85.862 121.825zm77.784-136.502c7.305-21.804 9-45.457 5.529-68.579.99-.609 1.926-1.3 2.792-2.075 19.233 2.864 33.831 17.708 33.831 35.088-.001 19.703-18.661 36.361-42.152 35.566zm-140.194-37.597c4.142 0 7.5-3.358 7.5-7.5 0-3.455 2.811-6.265 6.265-6.265s6.265 2.81 6.265 6.265c0 4.142 3.358 7.5 7.5 7.5s7.5-3.358 7.5-7.5c0-11.726-9.54-21.265-21.265-21.265-11.726 0-21.265 9.539-21.265 21.265 0 4.142 3.358 7.5 7.5 7.5zm-123.045 0c4.142 0 7.5-3.358 7.5-7.5 0-3.455 2.811-6.265 6.265-6.265 3.455 0 6.265 2.81 6.265 6.265 0 4.142 3.358 7.5 7.5 7.5s7.5-3.358 7.5-7.5c0-11.726-9.54-21.265-21.265-21.265s-21.265 9.539-21.265 21.265c0 4.142 3.358 7.5 7.5 7.5zm75.288 22.741c7.764 0 15.146-3.362 20.255-9.224 2.721-3.122 2.396-7.86-.727-10.582-3.124-2.721-7.861-2.396-10.582.727-2.259 2.593-5.521 4.079-8.947 4.079-3.427 0-6.688-1.487-8.947-4.079-2.723-3.123-7.458-3.447-10.582-.727-3.123 2.722-3.448 7.46-.727 10.582 5.11 5.862 12.493 9.224 20.257 9.224z"/></g></svg>