<svg id="Capa_1" enable-background="new 0 0 512 512" height="512" viewBox="0 0 512 512" width="512" xmlns="http://www.w3.org/2000/svg"><g><path d="m141.609 343.897c6.403-33.982-19.778-65.015-53.994-64.833-29.005.153-53.165 23.451-54.315 52.433-1.097 27.668 18.399 51.046 44.457 55.93 6.535 1.225 11.139 6.967 11.435 13.61 1.275 28.627 25.027 52.275 54.909 52.116 29.005-.154 53.165-23.452 54.314-52.434 1.265-31.893-24.835-58.087-56.806-56.822z" fill="#de5c6e"/><path d="m370.391 343.897c-6.403-33.982 19.778-65.015 53.994-64.833 29.004.154 53.165 23.452 54.314 52.434 1.097 27.668-18.399 51.046-44.457 55.93-6.535 1.225-11.139 6.967-11.435 13.61-1.275 28.627-25.027 52.275-54.909 52.116-29.004-.154-53.165-23.452-54.314-52.434-1.264-31.894 24.836-58.088 56.807-56.823z" fill="#de5c6e"/><ellipse cx="57.844" cy="254.223" fill="#ffcbbe" rx="50.344" ry="45.084"/><ellipse cx="454.156" cy="254.223" fill="#ffcbbe" rx="50.344" ry="45.084"/><path d="m362.291 500.197c10.629 0 18.681-9.534 16.989-20.028-9.583-59.447-61.13-104.849-123.28-104.849s-113.697 45.403-123.28 104.849c-1.692 10.494 6.36 20.028 16.989 20.028z" fill="#6171a3"/><path d="m256 429.291c32.311 0 63.295-4.896 91.384-14.197-22.797-24.469-55.303-39.775-91.384-39.775-36.082 0-68.587 15.305-91.384 39.775 28.089 9.3 59.073 14.197 91.384 14.197z" fill="#475a99"/><path d="m452.32 243.722c0 95.53-87.896 155.568-196.32 155.568s-196.32-60.038-196.32-155.568 87.895-172.972 196.32-172.972 196.32 77.443 196.32 172.972z" fill="#ffddcf"/><path d="m185.471 81.616c-9.504-12.473-58.875-56.158-127.114-69.334-15.571-3.007-30.223 8.554-31.123 24.387-2.478 43.586 10.33 116.627 58.867 136.981z" fill="#f2bcd5"/><path d="m130.045 132.95 55.426-51.334c-9.504-12.473-58.874-56.158-127.114-69.334-9-1.738-17.688 1.398-23.596 7.406 28.185 14.941 65.743 51.55 95.284 113.262z" fill="#6171a3"/><path d="m326.529 81.616c9.504-12.473 58.875-56.158 127.114-69.334 15.571-3.007 30.223 8.554 31.123 24.387 2.478 43.586-10.329 116.627-58.867 136.981z" fill="#f2bcd5"/><path d="m381.955 132.95-55.426-51.334c9.503-12.473 58.874-56.158 127.114-69.334 9.001-1.738 17.688 1.398 23.596 7.406-28.185 14.941-65.743 51.55-95.284 113.262z" fill="#6171a3"/><path d="m261.969 125.226c30.516 23.337 61.761 29.476 90.777 26.545 4.604-.465 8.558 3.157 8.439 7.783-.773 30.178 17.1 86.312 72.388 88.034 24.296.757 45.09-18.057 45.171-42.364.046-14.046-6.716-26.509-17.172-34.289-4.721-3.513-6.625-9.728-4.837-15.334 11.124-34.88-21.59-70.708-65.84-69.075-5.807.214-11.173-3.141-13.636-8.405-17.807-38.057-73.817-51.806-113.396-29.156-4.886 2.796-10.841 2.796-15.727 0-39.579-22.65-95.589-8.901-113.396 29.156-2.463 5.264-7.828 8.619-13.636 8.405-44.249-1.633-76.963 34.195-65.839 69.075 1.788 5.606-.116 11.821-4.837 15.334-10.456 7.78-17.218 20.243-17.172 34.289.08 24.307 20.875 43.121 45.171 42.364 55.288-1.722 73.161-57.857 72.388-88.034-.118-4.626 3.835-8.248 8.439-7.783 29.016 2.931 60.261-3.208 90.777-26.545 3.517-2.689 8.421-2.689 11.938 0z" fill="#de5c6e"/><g><g><ellipse cx="176.355" cy="262.005" fill="#eda1ab" rx="29.387" ry="23.403"/><ellipse cx="335.645" cy="262.005" fill="#eda1ab" rx="29.387" ry="23.403"/><path d="m279.694 244.024c0-14.643-10.608-16.019-23.694-16.019-13.085 0-23.693 1.376-23.693 16.019s10.608 26.513 23.693 26.513c13.086 0 23.694-11.87 23.694-26.513z" fill="#4e5660"/></g></g><path d="m299.54 500.197c0-24.964-19.493-45.201-43.54-45.201-24.046 0-43.54 20.237-43.54 45.201z" fill="#f2bcd5"/><path d="m393.145 306.693c2.607-3.22 2.109-7.942-1.11-10.548-4.619-3.739-29.27-22.847-61.026-31.824-3.981-1.126-8.13 1.191-9.257 5.177s1.19 8.13 5.177 9.257c29.549 8.353 53.082 26.955 55.669 29.048 3.218 2.606 7.941 2.109 10.547-1.11zm-116.999-82.858c-5.449-2.763-11.995-3.33-20.146-3.33-8.152 0-14.697.566-20.146 3.33-5.04 2.556-11.047 8.133-11.047 20.189 0 18.755 13.993 34.013 31.193 34.013s31.193-15.258 31.193-34.013c0-12.056-6.008-17.633-11.047-20.189zm-20.146 39.202c-8.929 0-16.193-8.529-16.193-19.013 0-5.907.655-8.519 16.193-8.519s16.193 2.612 16.193 8.519c0 10.484-7.264 19.013-16.193 19.013zm63.096 31.002c-3.46-2.274-8.111-1.313-10.387 2.148-2.275 3.461-1.314 8.112 2.148 10.387 12.865 8.455 20.524 20.776 23.221 25.681 1.995 3.63 6.554 4.955 10.185 2.96 3.63-1.995 4.955-6.555 2.96-10.185-3.235-5.886-12.452-20.689-28.127-30.991zm192.904-39.817c0-17.867-9.842-34.251-26.031-43.923 1.863-17.716-5.946-34.983-19.92-45.381-2.1-1.562-2.991-4.456-2.168-7.038.972-3.047 1.648-6.139 2.057-9.247 14.113-21.122 20.601-46.527 23.544-64.331.676-4.087-2.089-7.947-6.176-8.623-4.088-.677-7.947 2.089-8.623 6.176-1.906 11.531-5.411 26.488-11.741 40.936-6.378-17.16-21.585-32.393-42.84-39.563 17.201-23.475 36.698-42.505 55.088-53.734 1.209 2.335 1.936 4.918 2.088 7.6.185 3.237.278 6.617.279 10.045.001 4.142 3.358 7.499 7.5 7.498h.002c4.143-.001 7.499-3.36 7.498-7.502-.001-3.71-.103-7.375-.303-10.893-1.161-20.393-20.052-35.187-40.033-31.326-40.454 7.811-73.174 25.596-94.644 40.235-28.203-18.27-67.707-19.711-97.439-2.697-2.592 1.484-5.685 1.483-8.276 0-29.755-17.029-69.257-15.558-97.438 2.697-21.471-14.64-54.19-32.424-94.645-40.236-19.981-3.855-38.873 10.93-40.032 31.328-1.779 31.286 4.102 79.173 26.32 112.412.409 3.1 1.084 6.185 2.053 9.225.823 2.582-.068 5.476-2.168 7.039-13.955 10.382-21.786 27.639-19.921 45.381-16.19 9.671-26.031 26.056-26.031 43.922 0 21.408 14.153 39.856 34.393 48.051-5.187 8.778-8.183 18.745-8.587 28.926-1.233 31.09 20.574 57.977 50.569 63.599 2.988.56 5.177 3.263 5.325 6.572 1.265 28.408 21.435 51.736 48.416 57.744-2.089 6.434-3.705 13.067-4.8 19.86-2.026 12.569 6.014 24.853 18.302 27.966 4.032 1.019 8.098-1.427 9.112-5.429 1.017-4.016-1.414-8.095-5.429-9.112-4.825-1.222-7.978-6.071-7.177-11.038 5.456-33.842 25.272-63.295 54.539-81.249 38.289 8.658 82.198 9.153 122.675 0 29.267 17.955 49.083 47.407 54.539 81.249.938 5.823-3.453 11.335-9.585 11.335h-55.777c-3.538-25.518-24.837-45.201-50.514-45.201s-46.976 19.682-50.514 45.201h-24.449c-4.142 0-7.5 3.358-7.5 7.5s3.358 7.5 7.5 7.5h181.253c15.24 0 26.82-13.669 24.394-28.722-1.095-6.791-2.712-13.421-4.801-19.853 26.982-6.009 47.151-29.344 48.416-57.751.147-3.31 2.338-6.012 5.325-6.572 42.235-7.917 63.808-55.581 41.98-92.524 20.241-8.194 34.395-26.643 34.395-48.052zm-291.321 238.475c3.334-17.207 17.904-30.201 35.321-30.201 17.418 0 31.988 12.994 35.322 30.201zm234.386-473.051c2.501-.483 5.043-.421 7.483.117-20.071 13.388-40.341 34.153-58.318 59.858-4.448-.553-8.998-.761-13.61-.589-2.762.11-5.355-1.501-6.566-4.088-3.473-7.424-8.283-14.12-14.194-19.955 20.205-13.26 49.537-28.456 85.205-35.343zm-398.13-.001c35.661 6.886 65.002 22.082 85.21 35.339-5.912 5.836-10.724 12.534-14.198 19.959-1.21 2.586-3.771 4.204-6.566 4.088-4.611-.17-9.161.038-13.608.592-17.978-25.706-38.248-46.471-58.319-59.859 2.441-.539 4.983-.601 7.481-.119zm-22.213 17.45c.152-2.682.879-5.266 2.088-7.6 18.39 11.229 37.888 30.26 55.09 53.737-19.559 6.596-35.93 20.915-42.859 39.61-12.347-28.065-15.669-62-14.319-85.747zm20.183 139.858c7.271-5.41 10.287-14.906 7.505-23.63-3.98-12.481-1.472-25.545 7.063-36.784 11.292-14.869 30.481-23.29 51.354-22.518 8.827.342 16.938-4.668 20.706-12.721 16.26-34.751 67.863-45.863 102.878-25.826 7.149 4.092 16.03 4.091 23.178 0 35.273-20.187 86.742-8.66 102.878 25.826 3.769 8.053 11.908 13.047 20.705 12.721 20.854-.772 40.063 7.647 51.354 22.518 8.535 11.24 11.044 24.303 7.063 36.784-2.782 8.724.234 18.22 7.505 23.63 9.029 6.718 14.186 17.014 14.148 28.247-.066 20.166-17.466 35.52-37.437 34.892-21.938-.683-39.129-10.719-51.094-29.83-10.854-17.337-14.364-37.463-14.03-50.517.111-4.343-1.646-8.524-4.823-11.471-3.178-2.947-7.494-4.406-11.867-3.965-30.908 3.118-59.659-5.304-85.468-25.041 0 0 0 0 0-.001-6.197-4.738-14.853-4.738-21.049.001-25.809 19.737-54.564 28.164-85.467 25.041-9.11-.92-16.925 6.316-16.691 15.436.335 13.053-3.176 33.179-14.03 50.516-11.965 19.11-29.155 29.146-51.093 29.83-19.902.619-37.371-14.658-37.437-34.892-.037-11.233 5.12-21.528 14.149-28.246zm-39.905 77.269c0-11.189 5.668-21.631 15.207-28.699 4.393 9.58 11.909 17.872 22.061 23.326.475 14.956 3.034 29.305 7.638 42.9-25.133 1.059-44.906-16.706-44.906-37.527zm120.646 190.699c-21.579-3.723-37.967-21.902-38.961-44.217-.459-10.306-7.674-18.797-17.546-20.647-33.385-6.257-49.785-45.629-29.47-73.784 5.653.73 10.788.688 16.094.025 20.823 44.532 62.364 73.904 109.867 88.714-17.345 13.221-31.018 30.348-39.984 49.909zm-68.071-190.693c3.634.671 7.349.974 11.085.857 26.863-.837 48.766-13.584 63.34-36.863 12.622-20.16 16.702-43.624 16.341-58.949.039-.037.082-.047.159-.04 34.822 3.521 67.149-5.92 96.088-28.05.831-.635 1.993-.636 2.825.001v-.001c28.935 22.129 61.262 31.566 96.087 28.05.081-.005.12.004.189.128-.391 15.236 3.689 38.7 16.31 58.86 15.313 24.457 38.813 36.888 64.949 36.888 3.191 0 6.36-.305 9.47-.879-2.825 38.916-21.438 72.375-54.276 97.23-102.133 77.306-312.361 43.359-322.567-97.232zm365.286 125.828c-9.872 1.851-17.087 10.341-17.546 20.648-.994 22.315-17.38 40.503-38.959 44.227-8.966-19.563-22.635-36.698-39.982-49.921 47.606-14.844 89.084-44.262 109.871-88.729 5.308.677 10.383.728 16.086-.009 20.361 28.216 3.824 67.543-29.47 73.784zm19.233-88.306c4.604-13.595 7.163-27.943 7.638-42.899 10.031-5.388 17.618-13.639 22.061-23.328 9.54 7.068 15.208 17.51 15.208 28.699-.001 21.094-20.107 38.586-44.907 37.528zm-121.362-50.184c4.143 0 7.5-3.358 7.5-7.5v-12c0-4.142-3.357-7.5-7.5-7.5s-7.5 3.358-7.5 7.5v12c0 4.142 3.358 7.5 7.5 7.5zm-149.464 0c4.142 0 7.5-3.358 7.5-7.5v-12c0-4.142-3.358-7.5-7.5-7.5s-7.5 3.358-7.5 7.5v12c0 4.142 3.358 7.5 7.5 7.5zm11.636 52.473c-15.675 10.302-24.892 25.105-28.127 30.992-1.995 3.63-.67 8.19 2.96 10.185 3.622 1.992 8.187.676 10.185-2.96 2.696-4.905 10.355-17.226 23.22-25.681 3.461-2.275 4.423-6.925 2.148-10.387-2.275-3.463-6.925-4.423-10.386-2.149zm-2.654-24.542c-1.127-3.986-5.273-6.304-9.257-5.177-31.756 8.977-56.408 28.085-61.027 31.824-3.22 2.606-3.717 7.329-1.111 10.548 2.611 3.225 7.334 3.713 10.548 1.111 2.586-2.094 26.123-20.696 55.67-29.048 3.986-1.127 6.303-5.272 5.177-9.258z"/></g></svg>