<svg id="Capa_1" enable-background="new 0 0 512 512" height="512" viewBox="0 0 512 512" width="512" xmlns="http://www.w3.org/2000/svg"><g><path d="m31.984 86.218h42.713v154.662h-42.713z" fill="#6171a3"/><path d="m31.984 131.258c6.742 2.142 13.915 3.306 21.357 3.306s14.615-1.164 21.356-3.306v-45.04h-42.713z" fill="#475a99"/><ellipse cx="53.341" cy="63.884" fill="#8cd6fe" rx="40.68" ry="40.68" transform="matrix(.707 -.707 .707 .707 -29.549 56.429)"/><path d="m102.214 224.305h-67.986c-14.762 0-26.728 11.967-26.728 26.728v46.707c0 14.762 11.967 26.728 26.728 26.728h67.986z" fill="#8cd6fe"/><path d="m437.303 86.218h42.713v154.662h-42.713z" fill="#6171a3" transform="matrix(-1 0 0 -1 917.319 327.098)"/><path d="m480.016 131.258c-6.742 2.142-13.915 3.306-21.357 3.306s-14.615-1.164-21.357-3.306v-45.04h42.713v45.04z" fill="#475a99"/><ellipse cx="458.659" cy="63.884" fill="#8cd6fe" rx="40.68" ry="40.68" transform="matrix(.234 -.972 .972 .234 289.304 494.892)"/><path d="m409.786 224.305h67.986c14.762 0 26.728 11.967 26.728 26.728v46.707c0 14.762-11.967 26.728-26.728 26.728h-67.986z" fill="#8cd6fe"/><path d="m348.651 488.796c9.265 0 16.284-8.311 14.809-17.458-8.354-51.818-53.285-91.394-107.46-91.394s-99.106 39.576-107.46 91.394c-1.475 9.147 5.544 17.458 14.809 17.458z" fill="#efedff"/><path d="m256 430.839c29.183 0 57.156-4.528 82.452-13.11-19.961-23.138-49.496-37.785-82.452-37.785s-62.49 14.647-82.452 37.785c25.296 8.582 53.269 13.11 82.452 13.11z" fill="#d4d4ff"/><path d="m427.127 265.234c0 83.271-76.616 135.605-171.127 135.605s-171.127-52.334-171.127-135.605 76.616-150.775 171.127-150.775 171.127 67.505 171.127 150.775z" fill="#f2d1a5"/><path d="m262.476 146.972c20.057 14.938 63.163 33.105 95.404 24.598 2.918-.77 5.868 1.202 6.252 4.196 3.672 28.658 27.367 67.337 52.584 95.786 7.019 7.918 20.154 3.971 21.493-6.525 4.665-36.579-.611-108.441-64.195-142.495-2.155-1.154-2.69-3.988-1.092-5.838 6.03-6.983 9.858-14.336 11.964-20.786 2.078-6.364-1.723-13.128-8.197-14.833-26.586-6.998-79.71-11.003-116.534 3.746-2.673 1.071-5.635 1.071-8.308 0-36.824-14.75-89.948-10.745-116.534-3.746-6.474 1.704-10.275 8.469-8.197 14.833 2.106 6.45 5.934 13.804 11.964 20.786 1.598 1.85 1.063 4.684-1.092 5.838-63.584 34.054-68.86 105.916-64.196 142.495 1.339 10.496 14.474 14.443 21.493 6.525 25.217-28.45 48.912-67.128 52.584-95.786.384-2.994 3.334-4.966 6.252-4.196 32.241 8.508 75.347-9.659 95.404-24.598 3.83-2.854 9.12-2.854 12.951 0z" fill="#d2996f"/><path d="m275.373 450.049h-38.747l-5.318 19.374 5.318 19.373h38.747l5.319-19.373z" fill="#8cd6fe"/><path d="m236.626 450.049h-27.686c-6.109 0-11.061 4.952-11.061 11.061v27.686h38.747z" fill="#5ec783"/><path d="m275.373 450.049h27.686c6.109 0 11.061 4.952 11.061 11.061v27.686h-38.747z" fill="#6171a3"/><g><g fill="#eda1ab"><ellipse cx="177.565" cy="275.768" rx="23.047" ry="28.941" transform="matrix(.005 -1 1 .005 -98.993 452.101)"/><ellipse cx="334.435" cy="276.467" rx="23.047" ry="28.941" transform="matrix(.004 -1 1 .004 56.484 609.67)"/></g></g><path d="m256.703 232.464c-4.143 0-7.5 3.358-7.5 7.5s3.357 7.5 7.5 7.5c1.963 0 3.56 1.597 3.56 3.56s-1.597 3.56-3.56 3.56c-4.143 0-7.5 3.358-7.5 7.5s3.357 7.5 7.5 7.5c1.963 0 3.56 1.597 3.56 3.56s-1.597 3.56-3.56 3.56c-4.143 0-7.5 3.358-7.5 7.5s3.357 7.5 7.5 7.5c10.233 0 18.56-8.326 18.56-18.56 0-4.141-1.363-7.969-3.664-11.06 2.301-3.091 3.664-6.919 3.664-11.06 0-10.234-8.327-18.56-18.56-18.56zm230.813-14.237v-115.785c11.724-8.797 19.323-22.806 19.323-38.558 0-26.566-21.613-48.18-48.18-48.18-26.566 0-48.18 21.614-48.18 48.18 0 15.752 7.599 29.761 19.323 38.558v66.33c-11.124-21.518-27.306-38.509-48.356-50.684 5.827-7.647 8.942-14.869 10.569-19.851 3.454-10.577-2.888-21.641-13.418-24.414-25.934-6.826-81.775-11.767-121.231 4.037-.881.353-1.853.353-2.731 0-23.303-9.333-50.578-10.877-69.356-10.521-4.142.078-7.436 3.497-7.358 7.639s3.521 7.445 7.64 7.358c17.399-.32 42.525 1.049 63.498 9.449 4.476 1.793 9.406 1.793 13.886 0 36.103-14.461 87.759-9.795 111.835-3.456 2.33.613 3.709 3.015 2.978 5.252-1.447 4.431-4.445 11.188-10.512 18.213-4.739 5.487-3.159 13.93 3.229 17.35 26.261 14.065 44.462 36.271 54.098 66.002 9.709 29.958 7.569 58.187 6.199 68.933-.522 4.091-5.672 5.622-8.441 2.5-22.692-25.602-47.188-63.906-50.757-91.766-.959-7.478-8.305-12.42-15.605-10.495-27.072 7.145-67.296-7.188-89.01-23.361-6.451-4.805-15.462-4.805-21.913 0-21.636 16.116-61.825 30.538-89.009 23.361-7.294-1.922-14.645 3.006-15.605 10.495-3.569 27.859-28.064 66.163-50.757 91.765-2.766 3.123-7.919 1.593-8.441-2.499-1.37-10.746-3.51-38.975 6.199-68.933 9.636-29.731 27.837-51.937 54.097-66.001 6.391-3.423 7.967-11.865 3.23-17.351-6.066-7.025-9.064-13.782-10.512-18.213-.736-2.253.666-4.643 2.976-5.252 4.076-1.072 8.699-2.043 13.743-2.885 4.085-.682 6.845-4.547 6.162-8.633-.683-4.085-4.547-6.844-8.633-6.162-5.494.917-10.571 1.985-15.091 3.174-10.483 2.761-16.885 13.792-13.417 24.414 1.627 4.982 4.742 12.203 10.569 19.851-21.049 12.174-37.232 29.166-48.356 50.684v-66.33c11.724-8.797 19.323-22.806 19.323-38.558 0-26.566-21.613-48.18-48.18-48.18s-48.18 21.614-48.18 48.18c0 15.752 7.599 29.761 19.323 38.558v115.785c-14.143 4.207-24.487 17.318-24.487 32.807v46.707c0 18.874 15.354 34.229 34.229 34.229h61.289c19.464 32.22 52.139 53.833 88.412 65.486-22.798 17.941-38.117 43.682-42.793 72.69-2.209 13.7 8.332 26.152 22.213 26.152h163.22c4.143 0 7.5-3.358 7.5-7.5s-3.357-7.5-7.5-7.5h-4.948v-20.186c0-10.235-8.326-18.561-18.56-18.561h-94.122c-10.234 0-18.561 8.327-18.561 18.561v20.186h-27.031c-4.635 0-8.148-4.146-7.404-8.764 4.692-29.102 21.68-54.448 46.781-69.969 34.277 7.696 72.196 7.714 106.55 0 25.1 15.52 42.089 40.867 46.781 69.968.348 2.16-.212 4.282-1.578 5.976-2.599 3.225-2.092 7.947 1.134 10.546 3.21 2.589 7.934 2.106 10.546-1.133 4.01-4.976 5.726-11.455 4.707-17.776-4.677-29.007-19.994-54.749-42.792-72.69 36.277-11.654 68.949-33.27 88.41-65.485h61.289c18.874 0 34.228-15.355 34.228-34.229v-46.707c0-15.49-10.344-28.601-24.484-32.808zm-467.355-154.343c0-18.295 14.885-33.18 33.18-33.18s33.18 14.885 33.18 33.18-14.885 33.18-33.18 33.18-33.18-14.885-33.18-33.18zm47.036 46.139c-.114 114.613.186 104.495-.155 106.782h-27.558v-106.782c9.036 2.719 18.662 2.724 27.713 0zm-32.968 206.946c-10.603 0-19.229-8.626-19.229-19.229v-46.707c0-10.603 8.626-19.228 19.229-19.228h31.212c-1 15.307.082 27.67.911 34.171.912 7.154 5.457 13.023 12.019 15.723 1.488 12.408 4.65 24.204 9.422 35.27zm248.644 140.58h20.187c1.963 0 3.56 1.598 3.56 3.561v20.186h-23.747zm-38.746 0h23.746v23.747h-23.746zm-38.747 3.562c0-1.964 1.598-3.561 3.561-3.561h20.187v23.747h-23.748zm-111.865-179.328c2.759-1.131 5.288-2.894 7.381-5.255 22.043-24.869 48.586-64.27 54.006-97.054 19.189 4.226 39.644.097 53.701-4.244 16.617-5.13 33.589-13.445 45.399-22.242 1.176-.876 2.819-.876 3.993 0 11.811 8.797 28.783 17.112 45.4 22.242 14.058 4.34 34.512 8.469 53.701 4.244 5.42 32.786 31.965 72.187 54.006 97.055 2.097 2.366 4.636 4.119 7.401 5.25-20.328 148.791-304.648 148.793-324.988.004zm331.964-217.899c0-18.295 14.885-33.18 33.18-33.18s33.18 14.885 33.18 33.18-14.885 33.18-33.18 33.18-33.18-14.885-33.18-33.18zm47.037 46.139v106.782h-27.558c-.342-2.287-.042 7.723-.155-106.782 9.035 2.719 18.662 2.724 27.713 0zm24.484 187.718c0 10.603-8.626 19.229-19.228 19.229h-53.564c4.772-11.065 7.934-22.861 9.422-35.27 6.562-2.699 11.107-8.569 12.019-15.723.829-6.501 1.911-18.864.911-34.17h31.212c10.602 0 19.228 8.626 19.228 19.228zm-302.411-57.176c-.011 0-.022 0-.034 0-4.126 0-7.48 3.336-7.499 7.466l-.021 4.787c-.019 4.142 3.324 7.515 7.467 7.534h.034c4.126 0 7.48-3.336 7.499-7.466l.021-4.787c.018-4.143-3.325-7.516-7.467-7.534zm123.137.549c-.011 0-.022 0-.034 0-4.126 0-7.48 3.336-7.499 7.466l-.022 4.787c-.019 4.142 3.324 7.515 7.467 7.534h.034c4.126 0 7.48-3.336 7.499-7.466l.022-4.787c.018-4.143-3.325-7.516-7.467-7.534z"/></g></svg>