<svg id="Capa_1" enable-background="new 0 0 511.989 511.989" height="512" viewBox="0 0 511.989 511.989" width="512" xmlns="http://www.w3.org/2000/svg"><g><g><path d="m167.077 479.64h-33.743c-6.836 0-12.857-4.712-14.273-11.399-4.271-20.177-20.702-30.472-46.799-45.237-14.811-8.38-30.126-17.045-42.56-29.479l33.167-33.166c7.92 7.921 19.855 14.673 32.49 21.822 30.267 17.124 71.718 40.576 71.718 97.459z" fill="#d5364c"/><path d="m117.534 140.538c-33.622-25.893-36.753-62.885-28.412-95.015 3.579-13.788 21.12-17.768 30.518-7.063 20.66 23.531 55.609 39.815 94.021 37.071z" fill="#de5c6e"/><path d="m418.789 140.538c33.622-25.893 36.753-62.885 28.413-95.015-3.579-13.788-21.12-17.768-30.518-7.063-20.66 23.531-55.609 39.815-94.021 37.071z" fill="#de5c6e"/><ellipse cx="79.712" cy="245.714" fill="#ffbf9e" rx="47.878" ry="42.876"/><ellipse cx="456.611" cy="245.714" fill="#ffbf9e" rx="47.878" ry="42.876"/><path d="m369.246 479.64c10.109 0 17.766-9.067 16.157-19.047-9.114-56.535-58.135-99.713-117.241-99.713s-108.127 43.179-117.241 99.713c-1.609 9.98 6.048 19.047 16.157 19.047z" fill="#de5c6e"/><path d="m268.161 413.676c31.124 0 60.965-4.759 87.993-13.788-21.728-23.959-53.102-39.009-87.993-39.009-34.892 0-66.266 15.05-87.993 39.009 27.028 9.029 56.869 13.788 87.993 13.788z" fill="#d5364c"/><path d="m454.865 235.728c0 90.85-83.59 147.948-186.703 147.948s-186.704-57.097-186.704-147.948 83.59-164.498 186.703-164.498 186.704 73.648 186.704 164.498z" fill="#ffd4be"/><path d="m386.472 62.058c-18.366 9.761-40.444 15.141-63.81 13.472l96.127 65.008c12.388-9.54 20.625-20.59 25.686-32.345-16.247-18.229-35.885-33.852-58.003-46.135z" fill="#d5364c"/><path d="m149.837 62.051c-22.106 12.27-41.75 27.877-58.006 46.105 5.059 11.769 13.301 22.832 25.703 32.382l96.126-65.008c-23.371 1.67-45.454-3.714-63.823-13.479z" fill="#d5364c"/><path d="m268.121 61.849c99.344 0 181.67 65.852 194.381 150.915 1.877 12.562-9.083 23.32-21.602 21.176-83.749-14.349-25.584-110.176-172.759-110.176s-89.01 95.827-172.759 110.176c-12.519 2.145-23.479-8.614-21.602-21.176 12.712-85.064 95.037-150.915 194.381-150.915z" fill="#6171a3"/><path d="m56.898 387.553c6.246-6.246 12.092-13.989 16.396-21.221 5.924-9.952.151-22.847-11.212-25.09-12.939-2.554-28.853-3.928-41.93-2.555-6.397.672-11.449 5.724-12.121 12.121-1.373 13.077.001 28.991 2.555 41.93 2.243 11.363 15.138 17.136 25.09 11.212 7.233-4.305 14.976-10.151 21.222-16.397z" fill="#de5c6e"/></g><g><g fill="#eda1ab"><ellipse cx="189.785" cy="258.608" rx="28.919" ry="23.03"/><ellipse cx="346.538" cy="258.608" rx="28.92" ry="23.03"/></g></g><path d="m287.691 243.982c-3.122-2.722-7.861-2.397-10.581.725-2.261 2.593-5.522 4.081-8.948 4.081s-6.688-1.487-8.948-4.081c-2.721-3.122-7.46-3.446-10.581-.725-3.123 2.722-3.447 7.459-.726 10.581 5.109 5.862 12.492 9.225 20.255 9.225s15.146-3.362 20.255-9.225c2.721-3.121 2.397-7.859-.726-10.581zm179.141-47.767c-5.577-22.26-15.844-43.315-30.154-62.11 11.997-13.471 19.152-29.573 21.267-47.971.473-4.115-2.48-7.834-6.595-8.308-4.114-.466-7.834 2.48-8.308 6.595-1.661 14.449-7.068 27.181-16.074 37.968-15.707-17.443-35.406-32.804-58.891-44.621 21.211-6.497 40.253-18.427 54.242-34.36 5.456-6.214 15.562-3.941 17.623 3.999.342 1.315.661 2.634.95 3.918.909 4.041 4.924 6.58 8.963 5.671 4.042-.909 6.581-4.922 5.672-8.963-.325-1.443-.684-2.922-1.065-4.395-5.12-19.723-30.119-25.269-43.414-10.127-16.291 18.555-40.577 30.88-66.825 34.01-47.741-17.177-102.279-17.945-152.151-.004-26.236-3.136-50.51-15.459-66.795-34.007-13.28-15.124-38.288-9.62-43.414 10.127-9.172 35.335-2.85 67.166 17.763 90.441-14.322 18.803-24.597 39.871-30.175 62.143-25.28 4.311-45.115 24.443-45.115 49.491 0 29.916 28.943 53.985 62.685 49.925 19.859 42.251 59.234 70.021 103.928 84.108-14.48 11.165-26.243 25.199-34.616 41.148-20.5-28.346-52.716-41.454-74.475-55.361 4.733-14.042-4.08-28.84-18.323-31.651-15.101-2.981-31.612-3.975-44.166-2.656-9.856 1.035-17.762 8.94-18.797 18.797-1.318 12.553-.325 29.064 2.656 44.166 3.144 15.917 20.899 24.477 35.355 16.715 30.305 22.338 67.531 32.38 73.141 58.887 2.127 10.052 11.216 17.347 21.61 17.347h40.851c4.143 0 7.5-3.358 7.5-7.5s-3.357-7.5-7.5-7.5h-7.108c-5.581 0-9.613-5.016-8.752-10.354 5.163-32.027 23.895-59.909 51.565-76.935 16.164 3.645 33.2 5.748 50.772 6.215v48.746c0 4.142 3.357 7.5 7.5 7.5 4.142 0 7.5-3.358 7.5-7.5v-48.746c17.573-.467 34.609-2.571 50.772-6.215 27.669 17.026 46.401 44.908 51.564 76.935.86 5.336-3.171 10.354-8.752 10.354h-158.847c-4.143 0-7.5 3.358-7.5 7.5s3.357 7.5 7.5 7.5h158.848c14.72 0 25.903-13.202 23.561-27.741-5.141-31.896-22.141-60.153-47.429-79.652 44.904-14.154 84.139-42.011 103.926-84.107 33.876 4.076 62.685-20.123 62.685-49.925-.001-24.706-19.466-45.134-45.158-49.497zm-434.992 201.29c-5.495 3.268-12.653.081-13.896-6.22-2.708-13.711-3.625-28.55-2.455-39.694.3-2.855 2.59-5.146 5.445-5.446 12.25-1.287 27.441.035 39.695 2.454 6.286 1.241 9.496 8.391 6.22 13.897-8.741 14.686-20.293 26.249-35.009 35.009zm113.086 74.635h-11.592c-3.35 0-6.267-2.293-6.935-5.452-7.044-33.279-43.679-43.684-74.531-64.758 3.713-2.892 7.217-5.957 10.332-9.072 0-.001.001-.001.001-.001 4.224-4.224 8.354-9.16 12.082-14.373 23.731 15.057 57.738 28.659 74.847 58.914-2.504 7.085-4.396 14.439-5.615 22.001-.701 4.354-.19 8.749 1.411 12.741zm-48.545-424.733c2.059-7.936 12.16-10.22 17.623-3.999 13.984 15.928 33.021 27.851 54.223 34.35-23.222 11.682-42.989 26.953-58.894 44.611-20.263-24.262-18.458-53.753-12.952-74.962zm-57.047 198.307c0-15.147 11.242-28.413 26.941-33.328-.993 8.148 1.773 16.076 7.674 21.852.006.006.013.012.019.018-.176 15.746 2.118 31.615 7.196 46.793-23.69.745-41.83-16.072-41.83-35.335zm356.314 92.082c-32.626 24.75-77.901 38.38-127.486 38.38s-94.86-13.63-127.486-38.38c-32.228-24.449-49.971-57.638-51.583-96.262 2.39.281 4.854.262 7.557-.202 63.814-10.933 52.846-64.342 91.056-91.547 17.505-12.463 43.816-18.521 80.437-18.521s62.933 6.059 80.438 18.521c38.061 27.1 27.423 80.645 91.055 91.547 2.562.439 5.114.497 7.598.201-1.614 38.624-19.358 71.814-51.586 96.263zm46.518-111.248c-31.353-5.372-39.862-22.365-50.636-43.878-7.557-15.091-16.122-32.195-34.253-45.104-20.133-14.334-49.29-21.302-89.137-21.302s-69.004 6.968-89.137 21.302c-18.131 12.909-26.695 30.013-34.252 45.104-10.773 21.514-19.283 38.506-50.637 43.878-7.514 1.278-14.04-5.17-12.917-12.675 12.311-82.387 92.676-144.516 186.943-144.523 94.266.008 174.631 62.137 186.942 144.523 1.126 7.521-5.42 13.952-12.916 12.675zm12.991 54.508c4.968-14.846 7.382-30.686 7.198-46.839 5.887-5.776 8.646-13.697 7.653-21.837 15.719 4.904 26.981 18.174 26.981 33.334 0 20.285-19.341 36.076-41.832 35.342zm-248.518-68.773c-11.726 0-21.265 9.54-21.265 21.265 0 4.142 3.357 7.5 7.5 7.5s7.5-3.358 7.5-7.5c0-3.455 2.811-6.265 6.265-6.265s6.265 2.811 6.265 6.265c0 4.142 3.357 7.5 7.5 7.5s7.5-3.358 7.5-7.5c0-11.726-9.539-21.265-21.265-21.265zm123.045 0c-11.726 0-21.265 9.54-21.265 21.265 0 4.142 3.357 7.5 7.5 7.5s7.5-3.358 7.5-7.5c0-3.455 2.811-6.265 6.265-6.265s6.265 2.811 6.265 6.265c0 4.142 3.357 7.5 7.5 7.5s7.5-3.358 7.5-7.5c0-11.726-9.539-21.265-21.265-21.265z"/></g></svg>