<svg id="Capa_1" enable-background="new 0 0 511.935 511.935" height="512" viewBox="0 0 511.935 511.935" width="512" xmlns="http://www.w3.org/2000/svg"><g><path d="m152.983 19.78c32.238 32.238 59.901 77.616 74.769 113.444l-41.729 41.729c-44.79-44.79-90.391-40.434-119.085-69.128-19.246-19.246-15.586-54.109 8.175-77.87 23.761-23.761 58.624-27.421 77.87-8.175z" fill="#8cd6fe"/><path d="m186.023 174.952 41.729-41.729c-4.624-11.143-10.487-23.21-17.339-35.517-42.982 4.872-80.464 16.312-103.986 31.19 24.075 9.512 51.989 18.448 79.596 46.056z" fill="#5fc5fc"/><path d="m197.891 163.084c-.482-1.964-1.044-3.997-1.708-6.119-28.152-89.982-98.707-119.582-134.449-110.743-10.82 21.035-9.514 44.884 5.205 59.602 28.694 28.694 74.294 24.338 119.085 69.128z" fill="#efedff"/><ellipse cx="90.388" cy="298.898" fill="#b8866b" rx="42.068" ry="37.672"/><ellipse cx="421.548" cy="298.898" fill="#b8866b" rx="42.068" ry="37.672"/><path d="m344.785 504.435c8.882 0 15.61-7.967 14.196-16.736-8.008-49.674-51.08-87.613-103.013-87.613s-95.006 37.939-103.014 87.613c-1.414 8.769 5.314 16.736 14.196 16.736z" fill="#8cd6fe"/><path d="m255.968 450.117c28.283 0 55.393-4.418 79.889-12.788-19.141-22.764-47.819-37.243-79.889-37.243s-60.747 14.479-79.889 37.243c24.496 8.371 51.606 12.788 79.889 12.788z" fill="#5fc5fc"/><path d="m420.014 290.124c0 79.825-73.446 129.994-164.046 129.994s-164.046-50.169-164.046-129.994 73.446-144.536 164.046-144.536 164.046 64.711 164.046 144.536z" fill="#cc9e83"/><path d="m292.763 504.435c0-21.987-16.474-39.811-36.795-39.811s-36.795 17.824-36.795 39.811z" fill="#efedff"/><path d="m132.455 169.952c-22.191 2.49-63.839 67.937-45.657 118.58 2.569 7.154 11.474 9.612 17.301 4.73 17.871-14.974 37.966-39.932 51.703-65.532 1.067-1.988 3.982-1.677 4.614.489 1.166 3.994 2.481 7.676 3.919 11.051 3.719 8.725 14.553 11.75 22.25 6.208 18.321-13.191 45.981-40.481 47.579-67.487z" fill="#6171a3"/><path d="m379.48 169.952c22.191 2.49 63.839 67.937 45.657 118.58-2.569 7.154-11.474 9.612-17.301 4.73-17.871-14.974-37.966-39.932-51.703-65.532-1.067-1.988-3.982-1.677-4.614.489-1.166 3.994-2.481 7.676-3.919 11.051-3.719 8.725-14.553 11.75-22.25 6.208-18.321-13.191-45.981-40.481-47.579-67.487z" fill="#6171a3"/><path d="m186.023 174.952 11.868-11.868c-.482-1.964-1.044-3.997-1.708-6.119-6.459-20.644-15.154-38.101-25.144-52.654-26.215 5.954-48.632 14.477-64.612 24.584 24.075 9.513 51.989 18.449 79.596 46.057z" fill="#d4d4ff"/><path d="m358.952 19.78c-32.238 32.238-59.901 77.616-74.769 113.444l41.729 41.729c44.79-44.79 90.391-40.434 119.085-69.128 19.246-19.246 15.586-54.109-8.175-77.87-23.761-23.761-58.624-27.421-77.87-8.175z" fill="#8cd6fe"/><path d="m325.912 174.952-41.729-41.729c4.624-11.143 10.487-23.21 17.339-35.517 42.982 4.872 80.464 16.312 103.986 31.19-24.074 9.512-51.988 18.448-79.596 46.056z" fill="#5fc5fc"/><path d="m314.044 163.084c.482-1.964 1.044-3.997 1.708-6.119 28.153-89.982 98.707-119.582 134.45-110.743 10.82 21.035 9.513 44.884-5.205 59.602-28.694 28.694-74.294 24.338-119.085 69.128z" fill="#efedff"/><path d="m325.912 174.952-11.868-11.868c.482-1.964 1.044-3.997 1.708-6.119 6.459-20.644 15.154-38.101 25.144-52.654 26.215 5.954 48.632 14.477 64.612 24.584-24.074 9.513-51.988 18.449-79.596 46.057z" fill="#d4d4ff"/><path d="m255.968 125.008c81.068 0 152.164 27.871 147.644 48.236-4.368 19.678-61.738 19.746-147.644 19.746s-143.276-.068-147.644-19.746c-4.521-20.365 66.576-48.236 147.644-48.236z" fill="#8cd6fe"/><g><g><path d="m203.717 319.253c.007 13.438-13.667 24.338-30.541 24.346s-30.559-10.878-30.566-24.316 13.667-24.338 30.541-24.347c16.874-.008 30.559 10.879 30.566 24.317z" fill="#eda1ab"/><path d="m308.219 319.2c.007 13.438 13.691 24.324 30.566 24.315 16.874-.009 30.548-10.909 30.541-24.346-.007-13.438-13.691-24.324-30.565-24.316-16.875.009-30.549 10.909-30.542 24.347z" fill="#eda1ab"/><path d="m285.911 308.212c-.009-18.509-13.419-20.242-29.959-20.233-16.541.008-29.949 1.754-29.939 20.263.009 18.509 13.426 33.506 29.966 33.498 16.541-.008 29.942-15.019 29.932-33.528z" fill="#4e5660"/></g></g><path d="m436.935 255.956c-1.602-28.889-15.065-56.987-29.088-74.209 1.488-2.059 2.523-4.342 3.086-6.879 3.006-13.54-11.393-24.159-23.694-30.711 23.301-9.647 45.802-15.772 63.06-33.031 10.939-10.939 15.981-26.326 14.196-43.328-1.723-16.411-9.667-32.445-22.371-45.148-26.647-26.647-66.337-30.314-88.476-8.175-26.994 26.994-53.342 65.569-71.173 104.026-17.733-1.31-34.855-1.341-53.016 0-17.831-38.459-44.181-77.033-71.174-104.026-22.138-22.138-61.828-18.471-88.475 8.176-25.333 25.333-31.546 65.106-8.175 88.476 17.266 17.267 39.703 23.359 63.06 33.031-12.299 6.551-26.699 17.17-23.694 30.711.563 2.535 1.597 4.816 3.083 6.875-14.021 17.224-27.48 45.32-29.083 74.211-20.131 5.97-34.182 23.209-34.182 42.943 0 26.687 25.56 48.033 55.362 44.858 17.36 36.543 51.72 60.807 90.046 73.248-21.665 17.231-36.215 41.821-40.678 69.503-2.271 14.087 9.512 24.23 15.827 24.23 2.886 0 5.637-1.676 6.872-4.487 1.665-3.793-.06-8.217-3.853-9.882-2.882-1.265-4.542-4.338-4.037-7.473 4.475-27.758 20.67-51.941 44.603-66.78 16.18 3.62 33.33 5.505 51.007 5.505s34.826-1.885 51.007-5.505c23.933 14.84 40.128 39.023 44.603 66.78.688 4.269-2.578 8.042-6.792 8.042h-45.103c-3.376-22.533-21.681-39.811-43.714-39.811-22.035 0-40.358 17.275-43.732 39.811h-14.997c-4.142 0-7.5 3.358-7.5 7.5s3.358 7.5 7.5 7.5h147.545c13.495 0 23.749-12.104 21.601-25.43-4.462-27.681-19.013-52.271-40.679-69.502 38.321-12.439 72.702-36.736 90.047-73.248 29.913 3.187 55.362-18.265 55.362-44.858 0-19.735-14.051-36.972-34.181-42.943zm-209.449 240.979c3.075-14.209 14.67-24.811 28.482-24.811s25.412 10.601 28.487 24.811zm136.769-471.852c16.367-16.366 49.256-13.277 70.977 12.195-5.803.14-11.905.924-18.171 2.398-4.032.949-6.532 4.986-5.583 9.018.813 3.455 3.893 5.784 7.294 5.784 2.64 0 13.413-3.715 26.316-1.638 7.089 16 6.992 35.294-5.395 47.68-17.365 17.365-42.529 21.854-70.997 35.444-9.68-3.592-20.611-6.791-32.356-9.474 16.749-32.156 38.194-50.016 53.804-59.486 3.542-2.148 4.67-6.761 2.522-10.302s-6.761-4.672-10.302-2.522c-17.897 10.858-42.686 31.587-61.264 69.201-7.386-1.333-14.994-2.464-22.733-3.367 16.923-34.968 41.585-70.628 65.888-94.931zm-216.575 0c24.303 24.303 48.967 59.963 65.892 94.931-7.74.902-15.349 2.034-22.735 3.367-28.606-57.928-77.227-85.188-114.12-86.12 21.466-25.156 54.315-28.826 70.963-12.178zm-75.438 75.438c-12.279-12.279-12.57-31.489-5.392-47.685 28.125-4.546 78.329 15.225 108.75 73.654-11.747 2.684-22.68 5.882-32.361 9.476-28.453-13.584-53.634-18.082-70.997-35.445zm45.109 67.445c11.627-14.492 67.681-35.458 138.616-35.458s126.989 20.966 138.616 35.458c1.454 1.811 1.835 3.075 1.706 3.653-.419 1.887-4.299 8.286-36.645 11.412-25.442 2.459-61.697 2.459-103.677 2.459s-78.235 0-103.677-2.459c-32.346-3.126-36.226-9.525-36.645-11.412-.128-.579.253-1.842 1.706-3.653zm-61.531 130.932c0-11.755 7.856-22.222 19.553-27.16.701 6.536 2.101 13.02 4.366 19.329 1.033 2.878 2.75 5.408 4.948 7.411.657 10.657 2.572 20.877 5.686 30.592-19.055-.007-34.553-13.54-34.553-30.172zm38.037-12.9c-12.074-33.631 5.218-74.716 22.317-95.354 18.43 7.989 52.949 9.496 102.72 9.779-9.163 15.727-24.641 30.292-36.691 38.969-3.792 2.73-9.131 1.249-10.969-3.062-1.342-3.149-2.56-6.585-3.62-10.212-2.509-8.592-14.185-9.83-18.422-1.933-12.936 24.107-32.061 48.373-49.913 63.33-1.815 1.523-4.609.748-5.422-1.517zm271.998 94.256c-28.361 20.87-67.387 32.364-109.887 32.364s-81.526-11.494-109.887-32.364c-26.781-19.707-42.523-46.269-45.929-77.213 3.186-.534 6.221-1.899 8.764-4.03 16.801-14.077 34.582-35.687 47.996-58.057.173.423.348.842.525 1.257 5.609 13.158 21.945 17.696 33.532 9.353 15.841-11.406 35.288-30.435 44.804-51.085 9.273.014 31.102.014 40.39 0 9.516 20.65 28.963 39.679 44.804 51.085 11.609 8.356 27.933 3.782 33.532-9.353.177-.415.352-.835.525-1.257 13.414 22.37 31.194 43.979 47.995 58.057 2.546 2.134 5.587 3.499 8.777 4.031-3.407 30.945-19.159 57.504-45.941 77.212zm52.223-94.256c-.814 2.268-3.608 3.037-5.424 1.515-17.851-14.956-36.976-39.222-49.912-63.33-4.23-7.881-15.909-6.671-18.422 1.933-1.06 3.628-2.277 7.064-3.62 10.213-1.839 4.315-7.181 5.789-10.969 3.062-12.05-8.677-27.533-23.242-36.697-38.969 49.775-.283 84.296-1.79 102.727-9.779 17.099 20.639 34.391 61.724 22.317 95.355zm3.485 43.072c3.114-9.716 5.029-19.935 5.686-30.592 2.198-2.003 3.914-4.533 4.948-7.411 2.266-6.313 3.669-12.798 4.37-19.337 11.697 4.94 19.549 15.414 19.549 27.168 0 16.632-15.499 30.165-34.553 30.172zm-100.61-58.395c-.004 0-.007 0-.011 0-12.182.006-22.039 9.869-22.032 22.054.002 4.141 3.359 7.496 7.5 7.496h.004c4.142-.003 7.499-3.362 7.496-7.504-.002-3.892 3.146-7.044 7.039-7.046h.004c3.881 0 7.04 3.157 7.042 7.038.002 4.142 3.359 7.497 7.5 7.497h.004c4.142-.002 7.499-3.361 7.496-7.503-.006-12.175-9.858-22.032-22.042-22.032zm-129.997.065c-.003 0-.007 0-.011 0-12.182.006-22.039 9.869-22.032 22.054.002 4.141 3.359 7.496 7.5 7.496h.004c4.142-.002 7.499-3.362 7.496-7.504-.002-3.892 3.145-7.044 7.039-7.046h.004c3.881 0 7.04 3.157 7.042 7.039.002 4.142 3.359 7.496 7.5 7.496h.004c4.143-.002 7.498-3.361 7.496-7.503-.005-12.175-9.858-22.032-22.042-22.032zm89.564 13.72c-6.514-3.299-14.492-3.981-24.461-3.981-.037 0-.074 0-.11 0-12.155.006-37.449.018-37.436 27.767.011 22.158 16.303 40.995 37.452 40.994h.018c20.649-.01 37.44-18.418 37.429-41.032-.006-11.429-4.344-19.418-12.892-23.748zm-24.545 49.78c-.003 0-.006 0-.01 0-12.897 0-22.446-12.296-22.453-26.002-.005-9.721 3.09-12.749 22.443-12.759h.12c6.768 0 13.579.293 17.667 2.363 2.423 1.227 4.665 3.333 4.669 10.374.008 14.343-10.057 26.018-22.436 26.024z"/></g></svg>