<svg id="Capa_1" enable-background="new 0 0 512 512" height="512" viewBox="0 0 512 512" width="512" xmlns="http://www.w3.org/2000/svg"><g><path d="m446.31 281.391c0 21.122 6.342 70.052 15.896 102.713 4.781 16.345-4.677 33.394-21.09 37.932-43.844 12.122-94.029 16.354-185.116 16.354s-141.272-4.232-185.117-16.354c-16.414-4.538-25.872-21.587-21.09-37.932 9.555-32.661 15.896-81.591 15.896-102.713z" fill="#6171a3"/><path d="m80.653 424.577c41.662 10.178 90.943 13.812 175.347 13.812s133.685-3.635 175.347-13.812c-20.453-24.178-33.18-49.397-33.55-143.186h-283.595c-.37 93.789-13.097 119.009-33.549 143.186z" fill="#475a99"/><ellipse cx="256" cy="121.338" fill="#5fc5fc" rx="164.092" ry="113.838"/><ellipse cx="72.846" cy="277.148" fill="#f2bb88" rx="46.532" ry="41.671"/><ellipse cx="439.154" cy="277.148" fill="#f2bb88" rx="46.532" ry="41.671"/><path d="m354.244 504.5c9.825 0 17.267-8.813 15.703-18.512-8.858-54.946-56.501-96.911-113.947-96.911s-105.089 41.965-113.947 96.911c-1.564 9.699 5.878 18.512 15.703 18.512z" fill="#5fc5fc"/><path d="m233.6 406.008c-18.682 18.682-33.331 40.119-87.486 42.987-7.638.404-13.823-6.201-12.832-13.786 2.722-20.841 18.704-43.258 58.758-46.975z" fill="#8cd6fe"/><path d="m278.4 406.008c18.682 18.682 33.331 40.119 87.486 42.987 7.638.404 13.823-6.201 12.832-13.786-2.722-20.841-18.704-43.258-58.758-46.975z" fill="#8cd6fe"/><path d="m437.456 267.443c0 88.297-81.241 143.79-181.456 143.79s-181.457-55.493-181.457-143.79 81.241-159.876 181.457-159.876 181.456 71.579 181.456 159.876z" fill="#f2d1a5"/><path d="m217.722 168.852c-20.743 45.932-99.273 72.109-116.065 72.109v-88.901z" fill="#6171a3"/><path d="m294.278 168.852c20.743 45.932 99.273 72.109 116.065 72.109v-88.901z" fill="#6171a3"/><path d="m141.845 163.31c-12.329 19.614-25.778 51.637-29.647 81.783-1.195 9.31-9.095 16.291-18.482 16.291h-23.753c-10.153 0-18.257-8.498-17.726-18.637 1.855-35.383 10.476-84.222 61.096-110.171z" fill="#8cd6fe"/><path d="m370.155 163.31c12.329 19.614 25.778 51.637 29.647 81.783 1.195 9.31 9.095 16.291 18.482 16.291h23.753c10.153 0 18.257-8.498 17.726-18.637-1.855-35.383-10.476-84.222-61.096-110.171z" fill="#8cd6fe"/><path d="m452.23 196.784c-7.68-24.415-22.929-48.503-53.563-64.207l-28.512 30.733c7.2 11.454 14.779 27.143 20.611 44.216 15.357-1.361 30.095-2.877 43.151-4.522 6.64-.837 12.826-3.011 18.313-6.22z" fill="#5fc5fc"/><path d="m59.77 196.784c5.487 3.209 11.674 5.383 18.313 6.22 13.056 1.645 27.795 3.162 43.151 4.522 5.833-17.073 13.411-32.761 20.611-44.216l-28.512-30.733c-30.634 15.704-45.884 39.792-53.563 64.207z" fill="#5fc5fc"/><path d="m256 57.829c36.094 0 107.48 20.283 174.519 50.722 9.625 4.37 15.791 13.985 15.791 24.556v21.793c0 9.304-6.911 17.176-16.143 18.339-55.847 7.036-142.194 11.608-174.167 11.608s-118.32-4.572-174.167-11.608c-9.231-1.163-16.143-9.034-16.143-18.339v-21.793c0-10.571 6.166-20.186 15.791-24.556 67.039-30.439 138.425-50.722 174.519-50.722z" fill="#8cd6fe"/><path d="m295.947 473.867c-.924 8.485-3.4 20.871-9.984 30.633h-59.926c-6.584-9.762-9.06-22.147-9.984-30.633-.573-5.264 3.568-9.851 8.864-9.851h62.165c5.296 0 9.438 4.587 8.865 9.851z" fill="#f5ea72"/><g><path d="m206.043 290.349c-.04 12.848-13.152 23.222-29.285 23.171s-29.179-10.506-29.139-23.354 13.151-23.222 29.285-23.172c16.133.05 29.179 10.507 29.139 23.355z" fill="#eda1ab"/><path d="m305.957 290.661c-.04 12.848 13.006 23.304 29.139 23.354 16.133.051 29.245-10.323 29.285-23.171s-13.006-23.304-29.139-23.355c-16.133-.05-29.244 10.325-29.285 23.172z" fill="#eda1ab"/><path d="m279.608 272.705c.046-14.555-10.495-15.956-23.502-15.997s-23.556 1.294-23.602 15.849c-.045 14.555 10.462 26.387 23.469 26.428 13.008.041 23.59-11.725 23.635-26.28z" fill="#4e5660"/></g><path d="m256 150.282c4.142 0 7.5-3.358 7.5-7.5v-42.888c0-4.142-3.358-7.5-7.5-7.5s-7.5 3.358-7.5 7.5v42.888c0 4.142 3.358 7.5 7.5 7.5zm70.896-2.5c4.142 0 7.5-3.358 7.5-7.5v-27.632c0-4.142-3.358-7.5-7.5-7.5s-7.5 3.358-7.5 7.5v27.632c0 4.142 3.358 7.5 7.5 7.5zm166.29 129.366c0-17.324-10.233-33.469-26.418-42.261-1.445-18.528-5.329-42.62-17.903-64.758 3.117-4.304 4.945-9.58 4.945-15.229v-21.792c0-13.496-7.925-25.815-20.19-31.385-3.093-1.404-6.202-2.782-9.318-4.145-7.518-26.917-27.835-51.334-57.619-69.08-30.842-18.378-70.15-28.498-110.683-28.498-26.919 0-52.679 4.259-76.567 12.66-3.907 1.374-5.961 5.656-4.587 9.563s5.655 5.962 9.564 4.587c22.284-7.836 46.371-11.81 71.59-11.81 37.87 0 74.451 9.37 103.005 26.383 21.808 12.994 37.832 29.75 46.412 48.228-58.17-23.635-116.782-39.282-149.417-39.282s-91.246 15.647-149.416 39.281c8.58-18.478 24.603-35.234 46.411-48.227 3.559-2.12 4.724-6.723 2.604-10.282-2.12-3.558-6.723-4.726-10.282-2.604-29.785 17.746-50.102 42.162-57.62 69.08-3.116 1.364-6.225 2.741-9.318 4.145-12.265 5.57-20.19 17.889-20.19 31.385v21.793c0 5.649 1.827 10.925 4.945 15.229-12.574 22.138-16.458 46.23-17.903 64.758-16.185 8.792-26.418 24.937-26.418 42.261 0 21.242 14.88 39.377 35.651 46.237-3.048 21.926-7.301 42.996-11.869 58.613-5.965 20.392 5.836 41.612 26.29 47.267 17.779 4.915 36.085 8.438 57.106 10.982 1.503 8.416 8.303 14.973 16.925 16.084-3.896 9.106-6.682 18.63-8.267 28.463-2.298 14.253 8.666 27.206 23.107 27.206h167.854c4.142 0 7.5-3.358 7.5-7.5s-3.358-7.5-7.5-7.5h-27.43c3.072-7.948 4.539-16.043 5.223-22.321 1.061-9.743-6.611-18.163-16.32-18.163h-62.165c-9.721 0-17.38 8.433-16.32 18.163.684 6.278 2.151 14.373 5.223 22.321h-56.064c-5.292 0-9.114-4.757-8.299-9.818 1.796-11.138 5.325-21.836 10.474-31.865 40.938-5.063 57.861-22.155 72.725-37.589 15.437 1.341 31.229 1.342 46.686 0 14.864 15.434 31.787 32.526 72.725 37.589 5.149 10.029 8.678 20.726 10.474 31.865.598 3.712-1.339 7.422-4.712 9.022-3.742 1.775-5.337 6.248-3.561 9.991 1.767 3.724 6.232 5.346 9.991 3.561 9.361-4.441 14.744-14.706 13.091-24.961-1.585-9.832-4.367-19.357-8.262-28.464 8.651-1.117 15.423-7.697 16.92-16.083 21.021-2.544 39.327-6.067 57.106-10.982 20.477-5.662 32.248-26.899 26.29-47.267-4.569-15.618-8.822-36.688-11.869-58.613 20.77-6.861 35.65-24.996 35.65-46.238zm-268.269 194.369c65.066.266 62.336-.522 63.228.474.188.209.4.564.345 1.065-.74 6.791-2.517 16.075-6.755 23.945h-51.472c-4.238-7.87-6.015-17.154-6.755-23.945-.089-.825.57-1.539 1.409-1.539zm227.356-228.377c.306 5.843-4.36 10.744-10.236 10.744h-23.753c-5.582 0-10.33-4.19-11.043-9.746-2.369-18.456-8.558-39.499-17.265-59.125 14.626-1.309 28.655-2.761 41.128-4.333 1.977-.249 3.879-.721 5.684-1.385 11.952 22.079 14.585 46.687 15.485 63.845zm-379.084-110.033c0-7.626 4.472-14.585 11.392-17.727 64.903-29.469 135.393-50.051 171.419-50.051s106.516 20.582 171.418 50.051c6.92 3.142 11.392 10.101 11.392 17.727v21.793c0 5.524-4.119 10.21-9.58 10.898-55.107 6.942-140.759 11.549-173.23 11.549s-118.124-4.606-173.23-11.549c-5.462-.688-9.581-5.374-9.581-10.898zm315.936 95.625c-30.308-9.329-54.705-25.352-69.38-38.688 17.342-.965 36.049-2.21 54.368-3.684 6.499 13.764 11.673 28.433 15.012 42.372zm-196.868-38.688c-14.676 13.336-39.074 29.359-69.381 38.687 3.339-13.938 8.513-28.607 15.012-42.372 18.318 1.475 37.026 2.719 54.369 3.685zm-132.53 53.096c.9-17.158 3.532-41.766 15.484-63.845 1.805.663 3.707 1.136 5.684 1.385 12.472 1.571 26.498 3.023 41.122 4.332-8.706 19.625-14.889 40.671-17.258 59.126-.713 5.556-5.461 9.746-11.043 9.746h-23.753c-5.875 0-10.542-4.9-10.236-10.744zm-25.913 34.008c0-9.658 4.568-18.594 12.369-24.954 3.203 8.911 11.266 15.39 20.878 16.514.125 14.871 2.439 29.12 6.91 42.579-22.818.573-40.157-15.648-40.157-34.139zm93.932 148.202c-20.246-2.453-37.835-5.835-54.864-10.543-12.358-3.416-19.509-16.23-15.891-28.597 4.712-16.106 9.083-37.648 12.224-60.015 3.39.206 6.597.176 10.606-.297 14.306 30.344 39.2 53.45 69.827 69.027-10.724 7.689-18.292 18.175-21.902 30.425zm17.971 16.156c-2.982.155-5.379-2.407-4.998-5.325 1.145-8.771 6.031-24.464 25.583-33.739 14.801 5.877 30.765 10.234 47.534 12.954-13.739 13.116-30.625 24.124-68.119 26.11zm-63.654-172.622h11.653c12.237 0 24.015-8.611 26.039-23.67 26.647-7.325 69.114-26.384 92.53-54.15 18.073.832 33.496 1.282 43.715 1.282s25.641-.451 43.715-1.282c23.42 27.771 65.884 46.822 92.529 54.143 2.017 14.991 13.733 23.677 26.04 23.677h11.653c-1.899 179.809-345.976 179.789-347.874 0zm284.219 172.621c-37.494-1.986-54.379-12.993-68.118-26.109 16.769-2.72 32.732-7.077 47.534-12.954 19.552 9.275 24.438 24.967 25.583 33.739.384 2.942-2.061 5.5-4.999 5.324zm72.836-26.698c-17.023 4.706-34.605 8.088-54.841 10.54-3.609-12.251-11.185-22.741-21.908-30.431 30.019-15.271 55.275-38.189 69.809-69.016 4.044.476 7.28.496 10.607.294 3.14 22.366 7.512 43.908 12.224 60.015 3.614 12.357-3.521 25.179-15.891 28.598zm-1.091-103.513c4.472-13.461 6.787-27.712 6.912-42.586 9.696-1.133 17.697-7.68 20.873-16.5 7.802 6.355 12.374 15.284 12.374 24.94 0 18.873-17.796 34.721-40.159 34.146zm-244.025-67.702c-.023 0-.045 0-.068 0-11.771 0-21.367 9.558-21.403 21.337-.013 4.142 3.334 7.51 7.477 7.523h.024c4.131 0 7.487-3.343 7.499-7.477.011-3.525 2.882-6.384 6.404-6.384h.02c3.54.011 6.395 2.885 6.384 6.424-.013 4.142 3.334 7.511 7.476 7.524h.024c4.131 0 7.486-3.342 7.5-7.476.037-11.83-9.506-21.434-21.337-21.471zm124.289.389c-.023 0-.047 0-.07 0-11.799 0-21.365 9.529-21.402 21.337-.013 4.142 3.334 7.511 7.476 7.524h.024c4.131 0 7.486-3.342 7.499-7.476.011-3.53 2.871-6.384 6.404-6.384h.021c3.531.011 6.395 2.893 6.384 6.424-.013 4.142 3.335 7.51 7.477 7.523h.024c4.131 0 7.487-3.343 7.5-7.477.037-11.802-9.535-21.434-21.337-21.471zm-133.187-96.199c4.142 0 7.5-3.358 7.5-7.5v-27.632c0-4.142-3.358-7.5-7.5-7.5s-7.5 3.358-7.5 7.5v27.632c0 4.142 3.358 7.5 7.5 7.5zm91.061 104.803c-5.416-2.767-11.926-3.352-20.036-3.377-9.301-.027-31.051-.097-31.126 23.326-.058 18.667 13.824 33.897 30.946 33.952h.09c17.081 0 31.009-15.123 31.067-33.757.039-12.008-5.928-17.582-10.941-20.144zm-20.168 38.901c-8.851-.028-16.025-8.509-15.993-18.905.02-6.394 1.486-8.424 16.079-8.373 4.908.016 10.32.233 13.256 1.734 1.042.533 2.786 1.424 2.769 6.74-.031 9.902-6.822 18.804-16.111 18.804z"/></g></svg>