<svg id="Capa_1" enable-background="new 0 0 512 512" height="512" viewBox="0 0 512 512" width="512" xmlns="http://www.w3.org/2000/svg"><g><path d="m320.475 480.744 16.118-74.835c21.624 4.659 64.112-3.147 96.302-16.625 9.684-4.055 20.867-.136 25.999 9.023l17.232 30.757c5.974 10.663 1.5 24.21-9.704 29.095-43.729 19.068-104.093 31.601-145.947 22.585z" fill="#efedff"/><path d="m406.909 398.336c-26.424 7.583-54.179 11.051-70.316 7.574l-16.118 74.835c33.099 7.13 77.769.777 116.639-11.62-4.973-25.542-15.333-49.66-30.205-70.789z" fill="#d4d4ff"/><path d="m379.011 504.5c12.301 0 21.619-11.034 19.661-23.179-11.09-68.798-70.745-121.343-142.672-121.343s-131.582 52.545-142.673 121.343c-1.958 12.145 7.36 23.179 19.662 23.179z" fill="#efedff"/><path d="m141.353 416.51c-14.268 18.563-24.136 40.685-28.026 64.811-1.958 12.145 7.36 23.179 19.661 23.179h99.604c-16.439-37.738-55.846-67.568-91.239-87.99z" fill="#d4d4ff"/><path d="m376.561 424.785c-15.412-23.263-37.374-41.806-63.259-52.998-50.321 29.515-106.06 79.836-147.925 132.712h103.102c33.611-34.696 69.762-61.362 108.082-79.714z" fill="#d4d4ff"/><path d="m483.202 207.681c0 110.557-101.722 180.04-227.202 180.04s-227.202-69.483-227.202-180.04 101.722-200.181 227.202-200.181 227.202 89.624 227.202 200.181z" fill="#efedff"/><path d="m398.933 277.786 48.868-60.639-48.868-106.312-98.079-12.525h-89.708l-98.079 12.525-48.869 106.312 48.869 60.639z" fill="#ffd4be"/><path d="m460.749 290.648c14.387-23.977 22.453-51.843 22.453-82.967 0-47.967-19.158-91.988-51.087-126.464-17.917 31.098-29.858 76.603-32.403 124.645-1.108 20.931-.86 52.943 6.829 84.786z" fill="#9ea2e3"/><path d="m256.915 7.51c17.241 43.349 52.132 88.902 94.23 122.773 30.353 24.42 75.447 51.692 131.074 58.826-10.609-101.585-107.348-181.188-225.304-181.599z" fill="#efedff"/><path d="m28.798 207.681c0 21.723 3.943 41.852 11.206 60.188 23.117-11.982 44.937-32.147 65.032-60.157 17.904-24.956 34.09-55.972 45.577-87.334 7.271-19.849-8.831-32.642-28.68-39.912-7.007-2.566-19.767-5.699-33.663-7.807-36.935 35.598-59.472 82.989-59.472 135.022z" fill="#9ea2e3"/><path d="m375.956 37.66c-86.934 21.548-202.656 30.245-279.646 27.64-23.306 20.293-41.653 44.993-53.301 72.569 100.468 12.659 291.536-1.979 402.237-40.978-18.012-23.836-41.669-44.071-69.29-59.231z" fill="#d4d4ff"/><path d="m477.855 249.984c-97.681 25.735-201.303 18.819-272.64 7.981-92.491-14.052-155.809-37.826-176.399-49.046.254 36.75 11.779 68.921 31.686 95.467 102.859 32.431 237.018 49.7 354.509 35.99 30.904-22.94 53.187-53.557 62.844-90.392z" fill="#d4d4ff"/><path d="m465.436 394.642c-7.015-12.52-22.249-17.797-35.438-12.276-19.721 8.257-44.081 14.503-64.522 16.615-5.829-6.027-12.184-11.597-19.019-16.647 83.877-25.38 144.244-87.475 144.244-174.653 0-55.655-24.536-107.923-69.088-147.176-44.282-39.018-103.099-60.505-165.613-60.505-25.432 0-50.445 3.578-74.347 10.633-3.973 1.173-6.242 5.344-5.07 9.317 1.173 3.973 5.343 6.241 9.317 5.07 22.522-6.649 46.107-10.02 70.1-10.02 35.054 0 68.209 7.249 97.64 20.109-77.831 16.735-170.751 23.523-236.292 23.1 10.372-7.404 21.595-14.041 33.592-19.783 3.736-1.789 5.316-6.267 3.527-10.003-1.788-3.736-6.266-5.314-10.003-3.527-75.972 36.362-123.166 106.401-123.166 182.785 0 86.466 59.465 148.991 144.217 174.645-31.825 23.522-53.234 58.358-59.592 97.802-2.697 16.727 10.179 31.872 27.066 31.872h205.079c4.143 0 7.5-3.358 7.5-7.5s-3.357-7.5-7.5-7.5h-51.324c27.471-26.154 56.685-47.139 87.117-62.516 8.665 14.582 14.633 30.817 17.408 48.031 1.201 7.455-4.436 14.485-12.259 14.485h-5.424c-4.143 0-7.5 3.358-7.5 7.5s3.357 7.5 7.5 7.5h5.424c15.009 0 27.164-12.055 27.409-27.011 21.654-4.585 43.782-11.575 63.001-19.954 15.271-6.659 21.38-25.122 13.248-39.636zm6.263-150.838c-21.021 5.324-42.292 9.141-63.425 11.738-2.478-24.645-2.041-51.922 1.863-79.739 19.392 8.889 41.242 16.174 65.127 19.888 1.171 16.646-.052 32.81-3.565 48.113zm-29.303-138c15.82 22.183 26.636 47.375 31.055 74.358-48.459-8.507-87.94-32.54-113.997-52.871 31.011-6.183 59.063-13.421 82.942-21.487zm-49.032 151.392c-95.956 9.308-205.452-4.167-293.958-29.896 19.147-23.158 35.093-50.604 47.324-77.657 61.738-1.174 131.536-7.659 193.433-18.709 17.563 14.874 36.441 27.658 55.84 37.9-4.614 29.9-5.476 60.265-2.639 88.362zm-294.355-184.307c79.669 2.348 192.951-7.123 275.774-27.231 22.404 12.677 42.018 28.829 57.854 47.579-104.878 34.09-277.087 48.624-378.477 38.341 10.67-21.758 25.86-41.672 44.849-58.689zm-51.149 73.106c26.628 2.995 55.661 3.923 82.247 3.831-12.054 25.436-27.591 51.231-46.332 72.719-21.07-6.708-37.255-13.143-47.444-18.182.393-20.154 4.375-39.807 11.529-58.368zm17.107 151.918c-16.328-22.47-25.862-48.365-28.131-76.789 79.412 35.163 270.918 76.519 430.018 39.291-10.021 28.17-28.438 52.806-54.672 72.723-110.851 12.581-241.554-2.277-347.215-35.225zm18.347 21.069c94.723 26.497 203.425 38.621 301.161 31.741-88.596 46.808-227.805 39.322-301.161-31.741zm101.499 68.437c25.612 5.834 52.813 8.45 80.89 7.653-21.594 16.539-43.161 35.735-63.383 56.346-13.693-12.834-30.353-25.219-49.689-36.941 9.153-10.481 19.968-19.624 32.182-27.058zm-51.824 109.581c-7.842 0-13.456-7.048-12.257-14.485 3.3-20.47 11.104-39.563 22.607-56.128 19.042 11.422 35.342 23.448 48.605 35.862-10.58 11.303-20.704 22.949-30.172 34.75h-28.783zm132.357 0h-84.168c33.314-39.739 73.693-77.019 112.767-103.935 11.36-1.303 22.462-3.191 33.242-5.647 15.036 9.153 27.947 20.899 38.254 34.537-35.273 18.07-68.896 43.274-100.095 75.045zm198.08-45.715c-18.084 7.884-38.891 14.478-59.315 18.857-4.86-21.099-14.086-40.654-26.945-57.563 19.421-3.005 40.818-8.92 58.626-16.377 6.152-2.574 13.272-.096 16.559 5.772l17.232 30.757c3.812 6.804.989 15.438-6.157 18.554zm-269.875-266.514c-4.142 0-7.5 3.358-7.5 7.5v12c0 4.142 3.358 7.5 7.5 7.5s7.5-3.358 7.5-7.5v-12c0-4.142-3.358-7.5-7.5-7.5zm124.897 0c-4.142 0-7.5 3.358-7.5 7.5v12c0 4.142 3.358 7.5 7.5 7.5 4.143 0 7.5-3.358 7.5-7.5v-12c0-4.142-3.357-7.5-7.5-7.5zm-41.058 13.488c-3.122-2.721-7.861-2.396-10.581.727-2.729 3.132-6.669 4.928-10.81 4.928s-8.081-1.796-10.81-4.928c-2.722-3.123-7.458-3.447-10.582-.727-3.122 2.722-3.448 7.459-.727 10.582 5.579 6.401 13.641 10.073 22.119 10.073s16.54-3.671 22.118-10.073c2.723-3.123 2.396-7.861-.727-10.582z"/></g></svg>