<svg id="Capa_1" enable-background="new 0 0 511.984 511.984" height="512" viewBox="0 0 511.984 511.984" width="512" xmlns="http://www.w3.org/2000/svg"><g><path d="m454.641 273.291c0 67.659 36.401 69.503 36.401 104.599 0 10.675-4.327 20.339-11.322 27.335-19.275 19.275-121.902 49.612-223.727 49.612s-204.453-30.338-223.728-49.613c-6.995-6.996-11.322-16.66-11.322-27.335 0-35.095 36.401-36.939 36.401-104.599h397.297z" fill="#de5c6e"/><ellipse cx="60.545" cy="261.872" fill="#ffcbbe" rx="49.656" ry="44.468"/><ellipse cx="451.439" cy="261.872" fill="#ffcbbe" rx="49.656" ry="44.468"/><path d="m360.83 504.484c10.484 0 18.425-9.404 16.757-19.754-9.452-58.634-60.294-103.416-121.595-103.416s-112.142 44.782-121.595 103.416c-1.669 10.35 6.273 19.754 16.757 19.754z" fill="#f2bcd5"/><path d="m255.992 434.957c31.98 0 62.645-4.858 90.438-14.083-22.5-24.326-54.689-39.561-90.438-39.561s-67.938 15.235-90.438 39.561c27.793 9.225 58.458 14.083 90.438 14.083z" fill="#ea9cd0"/><path d="m203.066 412.398c0 23.907-24.342 39.639-54.37 39.639-30.027 0-54.37-15.732-54.37-39.639s24.342-43.287 54.37-43.287c30.028-.001 54.37 19.38 54.37 43.287z" fill="#efedff"/><path d="m148.696 369.11c-19.186 0-36.039 7.92-45.716 19.87 26.567 19.615 59.274 33.39 95.341 40.47 3.04-5.027 4.745-10.752 4.745-17.053 0-23.906-24.342-43.287-54.37-43.287z" fill="#d4d4ff"/><path d="m308.919 412.398c0 23.907 24.342 39.639 54.37 39.639s54.37-15.732 54.37-39.639-24.342-43.287-54.37-43.287c-30.028-.001-54.37 19.38-54.37 43.287z" fill="#efedff"/><path d="m363.288 369.11c19.186 0 36.039 7.92 45.716 19.87-26.567 19.615-59.274 33.39-95.341 40.47-3.04-5.027-4.745-10.752-4.745-17.053.001-23.906 24.343-43.287 54.37-43.287z" fill="#d4d4ff"/><path d="m449.628 251.516c0 94.224-86.694 153.442-193.636 153.442s-193.636-59.219-193.636-153.442 86.694-170.608 193.636-170.608 193.636 76.384 193.636 170.608z" fill="#ffddcf"/><path d="m255.992 62.004c166.129-44.326 225.804 91.167 224.821 157.623-.235 15.895-14.829 27.683-30.426 24.61-56.221-11.077-140.066-57.476-186.574-99.883-4.435-4.045-11.207-4.045-15.643 0-46.508 42.407-130.353 88.807-186.574 99.883-15.597 3.073-30.191-8.715-30.426-24.61-.982-66.455 58.693-201.949 224.822-157.623z" fill="#de5c6e"/><path d="m271.291 12.667 20.952 16.035c3.943 3.017 9.106 3.93 13.844 2.446l39.269-12.297c8.99-2.815 17.212 6.081 13.699 14.822l-18.935 47.113c-4.531 11.274-14.693 19.283-26.706 21.106-19.289 2.927-43.854 4.627-57.422 4.627s-38.134-1.7-57.423-4.627c-12.013-1.823-22.174-9.832-26.706-21.106l-18.936-47.113c-3.513-8.741 4.709-17.637 13.699-14.822l39.269 12.297c4.738 1.484 9.902.571 13.844-2.446l20.952-16.035c9.031-6.91 21.571-6.91 30.6 0z" fill="#f5ea72"/><path d="m236.737 15.694-16.996 13.007c-3.943 3.017-9.106 3.93-13.844 2.446l-39.269-12.297c-8.99-2.815-17.212 6.081-13.699 14.822l18.936 47.113c4.531 11.274 14.693 19.283 26.706 21.106 19.289 2.927 43.854 4.627 57.423 4.627 6.349 0 15.106-.372 24.604-1.068-31.867-11.181-48.552-51.738-43.861-89.756z" fill="#ebca5f"/><g><g fill="#eda1ab"><ellipse cx="177.616" cy="270.401" rx="28.92" ry="23.03"/><ellipse cx="334.369" cy="270.401" rx="28.92" ry="23.03"/></g></g><ellipse cx="255.992" cy="455.171" fill="#efedff" rx="17.257" ry="17.257" transform="matrix(.383 -.924 .924 .383 -262.495 517.491)"/><path d="m194.47 224.076c-11.725 0-21.265 9.539-21.265 21.265 0 4.142 3.357 7.5 7.5 7.5s7.5-3.358 7.5-7.5c0-3.455 2.811-6.265 6.265-6.265s6.265 2.81 6.265 6.265c0 4.142 3.357 7.5 7.5 7.5s7.5-3.358 7.5-7.5c-.001-11.726-9.54-21.265-21.265-21.265zm123.045 0c-11.726 0-21.265 9.539-21.265 21.265 0 4.142 3.357 7.5 7.5 7.5s7.5-3.358 7.5-7.5c0-3.455 2.811-6.265 6.265-6.265s6.265 2.81 6.265 6.265c0 4.142 3.357 7.5 7.5 7.5s7.5-3.358 7.5-7.5c-.001-11.726-9.54-21.265-21.265-21.265zm-36.766 231.095c0-13.651-11.105-24.757-24.757-24.757s-24.757 11.106-24.757 24.757 11.105 24.757 24.757 24.757 24.757-11.106 24.757-24.757zm-34.514 0c0-5.38 4.377-9.757 9.757-9.757s9.757 4.377 9.757 9.757-4.377 9.757-9.757 9.757-9.757-4.377-9.757-9.757zm29.286-199.396c-3.123-2.722-7.86-2.397-10.581.726-2.261 2.593-5.521 4.08-8.948 4.08s-6.688-1.487-8.948-4.08c-2.72-3.122-7.459-3.446-10.581-.726-3.123 2.722-3.447 7.459-.726 10.582 5.109 5.862 12.492 9.224 20.255 9.224s15.146-3.362 20.255-9.224c2.722-3.122 2.398-7.86-.726-10.582zm192.211 55.902c23.601-6.394 40.864-26.296 40.864-49.805 0-15.41-7.561-29.933-20.414-39.757.068-.788.119-1.579.131-2.377.419-28.353-10.219-75.239-41.578-114.071-2.603-3.222-7.325-3.724-10.547-1.123-3.223 2.603-3.726 7.325-1.123 10.547 28.844 35.715 38.632 78.574 38.25 104.424-.166 11.209-10.46 19.528-21.477 17.362-53.05-10.452-135.13-54.444-182.971-98.066-7.341-6.693-18.409-6.694-25.75-.001-47.84 43.622-129.921 87.614-182.97 98.066-11.038 2.17-21.312-6.172-21.478-17.362-.329-22.242 6.9-57.699 28.176-90.512 15.421-23.785 43.486-53.734 90.472-64.3l7.588 18.878c5.488 13.655 17.956 23.512 32.539 25.724 20.17 3.061 45.22 4.712 58.548 4.712s38.378-1.651 58.548-4.712c14.583-2.212 27.051-12.069 32.539-25.724l7.586-18.873c20.599 4.63 39.299 13.354 55.645 26.015 3.264 2.526 7.974 1.951 10.522-1.337 2.536-3.275 1.938-7.985-1.337-10.522-17.474-13.533-37.342-23.011-59.164-28.252l5.684-14.143c5.863-14.589-7.846-29.486-22.899-24.776l-39.27 12.296c-2.409.755-5.042.289-7.045-1.245l-20.951-16.032c-11.691-8.948-28.021-8.949-39.715 0l-20.952 16.035c-2.002 1.534-4.635 1.999-7.045 1.245l-39.269-12.296c-15.033-4.707-28.769 10.172-22.899 24.776l5.688 14.15c-50.457 12.106-80.69 44.458-97.396 70.224-23.105 35.633-30.949 74.45-30.588 98.895.012.793.062 1.579.129 2.363-12.855 9.826-20.413 24.358-20.413 39.771 0 23.506 17.259 43.406 40.856 49.803-9.799 28.475-30.802 37.144-30.802 66.215 0 12.329 4.801 23.92 13.519 32.638 9.882 9.883 35.988 21.053 71.795 30.754 8.278 8.536 20.422 14.569 34.986 17.024-3.091 8.161-5.358 16.609-6.748 25.231-2.404 14.905 9.062 28.448 24.161 28.448h7.85c4.143 0 7.5-3.358 7.5-7.5s-3.357-7.5-7.5-7.5h-7.85c-5.975 0-10.269-5.372-9.352-11.061 1.462-9.071 4.021-17.928 7.6-26.399 35.482-.26 61.164-19.993 61.164-47.127 0-1.209-.069-2.413-.173-3.612 29.679 4.895 61.472 4.901 91.184.003-.103 1.198-.157 2.402-.157 3.61 0 27.134 25.681 46.867 61.164 47.127 3.579 8.471 6.138 17.328 7.6 26.4.916 5.681-3.369 11.06-9.353 11.06h-165.786c-4.143 0-7.5 3.358-7.5 7.5s3.357 7.5 7.5 7.5h165.782c15.095 0 26.565-13.54 24.161-28.448-1.39-8.621-3.662-17.068-6.75-25.23 14.565-2.455 26.709-8.488 34.988-17.024 35.807-9.701 61.912-20.871 71.795-30.754 8.718-8.718 13.518-20.309 13.518-32.638 0-29.146-20.961-37.606-30.81-66.217zm-304.504-285.853c1.083 0-.861-.379 40.427 12.481 7.052 2.209 14.772.846 20.645-3.647l20.952-16.035c6.324-4.84 15.156-4.84 21.48 0h.001l20.951 16.034c5.869 4.494 13.587 5.858 20.645 3.648l39.27-12.296c2.957-.93 5.655 1.992 4.499 4.868l-18.937 47.113c-3.517 8.75-11.515 15.068-20.871 16.488-19.443 2.95-43.518 4.542-56.298 4.542s-36.855-1.592-56.298-4.542c-9.356-1.42-17.354-7.738-20.871-16.488l-18.937-47.113c-1.051-2.618 1.061-5.053 3.342-5.053zm293.891 226.346c10.384-.558 19.966-5.995 25.778-14.823 6.797 6.709 10.699 15.428 10.699 24.526 0 21.681-20.941 37.939-44.042 36.917 4.965-14.711 7.498-30.317 7.565-46.62zm-438.73 9.702c0-9.098 3.903-17.815 10.701-24.524 5.845 8.878 15.441 14.259 25.775 14.815.066 16.305 2.599 31.913 7.565 46.625-24.716.963-44.041-16.517-44.041-36.916zm69.719 160.726c-29.311-9.003-45.434-17.571-50.539-22.678-5.885-5.885-9.126-13.709-9.126-22.031 0-23.4 20.407-30.716 30.875-64.078 2.664.052 5.291-.009 8.971-.464 10.72 22.89 26.919 41.626 46.631 56.48-22.746 12.15-31.662 33.894-26.812 52.771zm60.588 21.939c-30.771 0-46.87-16.168-46.87-32.139 0-14.074 11.016-26.883 27.727-32.637 19.173 11.704 41.24 20.451 65.175 25.939.553 2.202.837 4.443.837 6.698 0 15.971-16.099 32.139-46.869 32.139zm-25.093-86.942c-36.086-27.375-54.227-64.977-53.738-107.497 55.306-13.082 135.801-56.836 183.359-100.202 1.578-1.439 3.957-1.439 5.535 0 47.559 43.365 128.054 87.119 183.359 100.201 1.666 148.021-214.965 186.052-318.515 107.498zm239.685 86.942c-30.77 0-46.869-16.168-46.869-32.139 0-2.255.283-4.496.837-6.698 23.936-5.488 46.002-14.235 65.175-25.939 16.712 5.754 27.728 18.563 27.728 32.637-.001 15.971-16.1 32.139-46.871 32.139zm111.128-44.616c-5.105 5.107-21.226 13.675-50.54 22.679 4.868-18.95-4.142-40.666-26.806-52.776 19.935-15.049 35.99-33.763 46.625-56.476 3.606.445 6.223.517 8.957.465 10.511 33.511 30.89 40.568 30.89 64.078 0 8.321-3.241 16.145-9.126 22.03z"/></g></svg>