<svg id="Capa_1" enable-background="new 0 0 512.01 512.01" height="512" viewBox="0 0 512.01 512.01" width="512" xmlns="http://www.w3.org/2000/svg"><g><ellipse cx="79.916" cy="285.927" fill="#b8866b" rx="44.738" ry="40.063"/><ellipse cx="432.095" cy="285.927" fill="#b8866b" rx="44.738" ry="40.063"/><path d="m350.46 504.51c9.446 0 16.6-8.473 15.097-17.798-8.516-52.827-54.322-93.173-109.552-93.173-55.229 0-101.036 40.347-109.552 93.173-1.503 9.325 5.652 17.798 15.097 17.798z" fill="#f1b260"/><path d="m256.005 444.841c29.599 0 57.973-4.578 83.64-13.256-20.343-23.312-50.269-38.046-83.64-38.046s-63.297 14.733-83.64 38.046c25.667 8.678 54.041 13.256 83.64 13.256z" fill="#ee8c49"/><path d="m305.307 504.51c15.943-60.37-21.409-110.718-36.896-120.739h-24.812c-15.487 10.021-52.839 60.369-36.896 120.739z" fill="#ee8c49"/><path d="m430.463 276.596c0 84.892-78.108 138.244-174.458 138.244s-174.458-53.352-174.458-138.244c0-84.891 78.107-153.71 174.458-153.71s174.458 68.819 174.458 153.71z" fill="#cc9e83"/><path d="m356.365 120.565c25.486 1.891 66.929 15.989 93.801 37.509 4.487 3.593 3.593 10.653-1.599 13.12-6.09 2.894-14.502 6.127-26.187 8.522 12.505 21.985 24.034 63.356 12.339 97.15-2.479 7.162-10.796 10.479-17.522 6.985-18.276-9.495-45.046-33.851-60.293-65.758-1.588-3.324-4.738-5.618-8.372-6.226-29.674-4.964-68.878-20.718-92.527-62.479-23.648 41.761-62.852 57.515-92.527 62.479-3.633.608-6.783 2.902-8.372 6.226-15.247 31.907-42.017 56.263-60.293 65.758-6.725 3.494-15.043.177-17.521-6.985-11.694-33.793-.166-75.165 12.339-97.15-11.686-2.395-20.097-5.629-26.187-8.522-5.192-2.467-6.086-9.527-1.599-13.12 26.872-21.52 68.315-35.618 93.801-37.509z" fill="#6171a3"/><path d="m253.647 120.212c-12.103 0-21.914-9.811-21.914-21.914 0-34.846 22.549-68.324 44.896-86.044 9.482-7.519 23.266-5.93 30.786 3.555 7.52 9.483 5.928 23.266-3.555 30.786-14.16 11.229-28.301 33.265-28.301 51.703.002 12.103-9.809 21.914-21.912 21.914z" fill="#5ec783"/><path d="m275.561 98.298c0-15.393 9.856-33.288 21.351-45.315-15.752-6.056-32.629-8.477-49.279-7.26-9.434 15.662-15.899 33.921-15.899 52.575 0 12.103 9.811 21.914 21.914 21.914 12.102 0 21.913-9.811 21.913-21.914z" fill="#3cb767"/><path d="m183.176 157.379c35.527 0 55.818-6.541 55.933-34.706.067-16.553-12.476-38.385-35.884-38.385-23.409 0-63.84 12.973-75.981 38.385-12.142 25.413 20.405 34.706 55.932 34.706z" fill="#ee8c49"/><path d="m328.834 157.379c-35.527 0-55.818-6.541-55.932-34.706-.067-16.553 12.476-38.385 35.884-38.385 23.409 0 63.84 12.973 75.981 38.385 12.141 25.413-20.405 34.706-55.933 34.706z" fill="#ee8c49"/><path d="m256.005 165.746c45.078 0 81.88-9.127 72.543-42.365-7.509-26.733-38.297-47.996-72.543-47.996s-65.034 21.264-72.543 47.996c-9.337 33.238 27.465 42.365 72.543 42.365z" fill="#f1b260"/><g><g><ellipse cx="172.937" cy="296.676" fill="#eda1ab" rx="30.65" ry="24.408"/><ellipse cx="339.073" cy="296.519" fill="#eda1ab" rx="30.65" ry="24.408"/><path d="m269.706 285.249c-.008-8.685-6.154-15.719-13.727-15.712s-13.705 7.053-13.697 15.738 6.154 15.72 13.727 15.712c7.573-.007 13.706-7.053 13.697-15.738z" fill="#4e5660"/></g></g><path d="m206.365 260.294c-3.123-2.716-7.86-2.389-10.581.737-1.266 1.456-3.094 2.292-5.015 2.294-.002 0-.004 0-.006 0-1.919 0-3.746-.833-5.014-2.284-2.724-3.121-7.462-3.441-10.582-.717s-3.441 7.462-.717 10.582c4.117 4.716 10.062 7.419 16.313 7.419h.02c6.259-.006 12.207-2.721 16.319-7.45 2.718-3.125 2.388-7.863-.737-10.581zm240.535-19.971c-.871-20.056-6.289-39.934-13.507-55.543 6.573-1.83 12.648-4.082 18.391-6.811 10.217-4.854 11.858-18.71 3.069-25.748-16.2-12.973-38.975-24.499-62.94-31.924-12.403-27.577-54.179-43.509-83.127-43.509-3.692 0-7.299.464-10.764 1.379-2.501-1.297-5.087-2.476-7.732-3.547 3.452-6.236 7.912-12.287 12.838-17.277 2.91-2.948 2.879-7.697-.069-10.607-2.946-2.909-7.695-2.879-10.606.069-6.666 6.754-12.478 14.849-16.757 23.266-10.689-2.378-20.879-2.722-30.838-1.479 8.15-22.183 23.503-40.209 36.432-50.461 7.61-6.034 18.871-2.96 22.392 6.06 1.504 3.859 5.85 5.766 9.712 4.263 3.859-1.505 5.768-5.853 4.263-9.712-7.149-18.344-30.108-24.715-45.686-12.363-16.284 12.913-35.983 36.778-44.067 65.991-4.835 1.567-9.498 3.507-13.914 5.797-16.068-4.243-40.858 2.239-56.007 8.922-15.565 6.867-30.913 17.698-37.884 33.208-23.966 7.426-46.74 18.951-62.94 31.924-8.794 7.043-7.141 20.897 3.069 25.748 5.742 2.728 11.817 4.98 18.391 6.811-7.217 15.607-12.634 35.482-13.506 55.535-22.026 5.861-37.432 24.204-37.432 45.613 0 28.458 27.436 50.722 58.697 47.199 18.25 38.686 54.689 64.853 96.438 78.215-23.323 18.276-38.989 44.558-43.764 74.178-1.336 8.286 1.955 16.621 8.588 21.752 3.285 2.539 7.992 1.926 10.521-1.344 2.534-3.276 1.933-7.987-1.344-10.521-2.285-1.767-3.418-4.641-2.957-7.499 4.793-29.727 22.153-55.615 47.802-71.458 2.262.508 4.539.989 6.835 1.433-8.517 17.97-17.192 46.087-11.133 79.128h-9.839c-4.143 0-7.5 3.358-7.5 7.5s3.357 7.5 7.5 7.5h162.935c14.056 0 24.74-12.607 22.501-26.492-4.775-29.62-20.443-55.901-43.767-74.176 41.795-13.376 78.226-39.604 96.441-78.216 31.305 3.528 58.697-18.782 58.697-47.199 0-21.409-15.408-39.744-37.432-45.605zm-68.254-103.309c-4.668 7.403-22.464 12.322-45.862 12.82 11.482-17.975.364-42.749-15.013-57.576 38.206 3.936 68.643 32.427 60.875 44.756zm-122.641-54.13c29.932 0 58.625 18.679 65.322 42.525 2.054 7.311 1.423 13.015-1.929 17.438-5.324 7.024-20.644 15.398-63.394 15.398-42.751 0-58.07-8.374-63.394-15.399-3.352-4.423-3.982-10.127-1.929-17.438 6.699-23.845 35.393-42.524 65.324-42.524zm-121.994 43.021c9.13-19.111 38.382-30.787 60.076-33.502-15.366 14.899-26.269 39.574-14.861 57.431-23.398-.498-41.194-5.417-45.862-12.82-1.137-1.806-2.309-4.922.647-11.109zm-91.333 160.022c0-13.357 9.176-25.015 22.726-29.996.681 8.03 2.215 15.917 4.8 23.388.908 2.622 2.352 4.982 4.192 6.976.761 11.209 2.834 21.96 6.167 32.178-21.633.33-37.885-15.103-37.885-32.546zm41.702-11.513c-11.097-32.066.959-71.982 11.771-90.989 2.516-4.423-.018-10.031-5.014-11.055-9.162-1.878-17.168-4.479-24.474-7.95-.072-.034-.182-.086-.205-.286-.016-.133.015-.157.075-.206 13.226-10.592 31.412-20.169 51.003-27 4.861 26.905 52.75 29.359 80.031 27.513 8.272 3.634 18.782 6.132 31.632 7.513-21.686 20.971-47.721 29.298-66.956 32.516-6.082 1.017-11.279 4.9-13.902 10.39-14.296 29.916-39.561 53.284-56.983 62.336-2.664 1.384-5.995.06-6.978-2.782zm214.982 222.596h-86.714c-6.876-32.866 3.05-60.614 11.362-76.661 10.419 1.314 21.113 1.991 31.995 1.991s21.576-.677 31.995-1.991c8.312 16.047 18.238 43.796 11.362 76.661zm58.791-9.104c.773 4.79-2.871 9.104-7.692 9.104h-35.812c6.059-33.041-2.616-61.158-11.133-79.128 2.297-.444 4.573-.925 6.835-1.433 25.649 15.842 43.009 41.73 47.802 71.457zm14.432-114.666c-30.185 21.99-71.587 34.101-116.58 34.101s-86.395-12.11-116.58-34.101c-28.235-20.569-45.128-48.253-49.318-80.523 2.818-.143 5.603-.88 8.164-2.21 20.224-10.507 47.733-35.973 63.602-69.179.517-1.081 1.579-1.852 2.843-2.063 24.156-4.041 57.975-15.346 83.867-46.105 4.869.114 9.973.115 14.845 0 25.892 30.759 59.711 42.064 83.867 46.105 1.263.211 2.325.982 2.842 2.063 15.868 33.206 43.378 58.672 63.603 69.18 2.565 1.332 5.356 2.069 8.181 2.21-4.191 32.271-21.099 59.952-49.336 80.522zm48.07-96.044c-17.424-9.052-42.689-32.42-56.984-62.337-2.623-5.489-7.82-9.372-13.901-10.389-19.236-3.218-45.27-11.544-66.955-32.516 12.848-1.381 23.358-3.879 31.629-7.512 27.315 1.848 75.181-.726 80.03-27.507 19.592 6.829 37.779 16.401 51.004 26.993.06.048.091.073.075.206-.023.2-.133.252-.204.286-7.307 3.471-15.313 6.071-24.475 7.95-5.006 1.026-7.525 6.641-5.014 11.055 10.812 19.006 22.867 58.922 11.771 90.989-.987 2.851-4.323 4.16-6.976 2.782zm10.791 41.278c3.334-10.219 5.407-20.97 6.168-32.179 1.84-1.994 3.284-4.354 4.192-6.976 2.585-7.469 4.119-15.355 4.8-23.384 13.55 4.981 22.726 16.636 22.726 29.992 0 17.746-16.613 32.889-37.886 32.547zm-175.456-56.438c-.006 0-.012 0-.017 0-11.696.011-21.202 10.439-21.191 23.245.013 13.051 9.691 23.206 21.215 23.206h.019c11.696-.011 21.202-10.438 21.19-23.245-.012-13.06-9.7-23.206-21.216-23.206zm.012 31.451c-.002 0-.003 0-.005 0-3.69 0-6.212-4.226-6.215-8.219-.004-4.458 2.837-8.228 6.204-8.231h.004c3.698 0 6.213 4.236 6.216 8.219.004 4.458-2.837 8.228-6.204 8.231zm80.772-33.316c-3.123-2.717-7.86-2.389-10.581.737-1.266 1.456-3.094 2.292-5.015 2.294-.002 0-.005 0-.007 0-1.918 0-3.744-.832-5.011-2.283-2.723-3.12-7.461-3.441-10.582-.719-3.121 2.724-3.442 7.461-.719 10.582 4.116 4.716 10.061 7.42 16.311 7.42h.022c6.258-.006 12.206-2.721 16.318-7.45 2.719-3.125 2.389-7.863-.736-10.581z"/></g></svg>