<svg id="Capa_1" enable-background="new 0 0 512 512" height="512" viewBox="0 0 512 512" width="512" xmlns="http://www.w3.org/2000/svg"><g><path d="m148.751 180.187c0-39.729-37.371-45.245-66.129-45.245-30.933 0-56.01-28.529-56.01-63.721s25.076-63.721 56.01-63.721c66.653 0 113.526 77.461 113.526 151.24z" fill="#6171a3"/><path d="m363.249 180.187c0-39.729 37.371-45.245 66.129-45.245 30.933 0 56.01-28.529 56.01-63.721s-25.076-63.721-56.01-63.721c-66.654 0-113.526 77.461-113.526 151.24z" fill="#6171a3"/><path d="m359.996 504.5c10.4 0 18.277-9.328 16.622-19.596-9.376-58.163-59.81-102.585-120.618-102.585s-111.242 44.422-120.618 102.585c-1.655 10.267 6.222 19.596 16.622 19.596z" fill="#d2996f"/><g fill="#cb775a"><path d="m256 435.772c31.788 0 62.268-4.836 89.889-14.017-22.328-24.243-54.332-39.437-89.889-39.437s-67.562 15.194-89.889 39.437c27.621 9.182 58.101 14.017 89.889 14.017z"/><path d="m152.004 504.5h62.91c9.309-50.047-33.516-59.197-59.362-69.571-10.166 14.65-17.213 31.627-20.17 49.975-1.655 10.268 6.222 19.596 16.622 19.596z"/><path d="m311.639 395.697c-13.193 49.022 13.044 83.161 60.603 71.08-10.031-30.931-32.061-56.456-60.603-71.08z"/></g><path d="m434.331 134.68c-6.819-8.196-14.383-15.987-22.677-23.295-21.112-18.601-45.681-32.969-72.386-42.638-14.91 26.489-23.416 58.572-23.416 89.993l47.397 21.447c0-39.729 37.371-45.245 66.129-45.245 1.67 0 3.32-.099 4.953-.262z" fill="#475a99"/><path d="m77.669 134.68c1.633.163 3.282.262 4.952.262 28.758 0 66.129 5.516 66.129 45.245l47.397-21.447c0-31.421-8.506-63.504-23.416-89.993-26.705 9.669-51.274 24.038-72.386 42.638-8.293 7.308-15.856 15.099-22.676 23.295z" fill="#475a99"/><path d="m448.081 253.564c0 93.467-85.997 152.209-192.081 152.209s-192.08-58.742-192.08-152.209 85.997-169.237 192.08-169.237 192.081 75.77 192.081 169.237z" fill="#d2996f"/><path d="m361.101 181.765c-38.543 8.259-85.897-1.944-105.101-22.815-19.204 20.871-66.558 31.074-105.101 22.815-4.53-.971-9.252.432-12.434 3.798-20.083 21.246-32.072 48.064-32.072 77.222 0 68.937 66.981 102.893 149.607 102.893s149.607-33.956 149.607-102.893c0-29.158-11.99-55.976-32.072-77.222-3.183-3.366-7.905-4.768-12.434-3.798z" fill="#ffddcf"/><path d="m223.045 177.973c-21.71 6.979-48.571 8.844-72.146 3.792-4.53-.971-9.252.432-12.434 3.798-12.709 13.445-22.171 29.124-27.41 46.213 32.097 4.286 83.029-15.781 111.99-53.803z" fill="#de5c6e"/><path d="m288.955 177.973c21.71 6.979 48.571 8.844 72.146 3.792 4.53-.971 9.252.432 12.434 3.798 12.709 13.445 22.171 29.124 27.41 46.213-32.097 4.286-83.029-15.781-111.99-53.803z" fill="#de5c6e"/><path d="m281.733 157.453c0-9.703-11.521-14.551-25.733-14.551s-25.733 4.848-25.733 14.551 11.521 20.587 25.733 20.587 25.733-10.884 25.733-20.587z" fill="#4e5660"/><g><g fill="#eda1ab"><ellipse cx="177.623" cy="287.41" rx="28.919" ry="23.03"/><ellipse cx="334.377" cy="287.41" rx="28.92" ry="23.03"/></g></g><path d="m193.551 149.12c4.142 0 7.5-3.357 7.5-7.5v-12c0-4.143-3.358-7.5-7.5-7.5s-7.5 3.357-7.5 7.5v12c0 4.143 3.358 7.5 7.5 7.5zm165.978 25.312c-23.573 5.052-51.881 2.805-73.573-5.449 8.966-15.417-.044-33.581-29.957-33.581-29.885 0-38.932 18.147-29.956 33.581-21.693 8.254-50.003 10.501-73.573 5.448-7.079-1.516-14.535.775-19.455 5.98-22.323 23.617-34.122 52.102-34.122 82.375 0 35.159 16.36 64.081 47.313 83.638 27.702 17.503 65.668 26.755 109.794 26.755s82.092-9.252 109.794-26.755c30.953-19.557 47.313-48.478 47.313-83.638 0-30.273-11.799-58.759-34.122-82.375-4.921-5.206-12.379-7.499-19.456-5.979zm-103.529-24.03c10.395 0 18.233 3.031 18.233 7.051 0 5.148-7.83 13.086-18.233 13.086s-18.233-7.938-18.233-13.086c0-4.019 7.838-7.051 18.233-7.051zm-112.084 40.314c1.346-1.425 3.419-2.047 5.412-1.616 16.436 3.523 34.536 3.931 51.741 1.53-24.417 21.805-56.038 33.725-79.592 34.18 5.051-12.182 12.577-23.66 22.439-34.094zm251.469 49.045c1.8 7.501 2.721 15.198 2.721 23.025 0 69.326-72.201 95.393-142.107 95.393-69.977 0-142.107-26.141-142.107-95.393 0-7.827.922-15.524 2.721-23.025 34.603 1.41 82.145-18.979 110.916-55.364 3.491-1.2 6.867-2.534 10.099-3.999 11.357 6.768 25.118 6.926 36.741 0 3.232 1.465 6.607 2.799 10.098 3.999 28.813 36.435 76.383 56.774 110.918 55.364zm-84.463-49.134c17.208 2.402 35.312 1.995 51.75-1.528 1.996-.427 4.066.192 5.412 1.617 9.865 10.436 17.393 21.919 22.444 34.104-23.556-.459-55.184-12.387-79.606-34.193zm7.527-41.507c4.142 0 7.5-3.357 7.5-7.5v-12c0-4.143-3.358-7.5-7.5-7.5s-7.5 3.357-7.5 7.5v12c0 4.143 3.358 7.5 7.5 7.5zm174.439-77.898c0-39.272-28.491-71.222-63.51-71.222-50.364 0-88.305 40.021-107.01 86.794-21.043-6.549-43.411-9.967-66.368-9.967s-45.325 3.417-66.368 9.967c-18.718-46.807-56.682-86.794-107.01-86.794-35.019 0-63.51 31.95-63.51 71.222 0 15.116 4.163 29.555 12.04 41.753 2.25 3.485 6.895 4.476 10.369 2.232 3.48-2.247 4.479-6.89 2.232-10.369-6.307-9.769-9.641-21.393-9.641-33.616 0-31.001 21.762-56.222 48.51-56.222 43.698 0 76.462 36.227 92.838 76.751-22.932 8.955-44.083 21.821-62.463 38.525-8.655-1.9-18.637-2.833-30.375-2.833-5.165 0-10.248-.938-15.108-2.785-3.872-1.474-8.204.472-9.676 4.344-1.472 3.871.473 8.203 4.344 9.676 6.569 2.499 13.446 3.766 20.44 3.766 6.377 0 12.116.302 17.335.893-28.211 31.193-43.537 69.646-43.537 110.228 0 72.908 49.655 125.861 120.6 148.084-26.154 20.036-43.738 49.165-49.042 82.063-2.394 14.847 9.038 28.288 24.026 28.288h159.573c4.142 0 7.5-3.357 7.5-7.5s-3.358-7.5-7.5-7.5h-88.09c3.542-43.416-31.854-56.651-55.952-65.55 7.962-9.618 17.543-17.981 28.479-24.699 34.629 7.82 71.808 8.404 105.334 2.86-4.861 43.079 21.372 73.527 65.646 65.939.897 3.461 1.645 6.977 2.221 10.547.904 5.609-3.33 10.902-9.218 10.902h-12.838c-4.142 0-7.5 3.357-7.5 7.5s3.358 7.5 7.5 7.5h12.838c15.01 0 26.416-13.462 24.026-28.289-5.303-32.896-22.879-62.031-49.031-82.066 70.988-22.24 120.589-75.22 120.589-148.081 0-40.583-15.327-79.037-43.54-110.231 5.217-.592 10.962-.891 17.338-.891 35.018.001 63.509-31.948 63.509-71.219zm-284.46 425.778h-56.424c-5.888 0-10.122-5.294-9.218-10.902 2.439-15.125 7.819-29.349 15.67-42.016 30.289 11.316 53.283 20.444 49.972 52.918zm153.78-35.9c-34.822 4.773-50.885-19.949-45.391-53.831 20.658 12.93 36.403 31.763 45.391 53.831zm78.373-207.536c0 193.021-369.161 192.869-369.161 0 0-89.182 82.803-161.736 184.581-161.736s184.58 72.554 184.58 161.736zm-41.578-123.289c-18.365-16.691-39.512-29.562-62.463-38.525 16.382-40.537 49.155-76.75 92.838-76.75 26.748 0 48.509 25.221 48.509 56.222 0 31-21.761 56.221-48.509 56.221-11.738-.001-21.72.933-30.375 2.832zm-95.246 139.574c4.142 0 7.5-3.357 7.5-7.5 0-3.454 2.811-6.265 6.265-6.265 3.455 0 6.265 2.81 6.265 6.265 0 4.143 3.358 7.5 7.5 7.5s7.5-3.357 7.5-7.5c0-11.726-9.54-21.265-21.265-21.265-11.726 0-21.265 9.539-21.265 21.265 0 4.142 3.358 7.5 7.5 7.5zm-28.229 2.934c-3.122-2.722-7.86-2.397-10.581.727-2.259 2.593-5.521 4.08-8.947 4.08s-6.688-1.487-8.947-4.08c-2.721-3.121-7.459-3.448-10.582-.727s-3.448 7.459-.727 10.582c5.109 5.862 12.492 9.225 20.255 9.225s15.147-3.362 20.255-9.225c2.723-3.123 2.397-7.861-.726-10.582zm-81.05-31.699c-11.726 0-21.265 9.539-21.265 21.265 0 4.143 3.358 7.5 7.5 7.5s7.5-3.357 7.5-7.5c0-3.454 2.811-6.265 6.265-6.265 3.455 0 6.265 2.81 6.265 6.265 0 4.143 3.358 7.5 7.5 7.5s7.5-3.357 7.5-7.5c0-11.726-9.54-21.265-21.265-21.265z"/></g></svg>