<svg id="Capa_1" enable-background="new 0 0 512 512" height="512" viewBox="0 0 512 512" width="512" xmlns="http://www.w3.org/2000/svg"><g><ellipse cx="73.864" cy="278.411" fill="#d4d4ff" rx="46.274" ry="41.439"/><ellipse cx="438.136" cy="278.411" fill="#d4d4ff" rx="46.274" ry="41.439"/><path d="m353.698 504.5c9.77 0 17.171-8.764 15.616-18.409-8.809-54.641-56.188-96.373-113.314-96.373s-104.505 41.732-113.314 96.373c-1.555 9.645 5.846 18.409 15.615 18.409z" fill="#f5ea72"/><path d="m364.62 467.323c-15.448-45.145-58.24-77.605-108.62-77.605-50.379 0-93.172 32.46-108.62 77.604 2.735.595 5.562.909 8.448.908h.005c2.697 0 .953.005 42.29-3.125 1.056-.079 2.066.194 2.911.746l21.739 14.189c20.211 13.192 46.281 13.188 66.486 0l21.737-14.188c.855-.559 1.866-.825 2.912-.747l39.218 3.007c3.921.3 7.785.016 11.494-.789z" fill="#ebca5f"/><path d="m326.251 386.718c16.922 8.413 30.448 22.583 39.725 34.614 6.531 8.47-.123 20.677-10.787 19.859l-39.217-3.006c-6.955-.533-13.892 1.245-19.733 5.057l-21.739 14.19c-11.232 7.332-25.737 7.332-36.969 0l-21.738-14.19c-5.841-3.813-12.778-5.591-19.733-5.057l-39.217 3.006c-10.664.818-17.318-11.389-10.787-19.859 9.277-12.03 22.802-26.2 39.725-34.614z" fill="#5ec783"/><path d="m436.448 268.76c0 87.806-80.789 142.991-180.448 142.991s-180.448-55.184-180.448-142.991 80.789-158.988 180.448-158.988 180.448 71.182 180.448 158.988z" fill="#efedff"/><g><g><ellipse cx="176.355" cy="299.396" fill="#eda1ab" rx="29.387" ry="23.403"/><ellipse cx="335.645" cy="299.396" fill="#eda1ab" rx="29.387" ry="23.403"/><path d="m279.694 281.415c0-14.643-10.608-16.019-23.694-16.019-13.085 0-23.693 1.376-23.693 16.019s10.608 26.513 23.693 26.513c13.086 0 23.694-11.87 23.694-26.513z" fill="#4e5660"/></g></g><path d="m199.317 139.516c0-40.724-43.853-64.687-77.639-45.9-2.903 1.614-6.466 1.17-8.877-1.115-10.099-9.57-24.002-15.165-39.21-14.26-26.384 1.57-47.686 23.005-49.104 49.397-.996 18.532 7.649 35.102 21.369 45.159 2.956 2.166 3.886 6.138 2.203 9.393-4.097 7.926-6.233 17.03-5.752 26.674 1.382 27.721 24.705 49.78 52.46 49.707 32-.084 55.71-28.315 51.848-58.838-.512-4.046 2.408-7.729 6.459-8.199 26.109-3.031 46.243-25.239 46.243-52.018z" fill="#5ec783"/><path d="m312.682 139.516c0-40.724 43.853-64.687 77.64-45.9 2.903 1.614 6.466 1.17 8.877-1.115 10.099-9.57 24.002-15.165 39.21-14.26 26.384 1.57 47.686 23.005 49.104 49.397.996 18.532-7.649 35.102-21.369 45.159-2.956 2.166-3.886 6.138-2.203 9.393 4.097 7.926 6.233 17.03 5.752 26.674-1.382 27.721-24.705 49.78-52.46 49.707-32-.084-55.71-28.315-51.848-58.838.512-4.046-2.408-7.729-6.459-8.199-26.109-3.031-46.244-25.239-46.244-52.018z" fill="#5ec783"/><path d="m319.837 109.829c-5.409-4.214-17.665-45.252-7.698-79.172 1.487-5.062-.864-10.461-5.547-12.891-11.254-5.839-29.904-10.266-50.592-10.266s-39.338 4.427-50.592 10.266c-4.683 2.43-7.035 7.829-5.547 12.891 9.966 33.92-2.289 74.958-7.699 79.172l63.838 19.776z" fill="#6171a3"/><path d="m319.837 109.829c-3.753-2.923-10.795-23.575-11.431-47.274-15.083 5.239-29.993 7.252-52.406 7.252-22.411 0-37.321-2.013-52.406-7.251-.637 23.699-7.678 44.35-11.431 47.273l63.837 19.776z" fill="#475a99"/><path d="m256 145.139c-34.713 0-59.539-4.23-85.688-14.599-11.636-4.615-17.329-17.789-12.714-29.425 4.614-11.636 17.786-17.327 29.425-12.715 20.7 8.209 40.04 11.407 68.977 11.407 28.938 0 48.277-3.198 68.977-11.407 11.636-4.614 24.811 1.077 29.425 12.715 4.615 11.636-1.078 24.81-12.714 29.425-26.149 10.369-50.975 14.599-85.688 14.599z" fill="#6171a3"/><path d="m468.157 237.82c11.458-18.227 11.896-40.742 2.479-59.016 16.35-12.014 25.458-31.286 24.368-51.568-1.09-20.283-12.346-38.484-30.108-48.688-3.592-2.064-8.177-.824-10.239 2.768-2.063 3.591-.824 8.176 2.767 10.238 13.337 7.661 21.786 21.301 22.602 36.486.819 15.232-6.027 29.701-18.314 38.706-5.966 4.372-7.829 12.315-4.432 18.886 15.659 30.299-7.352 65.441-39.91 65.439h-.115c-27.822-.073-47.685-24.65-44.427-50.398 1.035-8.187-4.827-15.638-13.035-16.59-20.592-2.39-36.575-18.562-39.216-38.683 8.028-2.112 15.889-4.723 23.877-7.89 16.632-6.596 24.115-26.396 15.342-42.515 9.25-1.149 18.639.591 26.882 5.174 5.801 3.226 12.904 2.302 17.681-2.226 6.564-6.221 14.718-10.271 23.583-11.715 4.088-.666 6.863-4.52 6.197-8.607-.665-4.089-4.521-6.865-8.608-6.197-11.845 1.929-22.734 7.334-31.564 15.636-14.38-7.995-31.334-9.58-47.061-4.528-7.854-3.945-16.707-4.272-24.693-1.106-1.361.54-2.717 1.052-4.07 1.547-2.168-11.55-4.325-31.423 1.193-50.204 2.488-8.469-1.419-17.579-9.289-21.662-13.408-6.955-33.612-11.107-54.047-11.107-20.436 0-40.639 4.152-54.045 11.108-7.871 4.083-11.778 13.193-9.29 21.662 5.519 18.781 3.362 38.656 1.194 50.204-1.355-.495-2.711-1.008-4.074-1.548-8.316-3.294-17.238-2.616-24.666 1.115-15.733-5.063-32.704-3.48-47.16 4.515-12.146-11.509-28.057-17.302-44.815-16.302-30.376 1.808-54.515 26.09-56.148 56.481-1.09 20.281 8.018 39.553 24.368 51.568-9.381 18.198-9.022 40.721 2.479 59.015-14.673 8.983-23.753 24.113-23.753 40.591 0 29.233 28.259 52.34 60.685 48.524 15.344 32.523 42.776 56.402 75.659 71.658-5.658 5.343-11.12 11.415-16.319 18.159-8.287 10.747-3.433 25.517 7.878 30.368-6.297 11.797-10.563 24.456-12.711 37.777-2.289 14.197 8.633 27.103 23.02 27.103h12.346c4.142 0 7.5-3.357 7.5-7.5s-3.358-7.5-7.5-7.5h-12.346c-5.243 0-9.017-4.716-8.211-9.716 2.255-13.99 7.18-27.148 14.638-39.175l31.903-2.446c5.277-.408 10.627.967 15.06 3.859l21.739 14.189c13.716 8.954 31.447 8.957 45.168 0l21.738-14.189c4.434-2.894 9.781-4.266 15.06-3.859l31.872 2.444c7.459 12.028 12.384 25.188 14.639 39.177.807 5.007-2.973 9.716-8.211 9.716h-146.137c-4.142 0-7.5 3.357-7.5 7.5s3.358 7.5 7.5 7.5h146.139c14.384 0 25.309-12.901 23.02-27.103-2.147-13.317-6.422-25.969-12.718-37.763 11.376-4.851 16.19-19.653 7.916-30.382-5.209-6.756-10.686-12.814-16.353-18.157 33.171-15.389 60.429-39.37 75.661-71.656 32.574 3.819 60.687-19.412 60.687-48.528-.002-16.475-9.083-31.605-23.755-40.589zm-259.295-213.397c8.78-4.556 25.774-9.423 47.138-9.423s38.358 4.867 47.138 9.423c1.516.787 2.275 2.519 1.805 4.119-6.636 22.586-3.736 46.148-1.212 58.877-13.775 3.446-28.546 4.888-47.732 4.888s-33.957-1.442-47.732-4.888c2.525-12.726 5.426-36.287-1.211-58.877-.47-1.601.29-3.332 1.806-4.119zm-44.292 79.456c2.357-5.945 8.078-9.575 14.118-9.575 9.595 0 21.907 13.003 77.313 13.003 29.966 0 50.081-3.347 71.742-11.936 3.766-1.493 7.888-1.431 11.606.176 12.373 5.345 12.05 23.074-.425 28.021-25.203 9.994-49.228 14.07-82.923 14.07s-57.72-4.076-82.923-14.07c-7.775-3.083-11.591-11.916-8.508-19.689zm-129.48 174.532c0-11.808 7.084-22.695 18.388-28.836 1.03.836 5.993 5.977 14.854 10.35-1.1 18.26 1.129 35.923 6.596 52.401-22.388.556-39.838-15.365-39.838-33.915zm19.63-92.776c3.398-6.572 1.535-14.516-4.431-18.887-12.287-9.006-19.133-23.475-18.314-38.707 1.223-22.768 19.305-40.959 42.061-42.313 12.565-.74 24.503 3.591 33.605 12.217 4.795 4.545 11.901 5.438 17.682 2.227 8.244-4.585 17.638-6.335 26.892-5.186-8.743 15.99-1.411 35.886 15.332 42.527 7.987 3.167 15.848 5.777 23.876 7.89-2.641 20.121-18.624 36.292-39.214 38.683-8.213.952-14.071 8.406-13.036 16.59 3.257 25.743-16.602 50.325-44.427 50.398h-.115c-32.519-.003-55.591-35.105-39.911-65.439zm305.317 240.277c2.55 3.306-.048 8.135-4.275 7.801l-39.217-3.007c-8.552-.654-17.221 1.566-24.406 6.256l-21.739 14.189c-8.738 5.703-20.032 5.703-28.77 0l-21.739-14.189c-7.185-4.69-15.854-6.91-24.405-6.256l-39.217 3.007c-4.219.32-6.837-4.478-4.275-7.802 6.282-8.147 12.936-15.172 19.823-20.944 50.776 18.651 115.397 19.464 168.388-.008 6.887 5.771 13.545 12.799 19.832 20.953zm19.026-58.704c-31.489 23.888-75.193 37.043-123.063 37.043s-91.574-13.155-123.064-37.043c-33.92-25.733-51.06-61.476-49.819-102.262 40.187 7.917 75.888-26.049 70.959-65.979 26.978-3.194 47.988-24.105 52.013-50.298 14.953 2.743 31.018 3.969 49.91 3.969 18.887 0 34.949-1.226 49.899-3.967 4.029 26.22 25.084 47.14 52.029 50.261-4.963 40.009 30.847 73.917 70.957 66.013 1.191 40.294-15.448 76.187-49.821 102.263zm58.011-54.887c5.449-16.426 7.696-34.075 6.594-52.396 8.594-4.242 13.102-8.928 14.854-10.35 11.304 6.14 18.388 17.028 18.388 28.836 0 18.415-17.272 34.451-39.836 33.91zm-106.342-60.365c-4.142 0-7.5 3.357-7.5 7.5v12c0 4.143 3.358 7.5 7.5 7.5s7.5-3.357 7.5-7.5v-12c0-4.142-3.358-7.5-7.5-7.5zm-54.586 9.27c-5.449-2.763-11.994-3.329-20.146-3.329s-14.697.566-20.146 3.329c-5.04 2.556-11.047 8.133-11.047 20.189 0 18.755 13.993 34.013 31.193 34.013s31.193-15.258 31.193-34.013c0-12.057-6.008-17.634-11.047-20.189zm-20.146 39.202c-8.929 0-16.193-8.529-16.193-19.013 0-5.907.655-8.518 16.193-8.518 15.539 0 16.193 2.611 16.193 8.518 0 10.483-7.264 19.013-16.193 19.013zm-74.732-48.472c-4.142 0-7.5 3.357-7.5 7.5v12c0 4.143 3.358 7.5 7.5 7.5s7.5-3.357 7.5-7.5v-12c0-4.142-3.358-7.5-7.5-7.5z"/></g></svg>