<svg id="Capa_1" enable-background="new 0 0 512 512" height="512" viewBox="0 0 512 512" width="512" xmlns="http://www.w3.org/2000/svg"><g><path d="m352.041 504.5c9.604 0 16.879-8.615 15.351-18.097-8.659-53.714-55.235-94.739-111.392-94.739s-102.733 41.024-111.392 94.739c-1.528 9.482 5.746 18.097 15.351 18.097z" fill="#6171a3"/><path d="m256 391.664c-32.611 0-61.988 13.836-82.588 35.956 13.926 24.226 45.656 41.156 82.588 41.156 36.931 0 68.662-16.93 82.588-41.156-20.6-22.119-49.977-35.956-82.588-35.956z" fill="#f1b260"/><path d="m256 391.664c-31.748 0-60.428 13.117-80.931 34.221 15.548 5.087 32.084 8.685 49.242 10.651 7.705 5.437 16.953 8.426 26.574 8.426h10.229c9.621 0 18.869-2.989 26.574-8.426 17.159-1.966 33.694-5.564 49.242-10.651-20.502-21.103-49.182-34.221-80.93-34.221z" fill="#ee8c49"/><path d="m433.389 272.758c0 86.318-79.42 140.567-177.388 140.567-97.969 0-177.389-54.249-177.389-140.567s79.419-156.292 177.388-156.292 177.389 69.974 177.389 156.292z" fill="#cc9e83"/><path d="m256 7.5h58.376c43.551 0 85.318 17.301 116.113 48.096l49.591 49.591c22.91 22.91 30.471 57.018 19.39 87.463l-11.791 32.396c-3.423 9.406-5.175 19.338-5.175 29.347v81.823c0 16.827-13.641 30.467-30.467 30.467h-23.631c-16.827 0-30.467-13.641-30.467-30.467v-134.714c-13.332-32.542-55.676-71.583-141.939-71.583s-128.606 39.042-141.938 71.583v134.714c0 16.827-13.641 30.467-30.467 30.467h-23.631c-16.827 0-30.467-13.641-30.467-30.467v-81.823c0-10.009-1.751-19.941-5.175-29.347l-11.792-32.397c-11.081-30.445-3.52-64.553 19.39-87.463l49.591-49.591c30.796-30.794 72.563-48.095 116.114-48.095z" fill="#efedff"/><path d="m179.2 142.981c-27.941-36.275-36.716-95.955-35.937-126.212-23.019 8.077-44.174 21.249-61.752 38.826l-49.591 49.592c-22.91 22.91-30.471 57.018-19.39 87.463l11.791 32.396c3.423 9.406 5.175 19.338 5.175 29.347v81.823c0 16.827 13.641 30.467 30.467 30.467h23.631c16.827 0 30.467-13.641 30.467-30.467v-134.714c8.532-20.823 28.944-44.307 65.139-58.521z" fill="#d4d4ff"/><g fill="#6171a3"><path d="m69.782 67.325-37.862 37.862c-22.91 22.91-30.471 57.018-19.39 87.463l11.791 32.396c.22.605.414 1.218.62 1.827h89.12v-25.371c6.678-16.3 20.636-34.23 43.744-48.068-16.811-26.273-47.483-61.168-88.023-86.109z"/><path d="m442.218 67.325 37.862 37.862c22.91 22.91 30.471 57.018 19.39 87.463l-11.791 32.396c-.22.605-.414 1.218-.62 1.827h-89.121v-25.371c-6.678-16.3-20.636-34.23-43.745-48.068 16.814-26.273 47.486-61.168 88.025-86.109z"/><path d="m211.83 133.771c13.232-2.466 27.921-3.853 44.171-3.853 16.249 0 30.938 1.386 44.17 3.853 3.834-37.035 12.86-94.098 25.891-125.85-3.877-.277-7.774-.422-11.686-.422h-58.376-58.376c-3.912 0-7.809.145-11.686.422 13.032 31.752 22.058 88.815 25.892 125.85z"/></g><path d="m114.062 167.677c0-11.452 5.428-22.203 14.599-29.062 21.822-16.321 59.582-36.1 127.339-36.1s105.518 19.779 127.339 36.1c9.171 6.859 14.599 17.61 14.599 29.062v33.825c-18.032-16.167-55.675-48.225-141.938-48.225s-123.906 32.058-141.938 48.225z" fill="#f5ea72"/><path d="m274.925 335.652h-37.849c-7.329 0-13.06 6.322-12.343 13.616l5.069 51.58c1.066 10.846 10.186 19.114 21.084 19.114h10.229c10.898 0 20.018-8.268 21.084-19.114l5.069-51.58c.717-7.294-5.014-13.616-12.343-13.616z" fill="#f5ea72"/><g><g><ellipse cx="172.154" cy="280.088" fill="#eda1ab" rx="30.938" ry="24.637"/><ellipse cx="339.847" cy="280.088" fill="#eda1ab" rx="30.938" ry="24.637"/><ellipse cx="256" cy="261.158" fill="#4e5660" rx="16.423" ry="18.377"/></g></g><path d="m114.062 167.677v33.825c13.1-11.745 36.558-31.874 81.483-42.008-13.15-10.003-23.338-24.637-31.083-41.073-15.249 6.248-26.864 13.51-35.801 20.194-9.171 6.859-14.599 17.61-14.599 29.062z" fill="#ebca5f"/><path d="m256 235.281c-13.191 0-23.922 11.608-23.922 25.877s10.731 25.877 23.922 25.877 23.923-11.608 23.923-25.877c0-14.268-10.731-25.877-23.923-25.877zm0 36.754c-4.92 0-8.922-4.879-8.922-10.877s4.002-10.877 8.922-10.877 8.923 4.879 8.923 10.877-4.003 10.877-8.923 10.877zm229.384-172.152c-47.464-47.051-51.28-52.315-63.929-62.405-3.238-2.584-7.958-2.053-10.54 1.185-2.584 3.238-2.053 7.957 1.185 10.54 9.448 7.539 15.018 13.739 18.231 16.842-26.901 17.911-47.353 38.549-60.981 54.567-16.998-9.524-36.033-16.353-57.345-20.546 5.184-34.864 11.959-64.829 19.013-84.155 18.239 1.966 36.165 7.121 52.604 15.219 3.718 1.831 8.212.301 10.042-3.415s.302-8.211-3.415-10.042c-23.472-11.562-49.71-17.673-75.873-17.673h-116.751c-45.866 0-88.985 17.861-121.417 50.292l-49.591 49.591c-24.866 24.867-33.162 62.287-21.134 95.332l11.791 32.396c3.134 8.609 4.723 17.62 4.723 26.781v81.823c0 20.935 17.032 37.967 37.967 37.967h23.631c9.276 0 17.782-3.349 24.384-8.894 19.02 19.993 44.255 35.114 73.78 44.497-23.746 18.566-39.697 45.296-44.554 75.425-2.263 14.036 8.536 26.79 22.755 26.79h11.477c4.142 0 7.5-3.357 7.5-7.5s-3.358-7.5-7.5-7.5h-11.477c-5.074 0-8.726-4.564-7.946-9.403 2.843-17.637 10.035-33.946 20.707-47.678 17.554 22.352 49.035 36.357 83.28 36.357s65.726-14.005 83.28-36.357c10.673 13.732 17.864 30.04 20.708 47.677.78 4.847-2.879 9.403-7.947 9.403h-144.804c-4.142 0-7.5 3.357-7.5 7.5s3.358 7.5 7.5 7.5h144.803c14.218 0 25.019-12.752 22.756-26.79-4.858-30.131-20.819-56.854-44.57-75.42 29.532-9.383 54.772-24.505 73.796-44.502 6.602 5.546 15.107 8.895 24.383 8.895h23.631c20.936 0 37.968-17.032 37.968-37.967v-81.823c0-9.163 1.589-18.174 4.723-26.781l11.791-32.396c12.026-33.045 3.73-70.465-21.135-95.332zm-106.537 44.737c7.259 5.429 11.592 14.048 11.592 23.057v17.628c-21.405-16.712-61.091-39.528-134.439-39.528-73.347 0-113.033 22.816-134.438 39.528v-17.628c0-9.009 4.333-17.628 11.59-23.057 31.136-23.286 71.32-34.605 122.848-34.605s91.712 11.319 122.847 34.605zm-181.222-129.62h116.752c.349 0 .699.013 1.049.015-8.77 25.758-14.821 59.797-18.223 82.613-25.55-3.437-56.037-3.547-82.404 0-3.402-22.816-9.453-56.857-18.224-82.616.35-.002.699-.012 1.05-.012zm-16.654.878c7.06 19.327 13.84 49.305 19.026 84.187-21.312 4.193-40.347 11.021-57.345 20.546-13.628-16.018-34.075-36.658-60.978-54.57 3.044-2.219 35.972-43.515 99.297-50.163zm-74.409 320.338c0 12.664-10.303 22.967-22.968 22.967h-23.63c-12.664 0-22.967-10.303-22.967-22.967v-81.823c0-6.766-.731-13.463-2.173-20.02h71.739v101.843zm0-168.539v51.696h-76.324l-10.66-29.289c-10.043-27.59-3.116-58.832 17.645-79.594l33.616-33.615c25.804 16.736 45.542 36.279 58.906 51.75-1.884 1.292-3.747 2.615-5.576 3.984-11.025 8.246-17.607 21.355-17.607 35.068zm149.438 293.599c-30.814 0-58.771-12.677-73.053-32.695 5.345-5.127 11.263-9.734 17.7-13.713 9.808 2.187 20 3.788 30.519 4.778 5.149 4.866 12.094 7.815 19.719 7.815h10.229c7.625 0 14.57-2.949 19.72-7.815 10.518-.99 20.711-2.591 30.519-4.778 6.437 3.979 12.354 8.586 17.7 13.713-14.283 20.019-42.24 32.695-73.053 32.695zm-18.925-118.124h37.85c2.895 0 5.162 2.496 4.879 5.383l-5.068 51.579c-.692 7.039-6.548 12.348-13.621 12.348h-10.229c-7.073 0-12.928-5.308-13.62-12.347l-5.069-51.58c-.284-2.882 1.977-5.383 4.878-5.383zm52.317 60.415c.355-2.117-.029.746 5.34-53.565 1.151-11.696-8.057-21.85-19.807-21.85h-37.85c-11.735 0-20.958 10.135-19.807 21.85 5.366 54.279 4.986 51.453 5.342 53.569-43.798-5.961-80.62-23.488-105.185-50.155 2.638-5.168 4.137-11.011 4.137-17.201v-131.355c16.728-14.814 53.448-44.084 134.438-44.084s117.71 29.27 134.439 44.084v131.355c0 6.19 1.498 12.032 4.137 17.2-24.564 26.667-61.387 44.191-105.184 50.152zm185.612-149.174v81.823c0 12.664-10.304 22.967-22.968 22.967h-23.631c-12.664 0-22.967-10.303-22.967-22.967v-101.843h71.738c-1.441 6.556-2.172 13.253-2.172 20.02zm17.418-64.309-10.66 29.289h-76.323c0-15.826 0-36.661 0-51.696 0-13.712-6.582-26.822-17.607-35.068-1.833-1.371-3.699-2.696-5.587-3.991 13.368-15.468 33.135-35.017 58.919-51.741l33.613 33.613c20.761 20.762 27.687 52.004 17.645 79.594zm-298.537 38.814c-11.726 0-21.265 9.54-21.265 21.266 0 4.143 3.358 7.5 7.5 7.5s7.5-3.357 7.5-7.5c0-3.455 2.811-6.266 6.265-6.266 3.455 0 6.265 2.81 6.265 6.266 0 4.143 3.358 7.5 7.5 7.5s7.5-3.357 7.5-7.5c0-11.726-9.539-21.266-21.265-21.266zm123.045 0c-11.726 0-21.266 9.54-21.266 21.266 0 4.143 3.357 7.5 7.5 7.5s7.5-3.357 7.5-7.5c0-3.455 2.811-6.266 6.266-6.266 3.454 0 6.265 2.81 6.265 6.266 0 4.143 3.358 7.5 7.5 7.5 4.143 0 7.5-3.357 7.5-7.5-.001-11.726-9.54-21.266-21.265-21.266z"/></g></svg>