<svg id="Capa_1" enable-background="new 0 0 512 512" height="512" viewBox="0 0 512 512" width="512" xmlns="http://www.w3.org/2000/svg"><g><path d="m211.578 382.835c-.888-29.827-24.723-54.408-54.512-56.159-13.916-.818-26.835 3.287-37.216 10.714-8.6-5.691-18.935-8.971-30.047-8.853-29.043.309-52.797 24.249-52.891 53.293-.075 23.444 14.942 43.379 35.883 50.671 3.259 1.135 5.463 4.133 5.865 7.561 2.562 21.878 21.175 38.606 43.469 38.606 21.958 0 40.137-16.165 43.294-37.244 26.92-5.587 47.012-29.819 46.155-58.589z" fill="#f1b260"/><ellipse cx="108.188" cy="81.11" fill="#475a99" rx="62.451" ry="59.654"/><ellipse cx="57.844" cy="253.22" fill="#f2bb88" rx="50.344" ry="45.084"/><ellipse cx="454.156" cy="253.22" fill="#f2bb88" rx="50.344" ry="45.084"/><path d="m362.291 499.195c10.629 0 18.681-9.535 16.989-20.028-9.583-59.447-61.129-104.85-123.28-104.85s-113.697 45.403-123.28 104.849c-1.692 10.494 6.36 20.028 16.989 20.028h212.582z" fill="#efedff"/><path d="m166.911 411.69c27.425 8.911 57.615 13.599 89.089 13.599s61.664-4.688 89.089-13.599c-22.658-23.065-54.202-37.373-89.089-37.373s-66.431 14.307-89.089 37.373z" fill="#d4d4ff"/><path d="m146.288 430.29c24.434 5.965 60.852 17.53 76.567 68.905h33.145c0-36.614-36.865-118.78-85.433-132.553 0 0-21.133 19.923-32.935 46.115-3.26 7.235.946 15.651 8.656 17.533z" fill="#8cd6fe"/><path d="m365.712 430.29c-24.434 5.965-60.852 17.53-76.567 68.905h-33.145c0-36.614 36.865-118.78 85.433-132.553 0 0 21.133 19.923 32.935 46.115 3.26 7.235-.946 15.651-8.656 17.533z" fill="#8cd6fe"/><path d="m280.526 424.314c31.892-2.525 61.982-9.965 88.597-21.831-11.904-20.952-27.689-35.842-27.689-35.842-24.273 6.883-45.622 30.848-60.908 57.673z" fill="#5fc5fc"/><path d="m142.877 402.483c26.615 11.866 56.705 19.306 88.597 21.831-15.286-26.824-36.635-50.789-60.907-57.672 0-.001-15.785 14.889-27.69 35.841z" fill="#5fc5fc"/><path d="m452.32 242.72c0 95.53-87.895 155.568-196.32 155.568s-196.32-60.038-196.32-155.568 87.895-172.972 196.32-172.972 196.32 77.442 196.32 172.972z" fill="#f2d1a5"/><path d="m260.514 145.261c26.309 20.374 76.972 32.63 117.088 37.981 5.203.694 9.629 4.045 11.813 8.818 9.55 20.872 23.938 38.599 36.582 51.66 13.105 13.538 36.22 6.492 39.198-12.113 12.462-77.871-51.548-214.625-205.041-176.982-2.726.669-5.582.669-8.309 0-153.492-37.643-217.502 99.111-205.04 176.982 2.977 18.605 26.092 25.651 39.198 12.113 12.644-13.061 27.031-30.788 36.581-51.66 2.184-4.773 6.61-8.124 11.813-8.818 40.116-5.351 90.779-17.607 117.088-37.981 2.67-2.067 6.36-2.067 9.029 0z" fill="#6171a3"/><path d="m484.089 347.439h-67.381v103.026c0 18.607 15.084 33.69 33.69 33.69 18.607 0 33.691-15.084 33.691-33.69z" fill="#efedff"/><path d="m484.089 450.465v-50.566c-24.404 11.479-53.739-.996-67.381-2.552v53.118c0 18.607 15.084 33.69 33.69 33.69 18.607 0 33.691-15.083 33.691-33.69z" fill="#f1b260"/><path d="m484.761 349.439h-68.725c-10.902 0-19.739-8.837-19.739-19.739v-14.149c0-10.902 8.837-19.739 19.739-19.739h68.725c10.902 0 19.739 8.837 19.739 19.739v14.149c0 10.902-8.837 19.739-19.739 19.739z" fill="#8cd6fe"/><circle cx="470.348" cy="46.958" fill="#f1b260" r="34.152"/><g><g fill="#eda1ab"><ellipse cx="177.623" cy="269.526" rx="28.919" ry="23.03"/><ellipse cx="334.377" cy="269.526" rx="28.92" ry="23.03"/></g></g><path d="m470.348 88.61c22.967 0 41.652-18.685 41.652-41.652s-18.685-41.652-41.652-41.652-41.652 18.685-41.652 41.652 18.685 41.652 41.652 41.652zm0-68.304c14.696 0 26.652 11.956 26.652 26.652s-11.956 26.652-26.652 26.652-26.652-11.956-26.652-26.652 11.955-26.652 26.652-26.652zm-275.871 202.893c-11.725 0-21.266 9.54-21.266 21.266 0 4.143 3.357 7.5 7.5 7.5s7.5-3.357 7.5-7.5c0-3.455 2.811-6.266 6.266-6.266 3.454 0 6.265 2.811 6.265 6.266 0 4.143 3.357 7.5 7.5 7.5s7.5-3.357 7.5-7.5c0-11.726-9.539-21.266-21.265-21.266zm317.523 30.021c0-22.328-15.376-41.94-38.035-49.412-.962-18.713-5.227-38.502-12.55-57.174-1.513-3.857-5.864-5.756-9.721-4.244-3.856 1.513-5.756 5.865-4.244 9.721 10.323 26.32 14.092 54.863 10.338 78.313-1.993 12.461-17.528 17.247-26.402 8.081-15.693-16.212-27.52-32.888-35.15-49.564-3.289-7.188-9.884-12.097-17.642-13.132-50.218-6.697-92.643-20.333-113.486-36.475-5.363-4.156-12.854-4.153-18.214-.001-20.845 16.142-63.27 29.778-113.488 36.477-7.757 1.034-14.352 5.943-17.642 13.132-7.63 16.676-19.456 33.352-35.149 49.564-8.879 9.17-24.412 4.368-26.403-8.082-11.832-73.929 48.743-204.588 195.849-168.514 3.884.952 7.991.952 11.879 0 98.498-24.157 148.703 26.996 169.863 59.638 2.252 3.475 6.896 4.466 10.373 2.213 3.476-2.253 4.467-6.896 2.213-10.373-37.614-58.026-102.689-86.483-186.019-66.046-1.551.379-3.189.379-4.738 0-34.158-8.376-62.983-8.182-87.023-3.166-12.882-18.767-34.762-30.22-58.421-30.22-38.57 0-69.95 30.125-69.95 67.154 0 17.928 7.402 34.886 20.475 47.437-12.991 25.041-19.459 51.685-20.664 75.256-22.667 7.469-38.049 27.084-38.049 49.417 0 31.244 30.295 56.446 65.666 52.088 2.835 6.087 6.114 11.971 9.818 17.641-26.261 6.742-45.982 30.825-46.072 58.857-.083 26.008 16.359 49.228 40.917 57.778.451.157.805.699.881 1.35 3.191 27.255 27.241 46.873 54.151 45.125 1.34 7.801 6.37 14.744 13.747 18.255 3.739 1.78 8.215.191 9.995-3.55 1.779-3.74.19-8.215-3.55-9.995-3.887-1.85-6.12-6.13-5.431-10.408 2.293-14.217 7.114-27.673 14.342-40.08 23.195 7.022 45.069 19.621 57.797 51.414h-34.18c-4.143 0-7.5 3.357-7.5 7.5s3.357 7.5 7.5 7.5h184.208c15.211 0 26.825-13.637 24.394-28.723-2.402-14.895-7.273-29.043-14.482-42.194 9.321-4.943 13.407-16.328 9.004-26.102-4.002-8.883-9.349-17.864-15.917-26.793 15.647-7.413 29.874-16.539 42.332-27.279.523.17 1.051.33 1.587.469v94.392c0 22.713 18.477 41.19 41.19 41.19s41.19-18.478 41.19-41.19v-94.393c11.728-3.038 20.413-13.71 20.413-26.372v-14.148c0-11.358-6.99-21.11-16.892-25.192 10.577-9.644 16.892-22.889 16.892-37.14zm-458.763-172.11c0-28.758 24.65-52.154 54.95-52.154 16.781 0 32.392 7.236 42.721 19.357-36.124 11.591-64.746 35.718-84.412 66.708-8.493-9.386-13.259-21.347-13.259-33.911zm-38.237 172.11c0-14.227 9.123-26.969 23.046-33.333.247 4.491.698 8.81 1.354 12.907 1.361 8.506 6.176 15.807 13.137 20.393.856 13.11 3.313 25.663 7.312 37.562-25.393 1.035-44.849-16.978-44.849-37.529zm115.794 156.456c-4.381 9.725-.362 21.127 8.992 26.095-6.055 11.048-10.451 22.802-13.125 35.111-19.949 2.52-38.209-11.69-40.551-31.692-.741-6.33-4.999-11.735-10.847-13.772-18.516-6.447-30.912-23.954-30.85-43.564.074-23.296 18.133-42.976 40.957-45.515 16.789 20.259 38.256 35.558 61.399 46.465-6.593 8.955-11.961 17.962-15.975 26.872zm97.48 82.018c-7.569-21.57-19.684-38.41-36.082-50.09-14.737-10.496-30.575-15.293-44.124-18.601-3.143-.768-4.935-4.198-3.598-7.166 4.724-10.484 11.1-19.93 16.487-26.953 14.333 5.548 29.656 9.792 45.681 12.637 22.658 26.766 38.507 65.479 41.388 90.173zm-.513-87.284c19.252 1.888 38.415 1.772 56.445.044-12.435 17.735-22.09 37.943-28.207 56.361-6.121-18.434-15.788-38.659-28.238-56.405zm134.53 87.284h-62.547c12.727-31.789 34.596-44.392 57.79-51.414 7.228 12.407 12.049 25.863 14.342 40.079.938 5.824-3.453 11.335-9.585 11.335zm5.239-75.856c1.335 2.963-.451 6.399-3.596 7.166-13.55 3.308-29.388 8.104-44.126 18.601-16.398 11.679-28.513 28.519-36.081 50.09h-19.753c2.878-24.668 18.696-63.326 41.318-90.09 16.135-2.825 31.482-7.061 45.822-12.629 5.372 7.015 11.714 16.426 16.416 26.862zm27.293-69.077c-30.687 25.132-78.299 44.027-138.823 44.027-51.04 0-97.966-13.793-132.133-38.838-32.574-23.878-51.726-56.134-55.827-93.739 8.645.411 17.131-2.848 23.351-9.273 16.883-17.44 29.672-35.527 38.012-53.756 1.132-2.472 3.369-4.156 5.985-4.505 15.997-2.134 40.239-6.227 64.882-13.607 24.174-7.239 42.923-15.925 55.73-25.819 12.805 9.893 31.554 18.58 55.729 25.819 24.643 7.38 48.885 11.473 64.881 13.605 2.617.35 4.854 2.034 5.985 4.505 8.341 18.23 21.13 36.316 38.013 53.757 5.964 6.16 14.279 9.699 23.355 9.267-1.144 10.433-3.457 20.512-6.916 30.108h-21.013c-15.02 0-27.238 12.22-27.238 27.239v14.149c.001 6.455 2.262 12.388 6.027 17.061zm81.766 103.704c0 14.441-11.749 26.19-26.19 26.19s-26.19-11.749-26.19-26.19v-44.014c16.874 3.965 34.201 8.305 52.381 3.956v40.058zm0-55.64c-17.425 5.8-37.048-.419-52.381-3.757v-34.128h52.381zm20.411-79.273v14.148c0 6.749-5.49 12.239-12.239 12.239h-68.726c-6.748 0-12.238-5.49-12.238-12.239v-14.148c0-6.749 5.49-12.239 12.238-12.239h68.726c6.749 0 12.239 5.49 12.239 12.239zm-27.542-27.239h-16.579c3.573-11.228 5.776-22.988 6.577-35.121 6.965-4.586 11.783-11.89 13.143-20.398.668-4.171 1.1-8.492 1.349-12.906 13.927 6.361 23.052 19.103 23.052 33.332 0 15.562-11.025 29.54-27.542 35.093zm-193.928-33.413c-3.124-2.723-7.861-2.396-10.582.725-2.261 2.593-5.521 4.08-8.948 4.08s-6.688-1.487-8.948-4.08c-2.72-3.122-7.458-3.447-10.582-.725-3.122 2.722-3.446 7.459-.725 10.582 5.109 5.861 12.492 9.223 20.255 9.223s15.146-3.361 20.255-9.223c2.722-3.123 2.397-7.86-.725-10.582zm41.992-31.701c-11.726 0-21.266 9.54-21.266 21.266 0 4.143 3.357 7.5 7.5 7.5s7.5-3.357 7.5-7.5c0-3.455 2.811-6.266 6.266-6.266 3.454 0 6.265 2.811 6.265 6.266 0 4.143 3.357 7.5 7.5 7.5s7.5-3.357 7.5-7.5c0-11.726-9.539-21.266-21.265-21.266z"/></g></svg>