<svg id="Capa_1" enable-background="new 0 0 512 512" height="512" viewBox="0 0 512 512" width="512" xmlns="http://www.w3.org/2000/svg"><g><ellipse cx="77.604" cy="283.054" fill="#b8866b" rx="45.324" ry="40.588"/><ellipse cx="434.396" cy="283.054" fill="#b8866b" rx="45.324" ry="40.588"/><path d="m351.692 504.5c9.569 0 16.818-8.584 15.295-18.031-8.628-53.519-55.034-94.394-110.986-94.394-55.953 0-102.359 40.875-110.987 94.394-1.523 9.447 5.725 18.031 15.295 18.031z" fill="#efedff"/><path d="m256 392.075c-45.56 0-84.787 27.102-102.447 66.061 24.313 12.194 59.588 25.4 89.206 30.54 8.764 1.521 17.727 1.519 26.482 0 29.618-5.14 64.893-18.346 89.206-30.54-17.66-38.959-56.887-66.061-102.447-66.061z" fill="#d4d4ff"/><path d="m319.216 370.417c13.457 7.34 32.842 26.538 42.733 43.365 3.655 6.217 1.522 14.264-4.743 17.836-21.508 12.262-61.221 28.059-92.069 33.412-6.046 1.049-12.229 1.049-18.275 0-30.848-5.353-70.561-21.15-92.069-33.412-6.265-3.572-8.398-11.618-4.743-17.836 9.891-16.827 29.277-36.025 42.733-43.365z" fill="#8cd6fe"/><path d="m432.743 273.601c0 86.003-79.13 140.055-176.743 140.055s-176.743-54.051-176.743-140.055 79.131-155.723 176.743-155.723 176.743 69.72 176.743 155.723z" fill="#cc9e83"/><path d="m255.995 188.957c20.789 0 50.291-4.698 73.17-16.619 2.674-1.393 5.937.159 6.532 3.115 9.298 46.162 50.982 87.898 81.29 109.547 6.665 4.761 15.969.694 17.129-7.414 18.307-127.865-85.575-167.447-178.121-167.447s-196.428 39.581-178.122 167.446c1.161 8.108 10.465 12.175 17.129 7.414 30.308-21.649 71.993-63.384 81.29-109.547.595-2.956 3.858-4.508 6.532-3.115 22.88 11.923 52.382 16.62 73.171 16.62z" fill="#6171a3"/><path d="m325.624 75.422c0-37.512-31.172-67.922-69.624-67.922s-69.624 30.41-69.624 67.922z" fill="#d4d4ff"/><path d="m256 56.923c29.846 0 56.727 4.396 84.061 13.532 6.981 2.333 10.776 9.856 8.435 16.834l-12.4 36.966c-2.861 8.53-10.171 14.821-19.043 16.313-16.738 2.815-38.12 4.785-61.054 4.785s-44.316-1.97-61.054-4.785c-8.873-1.492-16.182-7.783-19.043-16.313l-12.4-36.966c-2.341-6.978 1.455-14.501 8.436-16.834 27.335-9.136 54.216-13.532 84.062-13.532z" fill="#efedff"/><g><g><path d="m203.749 307.947c.007 13.438-13.667 24.338-30.541 24.346-16.874.009-30.559-10.878-30.566-24.315-.007-13.438 13.667-24.338 30.541-24.347s30.559 10.878 30.566 24.316z" fill="#eda1ab"/><path d="m308.251 307.894c.007 13.438 13.691 24.324 30.566 24.315 16.874-.008 30.548-10.908 30.541-24.346s-13.691-24.324-30.565-24.316c-16.875.009-30.548 10.909-30.542 24.347z" fill="#eda1ab"/><path d="m285.944 296.906c-.009-18.509-13.419-20.241-29.959-20.233-16.541.008-29.949 1.754-29.939 20.263.009 18.509 13.426 33.506 29.966 33.498s29.941-15.019 29.932-33.528z" fill="#4e5660"/></g></g><path d="m170.316 107.598c.522-.254 1.058-.488 1.623-.677 27.334-9.136 54.216-13.532 84.061-13.532 29.846 0 56.727 4.396 84.061 13.532.565.189 1.101.423 1.623.677l6.813-20.308c2.341-6.978-1.455-14.501-8.436-16.835-27.334-9.136-54.215-13.532-84.061-13.532s-56.727 4.396-84.061 13.532c-6.981 2.333-10.777 9.856-8.436 16.835z" fill="#8cd6fe"/><path d="m320.984 259.368c-.004 0-.008 0-.012 0-12.153.008-22.036 9.901-22.03 22.055.002 4.141 3.359 7.496 7.5 7.496h.004c4.142-.002 7.498-3.361 7.496-7.504-.002-3.883 3.156-7.045 7.039-7.047h.003c3.889 0 7.041 3.146 7.043 7.04.002 4.141 3.359 7.496 7.5 7.496h.004c4.142-.002 7.498-3.361 7.496-7.504-.006-12.174-9.859-22.032-22.043-22.032zm122.229-23.717c-4.687-59.798-41.032-99.208-96.723-118.795l9.118-27.181c3.66-10.908-2.239-22.677-13.169-26.333-3.675-1.228-7.335-2.368-10.987-3.428-7.396-34.482-38.962-59.914-75.452-59.914s-68.055 25.432-75.452 59.914c-3.653 1.06-7.312 2.2-10.988 3.428-10.911 3.65-16.833 15.407-13.168 26.334l9.117 27.178c-15.084 5.317-28.68 12.062-40.482 20.117-3.422 2.335-4.302 7.001-1.968 10.423 2.335 3.422 7 4.302 10.423 1.968 10.758-7.341 23.225-13.513 37.126-18.402 4.538 8.951 13.038 15.314 23.093 17.007 18.745 3.151 40.87 4.888 62.298 4.888s43.553-1.736 62.299-4.888c10.055-1.693 18.555-8.056 23.093-17.007 47.604 16.746 98.182 55.591 85.301 145.563-.363 2.532-3.242 3.878-5.347 2.375-30.802-22.002-69.79-62.683-78.297-104.925-1.582-7.848-10.236-11.991-17.351-8.285-22.313 11.628-50.638 15.771-69.704 15.771s-47.391-4.143-69.703-15.771c-7.12-3.706-15.769.437-17.351 8.286-8.508 42.242-47.495 82.922-78.297 104.924-2.101 1.5-4.983.161-5.347-2.374-6.115-42.712 1.566-77.711 22.831-104.024 2.604-3.222 2.103-7.943-1.119-10.547-3.223-2.605-7.944-2.103-10.547 1.119-16.236 20.09-25.482 44.4-27.684 72.582-25.159 3.807-43.997 23.536-43.997 47.403 0 28.778 27.768 51.319 59.431 47.709 13.919 29.549 38.442 52.021 67.761 66.994-3.25 4.182-6.091 8.317-8.386 12.223-5.776 9.823-2.42 22.5 7.492 28.153 1.181.673 2.426 1.359 3.711 2.052-8.703 13.694-14.605 29.115-17.18 45.089-2.257 14 8.516 26.723 22.701 26.723h139.28c4.143 0 7.5-3.357 7.5-7.5s-3.357-7.5-7.5-7.5h-139.28c-4.939 0-8.684-4.421-7.891-9.338 2.334-14.479 7.787-28.445 15.866-40.745 22.407 10.426 52.399 21.181 77.297 25.502 6.955 1.206 13.966 1.192 20.839 0 24.898-4.321 54.889-15.076 77.296-25.502 8.079 12.299 13.532 26.266 15.866 40.746.793 4.913-2.948 9.337-7.891 9.337h-16.091c-4.143 0-7.5 3.357-7.5 7.5s3.357 7.5 7.5 7.5h16.092c14.18 0 24.958-12.721 22.699-26.725-2.575-15.975-8.477-31.396-17.18-45.09 1.285-.693 2.531-1.379 3.711-2.052 9.898-5.645 13.277-18.315 7.493-28.152-2.296-3.907-5.137-8.041-8.387-12.223 29.255-14.94 53.818-37.393 67.761-66.994 31.711 3.615 59.431-18.979 59.431-47.709 0-23.87-18.843-43.601-44.007-47.404zm-187.213-220.651c26.723 0 50.158 16.826 58.678 40.63-18.98-4.197-38.129-6.207-58.678-6.207-20.543 0-39.687 2.009-58.661 6.204 8.521-23.8 31.941-40.627 58.661-40.627zm72.986 106.87c-1.992 5.939-7.042 10.27-13.177 11.303-17.948 3.019-39.19 4.681-59.81 4.681s-41.861-1.662-59.809-4.681c-6.136-1.032-11.186-5.363-13.178-11.303l-3.221-9.6c24.907-7.75 49.28-11.381 76.207-11.381s51.299 3.631 76.207 11.381zm12.401-36.966-4.407 13.138c-26.489-8.279-52.379-12.153-80.98-12.153s-54.49 3.875-80.98 12.154l-4.407-13.137c-1.017-3.036.636-6.311 3.702-7.337 26.834-8.969 52.79-13.146 81.685-13.146s54.851 4.177 81.684 13.146c3.045 1.018 4.727 4.281 3.703 7.335zm-301.607 198.151c0-15.483 12.01-28.448 28.493-32.066.09 8.88.807 18.099 2.176 27.66.283 1.977.87 3.852 1.716 5.578.82 11.102 2.902 21.76 6.22 31.895-22.073.398-38.605-15.346-38.605-33.067zm313.712 142.048c-21.051 12.001-60.335 27.453-89.637 32.538-5.213.903-10.498.904-15.711 0-29.302-5.085-68.586-20.537-89.637-32.538-2.63-1.498-3.532-4.9-1.991-7.52 2.469-4.201 5.713-8.757 9.497-13.366 24.688 10.189 52.833 15.987 82.487 16.825v12.713c0 4.143 3.357 7.5 7.5 7.5s7.5-3.357 7.5-7.5v-12.713c29.654-.837 57.799-6.636 82.487-16.824 3.784 4.609 7.028 9.164 9.498 13.366 1.533 2.609.645 6.016-1.993 7.519zm19.915-52.959c-30.52 21.934-72.216 34.013-117.407 34.013-45.188 0-86.881-12.077-117.4-34.008-27.71-19.913-44.831-46.558-50.086-77.619 3.82.046 7.606-1.112 10.849-3.428 35.502-25.358 73.151-66.993 83.453-110.385 24.102 11.564 53.297 15.74 73.179 15.74s49.077-4.176 73.18-15.74c10.292 43.354 47.939 85.02 83.453 110.385 3.14 2.243 6.872 3.476 10.865 3.423-5.255 31.06-22.377 57.705-50.086 77.619zm60.208-56.023c3.321-10.144 5.404-20.812 6.222-31.924.838-1.718 1.421-3.583 1.703-5.55 1.368-9.555 2.093-18.777 2.181-27.659 16.486 3.615 28.499 16.581 28.499 32.066 0 17.819-16.641 33.463-38.605 33.067zm-153.062-42.967c-6.539-3.311-14.531-4.021-24.572-3.981-10.02.005-18.031.688-24.567 4.006-8.544 4.339-12.874 12.332-12.868 23.761.012 22.157 16.302 40.994 37.451 40.994h.02c20.43-.01 37.439-18.081 37.429-41.031-.007-11.429-4.345-19.419-12.893-23.749zm-24.545 49.78c-.004 0-.007 0-.011 0-12.897 0-22.445-12.296-22.452-26.002-.003-7.04 2.237-9.148 4.659-10.378 4.11-2.087 10.977-2.378 17.784-2.381h.126c6.766 0 13.574.293 17.66 2.363 2.424 1.227 4.666 3.333 4.67 10.374.006 13.866-9.67 26.017-22.436 26.024zm-65.019-63.5c-.004 0-.008 0-.012 0-12.154.006-22.037 9.899-22.031 22.055.002 4.141 3.359 7.496 7.5 7.496h.004c4.142-.002 7.498-3.361 7.496-7.504-.002-3.884 3.155-7.045 7.039-7.047h.003c3.889 0 7.041 3.146 7.043 7.04.002 4.141 3.359 7.496 7.5 7.496h.004c4.142-.002 7.498-3.361 7.496-7.504-.006-12.173-9.858-22.032-22.042-22.032z"/></g></svg>