<svg id="Capa_1" enable-background="new 0 0 512 512" height="512" viewBox="0 0 512 512" width="512" xmlns="http://www.w3.org/2000/svg"><g><path d="m451.298 114.298c-6.524-1.561-10.83-7.725-10.413-14.42 2.301-36.923-28.998-69.594-70-69.594-14.09 0-27.201 3.916-38.185 10.646-5.477 3.356-12.494 2.089-16.519-2.917-13.763-17.121-35.591-28.19-60.181-28.19s-46.418 11.069-60.182 28.19c-4.025 5.007-11.041 6.273-16.519 2.917-10.984-6.73-24.095-10.646-38.185-10.646-41.025 0-72.295 32.69-70 69.593.417 6.695-3.889 12.859-10.413 14.42-27.778 6.646-48.323 30.314-48.323 58.494 0 33.334 28.747 60.357 64.208 60.357 39.895 0 70.318-33.905 63.165-71.145 26.291.479 49.288-12.631 61.703-32.351 29.759 29.303 79.361 29.271 109.088 0 12.403 19.703 35.391 32.83 61.703 32.351-7.173 37.346 23.391 71.145 63.165 71.145 35.461 0 64.208-27.023 64.208-60.357.002-28.179-20.542-51.847-48.32-58.493z" fill="#de5c6e"/><ellipse cx="57.844" cy="256.202" fill="#ffbf9e" rx="50.344" ry="45.084"/><ellipse cx="454.156" cy="256.202" fill="#ffbf9e" rx="50.344" ry="45.084"/><path d="m362.291 502.177c10.629 0 18.681-9.534 16.989-20.028-9.584-59.447-61.13-104.85-123.28-104.85s-113.697 45.403-123.28 104.85c-1.692 10.494 6.36 20.028 16.989 20.028z" fill="#8cd6fe"/><path d="m256 431.271c32.311 0 63.295-4.897 91.384-14.197-22.797-24.47-55.302-39.775-91.384-39.775s-68.587 15.305-91.384 39.775c28.089 9.3 59.073 14.197 91.384 14.197z" fill="#5fc5fc"/><path d="m190.881 302.054-7.741 69.551c10.465 28.363 41.42 67.703 60.43 85.699 6.958 6.586 17.902 6.586 24.86 0 19.01-17.996 49.966-57.336 60.43-85.699l-7.741-69.551z" fill="#efedff"/><path d="m190.881 302.053-7.741 69.551c6.449 17.479 20.681 39.123 35.102 57.375 12.313 1.512 24.929 2.29 37.758 2.29 12.828 0 25.445-.779 37.758-2.29 14.422-18.253 28.654-39.896 35.102-57.375l-7.741-69.551z" fill="#d4d4ff"/><path d="m452.32 245.702c0 95.53-87.895 155.568-196.32 155.568s-196.32-60.038-196.32-155.568 87.896-172.972 196.32-172.972 196.32 77.442 196.32 172.972z" fill="#ffd4be"/><path d="m310.826 365.447c0 34.494 20.712 38.657 20.712 60.166 0 16.882 12.145 25.428 23.047 25.428 7.621 0 15.894-1.666 21.894-14.491 1.16-2.48 4.699-2.48 5.859 0 6 12.824 14.273 14.491 21.894 14.491 10.902 0 23.047-8.546 23.047-25.428 0-21.509 20.712-25.672 20.712-60.166 0-18.374-17.027-33.269-38.031-33.269-9.109 0-17.468 2.802-24.016 7.474-3.912 2.791-9.161 2.791-13.072 0-6.548-4.672-14.907-7.474-24.016-7.474-21.003 0-38.03 14.895-38.03 33.269z" fill="#efedff"/><path d="m256 61.699c174.768 0 204.85 127.799 192.457 149.715-27.923 4.358-54.351 3.438-71.349-19.226s10.355-71.941-121.108-71.941-104.11 49.277-121.108 71.941-43.426 23.584-71.349 19.226c-12.393-21.917 17.689-149.715 192.457-149.715z" fill="#de5c6e"/><g><g><ellipse cx="176.355" cy="265.471" fill="#eda1ab" rx="29.387" ry="23.403"/><ellipse cx="335.645" cy="265.471" fill="#eda1ab" rx="29.387" ry="23.403"/><path d="m279.694 247.49c0-14.643-10.608-16.019-23.694-16.019-13.085 0-23.693 1.376-23.693 16.019s10.608 26.513 23.693 26.513c13.086 0 23.694-11.871 23.694-26.513z" fill="#4e5660"/></g></g><path d="m512 256.202c0-16.3-8.201-30.89-21.048-40.543 32.976-38.306 13.122-96.445-37.909-108.655-2.904-.695-4.869-3.495-4.672-6.658 1.212-19.452-5.724-38.256-19.53-52.949-25.429-27.063-68.021-32.492-100.058-12.861-2.24 1.375-5.083.86-6.756-1.221-15.834-19.696-39.9-30.992-66.027-30.992s-50.193 11.296-66.026 30.991c-1.672 2.081-4.514 2.595-6.756 1.222-20.14-12.342-44.419-14.684-65.589-8.345-3.968 1.188-6.222 5.367-5.034 9.335s5.367 6.223 9.336 5.034c17.228-5.157 37.074-3.27 53.452 6.766 8.622 5.283 19.92 3.3 26.282-4.613 12.972-16.136 32.777-25.39 54.336-25.39s41.365 9.254 54.336 25.39c6.361 7.912 17.661 9.896 26.283 4.612 25.897-15.868 60.659-11.614 81.291 10.343 10.941 11.644 16.442 26.469 15.491 41.745-.651 10.456 6.142 19.784 16.153 22.179 41.378 9.901 56.343 57.318 27.996 86.536-7.158-2.89-15.07-4.509-23.394-4.509-2.755 0-6.036.257-6.857.386-32.602 5.087-51.799.208-64.191-16.315-8.702-11.601-3.447-37.922-30.02-56.023-18.689-12.73-50.447-18.919-97.088-18.919s-78.398 6.188-97.088 18.919c-26.617 18.13-21.296 44.392-30.02 56.023-12.393 16.523-31.59 21.402-64.191 16.315-.804-.127-3.971-.386-6.856-.386-8.324 0-16.235 1.619-23.394 4.509-28.331-29.202-13.407-76.63 27.996-86.535 10.01-2.394 16.804-11.722 16.154-22.18-.976-15.677 4.8-30.788 16.262-42.55 2.891-2.967 2.83-7.715-.137-10.605-2.966-2.891-7.715-2.832-10.605.137-14.246 14.618-21.714 34.282-20.49 53.949.196 3.165-1.769 5.966-4.673 6.661-50.9 12.175-70.964 70.228-37.896 108.642-12.856 9.653-21.063 24.249-21.063 40.555 0 31.431 30.524 56.47 65.757 52.075 20.968 44.84 62.792 74.035 109.864 88.713-26.836 20.458-44.875 50.28-50.306 83.965-2.43 15.075 9.176 28.722 24.394 28.722h162.15c4.142 0 7.5-3.357 7.5-7.5s-3.358-7.5-7.5-7.5h-162.15c-6.122 0-10.525-5.504-9.585-11.335 5.253-32.586 23.819-61.105 51.317-79.206 14.811 23.718 34.266 46.586 46.973 58.614 9.857 9.333 25.309 9.336 35.172 0 11.876-11.243 29.684-32.001 44.062-54.059 3.758 5.733 6.389 10.213 6.389 16.923 0 24.354 20.698 37.32 40.42 31.675 3.472 8.369 5.975 17.098 7.418 26.053.94 5.832-3.465 11.335-9.585 11.335h-14.907c-4.142 0-7.5 3.357-7.5 7.5s3.358 7.5 7.5 7.5h14.907c15.21 0 26.825-13.638 24.394-28.722-1.772-10.992-4.938-21.689-9.408-31.879.725-.822 1.44-1.689 2.132-2.657 7.66 10.72 17.582 12.122 24.823 12.122 14.809 0 30.547-11.54 30.547-32.928 0-17.688 20.712-23.774 20.712-60.166 0-14.839-8.902-27.847-22.172-34.979 4.977-7.048 9.277-14.468 12.88-22.197 35.502 4.453 65.802-20.839 65.802-52.069zm-54.447-37.455c22.041 1.526 39.447 17.735 39.447 37.455 0 20.952-19.967 38.608-44.969 37.525 8.226-24.276 9.716-50.176 5.522-74.98zm-442.553 37.455c0-19.72 17.406-35.929 39.447-37.455-4.103 24.267-2.846 50.488 5.449 74.984-24.957 1.079-44.896-16.583-44.896-37.529zm248.274 195.654c-4.078 3.861-10.469 3.861-14.548.001-10.683-10.113-26.005-28.067-38.744-46.775 29.057 4.77 61.059 5.069 92.044-.012-12.744 18.715-28.079 36.683-38.752 46.786zm177.217-86.409c0 32.024-20.712 35.271-20.712 60.166 0 13.153-9.298 17.928-15.547 17.928-5.659 0-10.701-.766-15.101-10.169-3.858-8.246-15.591-8.235-19.445 0-4.399 9.403-9.442 10.169-15.101 10.169-6.249 0-15.547-4.774-15.547-17.928 0-24.815-20.712-28.204-20.712-60.166 0-21.953 30.53-33.718 50.19-19.69 6.515 4.647 15.27 4.65 21.784 0 19.576-13.967 50.191-2.392 50.191 19.69zm-22.037-40.047c-13.469-2.286-26.883 1.023-36.866 8.146-1.305.932-3.056.932-4.36 0-8.015-5.719-18.091-8.868-28.372-8.868-25.106 0-45.531 18.289-45.531 40.77 0 9.652 1.497 17.238 3.686 23.492-16.373 3.196-33.485 4.831-51.012 4.831-52.223 0-99.913-14.36-134.286-40.436-44.212-33.54-61.39-82.418-52.229-133.515 24.402 3.005 52.782 1.702 71.408-23.132 12.104-16.139 4.982-37.992 26.465-52.625 16.118-10.98 45.114-16.316 88.643-16.316s72.525 5.337 88.643 16.316c21.513 14.654 14.348 36.469 26.465 52.625 18.626 24.833 47.008 26.136 71.408 23.132 6.64 37.042-.54 74.642-24.062 105.58zm-240.345 135.565c-4.142 0-7.5 3.357-7.5 7.5s3.358 7.5 7.5 7.5h25.879c4.142 0 7.5-3.357 7.5-7.5s-3.358-7.5-7.5-7.5zm152.623-242.934c-4.142 0-7.5 3.357-7.5 7.5v12c0 4.143 3.358 7.5 7.5 7.5s7.5-3.357 7.5-7.5v-12c0-4.142-3.358-7.5-7.5-7.5zm-149.464 0c-4.142 0-7.5 3.357-7.5 7.5v12c0 4.143 3.358 7.5 7.5 7.5s7.5-3.357 7.5-7.5v-12c0-4.142-3.358-7.5-7.5-7.5zm94.878 9.269c-5.449-2.763-11.994-3.329-20.146-3.329s-14.697.566-20.146 3.329c-5.04 2.556-11.047 8.133-11.047 20.189 0 18.755 13.993 34.014 31.193 34.014s31.193-15.259 31.193-34.014c0-12.056-6.008-17.634-11.047-20.189zm-20.146 39.203c-8.929 0-16.193-8.529-16.193-19.014 0-5.907.655-8.519 16.193-8.519s16.193 2.611 16.193 8.519c0 10.485-7.264 19.014-16.193 19.014z"/></g></svg>