<svg id="Capa_1" enable-background="new 0 0 512.003 512.003" height="512" viewBox="0 0 512.003 512.003" width="512" xmlns="http://www.w3.org/2000/svg"><g><ellipse cx="89.077" cy="297.297" fill="#ffcbbe" rx="42.409" ry="37.978"/><ellipse cx="422.926" cy="297.297" fill="#ffcbbe" rx="42.409" ry="37.978"/><path d="m345.54 504.503c8.954 0 15.737-8.032 14.312-16.872-8.073-50.077-51.495-88.324-103.85-88.324s-95.777 38.247-103.85 88.324c-1.425 8.84 5.357 16.872 14.312 16.872z" fill="#8cd6fe"/><path d="m256.002 449.5c28.45 0 55.721-4.438 80.366-12.847-19.297-22.833-48.131-37.346-80.366-37.346-32.236 0-61.07 14.513-80.366 37.346 24.644 8.409 51.915 12.847 80.366 12.847z" fill="#5fc5fc"/><path d="m303.759 409c-6.696 20.707-20.269 42.869-36.875 59.427-6.01 5.992-15.755 5.992-21.765 0-16.606-16.558-30.179-38.72-36.875-59.427z" fill="#efedff"/><path d="m228.091 448.045c9.139.961 18.459 1.456 27.911 1.456s18.772-.495 27.911-1.456c8.698-12.42 15.634-26.019 19.847-39.045h-95.515c4.211 13.025 11.148 26.625 19.846 39.045z" fill="#d4d4ff"/><path d="m421.38 288.451c0 80.473-74.042 131.049-165.378 131.049s-165.378-50.576-165.378-131.049 74.042-145.71 165.378-145.71c91.335 0 165.378 65.237 165.378 145.71z" fill="#ffddcf"/><path d="m99.401 175.742c-23.632 20.672-34.988 77.735-21.116 106.109 2.701 5.524 9.141 8.197 14.897 6.037 13.05-4.897 29.744-16.97 45.639-32.508 2.258-2.208 5.973-1.56 7.468 1.222 2.255 4.196 4.884 7.723 7.359 10.516 3.291 3.715 8.576 4.93 13.208 3.148 16.904-6.503 50.236-29.099 65.582-70.725-24.548-5.647-133.037-23.799-133.037-23.799z" fill="#de5c6e"/><path d="m412.602 175.742c23.632 20.672 34.988 77.735 21.116 106.109-2.701 5.524-9.141 8.197-14.897 6.037-13.05-4.897-29.743-16.97-45.639-32.508-2.259-2.208-5.973-1.56-7.468 1.222-2.255 4.196-4.884 7.723-7.359 10.516-3.291 3.715-8.576 4.93-13.208 3.148-16.904-6.503-50.236-29.099-65.582-70.725 24.549-5.647 133.037-23.799 133.037-23.799z" fill="#de5c6e"/><path d="m89.933 189.973c5.007-44.423 84.475-162.954 228.645-182.264 15.942-2.135 28.826 12.667 24.541 28.17-17.068 61.755 78.951 83.186 78.951 154.597l-165.116 21.38z" fill="#8cd6fe"/><path d="m116.564 131.302c-16.069 23.3-25.053 44.668-26.631 58.67l167.021 21.883 165.116-21.38c0-24.502-11.305-43.12-25.467-59.501-29.546 8.344-81.776 18.893-140.602 18.893-58.062.001-109.698-10.276-139.437-18.565z" fill="#5fc5fc"/><path d="m256.002 231.801c-84.105 0-165.479-19.643-196.398-33.592-13.072-5.897-18.889-21.274-12.992-34.347 5.898-13.073 21.275-18.892 34.347-12.991 20.137 9.084 92.17 28.997 175.042 28.997s154.905-19.913 175.042-28.997c13.073-5.9 28.449-.081 34.347 12.991 5.897 13.073.081 28.45-12.992 34.347-30.918 13.948-112.292 33.592-196.396 33.592z" fill="#8cd6fe"/><g><path d="m446.687 403.462c0-19.389-19.396-35.107-43.323-35.107s-43.323 15.718-43.323 35.107c0 56.839-14.501 51.303-14.501 101.041h37.175c8.527 0 16.195-5.423 18.795-13.544 9.219-28.792 45.177-46.273 45.177-87.497z" fill="#d2996f"/></g><g fill="#ebca5f"><path d="m97.906 452.672-5.027 10.359c-3.101 6.39-12.205 6.39-15.306 0l-5.027-10.359c-2.55-5.254-6.793-9.497-12.047-12.047l-10.359-5.027c-6.39-3.101-6.39-12.205 0-15.306l10.359-5.027c5.254-2.55 9.497-6.793 12.047-12.047l5.027-10.359c3.101-6.39 12.205-6.39 15.306 0l5.027 10.359c2.55 5.254 6.793 9.497 12.047 12.047l10.359 5.027c6.39 3.101 6.39 12.205 0 15.306l-10.359 5.027c-5.254 2.549-9.497 6.793-12.047 12.047z"/><path d="m95.829 81.557-5.027 10.359c-3.101 6.39-12.205 6.39-15.306 0l-5.027-10.359c-2.55-5.254-6.793-9.497-12.047-12.047l-10.359-5.027c-6.39-3.101-6.39-12.205 0-15.306l10.359-5.027c5.254-2.55 9.497-6.793 12.047-12.047l5.027-10.359c3.101-6.39 12.205-6.39 15.306 0l5.027 10.359c2.55 5.254 6.793 9.497 12.047 12.047l10.359 5.027c6.39 3.101 6.39 12.205 0 15.306l-10.359 5.027c-5.254 2.55-9.498 6.793-12.047 12.047z"/><path d="m416.174 81.557 5.027 10.359c3.101 6.39 12.205 6.39 15.306 0l5.027-10.359c2.55-5.254 6.793-9.497 12.047-12.047l10.359-5.027c6.39-3.101 6.39-12.205 0-15.306l-10.359-5.027c-5.254-2.55-9.497-6.793-12.047-12.047l-5.027-10.359c-3.101-6.39-12.205-6.39-15.306 0l-5.027 10.359c-2.55 5.254-6.793 9.497-12.047 12.047l-10.359 5.027c-6.39 3.101-6.39 12.205 0 15.306l10.359 5.027c5.254 2.55 9.498 6.793 12.047 12.047z"/></g><g><g fill="#eda1ab"><ellipse cx="177.625" cy="333.122" rx="28.919" ry="23.03"/><ellipse cx="334.378" cy="333.122" rx="28.919" ry="23.03"/></g></g><path d="m427.96 144.034c-2.513 1.133-5.879 2.437-9.978 3.846-14.409-25.446-38.943-43.772-54.783-63.337-2.607-3.219-7.33-3.716-10.549-1.109-3.219 2.606-3.716 7.329-1.109 10.549 15.795 19.507 38.225 36.543 51.717 58.47-41.418 11.766-95.592 19.916-147.256 19.916-58.818 0-111.902-10.093-144.353-19.056 15.553-27.912 40.221-56.268 68.828-78.889 40.486-32.016 88.586-52.514 139.097-59.279 10.618-1.429 19.176 8.393 16.317 18.739-2.256 8.162-2.855 16.23-1.78 23.979.569 4.103 4.354 6.971 8.46 6.397 4.103-.569 6.967-4.357 6.397-8.46-.804-5.792-.353-11.653 1.38-17.921 5.713-20.672-11.507-40.458-32.766-37.602-53.183 7.123-103.81 28.693-146.41 62.381-31.068 24.567-57.807 55.702-74.209 86.237-5.463-1.803-9.822-3.462-12.917-4.859-16.86-7.61-36.662-.121-44.269 16.743-7.606 16.859-.118 36.659 16.744 44.268 4.002 1.805 8.833 3.705 14.385 5.645-4.494 14.666-6.878 31.328-5.931 46.772-15.848 7.928-25.806 23.035-25.806 39.834 0 27.167 26.135 48.447 55.972 45.143 17.752 37.256 52.034 61.393 90.667 73.912-21.869 17.365-36.558 42.164-41.059 70.087-2.16 13.396 8.146 25.565 21.716 25.565h5.033c4.142 0 7.5-3.357 7.5-7.5s-3.358-7.5-7.5-7.5h-5.033c-4.295 0-7.606-3.845-6.907-8.179 4.514-28.002 20.853-52.398 44.998-67.366.12.027.24.056.36.083 7.874 18.939 20.445 37.773 34.91 52.197 8.921 8.894 23.435 8.893 32.355 0 14.451-14.408 27.01-33.22 34.886-52.139.144-.032.284-.069.427-.101 15.586 9.674 27.985 23.319 36.096 39.722-2.576 8.92-4.892 19.15-5.429 35.784h-130.72c-4.142 0-7.5 3.357-7.5 7.5s3.358 7.5 7.5 7.5h175.274c11.923 0 22.347-7.538 25.938-18.758 8.496-26.537 45.534-45.538 45.534-89.783 0-22.735-21.35-41.365-48.123-42.546 4.19-5.88 7.823-12.048 10.88-18.47 30.042 3.281 55.891-18.212 55.891-45.15 0-16.799-9.958-31.907-25.806-39.834.949-15.482-1.45-32.136-5.935-46.771 5.554-1.94 10.386-3.84 14.388-5.646 16.859-7.607 24.352-27.404 16.744-44.268-7.604-16.862-27.403-24.356-44.266-16.746zm-373.792 153.262c0-9.451 4.986-18.149 13.199-23.842 1.072 4.257 2.464 8.18 4.18 11.69 2.471 5.054 6.796 8.586 11.761 10.129.58 11.254 2.595 22.135 5.973 32.495-19.087.103-35.113-13.387-35.113-30.472zm36.38-16.43c-2.082.778-4.509-.232-5.525-2.309-7.092-14.507-6.874-40.21.165-63.276 28.973 8.622 70.328 17.233 115.743 21.413-12.98 14.017-27.247 22.908-36.767 26.571-1.742.672-3.713.22-4.901-1.12-2.497-2.819-4.639-5.879-6.367-9.094-3.83-7.129-13.45-8.772-19.317-3.035-15.514 15.165-31.199 26.409-43.031 30.85zm171.04 182.249c-3.081 3.072-8.093 3.072-11.174 0-10.827-10.796-20.463-24.316-27.511-38.358 10.738 1.479 21.805 2.243 33.098 2.243 11.333 0 22.381-.768 33.089-2.227-7.047 14.037-16.679 27.551-27.502 38.342zm87.606-21.977c-6.361-9.364-14.09-17.682-22.974-24.745 9.198-2.99 17.987-6.604 26.313-10.811-.111 16.277-1.489 27.041-3.339 35.556zm89.994-37.676c0 38.27-34.844 54.054-44.82 85.209-1.595 4.983-6.278 8.332-11.652 8.332h-29.551c1.381-39.865 14.377-38.812 14.377-93.541 0-15.223 16.07-27.607 35.823-27.607 19.752 0 35.823 12.385 35.823 27.607zm-55.019-39.442c-12 4.12-21.709 11.978-27.069 21.84-27.763 17.094-62.658 26.14-101.098 26.14-78.769 0-154.267-40.719-157.739-118.07 12.6-5.332 28.062-16.312 43.203-30.684 1.909 3.103 4.11 6.067 6.57 8.845 5.317 6 13.963 8.082 21.515 5.174 13.607-5.235 33.495-18.202 49.838-39.142 24.664 1.55 47.978 1.587 73.228 0 16.343 20.94 36.231 33.907 49.838 39.142 7.553 2.906 16.199.825 21.516-5.175 2.46-2.776 4.66-5.74 6.569-8.844 15.145 14.377 30.612 25.358 43.215 30.689-1.227 26.581-11.39 50.678-29.586 70.085zm-5.744-114.003c-5.846-5.719-15.477-4.116-19.318 3.034-1.728 3.215-3.87 6.274-6.366 9.093-1.189 1.341-3.158 1.793-4.902 1.121-9.522-3.663-23.794-12.549-36.776-26.57 45.421-4.18 86.781-12.793 115.756-21.415 7.038 23.066 7.253 48.77.161 63.277-1.015 2.075-3.439 3.089-5.525 2.309-11.832-4.441-27.516-15.685-43.03-30.849zm66.211 23.438c8.213 5.693 13.199 14.391 13.199 23.842 0 16.299-15.091 30.525-35.053 30.475 3.357-10.351 5.346-21.227 5.918-32.499 4.963-1.544 9.286-5.076 11.755-10.127 1.717-3.512 3.109-7.434 4.181-11.691zm4.679-82.084c-30.307 13.673-110.318 32.929-193.313 32.929s-163.007-19.256-193.314-32.929c-9.303-4.196-13.437-15.121-9.239-24.426 4.197-9.303 15.124-13.44 24.427-9.238 20.597 9.291 94.046 29.66 178.126 29.66s157.529-20.369 178.127-29.661c9.301-4.198 20.227-.067 24.425 9.239 4.197 9.303.067 20.229-9.239 24.426zm-58.821-120.141 10.359 5.027c3.722 1.807 6.767 4.852 8.574 8.574l5.027 10.358c5.828 12.007 22.958 12.038 28.802 0l5.027-10.358c1.807-3.723 4.852-6.768 8.574-8.574l10.358-5.026c12.052-5.848 11.994-22.983 0-28.801l-10.359-5.027c-3.722-1.807-6.767-4.852-8.574-8.574l-5.027-10.358c-5.828-12.007-22.958-12.038-28.802 0l-5.027 10.358c-1.807 3.723-4.852 6.768-8.574 8.574l-10.358 5.026c-12.003 5.825-12.04 22.96 0 28.801zm6.549-15.306 10.359-5.027c6.738-3.27 12.25-8.781 15.52-15.52l5.027-10.358c.082-.17.275-.567.906-.567.63 0 .824.397.906.567l5.027 10.358c3.27 6.738 8.782 12.25 15.52 15.52l10.359 5.028c.169.082.566.274.566.905 0 .63-.397.822-.567.905l-10.359 5.027c-6.738 3.27-12.25 8.781-15.52 15.52l-5.027 10.358c-.082.17-.275.567-.906.567-.63 0-.824-.398-.906-.567l-5.027-10.358c-3.27-6.738-8.782-12.25-15.52-15.52l-10.359-5.028c-.169-.082-.566-.274-.566-.904s.397-.823.567-.906zm-202.564 230.872c-11.725 0-21.265 9.54-21.265 21.266 0 4.143 3.358 7.5 7.5 7.5s7.5-3.357 7.5-7.5c0-3.455 2.811-6.266 6.265-6.266 3.455 0 6.265 2.81 6.265 6.266 0 4.143 3.358 7.5 7.5 7.5s7.5-3.357 7.5-7.5c0-11.726-9.539-21.266-21.265-21.266zm81.051 31.699c-3.122-2.722-7.86-2.396-10.582.727-2.259 2.593-5.521 4.08-8.947 4.08s-6.688-1.487-8.947-4.08c-2.721-3.121-7.459-3.448-10.581-.727-3.123 2.721-3.448 7.459-.727 10.582 5.109 5.862 12.492 9.225 20.255 9.225 7.764 0 15.146-3.362 20.255-9.225 2.722-3.123 2.397-7.861-.726-10.582zm-230.742-247.265 10.359 5.027c3.722 1.807 6.767 4.852 8.574 8.574l5.027 10.358c5.828 12.007 22.958 12.038 28.802 0l5.027-10.358c1.807-3.723 4.852-6.768 8.574-8.574l10.358-5.026c12.052-5.848 11.994-22.983.001-28.801l-10.359-5.027c-3.722-1.807-6.767-4.852-8.574-8.574l-5.028-10.359c-5.828-12.007-22.958-12.038-28.802 0l-5.027 10.358c-1.807 3.723-4.851 6.768-8.574 8.574l-10.358 5.026c-12.003 5.826-12.04 22.961 0 28.802zm6.549-15.306 10.359-5.027c6.738-3.27 12.25-8.781 15.52-15.52l5.027-10.358c.082-.17.275-.567.906-.567.63 0 .824.397.906.567l5.027 10.358c3.27 6.738 8.782 12.25 15.52 15.52l10.359 5.028c.169.082.566.274.566.905 0 .63-.397.822-.567.905l-10.359 5.027c-6.738 3.27-12.25 8.781-15.52 15.52l-5.027 10.358c-.082.17-.275.567-.906.567-.63 0-.824-.398-.906-.567l-5.027-10.358c-3.27-6.738-8.782-12.25-15.52-15.52l-10.359-5.028c-.17-.082-.566-.274-.566-.904s.397-.823.567-.906zm266.187 230.872c-11.726 0-21.265 9.54-21.265 21.266 0 4.143 3.358 7.5 7.5 7.5s7.5-3.357 7.5-7.5c0-3.455 2.811-6.266 6.265-6.266 3.455 0 6.265 2.81 6.265 6.266 0 4.143 3.358 7.5 7.5 7.5s7.5-3.357 7.5-7.5c0-11.726-9.539-21.266-21.265-21.266zm76.502 120.473c-1.547 15.809-8.202 22.664-10.557 35.052-.773 4.068 1.898 7.995 5.967 8.768 4.051.769 7.992-1.879 8.769-5.968 1.863-9.799 8.965-18.159 10.749-36.392.403-4.122-2.611-7.791-6.734-8.194-4.128-.397-7.791 2.613-8.194 6.734zm-270.44 6.275-10.358-5.027c-3.723-1.807-6.768-4.852-8.574-8.574l-5.027-10.358c-5.827-12.007-22.96-12.038-28.801 0l-5.027 10.358c-1.807 3.723-4.852 6.768-8.574 8.574l-10.358 5.027c-12.005 5.826-12.038 22.958 0 28.802l10.358 5.025c3.722 1.807 6.767 4.852 8.574 8.574l5.027 10.359c5.826 12.005 22.959 12.038 28.801 0l5.027-10.359c1.806-3.723 4.851-6.768 8.573-8.573l10.36-5.027c12.023-5.834 12.015-22.97-.001-28.801zm-6.548 15.306-10.36 5.027c-6.738 3.271-12.25 8.782-15.519 15.52l-5.027 10.359c-.082.169-.275.566-.906.566-.63 0-.823-.397-.905-.566l-5.027-10.359c-3.27-6.738-8.782-12.25-15.52-15.52l-10.358-5.026c-.17-.083-.568-.275-.568-.906s.398-.823.568-.906l10.358-5.027c6.738-3.27 12.25-8.781 15.52-15.52l5.028-10.358c.083-.17.275-.567.905-.567s.823.397.906.567l5.027 10.358c3.269 6.737 8.781 12.249 15.52 15.52l10.358 5.027c.17.083.567.275.567.906-.001.631-.398.823-.567.905z"/></g></svg>