<svg id="Capa_1" enable-background="new 0 0 512 512" height="512" viewBox="0 0 512 512" width="512" xmlns="http://www.w3.org/2000/svg"><g><path d="m161.359 46.755c0-21.68 18.666-39.255 41.691-39.255 11.062 0 21.526 3.621 28.58 10.675 29.214 29.214 8.641 86.651-.94 116.965h-44.784c11.974-42.692-24.547-55.246-24.547-88.385z" fill="#d5364c"/><path d="m359.828 504.5c10.383 0 18.248-9.314 16.595-19.564-9.361-58.069-59.713-102.42-120.423-102.42s-111.062 44.35-120.423 102.42c-1.652 10.251 6.212 19.564 16.595 19.564z" fill="#d4d4ff"/><path d="m256 388.844c-10.621 0-21.243 4.657-28.46 13.974-7.255-26.364-40.807-33.971-61.37-13.408-20.613 20.613-25.145 47.931-11.091 61.984 12.167 12.167 36.489 7.743 56.767-7.63 4.234-3.209 10.273-1.449 12.174 3.512 5.98 15.605 18.053 25.972 31.981 25.972s26.002-10.368 31.981-25.972c1.901-4.961 7.94-6.722 12.173-3.512 20.277 15.372 44.6 19.796 56.767 7.63 14.054-14.054 9.522-41.371-11.091-61.984-20.563-20.563-54.115-12.956-61.37 13.408-7.218-9.318-17.84-13.975-28.461-13.974z" fill="#efedff"/><path d="m256 435.932c38.326 0 74.749-7.039 106.54-20.26-2.976-8.981-8.589-18.142-16.71-26.263-20.563-20.563-54.115-12.956-61.37 13.408-7.217-9.317-17.838-13.974-28.46-13.974-10.621 0-21.243 4.657-28.46 13.974-7.255-26.364-40.807-33.972-61.37-13.408-8.121 8.121-13.734 17.282-16.71 26.263 31.791 13.221 68.214 20.26 106.54 20.26z" fill="#d4d4ff"/><path d="m447.771 253.969c0 93.316-85.859 151.963-191.771 151.963s-191.77-58.647-191.77-151.963 85.858-168.964 191.77-168.964 191.771 75.648 191.771 168.964z" fill="#efedff"/><path d="m394.92 263.833c0-77.146-62.197-96.006-138.92-96.006-76.724 0-138.92 18.86-138.92 96.006s62.197 94.006 138.92 94.006c76.724 0 138.92-16.86 138.92-94.006z" fill="#ffd4be"/><path d="m303.373 52.93c0-21.68-18.666-39.255-41.692-39.255-11.061 0-21.526 3.621-28.58 10.675-29.214 29.214-8.641 86.651.94 116.965h44.783c-11.973-42.693 24.549-55.247 24.549-88.385z" fill="#de5c6e"/><path d="m287.62 154.547c0-14.771-14.157-26.746-31.62-26.746s-31.62 11.975-31.62 26.746 14.157 38.602 31.62 38.602 31.62-23.831 31.62-38.602z" fill="#f1b260"/><g><g><ellipse cx="176.355" cy="277.624" fill="#eda1ab" rx="29.387" ry="23.403"/><ellipse cx="335.645" cy="277.624" fill="#eda1ab" rx="29.387" ry="23.403"/><path d="m279.694 259.642c0-14.643-10.608-16.019-23.693-16.019-13.086 0-23.694 1.376-23.694 16.019s10.608 26.513 23.694 26.513c13.084 0 23.693-11.87 23.693-26.513z" fill="#4e5660"/></g></g><path d="m201.051 141.14v-12c0-4.143-3.358-7.5-7.5-7.5s-7.5 3.357-7.5 7.5v12c0 4.143 3.358 7.5 7.5 7.5s7.5-3.358 7.5-7.5zm-19.783 89.044c-4.142 0-7.5 3.357-7.5 7.5v12c0 4.143 3.358 7.5 7.5 7.5s7.5-3.357 7.5-7.5v-12c0-4.143-3.358-7.5-7.5-7.5zm149.464 27c4.143 0 7.5-3.357 7.5-7.5v-12c0-4.143-3.357-7.5-7.5-7.5s-7.5 3.357-7.5 7.5v12c0 4.142 3.358 7.5 7.5 7.5zm-28.427-174.872c4.764-8.438 8.568-17.69 8.568-29.382 0-25.781-22.067-46.756-49.191-46.756-9.367 0-18.007 2.187-25.192 6.278-8.283-8.029-20.125-12.452-33.44-12.452-27.124 0-49.191 20.975-49.191 46.756 0 20.061 11.174 32.916 19.194 46.776-15.981 6.482-31.019 14.82-44.608 24.852-3.333 2.461-4.04 7.156-1.579 10.489 2.465 3.338 7.16 4.036 10.488 1.579 22.127-16.336 48.411-27.883 76.404-33.651 2.755 13.743 6.799 26.909 10.326 37.979-4.53 5.589-7.204 12.407-7.204 19.766 0 2.406.304 4.988.869 7.653-65.291 6.963-108.17 35.605-108.17 101.634 0 38.441 14.995 66.199 44.568 82.502 23.522 12.966 55.886 19.005 101.853 19.005s78.331-6.039 101.853-19.005c29.572-16.303 44.567-44.061 44.567-82.502 0-65.951-42.776-94.66-108.169-101.634.565-2.664.869-5.246.869-7.653 0-9.132-4.112-17.434-10.791-23.58-1.898-14.554 3.108-24.512 9.607-35.026 85.089 15.576 146.334 81.346 146.334 158.028 0 93.206-88.362 144.463-184.271 144.463-95.559 0-184.271-51.01-184.271-144.463 0-36.847 13.805-71.544 39.923-100.342 2.783-3.067 2.551-7.811-.517-10.594-3.069-2.783-7.812-2.552-10.594.518-28.252 31.15-43.812 70.364-43.812 110.418 0 63.834 38.248 112.907 96.555 138.879-12.556 16.677-16.768 35.895-11.608 50.823-6.696 12.55-11.238 26.011-13.505 40.072-2.385 14.804 9.004 28.258 24.002 28.258h150.185c4.143 0 7.5-3.357 7.5-7.5s-3.357-7.5-7.5-7.5h-150.185c-5.86 0-10.094-5.267-9.191-10.871 1.564-9.7 4.383-19.066 8.353-27.989 14.911 12.914 41.259 9.632 65.042-8.399.249-.19.524-.086.64.219 15.706 40.989 62.22 41.103 77.97-.001.121-.314.397-.401.638-.219 23.792 18.036 50.145 21.316 65.056 8.389 3.968 8.925 6.775 18.298 8.339 28.001.9 5.584-3.31 10.87-9.191 10.87h-21.973c-4.143 0-7.5 3.357-7.5 7.5s3.357 7.5 7.5 7.5h21.973c14.997 0 26.387-13.451 23.999-28.258-2.265-14.061-6.808-27.521-13.504-40.071 5.161-14.928.949-34.146-11.608-50.823 57.816-25.754 96.555-74.585 96.555-138.879.001-83.173-64.988-153.076-152.965-171.657zm-90.918-.338c-8.176 1.659-16.22 3.779-24.081 6.337-8.273-15.092-18.447-25.57-18.447-41.555 0-17.51 15.338-31.756 34.191-31.756 8.617 0 16.454 2.6 21.853 7.181-13.807 16.155-16.021 38.013-13.516 59.793zm77.438 94.752c59.573 5.488 98.595 27.821 98.595 87.107 0 60.636-39.303 86.507-131.42 86.507s-131.42-25.871-131.42-86.507c0-59.294 39.014-81.618 98.595-87.107 6.853 12.779 18.736 23.923 32.825 23.923 14.089-.001 25.972-11.145 32.825-23.923zm-56.945-22.179c0-10.612 10.82-19.246 24.12-19.246s24.12 8.634 24.12 19.246c0 11.9-12.026 31.102-24.12 31.102-12.092-.001-24.12-19.206-24.12-31.102zm37.102-32.3c-4.065-1.256-8.432-1.946-12.982-1.946-7.03 0-13.627 1.64-19.335 4.494-9.372-30.113-20.33-73.072 1.74-95.142 5.388-5.389 13.872-8.479 23.277-8.479 18.854 0 34.191 14.246 34.191 31.756 0 24.489-25.464 38.465-26.891 69.317zm82.635 323.844c-8.844 8.845-29.022 5.274-46.933-8.304-8.195-6.212-20.005-2.856-23.707 6.806-10.794 28.17-39.16 28.169-49.955 0-3.688-9.624-15.477-13.042-23.708-6.806-17.91 13.579-38.086 17.15-46.932 8.303-10.218-10.217-6.738-30.784 7.438-47.405 26.692 9.643 56.68 14.747 88.18 14.747s61.488-5.104 88.18-14.747c14.176 16.621 17.656 37.187 7.437 47.406zm-95.617-209.967c-8.152 0-14.697.566-20.146 3.329-5.04 2.556-11.048 8.133-11.048 20.19 0 18.755 13.993 34.013 31.193 34.013s31.193-15.258 31.193-34.013c0-12.057-6.008-17.634-11.048-20.19-5.447-2.763-11.992-3.329-20.144-3.329zm0 42.531c-8.929 0-16.193-8.529-16.193-19.013 0-5.907.655-8.519 16.193-8.519s16.193 2.611 16.193 8.519c0 10.484-7.264 19.013-16.193 19.013zm54.948-149.515v12c0 4.143 3.357 7.5 7.5 7.5s7.5-3.357 7.5-7.5v-12c0-4.143-3.357-7.5-7.5-7.5-4.142 0-7.5 3.357-7.5 7.5z"/></g></svg>