<svg id="Capa_1" enable-background="new 0 0 512 512" height="512" viewBox="0 0 512 512" width="512" xmlns="http://www.w3.org/2000/svg"><g><path d="m122.599 485.168c-8.592 0-16.16-5.763-18.333-14.076-3.517-13.451-12.744-20.838-26.836-32.119-17.557-14.054-39.408-31.546-52.116-66.069-4.54-12.331 1.777-26.007 14.108-30.546 12.334-4.537 26.007 1.776 30.546 14.108 8.132 22.091 21.602 32.874 37.199 45.36 20.62 16.507 46.283 37.051 46.283 83.341h-30.851z" fill="#d2996f"/><path d="m107.568 402.148c-.806 20.061-11.782 36.401-20.443 44.757 8.676 7.449 14.508 14.119 17.14 24.187 2.173 8.313 9.741 14.076 18.333 14.076h30.851c.001-45.993-25.33-66.567-45.881-83.02z" fill="#cb775a"/><ellipse cx="60.508" cy="230.532" fill="#ffddcf" rx="53.008" ry="47.47"/><ellipse cx="451.492" cy="230.532" fill="#ffddcf" rx="53.008" ry="47.47"/><path d="m358.55 485.168c10.255 0 18.023-9.199 16.391-19.323-9.246-57.355-58.978-101.16-118.941-101.16s-109.695 43.805-118.941 101.159c-1.632 10.125 6.136 19.323 16.391 19.323h205.1z" fill="#d2996f"/><path d="m256 364.685c-35.227 0-66.918 15.123-88.948 39.225 27.327 9.105 57.49 13.903 88.948 13.903s61.621-4.798 88.948-13.903c-22.03-24.102-53.721-39.225-88.948-39.225z" fill="#cb775a"/><path d="m349.353 87.414c2.55-9.499 6.276-19.521 11.255-28.334 4.555-8.062-2.214-17.907-11.343-16.358-24.075 4.086-46.506 14.328-62.577 27.266-2.012 1.62-4.569 2.416-7.137 2.135-3.474-.38-6.977-.677-10.506-.888-2.706-.162-5.236-1.452-6.925-3.572-15.126-18.991-44.123-35.228-76.022-40.662-9.153-1.559-16 8.252-11.432 16.335 5.883 10.41 10.018 22.508 12.529 33.439.653 2.841-.91 5.718-3.648 6.717-68.656 25.066-116.957 84.673-116.957 154.228 0 92.168 84.802 150.093 189.41 150.093s189.41-57.925 189.41-150.093c0-61.2-37.397-114.696-93.148-143.742-2.382-1.241-3.605-3.97-2.909-6.564z" fill="#d2996f"/><ellipse cx="256" cy="231.324" fill="#ffddcf" rx="144.026" ry="105.492"/><g fill="#6171a3"><path d="m124.138 180.35c40.154 7.727 97.499-1.9 131.862-54.518-66.968.001-111.739 18.759-131.862 54.518z"/><path d="m256 125.833c34.363 52.617 91.708 62.244 131.862 54.518-20.123-35.76-64.894-54.518-131.862-54.518z"/></g><path d="m301.923 485.168c0-24.392-20.56-44.166-45.923-44.166s-45.923 19.774-45.923 44.166z" fill="#ebca5f"/><g><g><path d="m203.749 251.976c.007 13.438-13.667 24.338-30.541 24.346-16.874.009-30.559-10.878-30.566-24.315-.007-13.438 13.667-24.338 30.541-24.347 16.874-.008 30.559 10.878 30.566 24.316z" fill="#eda1ab"/><path d="m308.251 251.924c.007 13.438 13.691 24.324 30.566 24.315 16.874-.009 30.548-10.909 30.541-24.346-.007-13.438-13.691-24.325-30.565-24.316-16.875.009-30.548 10.909-30.542 24.347z" fill="#eda1ab"/><path d="m285.944 240.935c-.009-18.509-13.419-20.242-29.96-20.233-16.541.008-29.949 1.754-29.939 20.263.009 18.509 13.426 33.506 29.966 33.498 16.541-.008 29.942-15.019 29.933-33.528z" fill="#4e5660"/></g></g><path d="m104.475 231.324c0 83.032 67.827 112.991 151.525 112.991 83.699 0 151.525-29.959 151.525-112.991s-67.827-112.991-151.525-112.991c-83.699 0-151.525 29.959-151.525 112.991zm270.572-56.716c-38.197 3.686-77.504-9.36-103.887-40.927 37.87 1.757 80.638 10.944 103.887 40.927zm-119.047-35.839c31.04 40.293 80.102 56.992 127.697 49.891 5.867 12.268 8.829 26.516 8.829 42.664 0 74.598-62.523 97.991-136.525 97.991-74.006 0-136.525-23.396-136.525-97.991 0-16.149 2.962-30.397 8.829-42.664 47.467 7.083 96.582-9.503 127.695-49.891zm-15.143-5.089c-26.303 31.477-65.556 44.613-103.893 40.913 23.218-29.928 65.909-39.152 103.893-40.913zm199.539 42.807c-16.395-38.792-47.088-69.255-83.422-88.506 2.617-9.361 6.119-18.052 10.165-25.212 7.671-13.579-3.799-30.047-19.128-27.441-24.342 4.131-48.407 14.635-66.024 28.817-1.285 1.036-1.014.289-12.489-.396-.604-.036-1.153-.313-1.51-.76-16.852-21.157-47.747-37.781-80.629-43.382-15.378-2.609-26.901 13.831-19.221 27.419 4.711 8.337 8.736 18.923 11.401 29.951-9.775 3.651-19.28 8.036-28.274 13.047-3.619 2.016-4.918 6.583-2.902 10.201 2.016 3.62 6.583 4.916 10.201 2.902 8.746-4.871 18.017-9.107 27.555-12.59 6.277-2.29 9.884-8.929 8.388-15.442-2.102-9.146-6.116-22.72-13.31-35.448-1.453-2.573.683-5.76 3.643-5.253 28.955 4.932 56.987 19.824 71.414 37.938 3 3.769 7.498 6.097 12.346 6.389 3.353.201 6.766.489 10.137.856 4.546.499 9.037-.834 12.657-3.748 15.683-12.626 37.234-21.998 59.128-25.713 2.909-.498 5.013 2.7 3.559 5.274-4.855 8.592-8.994 18.993-11.971 30.081-1.591 5.934 1.222 12.309 6.689 15.158 52.151 27.169 89.113 77.626 89.113 137.09 0 41.738-18.157 77.574-52.51 103.634-33.117 25.123-79.073 38.959-129.4 38.959s-96.283-13.836-129.4-38.959c-34.353-26.06-52.51-61.895-52.51-103.634 0-44.003 20.041-84.975 56.432-115.365 3.179-2.655 3.605-7.385.949-10.564-2.654-3.18-7.384-3.603-10.564-.949-22.207 18.546-38.793 40.801-49.331 65.642-37.325-6.276-71.578 19.841-71.578 54.049 0 32.633 31.254 58.126 66.92 54.654 17.193 49.449 60.026 82.588 110.964 98.595-14.808 11.382-26.823 25.72-35.346 42.026-22.863-31.037-52.676-37.008-65.532-71.932-5.958-16.186-23.979-24.515-40.174-18.555-16.229 5.972-24.533 23.942-18.557 40.175 22.779 61.881 71.675 70.498 78.734 97.494 3.029 11.587 13.552 19.679 25.589 19.679h205.786c4.143 0 7.5-3.357 7.5-7.5s-3.357-7.5-7.5-7.5h-19.531c-3.768-24.946-26.03-44.166-52.853-44.166s-49.085 19.22-52.853 44.166h-49.697c-5.73 0-9.87-5.151-8.987-10.63 5.246-32.539 24.283-60.863 52.402-78.149 18.727 4.226 38.605 6.424 59.135 6.424s40.408-2.198 59.135-6.424c28.119 17.286 47.157 45.61 52.402 78.149.723 4.486-1.853 8.766-6.124 10.176-3.934 1.299-6.069 5.54-4.77 9.474 1.308 3.961 5.569 6.061 9.474 4.771 11.307-3.733 18.132-15.008 16.229-26.807-5.223-32.399-22.507-61.102-48.228-80.871 50.745-15.948 93.718-48.973 110.97-98.615 35.52 3.546 66.912-21.945 66.912-54.634 0-34.398-34.465-60.3-71.604-54.045zm-403.17 53.569c.402 4.122 4.054 7.137 8.195 6.732 4.44-.434 9.087-.227 13.674.58-.024 11.381 1.17 22.359 3.607 33.079-25.623 1.107-47.702-16.864-47.702-39.915 0-23.526 23.493-42.744 51.27-39.637-3.223 10.249-5.366 20.74-6.414 31.416-5.33-.79-10.712-.959-15.898-.451-4.122.404-7.137 4.073-6.732 8.196zm93.917 247.612h-8.544c-5.218 0-9.772-3.484-11.077-8.474-4.146-15.855-14.74-24.337-29.405-36.076-16.83-13.473-37.777-30.24-49.765-62.806-3.111-8.445 1.209-17.806 9.659-20.915 8.436-3.103 17.816 1.23 20.919 9.659 15.935 43.294 52.478 48.335 72.467 83.15-2.563 7.226-4.499 14.729-5.743 22.445-.718 4.452-.175 8.946 1.489 13.017zm124.857-29.166c18.493 0 33.974 12.533 37.612 29.166h-75.224c3.638-16.633 19.119-29.166 37.612-29.166zm193.298-178.055c2.467-10.85 3.629-21.819 3.606-33.079 4.587-.807 9.235-1.015 13.676-.58 4.128.414 7.792-2.61 8.195-6.732.404-4.123-2.61-7.792-6.732-8.195-5.194-.508-10.585-.345-15.924.447-1.063-10.646-3.215-21.158-6.428-31.401 28.047-3.168 51.31 16.299 51.31 39.625-.001 23.33-22.396 41.008-47.703 39.915zm-258.321-66.984c-12.154.006-22.037 9.9-22.031 22.055.002 4.141 3.359 7.496 7.5 7.496h.004c4.142-.002 7.498-3.361 7.496-7.504-.002-3.884 3.155-7.045 7.039-7.047h.003c3.89 0 7.041 3.146 7.043 7.04.002 4.141 3.359 7.496 7.5 7.496h.004c4.142-.002 7.498-3.361 7.496-7.504-.006-12.151-9.893-22.032-22.043-22.032-.003 0-.008 0-.011 0zm65.019 78.5h.02c20.43-.01 37.439-18.081 37.429-41.031-.006-11.429-4.344-19.418-12.892-23.748-6.514-3.299-14.489-3.981-24.455-3.981-.039 0-.078 0-.117 0-10.02.005-18.032.688-24.567 4.006-8.544 4.339-12.874 12.333-12.868 23.762.011 22.165 16.307 40.992 37.45 40.992zm-17.792-51.38c4.11-2.087 10.977-2.378 17.784-2.381h.126c6.766 0 13.574.293 17.66 2.363 2.424 1.227 4.666 3.333 4.67 10.374.006 13.866-9.67 26.017-22.436 26.023-.004 0-.007 0-.011 0-12.897 0-22.445-12.294-22.452-26.001-.003-7.04 2.237-9.148 4.659-10.378zm68.238 2.365h.004c4.142-.002 7.498-3.361 7.496-7.504-.002-3.883 3.155-7.044 7.04-7.046h.004c3.888 0 7.039 3.145 7.041 7.039.002 4.141 3.359 7.496 7.5 7.496h.004c4.142-.002 7.498-3.361 7.496-7.504-.006-12.172-9.856-22.031-22.04-22.031-.004 0-.009 0-.014 0-12.154.006-22.037 9.899-22.031 22.054.002 4.141 3.36 7.496 7.5 7.496z"/></g></svg>