<svg id="Capa_1" enable-background="new 0 0 511.999 511.999" height="512" viewBox="0 0 511.999 511.999" width="512" xmlns="http://www.w3.org/2000/svg"><g><path d="m132.302 145.629c-35.231-25.165-56.577-69.537-43.417-122.806 4.431-17.935 28.706-20.91 37.655-4.748 25.913 46.803 60.393 68.872 79.62 71.876z" fill="#efedff"/><path d="m379.698 145.629c35.231-25.165 56.577-69.537 43.417-122.806-4.431-17.935-28.706-20.91-37.654-4.748-25.914 46.803-60.393 68.872-79.62 71.876z" fill="#efedff"/><ellipse cx="75.922" cy="280.966" fill="#f2bb88" rx="45.751" ry="40.971"/><ellipse cx="436.077" cy="280.966" fill="#f2bb88" rx="45.751" ry="40.971"/><path d="m352.594 504.499c9.66 0 16.977-8.665 15.439-18.201-8.709-54.023-55.552-95.284-112.033-95.284s-103.324 41.26-112.033 95.284c-1.537 9.536 5.779 18.201 15.439 18.201z" fill="#d2996f"/><path d="m256 472.799c42.195 0 82.406-8.295 117.28-23.84 17.378-7.747 23.081-29.638 11.858-45.002-8.386-11.48-23.63-15.376-36.621-9.601-29.393 0-58.643-3.342-92.517-3.342s-63.124 3.342-92.517 3.342c-12.991-5.775-28.235-1.879-36.621 9.601-11.223 15.364-5.521 37.255 11.858 45.002 34.873 15.545 75.084 23.84 117.28 23.84z" fill="#efedff"/><path d="m256 442.799c49.336 0 95.336-12.447 131.366-35.285-.653-1.215-1.387-2.406-2.228-3.557-8.386-11.48-23.63-15.375-36.621-9.601-29.393 0-58.643-3.342-92.517-3.342s-63.124 3.342-92.517 3.342c-12.991-5.775-28.235-1.879-36.621 9.601-.84 1.151-1.575 2.342-2.228 3.557 36.029 22.838 82.029 35.285 131.366 35.285z" fill="#d4d4ff"/><path d="m434.409 271.424c0 86.814-79.876 141.375-178.409 141.375s-178.409-54.561-178.409-141.375 79.876-157.191 178.409-157.191 178.409 70.377 178.409 157.191z" fill="#f2d1a5"/><path d="m418.686 96.881c-16.284-17.222-36.152-31.765-58.567-42.83-20.128 22.472-40.897 33.811-54.279 35.901l73.858 55.677c17.014-12.153 30.773-28.797 38.988-48.748z" fill="#d4d4ff"/><path d="m93.313 96.881c8.215 19.952 21.974 36.595 38.988 48.749l73.858-55.677c-13.382-2.091-34.151-13.43-54.279-35.901-22.414 11.064-42.283 25.606-58.567 42.829z" fill="#d4d4ff"/><path d="m434.409 193.156c-10.481-74.871-86.353-132.964-178.409-132.964s-167.929 58.092-178.409 132.963h356.818z" fill="#d2996f"/><path d="m256 140.657c-43.552 0-109.67-8.293-145.862-17.726-17.365 20.229-28.906 44.213-32.547 70.226h356.818c-3.641-26.013-15.182-49.996-32.547-70.225-36.186 9.431-102.308 17.725-145.862 17.725z" fill="#cb775a"/><path d="m273.144 39.148h-34.288c-12.816 0-23.205 10.389-23.205 23.205v130.803h80.698v-130.803c0-12.816-10.389-23.205-23.205-23.205z" fill="#8cd6fe"/><path d="m296.349 138.893c-14.439 1.124-28.264 1.764-40.349 1.764s-25.91-.64-40.349-1.764v54.263h80.698z" fill="#5fc5fc"/><path d="m73.554 182.094c-13.942 18.732-16.357 61.967-8.059 92.51 4.462 16.422 25.488 21.263 36.843 8.587 19.056-21.272 34.404-55.47 36.734-82.27z" fill="#6171a3"/><path d="m438.446 182.094c13.942 18.732 16.357 61.967 8.059 92.51-4.462 16.422-25.488 21.263-36.843 8.587-19.056-21.272-34.404-55.47-36.734-82.27z" fill="#6171a3"/><path d="m256 226.682c-60.203 0-147.964-12.45-187.809-26.644-14.574-5.192-22.18-21.215-16.989-35.789 5.191-14.573 21.215-22.176 35.788-16.988 33.759 12.026 115.895 23.396 169.01 23.396s135.251-11.37 169.008-23.396c14.576-5.191 30.597 2.414 35.789 16.988 5.191 14.574-2.415 30.597-16.988 35.789-39.843 14.194-127.605 26.644-187.809 26.644z" fill="#8cd6fe"/><g><g fill="#eda1ab"><ellipse cx="177.623" cy="308.132" rx="28.919" ry="23.03"/><ellipse cx="334.376" cy="308.132" rx="28.92" ry="23.03"/></g></g><path d="m458.767 237.116c.064-12.152-1.164-24.123-3.675-34.606 12.538-8.995 18.201-25.534 12.771-40.779-6.477-18.18-26.342-27.813-44.575-21.796-3.324-5.587-7.03-10.977-11.085-16.151 12.508-17.327 20.056-37.639 21.884-59.129.352-4.127-2.71-7.758-6.837-8.108-4.126-.356-7.759 2.709-8.108 6.837-1.494 17.567-7.363 34.228-17.059 48.691-14.415-15.17-32.034-28.004-51.848-37.811 12.612-10.81 27.933-27.533 41.786-52.555 5.584-10.085 20.979-8.555 23.813 2.915.472 1.909.904 3.838 1.284 5.734.813 4.062 4.77 6.694 8.827 5.88 4.061-.814 6.694-4.766 5.88-8.827-.424-2.114-.904-4.264-1.43-6.387-2.787-11.281-11.701-19.242-23.265-20.776-11.533-1.522-22.61 4.044-28.232 14.194-15.029 27.145-31.723 43.568-44.046 52.992-10.037-3.962-20.517-7.188-31.337-9.585-2.185-14.803-14.97-26.202-30.371-26.202h-34.288c-15.401 0-28.187 11.399-30.372 26.203-10.82 2.397-21.3 5.623-31.336 9.585-12.322-9.424-29.017-25.847-44.047-52.993-5.62-10.151-16.706-15.716-28.231-14.194-11.565 1.534-20.479 9.495-23.266 20.776-9.27 37.521-2.798 73.766 18.186 102.77-4.052 5.171-7.756 10.558-11.078 16.142-18.232-6.017-38.098 3.617-44.576 21.796-5.43 15.244.233 31.783 12.772 40.778-2.511 10.483-3.739 22.454-3.675 34.606-18.49 7.915-30.561 24.928-30.561 43.851 0 28.802 27.783 51.799 60 48.076 11.541 24.527 30.141 44.016 52.619 58.586-5.598 2.594-10.61 6.599-14.486 11.905-14.079 19.274-6.822 46.611 14.86 56.276 2.67 1.19 5.381 2.325 8.113 3.432-3.358 8.318-5.784 16.984-7.216 25.863-2.271 14.093 8.57 26.895 22.844 26.895h16.712c4.143 0 7.5-3.357 7.5-7.5s-3.357-7.5-7.5-7.5h-16.712c-5.133 0-8.824-4.618-8.035-9.507 1.275-7.906 3.467-15.612 6.49-23.006 61.801 21.072 134.392 21.106 196.295-.005 3.018 7.395 5.198 15.106 6.473 23.011.789 4.889-2.9 9.508-8.035 9.508h-140.576c-4.143 0-7.5 3.357-7.5 7.5s3.357 7.5 7.5 7.5h140.575c14.272 0 25.115-12.8 22.844-26.896-1.432-8.879-3.858-17.544-7.216-25.862 2.731-1.107 5.442-2.241 8.112-3.432 21.715-9.68 28.919-37.03 14.86-56.276-3.877-5.306-8.884-9.317-14.484-11.906 22.568-14.624 41.121-34.153 52.618-58.585 32.332 3.735 60-19.375 60-48.076.001-18.924-12.071-35.937-30.56-43.852zm-154.919-163.78c44.771 10.801 82.851 36.696 104.615 71.106-26.391 6.956-66.895 13.208-104.615 16.426zm-80.697-10.983c0-8.66 7.045-15.705 15.705-15.705h34.288c8.659 0 15.704 7.045 15.704 15.705v99.641c-11.639.749-22.77 1.163-32.849 1.163-10.078 0-21.209-.413-32.849-1.163v-99.641zm-15 10.985v87.529c-37.72-3.218-78.224-9.469-104.616-16.426 21.764-34.408 59.844-60.302 104.616-71.103zm-111.984-48.716c2.829-11.457 18.224-13.005 23.812-2.913 13.856 25.025 29.176 41.746 41.788 52.555-19.819 9.808-37.442 22.647-51.859 37.822-16.718-24.888-21.615-55.6-13.741-87.464zm-37.9 142.143c2.987-8.387 10.909-13.629 19.344-13.629 2.279 0 4.596.383 6.862 1.19 34.388 12.249 117.747 23.83 171.526 23.83 53.781 0 137.14-11.581 171.525-23.83 10.652-3.795 22.412 1.785 26.207 12.439 3.796 10.655-1.785 22.412-12.439 26.208-39.193 13.962-125.779 26.209-185.292 26.209s-146.098-12.247-185.291-26.209c-10.657-3.796-16.238-15.553-12.442-26.208zm-20.595 114.201c0-11.102 6.329-21.311 16.434-27.473.816 8.019 2.188 15.849 4.152 23.078 2.086 7.676 6.992 13.869 13.659 17.576 1.129 6.958 2.775 13.721 4.928 20.266-22.059.492-39.173-15.22-39.173-33.447zm35.06-8.327c-5.281-19.443-5.877-44.45-1.852-63.778 14.723 4.738 34.441 9.23 56.362 13.08-6.11 20.475-17.614 41.872-30.49 56.247-7.427 8.284-21.123 5.111-24.02-5.549zm306.349 135.742c8.425 11.533 4.135 27.94-8.854 33.728-34.035 15.172-73.534 23.19-114.227 23.19s-80.191-8.018-114.227-23.19c-12.993-5.79-17.278-22.197-8.854-33.728 6.298-8.625 17.615-11.573 27.518-7.171 26.229 11.68 59.455 19.089 95.564 19.089 36.017 0 69.267-7.376 95.563-19.089 9.902-4.405 21.218-1.454 27.517 7.171zm-123.081-3.082c-75.084 0-152.387-34.742-168.117-107.473 7.589-.427 14.826-3.808 20.041-9.63 14.864-16.592 27.615-40.517 34.22-63.79 37.902 5.902 80.169 9.776 113.856 9.776s75.954-3.874 113.856-9.776c6.605 23.272 19.356 47.197 34.22 63.79 5.216 5.824 12.456 9.207 20.048 9.631-15.737 72.762-93.101 107.472-168.124 107.472zm159.249-127.111c-12.877-14.376-24.382-35.773-30.491-56.247 21.939-3.853 41.671-8.35 56.399-13.092 4.016 19.327 3.391 44.355-1.889 63.789-2.893 10.644-16.59 13.845-24.019 5.55zm19.907 36.225c2.152-6.545 3.798-13.306 4.928-20.264 6.667-3.707 11.574-9.9 13.659-17.578 1.963-7.227 3.334-15.053 4.15-23.069 10.104 6.16 16.435 16.364 16.435 27.464 0 18.189-17.052 33.921-39.172 33.447zm-117.634-52.607c-11.726 0-21.265 9.539-21.265 21.265 0 4.143 3.357 7.5 7.5 7.5s7.5-3.357 7.5-7.5c0-3.454 2.811-6.265 6.265-6.265s6.265 2.811 6.265 6.265c0 4.143 3.357 7.5 7.5 7.5s7.5-3.357 7.5-7.5c0-11.726-9.539-21.265-21.265-21.265zm-41.992 31.7c-3.124-2.724-7.861-2.397-10.582.725-2.261 2.593-5.521 4.08-8.948 4.08s-6.688-1.487-8.948-4.08c-2.721-3.122-7.458-3.447-10.582-.725-3.122 2.722-3.446 7.459-.725 10.582 5.109 5.861 12.492 9.223 20.255 9.223s15.145-3.361 20.255-9.223c2.721-3.123 2.397-7.86-.725-10.582zm-81.053-31.7c-11.725 0-21.265 9.539-21.265 21.265 0 4.143 3.357 7.5 7.5 7.5s7.5-3.357 7.5-7.5c0-3.454 2.811-6.265 6.265-6.265s6.265 2.811 6.265 6.265c0 4.143 3.357 7.5 7.5 7.5s7.5-3.357 7.5-7.5c0-11.726-9.539-21.265-21.265-21.265z"/></g></svg>