<svg id="Capa_1" enable-background="new 0 0 512.001 512.001" height="512" viewBox="0 0 512.001 512.001" width="512" xmlns="http://www.w3.org/2000/svg"><g><path d="m156.123 501.958c-11.039-.386-19.675-9.647-19.289-20.686.631-18.047-18.056-30.121-34.178-22.607-10.012 4.667-21.911.337-26.579-9.674-4.669-10.011-.337-21.91 9.673-26.578 42.871-19.991 92.746 12.04 91.059 60.258-.39 11.155-9.789 19.689-20.686 19.287z" fill="#ea9cd0"/><path d="m172.152 75.222c-24.049-39.734-74.908-59.918-109.614-67.267-12.01-2.543-23.575 5.876-24.887 18.082-6.035 56.174-1.296 107.185 53.593 111.823z" fill="#f2bcd5"/><path d="m91.245 137.861 20.256-15.682c-13.183-63.255-37.13-88.705-71.07-104.517-1.471 2.476-2.45 5.306-2.78 8.376-6.035 56.174-1.295 107.184 53.594 111.823z" fill="#ea9cd0"/><path d="m339.849 75.222c24.049-39.734 74.909-59.918 109.615-67.267 12.01-2.543 23.575 5.876 24.887 18.082 6.035 56.174 1.296 107.185-53.593 111.823z" fill="#f2bcd5"/><path d="m420.756 137.861-20.255-15.682c13.183-63.254 37.129-88.705 71.069-104.517 1.471 2.476 2.45 5.306 2.78 8.376 6.035 56.174 1.296 107.184-53.594 111.823z" fill="#ea9cd0"/><path d="m369.224 504.501c11.323 0 19.899-10.156 18.097-21.335-10.208-63.324-65.116-111.687-131.321-111.687-66.204 0-121.112 48.364-131.321 111.688-1.802 11.178 6.774 21.335 18.097 21.335h226.448z" fill="#f2bcd5"/><path d="m256 427.014c33.876 0 66.369-5.076 95.859-14.73-24.201-25.15-58.2-40.805-95.859-40.805s-71.658 15.655-95.859 40.805c29.491 9.654 61.983 14.73 95.859 14.73z" fill="#ea9cd0"/><path d="m465.125 231.299c0 101.76-93.628 165.715-209.124 165.715s-209.124-63.954-209.124-165.715 93.628-184.253 209.123-184.253c115.497 0 209.125 82.493 209.125 184.253z" fill="#f2bcd5"/><path d="m404.684 243.369c0-60.122-50.091-92.879-148.684-92.879s-148.684 32.757-148.684 92.879 50.091 108.86 148.684 108.86c98.594 0 148.684-48.738 148.684-108.86z" fill="#ffddcf"/><path d="m256 191.402c26.501 0 58.161-1.937 58.161-28.413s-26.978-60.055-58.161-60.055-58.161 33.579-58.161 60.055 31.661 28.413 58.161 28.413z" fill="#ea9cd0"/><g><g><ellipse cx="172.154" cy="261.191" fill="#eda1ab" rx="30.938" ry="24.637"/><ellipse cx="339.847" cy="261.191" fill="#eda1ab" rx="30.938" ry="24.637"/><ellipse cx="256.001" cy="242.261" fill="#4e5660" rx="16.423" ry="18.377"/></g></g><path d="m301.518 504.501c0-26.771-20.379-48.474-45.517-48.474s-45.517 21.702-45.517 48.474z" fill="#ea9cd0"/><path d="m338.232 115.065v-12c0-4.143-3.358-7.5-7.5-7.5s-7.5 3.357-7.5 7.5v12c0 4.143 3.358 7.5 7.5 7.5 4.143 0 7.5-3.357 7.5-7.5zm-149.463 0v-12c0-4.143-3.358-7.5-7.5-7.5s-7.5 3.357-7.5 7.5v12c0 4.143 3.358 7.5 7.5 7.5s7.5-3.357 7.5-7.5zm-88.952 128.304c0 32.87 14.28 62.295 40.21 82.853 27.648 21.921 67.751 33.508 115.974 33.508s88.326-11.587 115.974-33.508c25.93-20.558 40.21-49.982 40.21-82.853 0-62.186-49.225-85.908-92.588-94.734-7.383-26.606-33.674-53.201-63.596-53.201s-56.213 26.595-63.596 53.201c-43.363 8.826-92.588 32.547-92.588 94.734zm156.183-132.935c26.067 0 50.661 29.188 50.661 52.556 0 15.05-14.204 20.913-50.661 20.913s-50.661-5.863-50.661-20.913c0-23.134 24.378-52.556 50.661-52.556zm-65.63 54.009c.387 10.315 5.085 23.323 24.212 29.786 12.154 4.106 27.089 4.673 41.419 4.673s29.265-.566 41.419-4.673c19.129-6.464 23.825-19.474 24.212-29.789 50.126 11.473 75.553 37.98 75.553 78.928 0 28.603-11.94 53.189-34.529 71.099-24.969 19.798-61.85 30.262-106.655 30.262s-81.685-10.464-106.655-30.262c-22.589-17.909-34.529-42.495-34.529-71.099 0-40.946 25.43-67.451 75.553-78.925zm144.305 74.517c4.142 0 7.5-3.357 7.5-7.5v-12c0-4.143-3.358-7.5-7.5-7.5s-7.5 3.357-7.5 7.5v12c0 4.143 3.358 7.5 7.5 7.5zm-60.797-75.679c4.142 0 7.5-3.357 7.5-7.5v-9.374c0-4.143-3.358-7.5-7.5-7.5s-7.5 3.357-7.5 7.5v9.374c0 4.143 3.358 7.5 7.5 7.5zm205.567-65.772c4.974-18.007 5.724-40.972 2.361-72.272-1.786-16.628-17.567-28.076-33.897-24.619-37.551 7.95-78.383 26.6-103.386 55.563-27.488-10.895-57.51-16.635-88.523-16.635-30.821 0-60.847 5.707-88.491 16.672-24.955-28.931-65.769-47.629-103.417-55.6-16.363-3.464-32.114 8.023-33.898 24.618-3.363 31.301-2.613 54.266 2.361 72.272 5.593 20.247 16.813 34.213 33.366 41.702-3.868 6.258-7.356 12.725-10.439 19.383-1.741 3.759-.104 8.217 3.654 9.957 3.76 1.742 8.217.104 9.957-3.654 29.573-63.867 101.37-110.35 186.907-110.35 111.176 0 201.624 79.291 201.624 176.753 0 46.336-20.154 86.117-58.284 115.042-36.699 27.841-87.605 43.173-143.34 43.173s-106.641-15.332-143.34-43.173c-38.129-28.925-58.284-68.706-58.284-115.042 0-11.527 1.274-23.055 3.786-34.262.906-4.042-1.636-8.053-5.678-8.959-4.043-.909-8.053 1.636-8.959 5.678-2.753 12.283-4.149 24.914-4.149 37.543 0 80.069 55.121 137.301 132.054 160.973-9.597 7.216-18.153 15.55-25.51 24.789-19.732-10.331-42.927-10.966-63.339-1.446-13.774 6.421-19.726 22.769-13.301 36.545 6.409 13.741 22.804 19.71 36.544 13.302 4.895-2.279 10.42-2.004 14.996.538-1.477 5.218-2.67 10.546-3.545 15.973-2.54 15.758 9.59 30.028 25.501 30.028h181.226c4.142 0 7.5-3.357 7.5-7.5s-3.358-7.5-7.5-7.5h-15.475c-3.484-27.329-25.704-48.474-52.528-48.474s-49.044 21.145-52.527 48.474h-60.696c-6.84 0-11.739-6.148-10.693-12.642 5.845-36.255 27.104-67.798 58.494-86.989 20.708 4.698 42.702 7.143 65.423 7.143s44.715-2.445 65.423-7.143c31.39 19.19 52.649 50.734 58.494 86.989 1.046 6.494-3.854 12.642-10.693 12.642h-9.06c-4.142 0-7.5 3.357-7.5 7.5s3.358 7.5 7.5 7.5h9.06c15.932 0 28.038-14.29 25.501-30.028-5.815-36.073-25.255-67.968-54.158-89.7 77.929-23.979 132.057-81.739 132.057-160.974 0-32.735-9.203-64.194-26.503-92.092 16.532-7.497 27.735-21.465 33.324-41.698zm-404.958 29.038c-13.802-5.39-22.831-16.226-27.473-33.032-4.379-15.852-5.03-36.611-2.055-65.201 20.369 10.971 40.144 28.861 53.177 71.614-8.762 8.238-16.669 17.143-23.649 26.619zm35.972-37.309c-11.787-35.073-29.447-57.815-57.001-73.32 2.368-.934 4.951-1.171 7.526-.626 14.596 3.091 61.942 15.242 92.047 47.256-15.375 7.369-29.575 16.271-42.572 26.69zm145.541 374.289c18.585 0 34.088 14.452 37.368 33.474h-74.736c3.281-19.022 18.783-33.474 37.368-33.474zm-130.276-11.846c-8.209-3.709-17.718-3.784-26.237.186-6.249 2.914-13.7.2-16.612-6.046-2.92-6.26-.216-13.691 6.045-16.611 15.488-7.222 33.012-7.038 48.2.226-4.447 7.036-8.258 14.48-11.396 22.245zm275.813-362.429c-13.059-10.505-27.335-19.45-42.535-26.738 30.107-31.988 77.424-44.132 92.014-47.222 2.572-.544 5.154-.309 7.522.624-27.557 15.507-45.214 38.256-57.001 73.336zm36 37.304c-6.934-9.376-14.843-18.269-23.684-26.582 13.033-42.783 32.813-60.689 53.189-71.663 2.975 28.591 2.324 49.351-2.055 65.204-4.641 16.802-13.656 27.647-27.45 33.041zm-199.414 36.725c4.142 0 7.5-3.357 7.5-7.5v-9.374c0-4.143-3.358-7.5-7.5-7.5s-7.5 3.357-7.5 7.5v9.374c0 4.143 3.357 7.5 7.5 7.5zm17.877 104.857c13.191 0 23.922-11.608 23.922-25.877s-10.732-25.877-23.922-25.877c-13.191 0-23.922 11.608-23.922 25.877 0 14.268 10.732 25.877 23.922 25.877zm0-36.754c4.92 0 8.922 4.879 8.922 10.877s-4.003 10.877-8.922 10.877c-4.92 0-8.922-4.879-8.922-10.877s4.003-10.877 8.922-10.877zm-78.674 7.576c4.142 0 7.5-3.357 7.5-7.5v-12c0-4.143-3.358-7.5-7.5-7.5s-7.5 3.357-7.5 7.5v12c0 4.143 3.358 7.5 7.5 7.5z"/></g></svg>