<svg id="Capa_1" enable-background="new 0 0 512 512" height="512" viewBox="0 0 512 512" width="512" xmlns="http://www.w3.org/2000/svg"><g><path d="m233.889 410.467c-13.723-24.725-36.89-41.68-36.89-79.902 0-48.014-42.421-86.938-94.749-86.938-52.329 0-94.749 38.923-94.749 86.938 0 35.435 23.107 65.913 56.248 79.453 4.808 1.964 7.182 7.424 5.431 12.314-3.615 10.098-5.03 20.685-4.254 31.168.836 11.311 10.184 20.1 21.527 20.1h61.247c9.32-24.978 42.641-60.72 86.189-63.133z" fill="#5ec783"/><ellipse cx="102.249" cy="330.565" fill="#f5ea72" rx="46.641" ry="42.796"/><path d="m194.849 422.029c-8.938-11.767-23.788-19.471-40.605-19.471-27.32 0-49.468 20.321-49.468 45.389 0 9.522 3.201 18.354 8.661 25.653h34.263c6.265-16.791 23.377-38.446 47.149-51.571z" fill="#f5ea72"/><path d="m278.111 410.467c13.723-24.725 36.89-41.68 36.89-79.902 0-48.014 42.421-86.938 94.75-86.938s94.75 38.923 94.75 86.938c0 35.435-23.107 65.913-56.248 79.453-4.808 1.964-7.182 7.424-5.431 12.314 3.615 10.098 5.03 20.685 4.254 31.168-.837 11.312-10.185 20.101-21.528 20.101h-61.247c-9.321-24.979-42.642-60.721-86.19-63.134z" fill="#5ec783"/><ellipse cx="409.75" cy="330.565" fill="#f5ea72" rx="46.641" ry="42.796"/><path d="m317.151 422.029c8.938-11.767 23.788-19.471 40.605-19.471 27.32 0 49.468 20.321 49.468 45.389 0 9.522-3.201 18.354-8.661 25.653h-34.262c-6.266-16.791-23.378-38.446-47.15-51.571z" fill="#f5ea72"/><path d="m364.299 473.6c0-59.812-48.487-108.299-108.299-108.299s-108.3 48.487-108.3 108.299z" fill="#f2bcd5"/><path d="m256 433.5c-22.147 0-40.101 17.954-40.101 40.101h80.202c0-22.148-17.954-40.101-40.101-40.101z" fill="#de5c6e"/><path d="m256 418.169c30.343 0 58.525-4.715 83.644-13.366-19.863-24.122-49.957-39.502-83.644-39.502s-63.781 15.381-83.644 39.502c25.119 8.651 53.3 13.366 83.644 13.366z" fill="#ea9cd0"/><path d="m426.257 251.174c0 82.848-76.227 134.916-170.257 134.916-94.031 0-170.257-52.068-170.257-134.916 0-82.847 76.227-150.009 170.257-150.009s170.257 67.162 170.257 150.009z" fill="#ffddcf"/><path d="m310.562 122.409 73.94 85.184c-18.981 5.819-88.775 10.13-122.557-9.983-3.659-2.179-8.23-2.179-11.89 0-33.783 20.113-103.576 15.802-122.557 9.983l73.94-85.184z" fill="#d2996f"/><path d="m256 101.165c-94.031 0-170.257 67.161-170.257 150.009 0 41.837 19.446 75.817 50.799 99.215-55.011-114.602 31.008-193.68 119.458-193.68s174.468 79.077 119.458 193.68c31.353-23.397 50.799-57.378 50.799-99.215 0-82.847-76.227-150.009-170.257-150.009z" fill="#f2bcd5"/><ellipse cx="91.62" cy="68.178" fill="#f5ea72" rx="33.405" ry="29.779"/><ellipse cx="420.38" cy="68.178" fill="#f5ea72" rx="33.405" ry="29.779"/><g><g><ellipse cx="172.932" cy="283.065" fill="#eda1ab" rx="30.65" ry="24.408"/><ellipse cx="339.068" cy="282.908" fill="#eda1ab" rx="30.65" ry="24.408"/><ellipse cx="255.989" cy="271.65" fill="#4e5660" rx="13.712" ry="15.725"/></g></g><path d="m206.36 246.684c-3.124-2.719-7.862-2.39-10.581.736-1.267 1.455-3.095 2.292-5.015 2.294-.002 0-.004 0-.006 0-1.919 0-3.746-.832-5.014-2.284-2.723-3.119-7.461-3.439-10.582-.717-3.12 2.724-3.441 7.462-.717 10.582 4.117 4.716 10.062 7.419 16.314 7.419h.02c6.257-.007 12.204-2.723 16.316-7.45 2.72-3.125 2.39-7.863-.735-10.58zm244.728 170.278c37.003-15.118 60.912-49.03 60.912-86.397 0-44.207-32.797-82-78.803-91.922-1.775-20.261-7.862-39.715-18.192-57.979-2.04-3.605-6.615-4.873-10.221-2.836-3.605 2.039-4.875 6.615-2.836 10.221 23.74 41.973 23.497 95.308-7.768 134.154 28.65-101.738-51.011-172.994-138.18-172.994-85.991 0-167.151 70.165-138.151 173.032-16.184-20.091-24.607-44.211-24.607-71.067 0-44.55 23.474-84.385 60.154-110.537 1.046 2.533 1.991 5.134 2.81 7.797 1.219 3.962 5.421 6.182 9.374 4.963 3.959-1.218 6.181-5.414 4.963-9.374-1.235-4.013-2.711-7.892-4.367-11.628 25.761-14.985 56.646-23.73 89.824-23.73 32.387 0 63.495 8.379 89.844 23.681-1.665 3.75-3.148 7.647-4.388 11.677-1.218 3.96 1.004 8.156 4.963 9.374 3.973 1.225 8.161-1.02 9.374-4.963.826-2.686 1.781-5.308 2.838-7.862 8.111 5.781 15.645 12.284 22.474 19.462 2.856 3.003 7.603 3.119 10.603.264 3.001-2.855 3.119-7.603.264-10.604-8.011-8.42-16.908-15.979-26.505-22.632 8.434-14.11 19.161-25.189 26.648-31.975 7.351 6.415 17.308 10.37 28.265 10.37 22.555 0 40.905-16.723 40.905-37.278s-18.35-37.279-40.905-37.279-40.905 16.724-40.905 37.279c0 5.33 1.243 10.398 3.464 14.988-8.203 7.339-20.42 19.754-30.137 35.878-28.5-16.407-61.995-25.379-96.802-25.379-35.662 0-68.899 9.361-96.763 25.446-9.724-16.155-21.962-28.595-30.176-35.944 2.221-4.59 3.464-9.658 3.464-14.988 0-20.556-18.35-37.279-40.905-37.279s-40.905 16.724-40.905 37.279 18.35 37.278 40.905 37.278c10.957 0 20.914-3.954 28.265-10.37 7.5 6.797 18.249 17.902 26.689 32.044-38.091 26.442-63.744 66.335-67.771 111.535-46.001 9.923-78.803 47.695-78.803 91.898 0 37.366 23.909 71.278 60.912 86.397 1.07.436 1.611 1.712 1.206 2.842-3.963 11.069-5.535 22.593-4.672 34.249 1.122 15.167 13.864 27.048 29.007 27.048h75.162c4.142 0 7.5-3.357 7.5-7.5s-3.358-7.5-7.5-7.5h-6.132c2.407-31.962 20.084-61.238 47.495-78.235 16.8 3.767 34.623 5.724 53.023 5.724s36.223-1.957 53.023-5.724c27.411 16.996 45.087 46.273 47.494 78.235h-53.536c-3.609-22.694-23.288-40.102-46.981-40.102-23.694 0-43.373 17.408-46.982 40.102h-12.121c-4.142 0-7.5 3.357-7.5 7.5s3.358 7.5 7.5 7.5h228.65c15.143 0 27.885-11.881 29.007-27.048.863-11.655-.709-23.178-4.672-34.249-.406-1.13.135-2.406 1.205-2.842zm-30.708-371.063c14.284 0 25.905 9.994 25.905 22.279 0 12.284-11.621 22.278-25.905 22.278s-25.905-9.994-25.905-22.278c.001-12.284 11.621-22.279 25.905-22.279zm-328.76 44.558c-14.284 0-25.905-9.994-25.905-22.278 0-12.285 11.621-22.279 25.905-22.279s25.905 9.994 25.905 22.279c-.001 12.284-11.621 22.278-25.905 22.278zm132.659 375.644c3.397-14.372 16.326-25.102 31.721-25.102s28.323 10.729 31.72 25.102zm200.823-168.007c14.276 5.451 23.789 18.084 23.789 32.471 0 19.462-17.559 35.296-39.141 35.296-10.748 0-20.797-3.93-28.1-10.754 20.176-15.502 34.903-34.988 43.452-57.013zm-169.102-133.885c36.391 0 73.18 14.15 98.366 40.18-28.043 1.775-67.021-.386-88.585-13.223-6.033-3.592-13.529-3.592-19.562 0-21.566 12.839-60.538 14.996-88.581 13.219 25.195-26.037 61.983-40.176 98.362-40.176zm-125.65 190.899c-7.303 6.824-17.352 10.754-28.1 10.754-21.582 0-39.141-15.834-39.141-35.296 0-14.387 9.516-27.012 23.792-32.463 8.55 22.021 23.275 41.504 43.449 57.005zm10.1 110.993h-23.031c-16.152-26.602 7.594-59.35 41.672-55.768-10.768 16.509-17.325 35.695-18.641 55.768zm28.828-69.154c-44.817-11.43-84.295 29.217-68.547 69.154h-14.278c-7.332 0-13.502-5.778-14.048-13.155-.707-9.553.584-19.002 3.835-28.085 3.124-8.729-1.117-18.297-9.656-21.784-31.336-12.805-51.584-41.267-51.584-72.512 0-35.892 26.131-66.793 63.285-76.377.224 10.186 1.585 20.091 4.027 29.616-20.477 7.465-34.204 25.763-34.204 46.761 0 27.733 24.288 50.296 54.141 50.296 15.715 0 30.413-6.284 40.621-17.073 12.481 7.801 26.384 14.166 41.343 18.979-5.418 4.297-10.411 9.046-14.935 14.18zm86.722-18.357c-43.883 0-84.039-11.74-113.48-33.108-20.221-43.077-23.293-88.532 3.52-127.024 26.932 2.84 78.535 3.05 107.851-14.403 1.301-.773 2.916-.773 4.217 0 27.47 16.354 76.291 17.731 107.852 14.404 26.858 38.559 23.697 84.039 3.52 127.022-29.441 21.369-69.597 33.109-113.48 33.109zm138.58 87.511h-23.028c-1.316-20.082-7.885-39.274-18.665-55.786 34.005-3.577 57.878 29.136 41.693 55.786zm50.836-63.026c-8.539 3.488-12.781 13.057-9.656 21.784 3.252 9.085 4.542 18.534 3.835 28.086-.546 7.377-6.717 13.155-14.048 13.155h-14.277c15.798-40.06-23.897-80.546-68.575-69.165-4.52-5.125-9.498-9.877-14.91-14.168 14.96-4.813 28.863-11.178 41.344-18.979 10.208 10.788 24.906 17.072 40.622 17.072 29.854 0 54.141-22.563 54.141-50.296 0-20.998-13.726-39.298-34.204-46.763 2.441-9.523 3.803-19.426 4.027-29.609 37.152 9.585 63.285 40.48 63.285 76.372 0 31.246-20.248 59.708-51.584 72.511zm-189.43-154.65c-.006 0-.012 0-.018 0-11.483.01-21.203 10.14-21.191 23.245.012 12.801 9.527 23.206 21.216 23.206h.018c11.696-.012 21.202-10.441 21.19-23.246-.012-12.8-9.527-23.205-21.215-23.205zm.011 31.451c-.001 0-.003 0-.004 0-3.365 0-6.212-3.764-6.216-8.22-.004-3.972 2.497-8.228 6.204-8.232h.004c3.365 0 6.211 3.763 6.216 8.219.005 4.46-2.837 8.229-6.204 8.233zm80.773-33.315c-3.125-2.72-7.862-2.389-10.581.735-1.267 1.456-3.096 2.293-5.016 2.295-.002 0-.004 0-.006 0-1.918 0-3.746-.833-5.014-2.285-2.724-3.119-7.462-3.439-10.582-.716-3.12 2.725-3.44 7.463-.716 10.583 4.118 4.715 10.061 7.418 16.313 7.418h.02c6.257-.007 12.204-2.723 16.316-7.449 2.72-3.125 2.391-7.863-.734-10.581z"/></g></svg>