<svg id="Capa_1" enable-background="new 0 0 512 512" height="512" viewBox="0 0 512 512" width="512" xmlns="http://www.w3.org/2000/svg"><g><path d="m357.455 504.5c10.146 0 17.831-9.101 16.216-19.117-9.147-56.742-58.348-100.079-117.671-100.079s-108.524 43.337-117.671 100.079c-1.615 10.016 6.07 19.117 16.216 19.117z" fill="#5ec783"/><g fill="#f1b260"><path d="m194.31 71.072c-28.943-28.944-79.995-24.819-114.026 9.212s-38.156 85.083-9.212 114.026c28.943 28.943 150.897 95.721 184.928 61.69s-32.747-155.985-61.69-184.928z"/><path d="m71.072 317.69c-28.944 28.944-24.819 79.995 9.212 114.026s85.083 38.156 114.026 9.212c28.943-28.943 95.721-150.897 61.69-184.928s-155.985 32.746-184.928 61.69z"/><path d="m317.69 440.928c28.944 28.944 79.995 24.819 114.026-9.212s38.156-85.082 9.212-114.026c-28.943-28.944-150.897-95.721-184.928-61.69s32.746 155.985 61.69 184.928z"/><path d="m440.928 194.31c28.944-28.943 24.819-79.995-9.212-114.026s-85.082-38.156-114.026-9.212c-28.944 28.943-95.721 150.897-61.69 184.928s155.985-32.747 184.928-61.69z"/></g><g><path d="m345.379 195.533c16.087-39.256 27.764-87.165 27.764-113.919 0-10.258-1.641-20.256-4.799-29.778-19.038-.491-37.225 5.807-50.653 19.235-28.944 28.944-95.722 150.898-61.691 184.929 10.034 10.033 27.712 11.299 48.394 7.36 14.964-15.113 28.661-37.756 40.985-67.827z" fill="#ee8c49"/><path d="m143.657 51.837c-3.158 9.521-4.799 19.52-4.799 29.778 0 26.754 11.677 74.663 27.764 113.919 12.324 30.071 26.021 52.714 40.985 67.827 20.682 3.939 38.361 2.673 48.394-7.36 34.031-34.031-32.747-155.985-61.69-184.928-13.429-13.429-31.617-19.727-50.654-19.236z" fill="#ee8c49"/><path d="m343.143 81.615c0-40.933-39.015-74.115-87.143-74.115s-87.143 33.182-87.143 74.115c0 40.932 39.015 174.385 87.143 174.385s87.143-133.453 87.143-174.385z" fill="#f5ea72"/><path d="m263.36 207.606c-15.113-14.964-37.756-28.661-67.827-40.985-39.256-16.087-87.165-27.764-113.919-27.764-10.258 0-20.256 1.641-29.778 4.799-.491 19.038 5.807 37.225 19.235 50.653 28.944 28.944 150.898 95.722 184.929 61.691 10.034-10.033 11.299-27.712 7.36-48.394z" fill="#ee8c49"/><path d="m256 256c-34.031-34.031-155.985 32.746-184.928 61.69-13.428 13.428-19.726 31.616-19.235 50.653 9.521 3.158 19.52 4.799 29.778 4.799 26.754 0 74.663-11.677 113.919-27.764 30.071-12.324 52.714-26.021 67.827-40.985 3.938-20.681 2.673-38.36-7.361-48.393z" fill="#ee8c49"/><path d="m81.615 168.857c-40.933 0-74.115 39.015-74.115 87.143s33.182 87.143 74.115 87.143c40.932 0 174.385-39.015 174.385-87.143s-133.453-87.143-174.385-87.143z" fill="#f5ea72"/><path d="m256 256c-10.033-10.033-27.712-11.299-48.394-7.36-14.964 15.113-28.661 37.756-40.985 67.827-16.087 39.256-27.764 87.165-27.764 113.919 0 10.258 1.641 20.256 4.799 29.778 19.038.491 37.225-5.807 50.653-19.235 28.944-28.944 95.722-150.898 61.691-184.929z" fill="#ee8c49"/><path d="m256 256c-34.031 34.031 32.747 155.985 61.69 184.928 13.428 13.428 31.616 19.726 50.653 19.235 3.158-9.521 4.799-19.52 4.799-29.778 0-26.754-11.677-74.663-27.764-113.919-12.324-30.071-26.021-52.714-40.985-67.827-20.681-3.938-38.359-2.672-48.393 7.361z" fill="#ee8c49"/><path d="m168.857 430.385c0 40.932 39.015 74.115 87.143 74.115s87.143-33.182 87.143-74.115c0-40.932-39.015-174.385-87.143-174.385s-87.143 133.453-87.143 174.385z" fill="#f5ea72"/><path d="m316.467 166.621c-30.071 12.324-52.714 26.021-67.827 40.985-3.939 20.682-2.673 38.361 7.36 48.394 34.031 34.031 155.985-32.747 184.928-61.69 13.428-13.428 19.726-31.616 19.235-50.653-9.521-3.158-19.52-4.799-29.778-4.799-26.753-.001-74.662 11.676-113.918 27.763z" fill="#ee8c49"/><path d="m256 256c-10.033 10.033-11.299 27.712-7.36 48.394 15.113 14.964 37.756 28.661 67.827 40.985 39.256 16.087 87.165 27.764 113.919 27.764 10.258 0 20.256-1.641 29.778-4.799.491-19.038-5.807-37.225-19.235-50.653-28.944-28.945-150.898-95.722-184.929-61.691z" fill="#ee8c49"/><path d="m430.385 343.143c40.932 0 74.115-39.015 74.115-87.143s-33.182-87.143-74.115-87.143c-40.932 0-174.385 39.015-174.385 87.143s133.453 87.143 174.385 87.143z" fill="#f5ea72"/></g><path d="m425.344 263.506c0 82.403-75.818 134.192-169.344 134.192s-169.344-51.789-169.344-134.192 75.818-149.204 169.344-149.204 169.344 66.801 169.344 149.204z" fill="#cc9e83"/><path d="m256 114.302c-87.232 0-159.048 58.116-168.321 132.799 34.405-1.59 63.285-21.986 74.261-50.011 1.568-4.005 5.753-6.395 9.957-5.484 27.506 5.96 56.844-1.069 77.461-19.299 3.796-3.357 9.49-3.356 13.286 0 20.608 18.222 49.943 25.262 77.46 19.299 4.204-.911 8.388 1.479 9.957 5.484 10.975 28.025 39.855 48.421 74.261 50.011-9.273-74.683-81.09-132.799-168.322-132.799z" fill="#6171a3"/><g><g fill="#eda1ab"><ellipse cx="177.623" cy="287.24" rx="28.919" ry="23.03"/><ellipse cx="334.377" cy="287.24" rx="28.92" ry="23.03"/></g></g><path d="m512 256c0-38.256-19.676-71.281-47.908-86.188 11.354-36.491-4.878-80.091-39.718-105.703-3.338-2.453-8.032-1.735-10.485 1.601-2.453 3.338-1.736 8.032 1.601 10.485 28.373 20.85 43.69 56.798 34.639 87.968-6.324-1.829-12.936-2.806-19.742-2.806-8.814 0-21.473 1.673-35.972 4.73-13.963-15.545-31.179-28.697-50.734-38.632 4.443-18.499 6.963-34.979 6.963-45.842 0-6.802-.976-13.41-2.803-19.73 11.539-3.312 24.532-3.409 37.309-.169 4.012 1.019 8.096-1.41 9.112-5.427 1.019-4.015-1.411-8.095-5.427-9.112-15.885-4.028-32.178-3.73-46.643.74-14.904-28.235-47.932-47.915-86.192-47.915-38.256 0-71.281 19.676-86.188 47.908-31.196-9.708-68.435.678-94.831 27.073-26.398 26.397-36.78 63.636-27.074 94.832-28.231 14.906-47.907 47.931-47.907 86.187s19.676 71.281 47.908 86.188c-9.707 31.195.675 68.434 27.074 94.832 2.928 2.928 7.677 2.929 10.606-.001 2.929-2.929 2.929-7.678-.001-10.606-22.142-22.141-31.178-52.872-23.715-78.575 16.008 4.629 30.581 2.856 48.364-.458 15.445 17.876 35.192 31.235 57.258 40.673-3.919 17.048-6.137 32.236-6.137 42.334 0 6.808.983 13.419 2.813 19.745-16.073 4.642-34.57 2.932-51.807-4.974-3.769-1.729-8.218-.074-9.944 3.69-1.727 3.765-.074 8.217 3.69 9.944 9.397 4.31 19.15 7.052 28.839 8.225-1.74 5.625-3.089 11.37-4.024 17.173-2.35 14.569 8.856 27.811 23.62 27.811h202.91c14.757 0 25.971-13.237 23.62-27.81-.936-5.81-2.297-11.556-4.043-17.185 59.345-7.266 104.134-69.942 87.06-124.817 28.233-14.908 47.909-47.933 47.909-86.189zm-256-241c43.915 0 79.643 29.883 79.643 66.614 0 9.065-2.162 23.433-5.876 39.489-20.32-8.298-42.704-13.275-66.267-14.151v-28.448c0-4.143-3.357-7.5-7.5-7.5s-7.5 3.357-7.5 7.5v28.449c-23.563.876-45.947 5.853-66.267 14.151-3.714-16.056-5.876-30.424-5.876-39.489 0-36.732 35.728-66.615 79.643-66.615zm0 106.802c79.56 0 145.892 50.524 159.349 116.851-26.809-4.203-49.142-20.899-58.305-44.3-2.949-7.526-10.737-11.761-18.529-10.078-25.652 5.56-52.16-1.015-70.903-17.588-6.621-5.852-16.604-5.852-23.222.001-18.743 16.572-45.253 23.147-70.904 17.587-7.792-1.686-15.58 2.551-18.528 10.079-9.164 23.4-31.498 40.099-58.307 44.304 13.453-66.329 79.787-116.856 159.349-116.856zm-170.412-36.215c22.141-22.141 52.875-31.175 78.575-23.715-1.829 6.324-2.806 12.936-2.806 19.742 0 10.864 2.52 27.343 6.963 45.842-19.555 9.935-36.771 23.087-50.734 38.632-14.498-3.057-27.157-4.73-35.972-4.73-6.806 0-13.418.977-19.743 2.806-7.463-25.704 1.574-56.435 23.717-78.577zm-3.974 250.056c-36.731 0-66.614-35.728-66.614-79.643s29.883-79.643 66.614-79.643c6.317 0 15.083 1.018 25.327 2.909-16.155 22.367-26.074 48.593-27.578 76.739h-28.506c-4.143 0-7.5 3.357-7.5 7.5s3.357 7.5 7.5 7.5h28.508c1.27 22.888 8.358 44.256 20.655 62.902-7.31 1.132-13.642 1.736-18.406 1.736zm12.909-81.566c33.985-3.779 62.771-24.557 74.401-54.253.245-.625.844-1.006 1.384-.889 30.307 6.566 61.713-1.287 84.018-21.011.955-.845 2.396-.845 3.351.001 22.401 19.806 53.837 27.55 84.017 21.01.542-.117 1.14.265 1.385.889 11.628 29.696 40.414 50.474 74.4 54.253 6.615 87.718-74.414 136.121-161.477 136.121-88.389 0-168.02-49.374-161.479-136.121zm60.022 242.923c-5.618 0-9.678-5.051-8.812-10.424 1.043-6.473 2.676-12.861 4.85-19.058 6.596-.381 13.046-1.534 19.214-3.454 6.987 13.245 17.967 24.602 31.601 32.935h-46.853zm21.812-66.614c0-8.649 1.905-21.827 5.29-36.929 20.538 6.955 43.154 10.931 66.853 11.624v28.416c0 4.143 3.357 7.5 7.5 7.5s7.5-3.357 7.5-7.5v-28.417c23.699-.693 46.315-4.669 66.853-11.624 3.384 15.102 5.289 28.28 5.289 36.929.001 36.732-35.727 66.615-79.642 66.615s-79.643-29.883-79.643-66.614zm181.098 66.614h-46.863c13.627-8.329 24.6-19.678 31.589-32.914 6.218 1.936 12.673 3.071 19.238 3.441 2.172 6.194 3.805 12.579 4.847 19.05.866 5.362-3.183 10.423-8.811 10.423zm68.957-70.588c-22.143 22.143-52.881 31.179-78.584 23.713 1.829-6.324 2.815-12.933 2.815-19.74 0-10.099-2.217-25.287-6.137-42.334 22.069-9.439 41.815-22.799 57.259-40.673 17.605 3.281 32.318 5.097 48.361.459 7.465 25.703-1.571 56.434-23.714 78.575zm3.974-90.769c-4.763 0-11.096-.605-18.406-1.735 12.296-18.646 19.385-40.013 20.654-62.901h28.508c4.143 0 7.5-3.357 7.5-7.5s-3.357-7.5-7.5-7.5h-28.506c-1.504-28.145-11.423-54.371-27.577-76.738 10.243-1.891 19.009-2.91 25.326-2.91 36.732-.002 66.615 35.726 66.615 79.641s-29.883 79.643-66.614 79.643zm-154.131-52.447c2.722-3.123 2.397-7.86-.725-10.582-3.124-2.723-7.861-2.396-10.582.725-2.261 2.593-5.521 4.08-8.948 4.08s-6.688-1.487-8.948-4.08c-2.721-3.122-7.458-3.447-10.582-.725-3.122 2.722-3.446 7.459-.725 10.582 5.109 5.861 12.492 9.223 20.255 9.223s15.146-3.361 20.255-9.223zm-81.778-42.282c-11.725 0-21.265 9.539-21.265 21.265 0 4.143 3.357 7.5 7.5 7.5s7.5-3.357 7.5-7.5c0-3.454 2.811-6.265 6.265-6.265s6.265 2.811 6.265 6.265c0 4.143 3.357 7.5 7.5 7.5s7.5-3.357 7.5-7.5c0-11.726-9.539-21.265-21.265-21.265zm109.281 28.765c4.143 0 7.5-3.357 7.5-7.5 0-3.454 2.811-6.265 6.265-6.265s6.265 2.811 6.265 6.265c0 4.143 3.357 7.5 7.5 7.5s7.5-3.357 7.5-7.5c0-11.726-9.539-21.265-21.265-21.265s-21.265 9.539-21.265 21.265c0 4.142 3.357 7.5 7.5 7.5z"/></g></svg>