<svg id="Capa_1" enable-background="new 0 0 511.92 511.92" height="512" viewBox="0 0 511.92 511.92" width="512" xmlns="http://www.w3.org/2000/svg"><g><path d="m359.52 504.42c10.356 0 18.201-9.29 16.553-19.514-9.337-57.92-59.56-102.157-120.115-102.157s-110.777 44.237-120.115 102.157c-1.648 10.224 6.196 19.514 16.553 19.514z" fill="#f5ea72"/><path d="m307.193 504.42c0-30.106-22.186-54.512-49.554-54.512s-49.554 24.406-49.554 54.512z" fill="#d2996f"/><path d="m201.488 446.557-7.628-7.451c-4.629-4.522-11.353-6.164-17.545-4.285l-5.454 1.655c-42.418 12.87-87.016-12.174-98.107-55.091l-1.574-6.088c-1.447-5.598-5.53-10.139-10.943-12.169-43.69-16.391-63.29-67.235-41.906-108.711l.165-.32c2.599-5.04 2.631-11.019.087-16.087l-2.815-5.606c-20.213-40.261-2.19-89.224 39.301-106.773l5.732-2.425c5.36-2.267 9.268-7.02 10.455-12.717l2.01-9.643c8.908-42.733 51.166-69.824 93.716-60.079l9.362 2.144c5.933 1.359 12.148-.419 16.465-4.71l8.162-8.113c30.416-30.233 79.541-30.22 109.941.03l8.159 8.119c4.316 4.295 10.534 6.076 16.47 4.717l9.422-2.157c42.526-9.734 84.763 17.324 93.696 60.026l2.03 9.704c1.191 5.694 5.099 10.442 10.457 12.706l5.68 2.401c41.516 17.546 59.545 66.539 39.305 106.811l-2.795 5.561c-2.548 5.071-2.517 11.054.085 16.098l.166.321c21.394 41.472 1.804 92.322-41.884 108.721l-.003.001c-5.41 2.031-9.492 6.569-10.939 12.164l-1.578 6.101c-11.102 42.911-55.702 67.942-98.114 55.067l-5.463-1.658c-6.193-1.88-12.917-.238-17.547 4.284l-7.633 7.455c-30.285 29.582-78.65 29.581-108.938-.003z" fill="#f1b260"/><path d="m357.042 351.606-158.902-251.263c-21.419-11.298-26.323-39.177-14.522-57.306-2.372.451-4.845.429-7.272-.127l-9.362-2.144c-42.55-9.744-84.808 17.347-93.716 60.08l-2.01 9.643c-1.188 5.698-5.095 10.45-10.455 12.717l-5.732 2.425c-41.492 17.549-59.514 66.512-39.301 106.773l2.815 5.606c2.544 5.068 2.512 11.047-.087 16.087l-.165.32c-21.384 41.476-1.785 92.32 41.906 108.711 5.413 2.031 9.497 6.572 10.943 12.169l1.574 6.088c11.092 42.917 55.69 67.96 98.107 55.091l5.454-1.655c6.192-1.879 12.916-.237 17.545 4.285l7.628 7.451c30.288 29.585 78.653 29.585 108.941.001l7.632-7.455c4.63-4.522 11.354-6.164 17.547-4.284l5.463 1.658c19.978 6.065 40.438 3.713 57.657-4.95-34.136-5.192-49.35-55.018-41.688-79.921z" fill="#ee8c49"/><ellipse cx="107.111" cy="118.097" fill="#f5ea72" rx="58.405" ry="56.462"/><path d="m146.813 159.494c-15.902-53.077-49.053-74.23-85.463-76.46-7.908 9.633-12.644 21.81-12.644 35.063 0 31.184 26.149 56.463 58.405 56.463 15.335-.001 29.281-5.722 39.702-15.066z" fill="#d2996f"/><ellipse cx="404.805" cy="118.097" fill="#f5ea72" rx="58.405" ry="56.462"/><path d="m365.104 159.494c15.902-53.077 49.053-74.23 85.463-76.46 7.908 9.633 12.644 21.81 12.644 35.063 0 31.184-26.149 56.463-58.405 56.463-15.335-.001-29.282-5.722-39.702-15.066z" fill="#d2996f"/><path d="m436.178 245.585c0 87.695-80.687 142.81-180.22 142.81s-180.22-55.115-180.22-142.81 80.687-158.786 180.22-158.786 180.22 71.091 180.22 158.786z" fill="#ffddcf"/><path d="m255.958 86.799c-79.573 0-147.094 45.44-170.977 108.473 52.418 18.265 131.429-11.905 162.906-35.583 4.79-3.603 11.355-3.603 16.145 0 31.476 23.678 110.486 53.847 162.904 35.583-23.884-63.033-91.405-108.473-170.978-108.473z" fill="#de5c6e"/><g><g><path d="m203.708 273.145c.007 13.438-13.667 24.338-30.541 24.346-16.874.009-30.559-10.878-30.566-24.315-.007-13.438 13.667-24.338 30.541-24.347s30.559 10.878 30.566 24.316z" fill="#eda1ab"/><path d="m308.21 273.092c.007 13.438 13.691 24.324 30.566 24.315 16.874-.008 30.548-10.908 30.541-24.346s-13.691-24.324-30.566-24.316c-16.874.009-30.547 10.909-30.541 24.347z" fill="#eda1ab"/><path d="m285.903 262.104c-.009-18.509-13.419-20.241-29.96-20.233s-29.949 1.754-29.939 20.263c.009 18.509 13.426 33.506 29.966 33.498 16.541-.009 29.942-15.02 29.933-33.528z" fill="#4e5660"/></g></g><path d="m280.511 238.352c-6.514-3.299-14.489-3.981-24.454-3.981-.039 0-.078 0-.117 0-10.02.005-18.032.688-24.568 4.006-8.544 4.339-12.874 12.333-12.868 23.762.011 22.158 16.302 40.993 37.451 40.993h.018c20.406-.01 37.441-18.041 37.429-41.031-.005-11.43-4.342-19.419-12.891-23.749zm-24.545 49.779c-.003 0-.007 0-.011 0-12.897 0-22.445-12.294-22.452-26.001-.003-7.041 2.237-9.149 4.659-10.379 4.11-2.087 10.977-2.378 17.784-2.381h.126c6.766 0 13.574.293 17.66 2.363 2.423 1.227 4.666 3.333 4.669 10.374.009 13.87-9.669 26.018-22.435 26.024zm64.981-63.564c-.004 0-.01 0-.014 0-12.155.006-22.038 9.899-22.032 22.054.002 4.141 3.359 7.496 7.5 7.496h.003c4.143-.002 7.499-3.361 7.497-7.504-.002-3.883 3.156-7.044 7.04-7.046h.004c3.889 0 7.039 3.145 7.041 7.039.002 4.141 3.359 7.496 7.5 7.496h.004c4.142-.002 7.498-3.361 7.496-7.504-.006-12.172-9.856-22.031-22.039-22.031zm-129.999.064c-.003 0-.007 0-.011 0-12.155.006-22.038 9.9-22.032 22.055.002 4.141 3.359 7.496 7.5 7.496h.003c4.143-.002 7.499-3.361 7.497-7.504-.002-3.884 3.156-7.045 7.039-7.047h.004c3.889 0 7.04 3.146 7.042 7.04.002 4.141 3.359 7.496 7.5 7.496h.004c4.143-.002 7.498-3.361 7.496-7.504-.006-12.174-9.858-22.032-22.042-22.032zm309.093 16.742 2.795-5.561c20.127-40.048 5.506-88.943-32.433-111.635 3.113-31.501-17.822-59.243-47.322-67.522-8.724-8.787-19.399-15.681-31.006-19.999-3.881-1.441-8.2.533-9.644 4.414-1.444 3.883.532 8.2 4.414 9.645 3.035 1.129 5.985 2.486 8.837 4.028-24.902 3.326-45.594 20.098-53.425 43.201-52.708-24.273-117.333-25.45-172.597 0-7.829-23.104-28.523-39.872-53.423-43.199 28.941-15.505 54.018-4.871 58.436-4.525 8.492 1.945 17.247-.562 23.426-6.701l8.162-8.113c27.402-27.236 71.977-27.225 99.364.027l8.159 8.118c6.176 6.146 14.937 8.658 23.433 6.712 7.685-1.673 11.367-2.857 17.616-3.537 4.118-.449 7.092-4.151 6.643-8.27-.449-4.116-4.148-7.093-8.269-6.642-7.433.812-11.824 2.203-19.336 3.828-3.444.788-7-.229-9.506-2.724l-8.159-8.118c-33.218-33.055-87.282-33.068-120.519-.033l-8.162 8.113c-2.506 2.491-6.061 3.507-9.503 2.719l-9.363-2.145c-28.727-6.582-59.104 2.305-79.822 23.201-29.585 8.302-50.422 36.108-47.323 67.514-37.922 22.683-52.548 71.562-32.447 111.599l2.814 5.606c1.463 2.915 1.445 6.386-.046 9.279l-.168.326c-23.354 45.296-2.088 101.152 45.937 119.168 3.121 1.172 5.483 3.798 6.317 7.025 1.156 2.509 5.423 38.413 42.469 59.216 10.629 5.968 22.115 9.513 33.845 10.611-5.759 11.56-9.722 23.856-11.794 36.712-1.722 10.684 3.639 21.04 13.341 25.77 3.707 1.81 8.206.283 10.028-3.454 1.816-3.724.269-8.213-3.455-10.028-3.716-1.813-5.768-5.791-5.105-9.9 2.244-13.917 6.988-27.099 14.102-39.245 10.809-1.191 17.513-3.88 21.143-4.857 3.572-1.086 7.454-.137 10.127 2.474 5.557 5.034 11.774 12.989 24.98 20.549-6.899 9.101-11.272 20.15-12.584 31.901h-20.542c-4.142 0-7.5 3.357-7.5 7.5s3.358 7.5 7.5 7.5h179.044c14.967 0 26.34-13.424 23.957-28.208-2.072-12.851-6.026-25.148-11.781-36.705 33.792-3.159 65.213-26.854 74.751-63.719l1.578-6.1c.786-3.038 2.911-5.691 6.435-7.066 47.762-18.008 69.222-73.728 45.798-119.133-.026-.102-2.774-4.53-.217-9.617zm-80.038-76.543c-8.714-13.834-19.589-26.459-32.224-37.511 14.234-21.646 34.145-33.891 59.3-36.467 18.923 27.074 5.325 64.235-27.076 73.978zm2.209 39.702c4.209 13.06 6.466 26.83 6.466 41.054 0 180.47-345.44 180.339-345.44 0 0-14.232 2.259-28.009 6.472-41.076 52.149 13.633 127.469-12.335 162.685-38.826 2.132-1.604 4.996-1.604 7.127 0 34.033 25.599 109.537 52.737 162.69 38.848zm11.527-126.688c-23.718 5.289-43.36 18.898-57.685 40.041-6.402-4.733-13.165-9.093-20.245-13.048 9.427-32.582 49.484-45.967 77.93-26.993zm-177.781 16.454c73.031 0 135.618 39.909 160.836 96.136-49.954 12.211-120.732-16.035-148.254-36.737-7.407-5.574-17.754-5.572-25.162 0-27.521 20.703-98.303 48.963-148.26 36.747 25.215-56.232 87.805-96.146 160.84-96.146zm-99.85 10.539c-7.08 3.955-13.842 8.315-20.244 13.047-14.325-21.144-33.971-34.749-57.689-40.038 28.442-18.974 68.503-5.599 77.933 26.991zm-91.271-13.985c25.155 2.576 45.067 14.821 59.3 36.467-12.635 11.052-23.51 23.677-32.224 37.511-32.397-9.742-46.001-46.902-27.076-73.978zm151.29 406.068c1.383-9.599 5.401-18.476 11.554-25.455 18.904 6.614 39.965 6.424 59.055-.94 6.653 7.114 10.973 16.33 12.414 26.396h-83.023zm143.393 0h-45.253c-1.375-12.385-6.128-23.923-13.661-33.264 11.576-7.117 17.05-14.01 22.696-19.188 2.673-2.61 6.555-3.557 10.128-2.473 3.587.967 10.318 3.665 21.137 4.861 7.114 12.144 11.857 25.326 14.101 39.242.897 5.568-3.304 10.822-9.148 10.822zm127.404-239.058c19.261 37.336 1.748 83.395-37.854 98.261-7.334 2.667-13.447 9.115-15.567 17.309-1.198 2.629-4.209 32.44-35.304 49.893-30.712 17.236-57.909 4.615-60.411 4.318-8.813-2.674-18.379-.339-24.967 6.096l-7.632 7.455c-27.384 26.748-71.062 26.758-98.46-.002l-7.627-7.45c-6.587-6.434-16.151-8.77-24.963-6.097-2.476.293-29.739 12.885-60.405-4.334-16.895-9.487-28.869-25.043-33.717-43.803l-1.573-6.088c-2.056-7.955-7.876-14.428-15.57-17.315-39.401-14.781-57.219-60.728-37.877-98.244l.169-.326c3.685-7.148 3.731-15.705.123-22.89l-2.814-5.606c-15.823-31.518-5.538-69.672 22.634-89.331 6.549 17.597 20.875 31.858 39.285 38.43-28.776 57.213-21.509 131.361 39.6 177.715 104.583 79.339 319.687 40.188 319.687-110.266 0-24.001-5.779-46.826-16.155-67.454 18.41-6.571 32.738-20.83 39.288-38.425 28.189 19.666 38.467 57.84 22.622 89.369l-2.795 5.562c-6.218 12.366.249 23.081.283 23.223z"/></g></svg>