<svg id="Capa_1" enable-background="new 0 0 512 512" height="512" viewBox="0 0 512 512" width="512" xmlns="http://www.w3.org/2000/svg"><g><path d="m120.195 7.5c27.818 0 46.334 59.863 46.334 101.472 0 26.147-18.516 51.545-46.334 51.545s-46.334-25.397-46.334-51.545c0-41.609 18.516-101.472 46.334-101.472z" fill="#f5ea72"/><path d="m146.462 408.24c15.772 15.772 13.71 43.406-4.605 61.721-12.786 12.786-38.056 26.779-63.357 28.154-14.102.766-23.586-13.96-17.333-26.624 10.95-22.176 6.993-42.066 23.574-58.647 18.315-18.315 45.949-20.377 61.721-4.604z" fill="#6171a3"/><ellipse cx="138.262" cy="388.804" fill="#475a99" rx="53.112" ry="45.737"/><ellipse cx="67.098" cy="270.012" fill="#ffcbbe" rx="47.993" ry="42.979"/><ellipse cx="444.902" cy="270.012" fill="#ffcbbe" rx="47.993" ry="42.979"/><path d="m357.328 504.5c10.133 0 17.808-9.089 16.196-19.093-9.136-56.671-58.275-99.953-117.523-99.953s-108.387 43.283-117.523 99.953c-1.613 10.004 6.063 19.093 16.196 19.093z" fill="#d2996f"/><path d="m256 385.454c-56.537 0-103.867 39.412-116.018 92.26.482.046.961.103 1.447.131 5.306.314 11.082.473 17.166.473 32.369 0 67.703-4.264 94.517-11.405.944-.251 1.916-.379 2.889-.379s1.945.128 2.889.379c26.816 7.143 62.15 11.406 94.518 11.405 6.085 0 11.86-.159 17.165-.473.486-.029.965-.085 1.447-.131-12.153-52.848-59.483-92.26-116.02-92.26z" fill="#cb775a"/><path d="m256 363.7c65.087 0 109.231 39.802 124.409 67.984 4.757 8.833-1.359 19.613-11.374 20.206-27.227 1.612-70.172-1.237-103.455-10.101-6.281-1.673-12.879-1.673-19.16 0-33.283 8.864-76.228 11.713-103.455 10.101-10.015-.593-16.131-11.373-11.374-20.206 15.178-28.182 59.322-67.984 124.409-67.984z" fill="#f1b260"/><path d="m443.152 260.002c0 91.069-83.791 148.303-187.152 148.303s-187.152-57.235-187.152-148.303 83.791-164.894 187.152-164.894 187.152 73.826 187.152 164.894z" fill="#ffddcf"/><path d="m256 168.135c29.802 20.399 140.869 69.207 187.948 77.002 8.331 1.379 15.683-5.472 15.071-13.894-8.858-121.928-128.971-156.404-203.019-156.404s-194.161 34.476-203.019 156.405c-.612 8.422 6.74 15.273 15.071 13.894 47.079-7.796 158.146-56.604 187.948-77.003z" fill="#6171a3"/><path d="m256 200.735c66.565 0 135.745-10.118 189.429-26.486 5.705-1.739 8.308-8.283 5.447-13.516-7.394-13.528-16.761-25.877-28.03-36.936-6.234-6.117-15.217-8.485-23.725-6.513-45.695 10.587-99.525 16.453-143.121 16.453-43.595 0-97.425-5.866-143.121-16.453-8.508-1.971-17.492.396-23.725 6.513-11.27 11.059-20.636 23.408-28.03 36.936-2.861 5.234-.258 11.777 5.447 13.516 53.684 16.369 122.864 26.486 189.429 26.486z" fill="#f1b260"/><g><g><ellipse cx="176.355" cy="295.94" fill="#eda1ab" rx="29.387" ry="23.403"/><ellipse cx="335.645" cy="295.94" fill="#eda1ab" rx="29.387" ry="23.403"/><path d="m279.694 277.959c0-14.643-10.608-16.019-23.694-16.019-13.085 0-23.693 1.376-23.693 16.019s10.608 26.513 23.693 26.513c13.086 0 23.694-11.87 23.694-26.513z" fill="#4e5660"/></g></g><path d="m155.744 125.509 66.874 74.397c11.144.543 22.299.83 33.382.83s22.238-.287 33.382-.83l66.874-74.397c-34.235 5.352-69.75 8.228-100.256 8.228s-66.021-2.876-100.256-8.228z" fill="#d2996f"/><path d="m465.808 223.257c-1.822-16.256-5.689-31.577-11.537-45.713 5.566-5.27 6.899-13.616 3.186-20.407-7.729-14.143-17.607-27.16-29.358-38.692-7.61-7.468-18.29-10.694-28.878-8.824-11.897-8.454-25.276-15.835-39.86-21.934-3.822-1.598-8.215.203-9.813 4.025-1.599 3.821.204 8.215 4.025 9.813 8.807 3.684 17.115 7.867 24.878 12.48-39.644 7.731-84.092 12.234-122.451 12.234-38.377 0-82.85-4.507-122.509-12.245 49.016-29.194 105.206-31.655 122.509-31.655 14.844 0 38.163 1.442 64.954 8.316 4.015 1.026 8.1-1.388 9.128-5.4 1.029-4.013-1.389-8.1-5.401-9.129-52.083-13.364-104.506-11.034-153 4.552-2.841-18.143-8.058-35.77-14.741-49.446-12.614-25.813-26.944-31.232-36.745-31.232-36.873 0-53.834 71.152-53.834 108.972 0 8.087 1.598 16.185 4.607 23.711-6.224 7.684-11.727 15.857-16.426 24.453-3.676 6.726-2.431 15.09 3.186 20.408-5.848 14.136-9.715 29.457-11.536 45.713-20.602 7.65-34.588 26.223-34.588 46.755 0 29.94 28.964 54.105 62.829 50.026 5.339 11.362 12.107 21.813 20.487 31.573-16.58 14.816-21.205 36.053-13.95 54.451-20.144 18.818-15.863 40.511-26.527 62.109-8.814 17.847 4.667 38.505 24.464 37.433 18.902-1.027 37.595-8.549 51.86-17.548 0 13.166 10.646 23.945 23.906 23.945h11.034c4.142 0 7.5-3.357 7.5-7.5s-3.358-7.5-7.5-7.5h-11.034c-5.605 0-9.655-5.038-8.791-10.399 1.49-9.248 4.155-18.249 7.917-26.828 29.271.412 66.078-3.152 94.552-10.736 5.004-1.331 10.295-1.333 15.3 0 30.444 8.108 67.925 11.111 94.552 10.736 3.762 8.579 6.427 17.581 7.917 26.829.863 5.36-3.185 10.399-8.791 10.399h-155.604c-4.142 0-7.5 3.357-7.5 7.5s3.358 7.5 7.5 7.5h155.603c14.745 0 25.948-13.227 23.6-27.786-1.412-8.765-3.762-17.33-6.981-25.586 12.969-3.593 19.582-18.402 13.067-30.499-6.308-11.713-16.009-23.394-27.88-33.716 33.89-15.721 62.481-40.426 78.434-74.375 33.992 4.094 62.828-20.191 62.828-50.026 0-20.534-13.986-39.108-34.588-46.757zm-64.994-98.666c6.145-1.424 12.417.281 16.779 4.561 10.697 10.497 19.681 22.333 26.702 35.18.579 1.059.11 2.391-1.054 2.745-40.222 12.263-87.912 20.663-136.044 24.229l52.866-58.813c14.059-2.258 27.79-4.899 40.751-7.902zm-63.913 11.231-51.007 56.746c-19.964.879-39.347.9-59.787 0l-51.007-56.746c56.314 7.131 104.648 7.237 161.801 0zm-243.346-90.392c7.774-19.339 17.484-30.43 26.64-30.43 15.185 0 31.63 31.872 37.095 70.801-9.886 3.876-19.853 8.557-29.595 14.209v-35.465c0-4.143-3.358-7.5-7.5-7.5s-7.5 3.357-7.5 7.5v45.059c-10.563-1.837-21.205 1.394-28.794 8.842-.443.434-.864.885-1.301 1.324-.811-3.543-1.238-7.172-1.238-10.797-.001-20.483 4.672-44.83 12.193-63.543zm-25.85 118.9c7.021-12.846 16.005-24.682 26.702-35.179 4.375-4.294 10.654-5.981 16.779-4.561 12.961 3.003 26.692 5.644 40.751 7.901l52.866 58.813c-48.132-3.566-95.822-11.965-136.045-24.229-1.173-.356-1.627-1.695-1.053-2.745zm-41.1 105.682c0-12.904 7.802-24.424 20.108-30.664 2.345 6.383 7.816 11.435 14.841 12.978-.945 18.244 1.384 36.275 7.025 53.126-23.461.777-41.974-15.87-41.974-35.44zm40.221-32.275c-3.54.587-6.626-2.364-6.365-5.949 1.26-17.336 4.965-33.539 11.025-48.267 29.83 8.593 63.267 15.172 97.762 19.371-37.436 15.901-78.642 30.909-102.422 34.845zm38.431 124.736c14.112 13.454 30.27 23.897 47.612 31.941-11.047 9.609-20.215 20.392-26.517 31.284-32.687-7.449-45.299-41.987-21.095-63.225zm30.291 103.163c-12.273 11.684-35.51 23.798-57.455 24.989-8.412.479-13.898-8.325-10.201-15.814 11.036-22.347 7.779-41.005 20.916-55.359 8.032 9.974 19.872 17.488 33.757 20.762.844 8.499 6.795 16.003 15.486 18.412-.902 2.314-1.742 4.65-2.503 7.01zm238.258-30.395c2.139 3.972-.632 8.891-5.214 9.162-25.242 1.502-67.639-.955-101.082-9.861-7.53-2.006-15.49-2.006-23.021 0-33.442 8.906-75.84 11.355-101.081 9.861-4.568-.27-7.361-5.177-5.214-9.163 6.353-11.798 17.302-24.14 30.354-34.317 26.401 9.732 56.165 14.882 87.451 14.882s61.05-5.15 87.451-14.882c13.053 10.177 24.002 22.52 30.356 34.318zm-117.806-34.435c-97.477 0-185.542-54.225-179.348-149.699 33.264-7.215 85.527-28.143 122.926-45.159 37.178 2.968 73.71 3.124 112.843 0 37.399 17.016 89.663 37.944 122.926 45.159 6.179 95.228-81.52 149.699-179.347 149.699zm86.752-197.913c34.495-4.2 67.932-10.778 97.761-19.371 6.059 14.728 9.765 30.931 11.025 48.267.261 3.579-2.821 6.535-6.365 5.949-23.779-3.937-64.985-18.945-102.421-34.845zm100.669 102.562c5.825-17.398 7.93-35.453 7.031-53.132 7.05-1.551 12.501-6.619 14.836-12.976 12.306 6.24 20.108 17.76 20.108 30.665 0 20.41-19.476 36.188-41.975 35.443zm-262.153-56.955c-4.142 0-7.5 3.357-7.5 7.5v12c0 4.143 3.358 7.5 7.5 7.5s7.5-3.357 7.5-7.5v-12c0-4.143-3.358-7.5-7.5-7.5zm94.878 9.27c-5.448-2.763-11.994-3.329-20.146-3.329s-14.697.566-20.145 3.329c-5.04 2.556-11.048 8.133-11.048 20.19 0 18.755 13.993 34.013 31.193 34.013s31.193-15.258 31.193-34.013c0-12.058-6.008-17.635-11.047-20.19zm-20.146 39.202c-8.929 0-16.193-8.529-16.193-19.013 0-5.907.655-8.519 16.193-8.519s16.193 2.611 16.193 8.519c0 10.483-7.264 19.013-16.193 19.013zm74.732-48.472c-4.142 0-7.5 3.357-7.5 7.5v12c0 4.143 3.358 7.5 7.5 7.5s7.5-3.357 7.5-7.5v-12c0-4.143-3.357-7.5-7.5-7.5z"/></g></svg>