<svg id="Capa_1" enable-background="new 0 0 512 512" height="512" viewBox="0 0 512 512" width="512" xmlns="http://www.w3.org/2000/svg"><g><ellipse cx="255.997" cy="119.793" fill="#f5ea72" rx="136.597" ry="112.293"/><path d="m476.687 223.748c0 56.547-98.805 102.388-220.687 102.388s-220.687-45.841-220.687-102.388 98.805-81.353 220.687-81.353 220.687 24.806 220.687 81.353z" fill="#d2996f"/><ellipse cx="72.738" cy="277.013" fill="#f2bb88" rx="46.56" ry="41.695"/><ellipse cx="439.262" cy="277.013" fill="#f2bb88" rx="46.56" ry="41.695"/><path d="m354.302 504.5c9.83 0 17.277-8.818 15.712-18.523-8.863-54.979-56.535-96.969-114.014-96.969s-105.151 41.99-114.014 96.969c-1.564 9.705 5.882 18.523 15.712 18.523z" fill="#efedff"/><path d="m256 438.178c29.678 0 58.14-4.475 83.956-12.981-21.055-22.282-50.88-36.189-83.956-36.189s-62.901 13.907-83.956 36.189c25.816 8.506 54.278 12.981 83.956 12.981z" fill="#d4d4ff"/><g><path d="m198.659 459.985h114.682v44.515h-114.682z" fill="#475a99"/><g fill="#6171a3"><path d="m198.659 391.351h35.244v68.634h-35.244z"/><path d="m278.097 391.351h35.244v68.634h-35.244z"/></g></g><path d="m278.097 437.33c12.056-.923 23.837-2.602 35.244-5.003v-40.976h-35.244z" fill="#475a99"/><path d="m198.659 432.327c11.407 2.401 23.189 4.08 35.244 5.003v-45.979h-35.244z" fill="#475a99"/><path d="m437.564 267.302c0 88.349-81.289 143.875-181.564 143.875s-181.564-55.525-181.564-143.875c0-88.349 81.289-159.971 181.564-159.971s181.564 71.622 181.564 159.971z" fill="#f2d1a5"/><path d="m355.387 111.05c20.092 12.177 78.541 53.385 82.291 136.836.402 8.95-9.474 14.617-17.012 9.774-22.774-14.633-57.659-41.673-74.334-66.375-2.02-2.993-6.564-2.375-7.778 1.026-3.382 9.478-7.037 16.781-10.585 22.263-3.235 4.999-9.437 7.267-15.114 5.472-15.728-4.971-40.057-20.715-53.49-36.612-1.769-2.094-4.963-2.094-6.732 0-13.433 15.897-37.762 31.641-53.49 36.612-5.677 1.795-11.879-.473-15.114-5.472-3.548-5.482-7.203-12.785-10.585-22.263-1.214-3.401-5.758-4.019-7.778-1.026-16.674 24.702-51.559 51.742-74.334 66.375-7.538 4.843-17.414-.824-17.012-9.774 3.75-83.451 62.199-124.659 82.291-136.836z" fill="#de5c6e"/><path d="m476.687 223.748c0-56.547-98.805-81.353-220.687-81.353s-220.687 24.806-220.687 81.353c0-74.778 83.764-142.324 220.684-142.324s220.684 67.546 220.684 142.324z" fill="#ebca5f"/><path d="m415.819 426.283c4.494 1.443 9.352 1.443 13.846 0 36.783-11.812 56.521 13.186 53.982 40.239-2.423 25.813-21.575 37.978-60.905 37.978s-58.482-12.166-60.905-37.978c-2.539-27.053 17.198-52.051 53.982-40.239z" fill="#de5c6e"/><g><g><path d="m203.743 298.305c.007 13.438-13.667 24.338-30.541 24.346s-30.559-10.878-30.566-24.316 13.667-24.338 30.541-24.347c16.875-.007 30.56 10.88 30.566 24.317z" fill="#eda1ab"/><path d="m308.246 298.253c.007 13.438 13.691 24.324 30.566 24.315 16.874-.008 30.548-10.909 30.541-24.346-.007-13.438-13.691-24.324-30.566-24.316-16.874.009-30.548 10.909-30.541 24.347z" fill="#eda1ab"/><path d="m285.938 287.264c-.009-18.509-13.419-20.242-29.96-20.233-16.541.008-29.949 1.754-29.939 20.263.009 18.509 13.426 33.506 29.966 33.498s29.943-15.019 29.933-33.528z" fill="#4e5660"/></g></g><path d="m306.437 279.277h.004c4.142-.002 7.498-3.361 7.496-7.504-.002-3.883 3.155-7.044 7.04-7.046h.004c3.888 0 7.039 3.145 7.041 7.039.002 4.141 3.359 7.496 7.5 7.496h.004c4.142-.002 7.498-3.361 7.496-7.504-.006-12.172-9.856-22.031-22.04-22.031-.004 0-.009 0-.014 0-12.154.006-22.037 9.9-22.031 22.054.002 4.141 3.359 7.496 7.5 7.496zm-12.999 7.984c-.006-11.429-4.344-19.418-12.892-23.748-6.514-3.299-14.489-3.981-24.455-3.981-.039 0-.078 0-.117 0-10.02.005-18.032.688-24.568 4.006-8.544 4.339-12.874 12.333-12.868 23.762.011 22.608 16.811 40.994 37.454 40.994h.016c20.651-.012 37.441-18.419 37.43-41.033zm-37.445 26.032c-12.374 0-22.446-11.663-22.454-26.002-.003-7.041 2.237-9.149 4.659-10.379 4.11-2.087 10.977-2.378 17.784-2.381h.126c6.766 0 13.574.293 17.66 2.363 2.424 1.227 4.666 3.333 4.67 10.374.007 14.343-10.059 26.018-22.436 26.024-.004.001-.005.001-.009.001zm223.527 127.732c-3.947 1.256-6.129 5.474-4.874 9.421 1.504 4.728 2.035 10.044 1.535 15.374-1.363 14.517-8.668 31.18-53.438 31.18s-52.075-16.663-53.439-31.18c-1.124-11.983 2.864-22.882 10.67-29.153 8.156-6.551 19.758-7.672 33.554-3.242 5.941 1.906 12.487 1.907 18.431-.001 8.494-2.728 16.16-3.355 22.786-1.862 4.041.913 8.054-1.627 8.964-5.669.91-4.041-1.628-8.054-5.669-8.964-7.443-1.678-15.564-1.524-24.206.441 2.626-6.425 6.34-13.48 11.574-19.968 2.601-3.224 2.097-7.946-1.127-10.547-3.226-2.603-7.947-2.096-10.547 1.127-8.344 10.341-13.418 21.75-16.448 30.915-23.784-7.354-46.622-1.574-57.619 19.51-7.565-11.804-17.141-22.314-28.203-30.952 43.244-13.7 81.466-40.625 100.816-81.665 32.893 3.876 61.043-19.618 61.043-48.777 0-12.296-4.994-23.543-13.219-32.176 2.751-7.047 4.228-14.477 4.071-22.254-.557-52.642-37.87-93.346-84.645-117.63-5.973-79.214-63.468-104.953-143.533-104.953-37.973 0-67.522 5.718-90.337 17.481-3.682 1.899-5.127 6.422-3.229 10.104 1.898 3.681 6.421 5.127 10.103 3.229 20.352-10.494 48.432-15.814 83.463-15.814 46.32 0 80.325 9.335 101.069 27.746 14.657 13.007 23.404 31 26.603 54.724-36.272-15.482-79.611-23.545-127.673-23.545-48.064 0-91.404 8.063-127.677 23.547 2.514-18.764 8.453-33.833 18.059-45.767 2.598-3.228 2.087-7.948-1.14-10.546-3.226-2.597-7.948-2.085-10.545 1.14-13.005 16.157-20.294 36.695-22.244 62.662-47.06 24.435-84.636 65.569-84.636 118.787 0 7.113 1.387 14.182 4.083 21.089-8.224 8.633-13.219 19.881-13.219 32.176 0 29.262 28.272 52.638 61.043 48.777 19.366 41.074 57.608 67.957 100.728 81.638-24.454 18.987-40.88 46.421-45.868 77.356-2.3 14.26 8.673 27.216 23.116 27.216h196.605c8.176 0 15.422-4.141 19.66-10.758 11.32 7.199 27.522 10.758 48.78 10.758 43.18 0 65.544-14.647 68.372-44.778.686-7.319-.066-14.692-2.174-21.322-1.255-3.948-5.472-6.131-9.419-4.875zm-41.389-129.846c5.906-17.777 8.147-37.184 6.29-57.508 1.096-3.695.767-6.34.485-10.492 18.872 2.402 33.416 16.656 33.416 33.834 0 19.531-18.554 34.741-40.191 34.166zm31.053-87.359c-.007 3.771-.559 7.549-1.617 11.302-7.176-4.03-15.46-6.567-24.332-7.157-2.851-18.692-8.56-36.322-17.102-52.718 22.078 9.651 42.81 24.47 43.051 48.573zm-370.617-93.1c39.664-27.343 94.103-41.795 157.43-41.795s117.766 14.452 157.43 41.795c18.405 12.688 32.577 27.538 42.026 43.734-47.533-33.614-141.189-39.559-199.453-39.559-58.19 0-152.217 5.922-199.543 39.701 9.45-16.252 23.65-31.152 42.11-43.876zm-64.889 146.294c0-17.177 14.544-31.431 33.416-33.833-.28 4.125-.608 6.802.486 10.491-1.857 20.324.384 39.73 6.29 57.508-21.742.577-40.192-14.729-40.192-34.166zm35.086-49.048c-8.871.59-17.155 3.127-24.331 7.156-1.067-3.777-1.62-7.58-1.62-11.374 0-19.735 14.47-36.003 43.051-48.497-8.538 16.396-14.252 34.022-17.1 52.715zm39.366-60.821c37.164-11.293 88.087-17.249 147.87-17.249 59.784 0 110.707 5.956 147.871 17.249 16.103 23.885 24.969 51.141 26.316 81.077.128 2.857-3.031 4.691-5.466 3.129-25.31-16.263-57.441-42.439-72.171-64.261-5.45-8.078-17.777-6.495-21.06 2.701-2.921 8.189-6.224 15.157-9.816 20.708-1.413 2.185-4.11 3.169-6.558 2.396-13.86-4.381-37.268-19.209-50.022-34.302-4.767-5.64-13.428-5.636-18.19 0-12.752 15.093-36.16 29.921-50.022 34.302-2.447.773-5.144-.212-6.557-2.396-3.591-5.549-6.895-12.517-9.817-20.708-3.287-9.215-15.617-10.762-21.058-2.702-14.73 21.823-46.862 48-72.171 64.262-2.398 1.541-5.596-.218-5.466-3.128 1.346-29.936 10.212-57.194 26.317-81.078zm-26.183 99.458c4.713.887 9.479-.087 13.441-2.633 23.094-14.838 55.112-39.854 73.058-63.679 2.804 6.995 5.918 13.152 9.287 18.357 5.071 7.837 14.805 11.352 23.671 8.549 15.329-4.845 39.292-19.474 54.596-36.235 15.306 16.762 39.269 31.392 54.596 36.235 8.866 2.804 18.6-.713 23.672-8.548 3.37-5.209 6.483-11.366 9.286-18.359 17.944 23.823 49.964 48.841 73.059 63.68 4.065 2.613 8.867 3.496 13.443 2.633 1.15 182.707-349.213 182.765-348.109 0zm188.65 151.684v34.198h-29.193v-34.198c9.711.52 19.463.522 29.193 0zm-44.194-1.238v35.435h-20.244v-38.52c6.619 1.29 13.374 2.321 20.244 3.085zm-35.244 79.951h-33.461c-5.296 0-9.124-4.762-8.308-9.829 4.478-27.774 19.472-52.333 41.769-69.038zm114.682 0h-99.682v-29.516h99.682zm0-44.516h-20.244v-35.435c6.871-.764 13.626-1.795 20.244-3.085zm48.462 44.516h-33.462c0-17.573 0-64.962 0-78.844 14.3 10.788 25.879 25.119 33.347 41.383-.452 10.758 1.981 22.179 8.284 30.971-.871 3.692-4.141 6.49-8.169 6.49zm-163.317-247.207c-.004 0-.01 0-.014 0-12.155.006-22.038 9.899-22.032 22.054.002 4.141 3.359 7.496 7.5 7.496h.003c4.143-.002 7.499-3.361 7.497-7.504-.002-3.891 3.145-7.044 7.04-7.046h.004c3.888 0 7.039 3.145 7.041 7.039.002 4.141 3.359 7.496 7.5 7.496h.003c4.143-.002 7.499-3.361 7.497-7.504-.005-12.172-9.855-22.031-22.039-22.031z"/></g></svg>