<svg id="Capa_1" enable-background="new 0 0 511.981 511.981" height="512" viewBox="0 0 511.981 511.981" width="512" xmlns="http://www.w3.org/2000/svg"><g><ellipse cx="60.629" cy="261.975" fill="#b8866b" rx="49.634" ry="44.448"/><ellipse cx="451.352" cy="261.975" fill="#b8866b" rx="49.634" ry="44.448"/><path d="m360.783 504.481c10.479 0 18.417-9.4 16.749-19.746-9.448-58.609-60.268-103.371-121.542-103.371s-112.093 44.762-121.542 103.371c-1.668 10.346 6.27 19.746 16.749 19.746z" fill="#6171a3"/><path d="m255.991 381.364c-46.211 0-86.471 25.462-107.527 63.12 8.976 22.911 37.147 34.904 60.8 21.494l46.728-26.494 46.727 26.493c23.62 13.395 51.819 1.432 60.8-21.493-21.058-37.657-61.317-63.12-107.528-63.12z" fill="#475a99"/><path d="m329.206 385.156c3.817 6.203 6.828 25.945 7.218 43.49.218 9.8-10.382 16.07-18.909 11.235l-61.525-34.883-61.524 34.883c-8.528 4.835-19.127-1.435-18.909-11.235.391-17.544 3.401-37.287 7.218-43.49z" fill="#efedff"/><path d="m449.542 251.623c0 94.183-86.656 153.375-193.552 153.375s-193.552-59.192-193.552-153.375 86.657-170.533 193.552-170.533c106.896 0 193.552 76.35 193.552 170.533z" fill="#cc9e83"/><g fill="#6171a3"><path d="m74.112 127.211c-19.938 37.105-24.649 97.17-19.745 129.762.926 6.152 6.268 10.671 12.489 10.671h17.375c11.751 0 21.243-9.503 21.331-21.253.208-27.684 4.763-66.035 24.939-93.823z"/><path d="m437.869 127.211c19.938 37.105 24.649 97.17 19.745 129.762-.926 6.152-6.268 10.671-12.489 10.671h-17.375c-11.751 0-21.242-9.503-21.331-21.253-.208-27.684-4.763-66.035-24.94-93.823z"/><path d="m365.466 168.794c15.978-2.979 51.168-15.585 71.053-23.269 8.775-3.391 15.524-10.572 18.359-19.543 5.439-17.212 12.72-45.859 16.396-70.684 2.076-14.017-9.241-26.375-23.396-25.737-51.809 2.335-129.093-3.672-174.788-19.246-11.093-3.781-23.104-3.781-34.198 0-45.695 15.575-122.979 21.582-174.788 19.247-14.156-.638-25.472 11.719-23.396 25.737 3.676 24.825 10.957 53.471 16.396 70.684 2.835 8.97 9.583 16.152 18.359 19.543 19.885 7.684 55.074 20.289 71.053 23.269h218.95z"/></g><path d="m255.991 146.064c-84.732 0-162.543-27.863-206.142-46.015 2.477 9.868 5.021 18.866 7.255 25.934 2.835 8.97 9.583 16.152 18.358 19.543 19.885 7.684 55.074 20.289 71.053 23.269h218.951c15.979-2.979 51.168-15.585 71.053-23.269 8.775-3.391 15.524-10.572 18.358-19.543 2.234-7.068 4.777-16.066 7.255-25.934-43.599 18.151-121.409 46.015-206.141 46.015z" fill="#efedff"/><path d="m264.438 64.22 21.833-5.269c8.906-2.149 17.477 4.599 17.477 13.761v32.324c0 26.779-21.915 49.204-48.689 48.692-25.946-.496-46.826-21.684-46.826-47.748v-33.267c0-9.162 8.571-15.91 17.477-13.761l21.833 5.269c5.552 1.339 11.343 1.339 16.895-.001z" fill="#f5ea72"/><path d="m255.991 146.064c25.555 0 82.107 3.711 109.476 22.73-18.555 24.122-71.033 37.11-109.476 37.11s-90.921-12.989-109.476-37.11c27.369-19.019 83.92-22.73 109.476-22.73z" fill="#475a99"/><g><g fill="#eda1ab"><ellipse cx="177.614" cy="291.807" rx="28.92" ry="23.03"/><ellipse cx="334.367" cy="291.807" rx="28.92" ry="23.03"/></g></g><path d="m264.57 461.775c0-4.738-3.841-8.579-8.579-8.579s-8.58 3.841-8.58 8.579 3.841 8.58 8.58 8.58c4.738-.001 8.579-3.842 8.579-8.58zm10.95-184.595c-3.123-2.722-7.86-2.396-10.582.727-2.26 2.593-5.521 4.08-8.947 4.08-3.427 0-6.688-1.487-8.947-4.08-2.723-3.122-7.46-3.447-10.582-.727-3.122 2.722-3.448 7.459-.727 10.582 5.109 5.862 12.492 9.225 20.256 9.225s15.146-3.362 20.256-9.225c2.721-3.123 2.395-7.86-.727-10.582zm-81.052-31.699c-11.725 0-21.265 9.539-21.265 21.265 0 4.143 3.357 7.5 7.5 7.5s7.5-3.357 7.5-7.5c0-3.454 2.811-6.265 6.265-6.265s6.265 2.81 6.265 6.265c0 4.143 3.357 7.5 7.5 7.5s7.5-3.357 7.5-7.5c0-11.726-9.539-21.265-21.265-21.265zm271.796-33.66c-1.463-22.662-5.659-47.391-13.191-68.492 4.051-4.206 7.137-9.333 8.955-15.086 5.643-17.855 12.983-46.996 16.664-71.845 2.753-18.594-12.18-35.165-31.153-34.328-6.32.284-13.052.444-20.006.474-4.142.018-7.485 3.39-7.468 7.532.018 4.131 3.372 7.468 7.499 7.468 3.301-.046 10.207-.019 20.65-.489 9.544-.401 17.012 7.869 15.64 17.146-1.93 13.029-4.903 27.282-8.091 40.359-53.587 21.992-105.188 35.851-153.741 41.318 5.902-9.063 9.225-19.772 9.225-30.84v-32.325c0-14.006-13.089-24.338-26.737-21.053l-21.833 5.269c-4.375 1.057-9 1.057-13.375 0l-21.834-5.269c-13.62-3.283-26.736 7.023-26.736 21.053v33.267c0 10.713 3.194 21.058 8.856 29.855-48.447-5.495-99.923-19.34-153.372-41.275-3.188-13.077-6.161-27.33-8.091-40.359-1.374-9.289 6.115-17.556 15.64-17.146 52.64 2.37 130.521-3.612 177.546-19.639 9.465-3.227 19.892-3.227 29.358 0 28.583 9.741 72.327 16.746 120.016 19.219 4.132.222 7.664-2.965 7.879-7.102.214-4.137-2.966-7.664-7.102-7.879-46.364-2.403-88.628-9.123-115.954-18.436-12.586-4.291-26.449-4.291-39.037 0-33.423 11.39-105.076 21.862-172.029 18.852-18.891-.865-33.914 15.682-31.153 34.328 3.681 24.849 11.021 53.989 16.664 71.845 1.818 5.753 4.904 10.88 8.955 15.086-7.532 21.102-11.728 45.83-13.191 68.492-24.799 6.007-42.222 26.273-42.222 50.154 0 30.969 30.024 55.727 64.813 51.464 19.519 41.853 58.179 70.383 102.604 85.513-.423 2.352-.806 4.844-1.148 7.426-22.778 20.034-37.909 47.321-42.719 77.163-2.401 14.9 9.058 28.44 24.154 28.44h17.247c4.143 0 7.5-3.357 7.5-7.5s-3.357-7.5-7.5-7.5h-17.247c-5.958 0-10.264-5.355-9.346-11.053 3.377-20.947 12.516-40.469 26.216-56.502.348 15.152 16.819 24.506 30.097 16.979l57.825-32.785 57.825 32.785c13.294 7.537 29.729-1.847 30.096-16.95 13.693 16.029 22.84 35.534 26.216 56.474.919 5.698-3.387 11.053-9.345 11.053h-156.732c-4.143 0-7.5 3.357-7.5 7.5s3.357 7.5 7.5 7.5h156.732c15.087 0 26.557-13.534 24.153-28.44-4.811-29.841-19.94-57.127-42.716-77.16-.342-2.586-.728-5.075-1.15-7.43 44.443-15.136 83.1-43.684 102.608-85.525 34.605 4.303 64.808-20.36 64.808-51.452.001-23.881-17.423-44.147-42.222-50.154zm-15.235-99.199c-1.137 4.033-2.251 7.771-3.303 11.102-2.157 6.827-7.228 12.224-13.91 14.806-22.302 8.617-51.745 18.884-66.833 22.29-9.975-6.236-22.594-10.732-35.766-13.967 38.492-6.595 78.582-18.031 119.812-34.231zm-235.296-39.909c0-4.308 4.027-7.48 8.218-6.471l21.833 5.269c6.676 1.611 13.734 1.611 20.414 0l21.832-5.269c4.202-1.013 8.219 2.174 8.219 6.471v32.324c0 13.666-6.89 26.588-18.108 34.265-15.8-.984-28.874-.975-44.673.024-11.141-7.512-17.734-19.813-17.734-33.347v-33.266zm93.135 84.991c18.466 2.94 33.647 7.289 44.576 12.727-17.363 14.617-55.068 27.975-97.454 27.975s-80.091-13.357-97.454-27.975c10.929-5.438 26.11-9.786 44.576-12.727 34.303-5.464 71.38-5.475 105.756 0zm-128.088-10.856c-13.178 3.236-25.802 7.733-35.781 13.971-15.088-3.406-44.532-13.673-66.834-22.29-6.683-2.582-11.753-7.979-13.91-14.806-1.052-3.33-2.165-7.067-3.302-11.098 41.234 16.202 81.328 27.631 119.827 34.223zm-162.286 115.127c0-15.518 10.784-28.923 26.632-34.362-.103 11.44.532 21.896 1.823 30.477.897 5.955 4.462 11.004 9.356 14.03 1.237 9.242 3.308 18.176 6.188 26.762-23.489.988-43.999-15.577-43.999-36.907zm48.362-1.831c-2.524 0-4.705-1.843-5.072-4.287-3.863-25.665-1.482-69.231 9.967-103.758 4.205 1.759 24.428 9.332 41.654 15.051-12.269 26.604-15.178 57.244-15.343 79.185-.058 7.614-6.262 13.81-13.831 13.81h-17.375zm123.911 173.212c-3.48 1.972-7.801-.577-7.712-4.543.19-8.544 1.054-17.792 2.318-25.45 14.143 3.833 29.004 6.496 44.33 7.917zm130.447 0-38.936-22.076c15.326-1.422 30.187-4.085 44.331-7.918 1.264 7.654 2.127 16.905 2.317 25.45.088 3.96-4.229 6.522-7.712 4.544zm61.351-71.543c-33.267 23.012-78.218 35.685-126.574 35.685s-93.308-12.673-126.574-35.685c-31.685-21.917-51.401-51.746-57.456-86.669h12.27c15.777 0 28.711-12.873 28.831-28.696.157-20.908 2.931-50.195 14.774-74.724 5.443 1.626 10.428 2.974 14.576 3.883 21.327 24.57 73.75 37.798 113.579 37.798s92.251-13.229 113.579-37.798c4.148-.909 9.132-2.257 14.576-3.883 11.844 24.529 14.618 53.816 14.775 74.724.12 15.823 13.054 28.696 28.831 28.696h12.272c-6.056 34.923-25.775 64.752-57.459 86.669zm62.56-101.669h-17.375c-7.569 0-13.773-6.195-13.831-13.81-.165-21.941-3.088-52.575-15.359-79.179 17.154-5.695 37.646-13.37 41.673-15.058 11.448 34.528 13.826 78.096 9.964 103.76-.367 2.444-2.547 4.287-5.072 4.287zm4.364 38.732c2.88-8.585 4.95-17.517 6.186-26.757 4.894-3.026 8.459-8.074 9.356-14.03 1.292-8.583 1.927-19.044 1.823-30.489 15.851 5.439 26.632 18.854 26.632 34.374.001 21.45-20.581 37.851-43.997 36.902zm-131.976-53.395c-11.726 0-21.265 9.539-21.265 21.265 0 4.143 3.357 7.5 7.5 7.5s7.5-3.357 7.5-7.5c0-3.454 2.811-6.265 6.265-6.265s6.265 2.81 6.265 6.265c0 4.143 3.357 7.5 7.5 7.5s7.5-3.357 7.5-7.5c0-11.726-9.54-21.265-21.265-21.265z"/></g></svg>