<svg id="Capa_1" enable-background="new 0 0 512 512" height="512" viewBox="0 0 512 512" width="512" xmlns="http://www.w3.org/2000/svg"><g><path d="m101.613 112.294c23.977 23.977 29.785 57.043 12.973 73.855s-53.42 20.531-74.654-7.316c-18.319-24.023-30.477-62.792-16.744-83.252 13.25-19.742 54.448-7.264 78.425 16.713z" fill="#f5ea72"/><path d="m49.397 188.493c21.394 16.908 50.67 12.174 65.189-2.345 16.364-16.364 11.291-48.125-11.102-71.917-.522.451-1.051.894-1.57 1.35-23.713 20.894-41.465 45.735-52.517 72.912z" fill="#ebca5f"/><path d="m410.448 112.294c-23.977 23.977-29.785 57.043-12.973 73.855s53.42 20.531 74.654-7.316c18.318-24.023 30.476-62.792 16.744-83.252-13.25-19.742-54.449-7.264-78.425 16.713z" fill="#f5ea72"/><path d="m462.664 188.493c-21.394 16.908-50.67 12.174-65.189-2.345-16.364-16.364-11.291-48.125 11.102-71.917.522.451 1.052.894 1.57 1.35 23.713 20.894 41.465 45.735 52.517 72.912z" fill="#ebca5f"/><path d="m150.645 44.052h51.49v90.208h-51.49z" fill="#d2996f"/><ellipse cx="176.39" cy="32.562" fill="#f5ea72" rx="40.191" ry="25.062"/><path d="m309.925 44.052h51.49v90.208h-51.49z" fill="#d2996f" transform="matrix(-1 0 0 -1 671.341 178.311)"/><ellipse cx="335.67" cy="32.562" fill="#f5ea72" rx="40.191" ry="25.062"/><path d="m358.849 504.5c10.282 0 18.07-9.223 16.434-19.374-9.27-57.505-59.133-101.424-119.253-101.424s-109.982 43.919-119.252 101.424c-1.636 10.151 6.152 19.374 16.434 19.374z" fill="#f5ea72"/><path d="m256.03 436.891c31.52 0 61.741-4.805 89.123-13.924-22.086-24.128-53.835-39.264-89.123-39.264s-67.037 15.136-89.123 39.264c27.382 9.119 57.604 13.924 89.123 13.924z" fill="#ebca5f"/><path d="m149.029 448.401c42.559 12.788 110.329 6.988 96.849-64.271-42.138 3.507-78.129 28.639-96.849 64.271z" fill="#d2996f"/><path d="m360.57 443.947c-33.508 9.262-59.844 38.228-70.922 60.553h69.201c10.282 0 18.07-9.223 16.434-19.374-2.386-14.8-7.467-28.696-14.713-41.179z" fill="#d2996f"/><path d="m166.92 422.971c21.348 7.109 44.423 11.59 68.493 13.219 10.166-10.932 15.082-27.656 10.465-52.06-31.196 2.596-59.014 17.054-78.958 38.841z" fill="#cb775a"/><path d="m445.936 256.405c0 92.409-85.024 150.486-189.906 150.486s-189.906-58.078-189.906-150.486 85.024-167.321 189.906-167.321 189.906 74.912 189.906 167.321z" fill="#f5ea72"/><path d="m427.456 184.33c-12.49-23.018-30.777-43.124-53.194-58.858-16.069 29.208-10.142 69.362 53.194 58.858z" fill="#d2996f"/><path d="m66.182 260.441c11.928-2.511 25.771-9.141 31.663-27.598 5.632-17.643 6.577-39.581-12.823-49.283-12.106 22.022-18.898 46.734-18.898 72.844 0 1.354.022 2.699.058 4.037z" fill="#d2996f"/><ellipse cx="256.03" cy="165.474" fill="#ebca5f" rx="46.064" ry="41.072"/><ellipse cx="256.03" cy="274.045" fill="#cc9e83" rx="134.368" ry="88.357"/><g><path d="m206.073 283.536c-.04 12.848-13.152 23.222-29.285 23.171s-29.179-10.506-29.139-23.354 13.151-23.222 29.285-23.172c16.133.051 29.179 10.508 29.139 23.355z" fill="#eda1ab"/><path d="m305.987 283.849c-.04 12.848 13.006 23.304 29.139 23.354s29.245-10.324 29.285-23.171c.04-12.848-13.006-23.304-29.139-23.355-16.133-.05-29.244 10.324-29.285 23.172z" fill="#eda1ab"/><path d="m279.638 265.893c.046-14.555-10.495-15.956-23.502-15.997s-23.556 1.294-23.602 15.849c-.045 14.555 10.462 26.388 23.47 26.428 13.007.041 23.589-11.725 23.634-26.28z" fill="#4e5660"/></g><path d="m365.981 205.615c-23.739-18.199-60.732-27.427-109.951-27.427s-86.212 9.227-109.951 27.427c-21.179 16.235-31.917 39.259-31.917 68.43 0 29.172 10.738 52.194 31.917 68.431 23.739 18.199 60.732 27.427 109.951 27.427s86.212-9.228 109.951-27.427c21.179-16.236 31.917-39.259 31.917-68.431 0-29.171-10.738-52.194-31.917-68.43zm-109.951 149.287c-84.184 0-126.868-27.204-126.868-80.857 0-53.652 42.685-80.856 126.868-80.856s126.868 27.204 126.868 80.856c0 53.653-42.684 80.857-126.868 80.857zm20.164-109.129c-5.415-2.768-11.926-3.351-20.035-3.376-8.102-.069-14.623.518-20.056 3.251-5.028 2.53-11.031 8.066-11.069 20.074-.058 18.667 13.825 33.898 30.946 33.952h.09c17.08 0 31.01-15.124 31.068-33.758.038-12.008-5.93-17.582-10.944-20.143zm-20.124 38.901c-.014 0-.028 0-.043 0-8.851-.028-16.025-8.509-15.993-18.905.017-5.315 1.767-6.196 2.812-6.722 2.841-1.43 7.979-1.651 12.744-1.651 3.771 0 10.456.036 13.779 1.734 1.042.532 2.786 1.424 2.77 6.739-.033 10.38-7.238 18.805-16.069 18.805zm62.408-128.081c4.143 0 7.5-3.357 7.5-7.5v-12c0-4.143-3.357-7.5-7.5-7.5s-7.5 3.357-7.5 7.5v12c0 4.142 3.358 7.5 7.5 7.5zm155.887-77.73c-4.091-.666-7.941 2.118-8.602 6.207-.66 4.09 2.118 7.94 6.207 8.602 4.903.792 8.495 2.841 10.675 6.089 11.299 16.833.6 52.124-16.48 74.525-8.397 11.013-18.572 15.303-26.922 16.779-3.537-7.786-7.715-15.339-12.51-22.611 9-11.139 20.435-23.202 33.334-35.136 3.04-2.813 3.225-7.559.411-10.599-2.813-3.041-7.56-3.225-10.599-.411-12.42 11.492-23.233 22.758-32.253 33.589-4.996-6.272-10.494-12.283-16.462-18.003 8.287-17.063 23.349-30.321 40.598-38.226 3.766-1.726 5.42-6.177 3.694-9.942-1.725-3.766-6.178-5.419-9.942-3.694-19.33 8.858-35.869 23.259-45.944 41.618-6.56-5.345-13.456-10.264-20.656-14.725v-53.655c9.922-5.151 14.446-13.854 14.446-26.707.001-22.825-14.261-32.563-47.69-32.563-33.428 0-47.69 9.738-47.69 32.563 0 12.853 4.524 21.556 14.445 26.707v27.154c-29.425-6.246-61.428-6.658-92.789 0v-27.154c9.921-5.151 14.445-13.854 14.445-26.707 0-22.825-14.263-32.563-47.69-32.563-33.429 0-47.691 9.738-47.691 32.563 0 12.853 4.524 21.556 14.445 26.707v53.656c-7.198 4.459-14.092 9.377-20.65 14.721-23.19-42.249-85.852-65.575-105.535-36.246-15.568 23.195-3.578 64.981 17.008 91.98 8.562 11.228 20.12 18.756 33.207 21.818-12.778 37.158-11.956 80.37 7.222 117.17 21.04 40.37 59.942 66.84 103.369 80.477-25.805 19.818-43.153 48.593-48.392 81.087-2.37 14.703 8.939 28.067 23.839 28.067h19.118c4.143 0 7.5-3.357 7.5-7.5s-3.357-7.5-7.5-7.5h-19.118c-5.765 0-9.916-5.182-9.03-10.681 1.64-10.17 4.631-19.926 8.814-29.068 43.63 10.735 92.842 1.395 100.98-42.878 21.367.152 41.884-2.031 61.348-6.424 13.557 8.334 25.007 19.227 33.829 31.917-28.726 11.199-51.937 35.329-64.026 57.134h-77.572c-4.143 0-7.5 3.357-7.5 7.5s3.357 7.5 7.5 7.5h151.294c14.894 0 26.209-13.359 23.838-28.067-5.237-32.492-22.585-61.269-48.389-81.087 43.435-13.639 82.33-40.114 103.367-80.476 10.466-20.083 15.772-42.276 15.772-65.965 0-17.623-2.921-34.842-8.558-51.226 13.089-3.059 24.652-10.569 33.214-21.798 28.856-37.845 36.461-98.019-3.729-104.518zm-106.487 407.456c.885 5.497-3.261 10.681-9.029 10.681h-56.135c11.733-17.468 31.296-35.858 54.269-44.056 5.285 10.36 8.995 21.59 10.895 33.375zm9.334-349.256c15.079 11.767 27.919 25.688 37.889 41.208-17.862 1.272-30.708-2.513-36.71-10.989-5.169-7.299-5.466-18.592-1.179-30.219zm-41.542-122.063c32.691 0 32.691 9.33 32.691 17.563s0 17.563-32.691 17.563c-32.69 0-32.69-9.33-32.69-17.563s-.001-17.563 32.69-17.563zm18.245 48.849v40.657c-11.595-5.879-23.811-10.681-36.49-14.34v-26.317c10.593 1.709 25.887 1.711 36.49 0zm-177.524-48.849c32.69 0 32.69 9.33 32.69 17.563s0 17.563-32.69 17.563c-32.691 0-32.691-9.33-32.691-17.563s-.001-17.563 32.691-17.563zm18.245 48.849v26.316c-12.68 3.659-24.896 8.461-36.491 14.341v-40.657c10.592 1.709 25.888 1.711 36.491 0zm-148.741 110.436c-21.156-27.745-25.603-60.935-16.48-74.525 11.266-16.788 63.215.527 81.48 38.133-5.97 5.722-11.469 11.735-16.466 18.008-9.019-10.833-19.826-22.099-32.248-33.594-3.041-2.813-7.787-2.63-10.599.411-2.813 3.04-2.629 7.785.411 10.599 12.899 11.935 24.334 23.997 33.334 35.136-4.795 7.272-8.972 14.825-12.509 22.611-8.35-1.476-18.525-5.766-26.923-16.779zm41.875 20.423c5.713 5.944 9.068 16.632 2.932 35.855-2.959 9.271-8.533 15.74-16.925 19.592.863-19.583 5.759-38.274 13.993-55.447zm135.852 241.766c-16.135 11.079-41.832 11.628-63.18 7.099 9.11-14.28 21.435-26.49 36.295-35.624 13.474 3.041 27.544 5.028 42.024 5.909-2.24 9.64-7.302 17.234-15.139 22.616zm162.159-76.149c-68.482 51.952-190.436 52.395-259.502 0-31.752-24.087-49.693-56.507-52.309-94.211 15.436-4.984 26.103-15.589 31.02-30.991 7.617-23.86 3.994-43.054-9.833-53.982 53.131-86.832 180.848-110.793 269.475-53.063-7.689 17.615-7.243 35.501 1.517 47.872 12.247 17.299 36.028 19.275 57.07 16.584 9.778 19.573 15.218 41.174 15.218 63.871 0 41.854-18.209 77.788-52.656 103.92zm-67.461-123.156c-.021 0-.044 0-.066 0-11.771 0-21.367 9.558-21.404 21.337-.013 4.142 3.334 7.51 7.477 7.523h.024c4.13 0 7.486-3.343 7.499-7.477.011-3.531 2.938-6.393 6.425-6.384 3.531.011 6.396 2.894 6.384 6.425-.013 4.142 3.334 7.51 7.477 7.523h.024c4.13 0 7.485-3.343 7.499-7.477.036-11.8-9.535-21.433-21.339-21.47zm-124.288-.389c-.024 0-.046 0-.069 0-11.801 0-21.364 9.529-21.402 21.337-.013 4.142 3.334 7.51 7.477 7.523h.025c4.13 0 7.486-3.343 7.499-7.477.012-3.532 2.871-6.384 6.404-6.384h.021c3.537.01 6.395 2.883 6.383 6.424-.013 4.142 3.334 7.51 7.477 7.523h.024c4.13 0 7.485-3.343 7.499-7.477.038-11.826-9.508-21.432-21.338-21.469zm61.998-73.045c8.479 0 16.54-3.671 22.118-10.073 2.722-3.122 2.396-7.86-.728-10.581-3.123-2.722-7.86-2.396-10.581.727-2.728 3.131-6.669 4.927-10.81 4.927s-8.081-1.796-10.81-4.927c-2.721-3.123-7.459-3.448-10.581-.727-3.123 2.721-3.449 7.459-.728 10.581 5.58 6.402 13.642 10.073 22.12 10.073zm-62.449-7.142c4.143 0 7.5-3.357 7.5-7.5v-12c0-4.143-3.357-7.5-7.5-7.5s-7.5 3.357-7.5 7.5v12c0 4.142 3.357 7.5 7.5 7.5z"/></g></svg>