<svg id="Capa_1" enable-background="new 0 0 512 512" height="512" viewBox="0 0 512 512" width="512" xmlns="http://www.w3.org/2000/svg"><g><path d="m343.928 409.599c35.131-4.551 77.567-26.32 103.338-42.519 10.931-6.871 12.008-22.301 2.19-30.686-36.768-31.402-97.606-56.148-193.456-56.148s-156.688 24.746-193.456 56.147c-9.818 8.385-8.741 23.815 2.19 30.686 25.77 16.199 68.207 37.969 103.338 42.519h175.856z" fill="#de5c6e"/><ellipse cx="57.844" cy="235.162" fill="#ffcbbe" rx="50.344" ry="45.084"/><ellipse cx="454.156" cy="235.162" fill="#ffcbbe" rx="50.344" ry="45.084"/><path d="m362.291 481.137c10.629 0 18.681-9.535 16.989-20.028-9.583-59.447-61.13-104.849-123.28-104.849s-113.697 45.403-123.28 104.849c-1.692 10.494 6.36 20.028 16.989 20.028z" fill="#6171a3"/><path d="m307.26 356.259c28.838 4.794 55.037 27.995 69.666 51.198 2.952 4.682.795 10.884-4.431 12.705-64.2 22.377-100.04 45.781-116.495 60.975-16.455-15.194-52.295-38.598-116.495-60.975-5.226-1.822-7.383-8.024-4.431-12.705 14.628-23.202 40.828-46.404 69.666-51.198z" fill="#de5c6e"/><path d="m256 410.23c38.676 0 75.448-7.02 107.63-20.208-14.863-16.397-34.882-30.191-56.37-33.763h-102.52c-21.488 3.572-41.507 17.366-56.37 33.763 32.182 13.189 68.954 20.208 107.63 20.208z" fill="#d5364c"/><path d="m322.037 362.787c-11.034 11.987-48.482 77.162-66.037 118.349-17.555-41.187-55.003-106.362-66.037-118.349z" fill="#efedff"/><path d="m218.835 408.009c12.125 1.464 24.542 2.221 37.165 2.221s25.04-.757 37.165-2.221c12.287-21.607 23.598-39.492 28.872-45.222h-132.074c5.275 5.73 16.585 23.616 28.872 45.222z" fill="#d4d4ff"/><path d="m452.32 224.662c0 95.53-87.896 155.568-196.32 155.568s-196.32-60.039-196.32-155.568c0-95.53 87.896-172.972 196.32-172.972s196.32 77.442 196.32 172.972z" fill="#ffddcf"/><path d="m256 30.864c186.965 0 220.563 125.935 196.32 193.798-33.408-108.496-142.314-127.274-185.125-75.772-5.839 7.024-16.55 7.024-22.389 0-42.812-51.502-151.718-32.724-185.126 75.772-24.243-67.864 9.355-193.798 196.32-193.798z" fill="#6171a3"/><g><g fill="#eda1ab"><ellipse cx="176.443" cy="258.86" rx="29.355" ry="23.377"/><ellipse cx="335.557" cy="258.86" rx="29.355" ry="23.377"/></g></g><path d="m277.549 241.545c.19-.206.384-.407.569-.619 2.721-3.123 2.396-7.86-.727-10.582-3.124-2.721-7.861-2.396-10.582.727-2.728 3.133-6.668 4.929-10.809 4.929s-8.081-1.796-10.81-4.929c-2.722-3.122-7.459-3.447-10.582-.727-3.122 2.722-3.448 7.459-.727 10.582.185.212.379.413.569.619l-3.78 6.093c-2.183 3.52-1.1 8.143 2.42 10.326 3.534 2.192 8.151 1.088 10.327-2.42l3.683-5.937c5.816 1.855 11.977 1.857 17.799 0l3.682 5.937c2.176 3.509 6.794 4.61 10.327 2.421 3.52-2.184 4.603-6.808 2.42-10.327zm168.701 45.676c35.259 4.484 65.75-20.705 65.75-52.059 0-25.085-19.036-46.12-45.302-51.334.231-30.738-9.323-60.469-26.44-84.76-24.336-34.537-76.058-75.705-184.258-75.705-39.434 0-74.434 5.56-104.029 16.524-3.884 1.439-5.866 5.755-4.427 9.639 1.438 3.884 5.752 5.863 9.638 4.428 27.922-10.346 61.17-15.591 98.818-15.591 101.77 0 149.705 37.71 171.997 69.345 21.576 30.619 26.012 64.725 22.616 91.433-43.76-95.228-146.934-105.872-189.186-55.044-2.842 3.418-8.011 3.421-10.854 0-42.381-50.987-145.62-40.018-189.262 55.21-6.291-47.95 14.51-99.769 64.796-130.434 3.537-2.156 4.655-6.771 2.499-10.309-2.157-3.536-6.772-4.655-10.308-2.498-48.006 29.275-73.3 77.027-73.009 127.765-26.26 5.219-45.289 26.25-45.289 51.331 0 31.429 30.523 56.472 65.758 52.075 4.116 8.802 9.182 17.423 15.819 26.174-8.624 5.3-16.647 11.083-23.903 17.28-13.702 11.7-12.132 33.184 3.069 42.739 10.548 6.63 36.802 22.236 66.456 33.168-2.794 7.717.694 16.398 8.193 19.967-4.817 10.623-8.216 21.799-10.077 33.35-2.43 15.075 9.176 28.722 24.394 28.722h169.538c4.142 0 7.5-3.357 7.5-7.5s-3.358-7.5-7.5-7.5h-41.557c16.026-11.054 42.758-26.258 84.794-41.896 4.517 9.714 7.684 19.961 9.393 30.562.94 5.831-3.465 11.335-9.585 11.335h-7.312c-4.142 0-7.5 3.357-7.5 7.5s3.358 7.5 7.5 7.5h7.312c15.21 0 26.825-13.638 24.394-28.722-1.862-11.551-5.26-22.727-10.078-33.35 7.5-3.569 10.987-12.25 8.194-19.967 29.655-10.932 55.909-26.538 66.457-33.168 15.191-9.55 16.778-31.033 3.069-42.739-7.256-6.197-15.272-11.988-23.895-17.29 6.485-8.556 11.592-17.143 15.817-26.181zm13.552-61.272c2.905-8.442 4.911-17.552 5.984-26.967 18.228 4.448 31.214 19 31.214 36.18 0 21.861-21.012 38.572-44.897 37.531 4.996-14.755 7.569-30.403 7.699-46.744zm-444.802 9.213c0-17.175 12.979-31.725 31.2-36.177 1.061 9.332 3.059 18.396 5.998 26.936.127 16.353 2.7 32.01 7.7 46.774-23.923 1.076-44.898-15.755-44.898-37.533zm53.726 125.568c-6.603-4.15-7.329-13.495-1.311-18.634 7.198-6.147 15.239-11.867 23.936-17.073 18.472 19.883 41.751 34.711 67.458 44.972-8.523 6.792-16.477 14.899-23.23 23.678-29.594-10.445-56.341-26.335-66.853-32.943zm80.983 112.907c-6.122 0-10.525-5.504-9.585-11.335 1.709-10.601 4.876-20.848 9.393-30.563 42.045 15.642 68.771 30.845 84.793 41.897h-84.601zm-7.735-60.558c-.665-.233-.943-1.008-.555-1.623 8.764-13.9 21.22-26.646 34.522-35.405 5.808 1.802 11.75 3.4 17.811 4.794 11.798 18.167 29.044 48.633 42.679 76.059-31.288-20.161-70.571-35.499-94.457-43.825zm71.842-28.441c27.164 4.059 56.326 4.19 84.366 0-13.302 21.908-30.088 52.603-42.182 78.25-12.096-25.649-28.882-56.342-42.184-78.25zm156.21 28.441c-23.887 8.326-63.17 23.664-94.458 43.826 13.636-27.427 30.882-57.892 42.68-76.06 6.061-1.394 12.003-2.993 17.811-4.794 13.302 8.76 25.759 21.505 34.523 35.405.387.615.109 1.39-.556 1.623zm74.559-70.982c5.967 5.095 5.349 14.448-1.311 18.634-10.512 6.608-37.258 22.496-66.85 32.943-6.753-8.779-14.711-16.885-23.234-23.677 25.714-10.264 48.996-25.096 67.466-44.98 8.695 5.207 16.731 10.932 23.929 17.08zm-54.299-9.802c-34.372 26.075-82.063 40.435-134.286 40.435-96.529 0-188.074-51.149-188.804-146.937 32.162-102.182 133.243-118.547 171.842-72.109 8.845 10.641 25.095 10.622 33.925 0 38.588-46.421 139.67-30.103 171.842 72.109-.327 42.865-19.155 79.674-54.519 106.502zm-71.837-115.439c-4.142 0-7.5 3.357-7.5 7.5v12c0 4.143 3.358 7.5 7.5 7.5s7.5-3.357 7.5-7.5v-12c0-4.142-3.358-7.5-7.5-7.5zm-124.898 0c-4.142 0-7.5 3.357-7.5 7.5v12c0 4.143 3.358 7.5 7.5 7.5s7.5-3.357 7.5-7.5v-12c0-4.142-3.358-7.5-7.5-7.5z"/></g></svg>