<svg id="Capa_1" enable-background="new 0 0 512 512" height="512" viewBox="0 0 512 512" width="512" xmlns="http://www.w3.org/2000/svg"><g><path d="m33.409 432.583c-7.843 4.304-8.153 15.417-.509 20.065 12.395 7.537 26.242 12.563 39.352 12.563 12.862 0 23.289-11.416 23.289-25.499s-10.427-25.499-23.289-25.499c-15.974 0-23.812 10.122-38.843 18.37z" fill="#6171a3"/><path d="m161.137 181.761c-22.854 22.855-68.707 3.096-102.365-30.562-27.436-27.436-34.096-60.19-11.241-83.045 22.855-22.854 60.386-22.377 94.044 11.281s42.417 79.471 19.562 102.326z" fill="#f2bcd5"/><path d="m67.728 159.572c32.439 28.372 72.525 43.073 93.41 22.189 21.459-21.459 15.045-63.157-13.68-96.031-33.122 17.805-60.801 43.222-79.73 73.842z" fill="#ea9cd0"/><path d="m141.575 79.435c-33.658-33.659-71.19-34.136-94.044-11.281-2.698 2.698-4.971 5.539-6.861 8.488 49.4 1.09 93.926 43.655 111.619 111.378 3.219-1.55 6.194-3.605 8.848-6.259 22.855-22.855 14.097-68.668-19.562-102.326z" fill="#6171a3"/><path d="m297.022 102.767c0-21.354 10.409-52.226 17.527-70.861 3.102-8.123-1.641-17.133-10.099-19.151-11.127-2.655-26.244-5.255-45.294-5.255s-34.167 2.6-45.294 5.255c-8.458 2.018-13.201 11.028-10.099 19.151 7.117 18.635 17.526 49.507 17.526 70.861z" fill="#6171a3"/><path d="m152.289 188.02c3.219-1.55 6.194-3.605 8.848-6.26 21.459-21.459 15.045-63.157-13.68-96.031-13.028 7.004-25.206 15.193-36.35 24.405 18.233 19.08 32.754 45.625 41.182 77.886z" fill="#475a99"/><path d="m357.174 181.761c22.855 22.855 68.707 3.096 102.366-30.562 27.436-27.436 34.096-60.19 11.241-83.045-22.854-22.854-60.386-22.377-94.044 11.281s-42.417 79.471-19.563 102.326z" fill="#f2bcd5"/><path d="m450.584 159.572c-32.439 28.372-72.526 43.073-93.41 22.189-21.459-21.459-15.044-63.157 13.68-96.031 33.122 17.805 60.801 43.222 79.73 73.842z" fill="#ea9cd0"/><path d="m376.737 79.435c33.658-33.659 71.19-34.136 94.044-11.281 2.698 2.698 4.971 5.539 6.861 8.488-49.399 1.09-93.925 43.655-111.619 111.378-3.219-1.55-6.194-3.605-8.848-6.259-22.855-22.855-14.097-68.668 19.562-102.326z" fill="#6171a3"/><path d="m366.023 188.02c-3.219-1.55-6.194-3.605-8.848-6.26-21.459-21.459-15.044-63.157 13.68-96.031 13.028 7.004 25.206 15.193 36.35 24.405-18.233 19.08-32.754 45.625-41.182 77.886z" fill="#475a99"/><path d="m362.355 504.5c10.32 0 18.137-9.257 16.495-19.446-9.305-57.718-59.351-101.799-119.694-101.799s-110.389 44.082-119.694 101.799c-1.643 10.189 6.175 19.446 16.495 19.446z" fill="#efedff"/><path d="m169.786 422.574c27.459 9.139 57.764 13.954 89.37 13.954s61.911-4.815 89.37-13.954c-22.164-24.165-53.995-39.319-89.37-39.319s-67.206 15.154-89.37 39.319z" fill="#d4d4ff"/><path d="m349.387 423.512c-12.921 10.28-29.359 24.404-48.676 32.28-6.405 2.611-5.638 12.007 1.102 13.561 20.584 4.743 48.346 5.469 73.313-.33-5.218-17.078-14.102-32.555-25.739-45.511z" fill="#6171a3"/><path d="m168.925 423.512c12.921 10.28 29.359 24.404 48.676 32.28 6.405 2.611 5.638 12.007-1.102 13.561-20.584 4.743-48.346 5.469-73.314-.33 5.219-17.078 14.103-32.555 25.74-45.511z" fill="#6171a3"/><g><path d="m449.765 255.486c0 92.751-85.339 151.043-190.609 151.043s-190.609-58.292-190.609-151.043 85.339-167.94 190.609-167.94c105.271 0 190.609 75.189 190.609 167.94z" fill="#efedff"/><g fill="#6171a3"><path d="m73.379 292.315c6.891 25.208 20.878 46.894 40.09 64.393 5.574-27.381 27.222-53.078 42.723-63.256v-26.112c-22.06-.538-58.019 12.405-82.813 24.975z"/><path d="m444.933 292.315c-6.891 25.208-20.878 46.894-40.09 64.393-5.574-27.381-27.222-53.078-42.723-63.256v-26.112c22.06-.538 58.019 12.405 82.813 24.975z"/></g></g><path d="m401 274.052c0-54.953-43.69-99.502-141.844-99.502s-141.844 44.549-141.844 99.502 43.69 88.913 141.844 88.913c98.155 0 141.844-33.96 141.844-88.913z" fill="#f2d1a5"/><path d="m320.491 177.195c0-21.392-27.461-47.948-61.336-47.948s-61.335 26.557-61.335 47.948c0 21.392 27.461 32.863 61.335 32.863 33.876.001 61.336-11.471 61.336-32.863z" fill="#6171a3"/><g><g><ellipse cx="179.511" cy="285.063" fill="#eda1ab" rx="29.387" ry="23.403"/><ellipse cx="338.801" cy="285.063" fill="#eda1ab" rx="29.387" ry="23.403"/><path d="m282.85 267.081c0-14.643-10.608-16.019-23.693-16.019s-23.693 1.376-23.693 16.019 10.608 26.513 23.693 26.513 23.693-11.87 23.693-26.513z" fill="#4e5660"/></g></g><path d="m333.888 264.623c4.142 0 7.5-3.357 7.5-7.5v-12c0-4.143-3.358-7.5-7.5-7.5s-7.5 3.357-7.5 7.5v12c0 4.143 3.358 7.5 7.5 7.5zm-74.732 36.471c17.2 0 31.193-15.258 31.193-34.013 0-12.057-6.008-17.634-11.047-20.189-5.449-2.763-11.994-3.329-20.146-3.329s-14.697.566-20.146 3.329c-5.04 2.556-11.048 8.133-11.048 20.189 0 18.755 13.994 34.013 31.194 34.013zm0-42.531c15.539 0 16.193 2.611 16.193 8.519 0 10.483-7.264 19.013-16.193 19.013s-16.194-8.529-16.194-19.013c0-5.908.655-8.519 16.194-8.519zm22.118-84.888c2.721-3.122 2.396-7.86-.727-10.581-3.124-2.722-7.861-2.396-10.582.728-2.729 3.132-6.669 4.928-10.81 4.928s-8.081-1.796-10.81-4.928c-2.721-3.124-7.458-3.448-10.581-.728-3.123 2.721-3.448 7.459-.727 10.581 5.579 6.402 13.641 10.074 22.119 10.074s16.54-3.672 22.118-10.074zm194.81-110.824c-13.077-13.077-30.457-19.364-48.941-17.719-31.442 2.81-60.183 28.238-75.869 54.942-14.181-6.609-29.217-11.649-44.831-15.019 3.209-17.278 9.804-36.577 15.111-50.473 4.715-12.343-2.5-26.054-15.364-29.122-15.394-3.674-30.779-5.46-47.034-5.46s-31.64 1.786-47.034 5.46c-12.852 3.065-20.083 16.768-15.365 29.122 5.307 13.892 11.911 33.192 15.122 50.47-15.618 3.37-30.657 8.411-44.841 15.021-15.612-26.577-44.325-52.123-75.868-54.942-18.474-1.645-35.864 4.642-48.941 17.72-14.124 14.123-19.135 32.68-14.112 52.249 1.028 4.005 5.107 6.43 9.129 5.4 4.012-1.03 6.43-5.117 5.4-9.129-2.502-9.749-1.694-18.891 2.282-26.996 27.863 2.184 54.365 19.093 73.988 47.186-11.867 10.529-22.033 22.159-30.386 34.63-12.041-8.186-23.342-18.469-30.211-26.517-2.689-3.149-7.424-3.523-10.574-.834s-3.524 7.424-.834 10.574c7.917 9.272 20.464 20.612 33.83 29.605-12.881 23.529-19.691 49.524-19.691 76.465 0 72.198 49.08 124.842 119.611 146.972-14.701 11.281-26.663 25.46-35.227 41.574-11.062-4.845-25.985-9.778-43.092-11.316-3.003-14.845-15.349-26.002-30.086-26.002-18.743 0-27.761 11.233-42.451 19.295-12.931 7.096-13.353 25.415-.797 33.049 10.244 6.229 26.062 13.654 43.249 13.654 14.388 0 26.499-10.634 29.86-24.952 14.604 1.462 27.426 5.707 37.06 9.906-3.256 8.37-5.654 17.14-7.114 26.197-2.383 14.745 8.96 28.139 23.894 28.139h147.784c4.142 0 7.5-3.357 7.5-7.5s-3.358-7.5-7.5-7.5h-147.784c-5.807 0-9.982-5.221-9.09-10.752.461-2.858 1.036-5.681 1.705-8.469 23.898 4.383 49.217 3.583 69.613-1.116 6.228-1.436 10.757-6.699 11.272-13.098.514-6.393-3.112-12.307-9.023-14.717-15.277-6.229-29.089-16.971-40.433-26.069 5.912-5.708 12.482-10.819 19.639-15.218 37.303 8.421 79.913 8.831 119.035 0 7.158 4.399 13.727 9.51 19.639 15.218-11.344 9.098-25.156 19.84-40.433 26.069-5.912 2.41-9.538 8.324-9.023 14.717.515 6.398 5.045 11.662 11.273 13.098 20.481 4.72 45.806 5.483 69.612 1.116.669 2.789 1.244 5.612 1.705 8.47.892 5.531-3.284 10.752-9.09 10.752h-22.519c-4.142 0-7.5 3.357-7.5 7.5s3.358 7.5 7.5 7.5h22.519c14.933 0 26.277-13.393 23.899-28.139-5.259-32.625-22.684-61.514-48.602-81.403 69.969-21.954 119.613-74.279 119.613-146.973 0-26.939-6.809-52.931-19.688-76.459 9.476-6.379 18.797-14.055 27.266-22.524 28.201-28.204 38.803-66.086 11.238-93.652zm-403.832 394.86c-10.854 0-23.114-3.967-35.455-11.471-2.739-1.665-2.549-5.563.22-7.082 15.196-8.337 22.08-17.445 35.235-17.445 8.706 0 15.789 8.074 15.789 17.999s-7.083 17.999-15.789 17.999zm141.45 4.585c-18.436 4.059-40.872 4.399-60.635 1.055 4.112-10.64 9.792-20.552 16.839-29.441 11.983 9.625 26.659 21.171 43.796 28.386zm151.543 1.056c-19.756 3.344-42.186 3.003-60.634-1.057 17.127-7.207 31.807-18.756 43.795-28.384 7.047 8.889 12.728 18.8 16.839 29.441zm63.233-403.28c12.799-1.145 24.465 2.531 33.989 10.629-28.398 5.203-54.789 23.244-74.699 51.315-7.33-5.556-15.047-10.598-23.098-15.1 13.125-21.95 37.556-44.497 63.808-46.844zm-217.708-30.842c-1.486-3.893.768-8.21 4.833-9.181 14.24-3.398 28.486-5.05 43.553-5.05s29.313 1.652 43.554 5.05c4.053.968 6.323 5.276 4.832 9.181-5.54 14.504-12.444 34.726-15.871 53.164-21.538-3.132-43.491-3.132-65.03 0-3.427-18.441-10.332-38.661-15.871-53.164zm-154.925 41.472c9.524-8.097 21.19-11.773 33.989-10.629 26.113 2.335 50.613 24.769 63.824 46.835-8.057 4.504-15.779 9.549-23.115 15.109-19.909-28.071-46.3-46.112-74.698-51.315zm53.919 271.807c-12.642-13.672-21.845-29.205-27.407-46.243 8.928-4.252 18.608-8.249 27.988-11.577 1.311 12.893 5.065 24.437 11.237 34.572-4.098 6.263-8.514 14.21-11.818 23.248zm12.037 11.565c2.223-8.273 5.835-15.824 9.513-22.066 29.9 31.829 84.054 38.456 127.842 38.456 43.672 0 97.904-6.589 127.842-38.456 3.679 6.241 7.287 13.793 9.51 22.068-70.067 59.976-204.5 60.09-274.707-.002zm137.355-136.515c33.434 0 57.391-10.135 65.659-26.728 44.357 13.779 68.685 43.119 68.685 83.221 0 65.788-68.327 81.413-134.345 81.413-66.009 0-134.344-15.621-134.344-81.413 0-40.102 24.329-69.443 68.686-83.222 8.269 16.593 32.226 26.729 65.659 26.729zm-53.835-40.364c0-16.425 23.24-40.448 53.835-40.448 13.746 0 27.797 5.175 38.55 14.197 9.429 7.911 15.286 17.97 15.286 26.251 0 17.427-27.907 25.363-53.836 25.363-25.929.001-53.835-7.936-53.835-25.363zm203.229 165.311c-3.303-9.039-7.723-16.981-11.821-23.245 6.17-10.131 9.924-21.671 11.236-34.558 9.381 3.325 19.058 7.314 27.988 11.565-5.56 17.036-14.762 32.567-27.403 46.238zm31.236-61.008c-10.176-4.731-20.957-9.047-31.412-12.546-2.05-44.464-31.011-77.891-80.423-92.85-.843-24.875-30.761-54.354-68.795-54.354-38.136 0-67.953 29.53-68.794 54.354-49.412 14.959-78.374 48.386-80.423 92.851-10.455 3.499-21.236 7.815-31.412 12.546-18.5-94.434 65.067-186.452 180.63-186.452 115.949-.001 199.064 92.353 180.629 186.451zm14.451-135.603c-7.624 7.625-15.975 14.533-24.452 20.296-8.353-12.471-18.519-24.1-30.386-34.63 19.633-28.109 46.155-45.022 74.036-47.189 10.344 20.945-2.508 44.833-19.198 61.523zm-288.694-5.66c-4.142 0-7.5 3.357-7.5 7.5v12c0 4.143 3.358 7.5 7.5 7.5s7.5-3.357 7.5-7.5v-12c0-4.142-3.358-7.5-7.5-7.5zm18.881 97.388c-4.142 0-7.5 3.357-7.5 7.5v12c0 4.143 3.358 7.5 7.5 7.5s7.5-3.357 7.5-7.5v-12c0-4.143-3.358-7.5-7.5-7.5zm168.345-97.388c-4.142 0-7.5 3.357-7.5 7.5v12c0 4.143 3.358 7.5 7.5 7.5s7.5-3.357 7.5-7.5v-12c0-4.142-3.358-7.5-7.5-7.5z"/></g></svg>