<svg id="Capa_1" enable-background="new 0 0 512 512" height="512" viewBox="0 0 512 512" width="512" xmlns="http://www.w3.org/2000/svg"><g><ellipse cx="59.484" cy="260.561" fill="#ffbf9e" rx="49.927" ry="44.711"/><ellipse cx="452.516" cy="260.561" fill="#ffbf9e" rx="49.927" ry="44.711"/><path d="m361.411 504.5c10.541 0 18.526-9.456 16.848-19.863-9.504-58.955-60.624-103.982-122.26-103.982s-112.756 45.027-122.26 103.982c-1.678 10.407 6.307 19.863 16.848 19.863z" fill="#6171a3"/><path d="m256 434.429c18.258 0 36.087-1.58 53.205-4.641v-37.149c-16.119-7.682-34.159-11.983-53.205-11.983s-37.086 4.301-53.205 11.983v37.149c17.118 3.06 34.947 4.641 53.205 4.641z" fill="#475a99"/><path d="m160.474 425.68c13.591 20.201 23.156 51.92 23.156 78.82h49.559c0-45.878-5.546-91.263-16.137-117.592-22.363 7.403-41.901 21.005-56.578 38.772z" fill="#f5ea72"/><path d="m351.526 425.68c-13.591 20.201-23.156 51.92-23.156 78.82h-49.559c0-45.878 5.546-91.263 16.137-117.592 22.363 7.403 41.901 21.005 56.578 38.772z" fill="#f5ea72"/><path d="m346.798 420.306c-14.04-15.134-31.804-26.762-51.85-33.398-4.842 12.038-8.626 28.067-11.312 46.298 22.133-1.979 43.371-6.339 63.162-12.9z" fill="#ebca5f"/><path d="m228.364 433.206c-2.685-18.231-6.469-34.26-11.312-46.298-20.046 6.636-37.81 18.265-51.85 33.398 19.791 6.561 41.029 10.921 63.162 12.9z" fill="#ebca5f"/><path d="m450.695 250.148c0 94.739-87.168 154.281-194.695 154.281s-194.695-59.542-194.695-154.281 87.168-171.54 194.695-171.54 194.695 76.801 194.695 171.54z" fill="#ffd4be"/><path d="m140.806 102.058c-24.098 0-57.729 39.105-62.925 39.105-26.922 0-48.746 22.376-48.746 49.977 0 27.602 21.824 49.977 48.746 49.977 20.84 0 38.615-13.411 45.585-32.273 1.779-4.815 6.565-7.776 11.659-7.149 28.235 3.472 54.427-19.142 54.427-49.66.001-27.602-21.824-49.977-48.746-49.977z" fill="#d2996f"/><path d="m371.194 102.058c24.098 0 57.729 39.105 62.925 39.105 26.922 0 48.746 22.376 48.746 49.977 0 27.602-21.824 49.977-48.746 49.977-20.84 0-38.615-13.411-45.585-32.273-1.779-4.815-6.565-7.776-11.659-7.149-28.235 3.472-54.427-19.142-54.427-49.66-.001-27.602 21.824-49.977 48.746-49.977z" fill="#d2996f"/><path d="m256 7.5c123.122 0 192.899 56.273 216.657 123.749 4.906 13.934-7.507 27.762-21.839 24.178-54.109-13.53-131.661-16.219-194.819-16.219s-140.709 2.689-194.819 16.219c-14.332 3.584-26.745-10.243-21.839-24.178 23.76-67.476 93.537-123.749 216.659-123.749z" fill="#f5ea72"/><path d="m256 175.243c47.088 0 87.368-19.125 99.503-33.088-15.683-20.338-60.59-40.515-99.503-40.515-38.912 0-83.819 20.177-99.503 40.515 12.135 13.963 52.415 33.088 99.503 33.088z" fill="#ebca5f"/><g><g><path d="m203.749 281.187c.007 13.438-13.667 24.338-30.541 24.346s-30.559-10.878-30.566-24.316 13.667-24.338 30.541-24.347c16.874-.007 30.559 10.88 30.566 24.317z" fill="#eda1ab"/><path d="m308.251 281.135c.007 13.438 13.691 24.324 30.566 24.315 16.874-.008 30.548-10.909 30.541-24.346-.007-13.438-13.691-24.324-30.565-24.316-16.875.009-30.549 10.909-30.542 24.347z" fill="#eda1ab"/><path d="m285.944 270.146c-.009-18.509-13.419-20.242-29.96-20.233-16.54.008-29.949 1.754-29.939 20.263.009 18.509 13.426 33.506 29.966 33.498 16.541-.008 29.942-15.019 29.933-33.528z" fill="#4e5660"/></g></g><path d="m255.98 242.413c-12.156.007-37.449.02-37.436 27.768.011 22.608 16.811 40.995 37.454 40.994h.016c20.65-.011 37.44-18.418 37.428-41.032-.011-27.748-25.283-27.737-37.462-27.73zm.028 53.762h-.009c-12.373-.001-22.446-11.663-22.454-26.002-.005-9.721 3.09-12.749 22.443-12.76h.117c17.025 0 22.333 1.773 22.338 12.737.008 14.344-10.057 26.018-22.435 26.025zm53.946-240.041v13.925c0 4.143 3.357 7.5 7.5 7.5s7.5-3.357 7.5-7.5v-13.925c0-4.143-3.357-7.5-7.5-7.5-4.142 0-7.5 3.357-7.5 7.5zm-122.909 0v13.925c0 4.143 3.358 7.5 7.5 7.5s7.5-3.357 7.5-7.5v-13.925c0-4.143-3.358-7.5-7.5-7.5s-7.5 3.357-7.5 7.5zm133.94 176.475h-.012c-12.154.006-22.037 9.899-22.031 22.054.002 4.141 3.359 7.496 7.5 7.496h.004c4.142-.002 7.498-3.361 7.496-7.504-.002-3.883 3.155-7.044 7.039-7.046h.003c3.888 0 7.041 3.145 7.043 7.039.002 4.141 3.359 7.496 7.5 7.496h.004c4.142-.002 7.498-3.361 7.496-7.504-.006-12.171-9.858-22.031-22.042-22.031zm163.304-15.536c10.41-20.946 7.291-46.386-8.171-64.121 5.107-6.913 6.517-15.948 3.614-24.195-7.734-21.965-19.758-41.904-35.734-59.263-2.805-3.047-7.549-3.245-10.598-.439-3.048 2.806-3.244 7.55-.439 10.598 14.592 15.854 25.568 34.051 32.623 54.087 2.935 8.337-4.432 16.543-12.945 14.411-24.454-6.114-55.88-10.564-93.412-13.245-18.327-20.888-59.763-38.327-95.726-40.529v-43.883c0-4.142-3.357-7.5-7.5-7.5-4.142 0-7.5 3.358-7.5 7.5v43.882c-35.963 2.202-77.399 19.641-95.726 40.529-37.532 2.68-68.958 7.13-93.411 13.245-8.505 2.128-15.884-6.066-12.946-14.411 12.007-34.102 35.516-62.912 67.984-83.318 37.396-23.504 85.036-35.421 141.598-35.421 61.733 0 112.597 14.086 151.177 41.866 3.361 2.421 8.049 1.66 10.469-1.703 2.421-3.361 1.658-8.049-1.703-10.469-41.187-29.657-95-44.694-159.943-44.694-59.429 0-109.755 12.691-149.581 37.721-35.366 22.228-61.007 53.707-74.151 91.036-2.903 8.246-1.494 17.281 3.612 24.193-15.434 17.704-18.601 43.143-8.167 64.129-15.811 9.58-25.657 25.908-25.657 43.481 0 31.279 30.372 56.038 65.238 51.713 20.863 44.579 62.441 73.436 108.869 87.937-26.576 20.296-44.445 49.849-49.827 83.233-1.194 7.408.993 14.852 6.003 20.424 2.754 3.065 7.495 3.347 10.592.564 3.08-2.769 3.332-7.511.563-10.591-1.962-2.183-2.818-5.102-2.349-8.009 2.741-17.002 9.144-32.883 18.564-46.733 8.747 16.706 14.86 38.483 16.16 57.902h-4.062c-4.142 0-7.5 3.357-7.5 7.5s3.358 7.5 7.5 7.5h189.605c15.155 0 26.665-13.592 24.253-28.556-5.382-33.384-23.249-62.939-49.824-83.235 46.635-14.566 88.072-43.506 108.865-87.936 34.908 4.33 65.238-20.469 65.238-51.713-.001-17.574-9.844-33.905-25.655-43.487zm-228.289-107.932c34.514 0 72.107 16.298 89.033 32.597-15.16 12.074-50.077 26.006-89.033 26.006-38.957 0-73.874-13.932-89.033-26.006 16.926-16.3 54.519-32.597 89.033-32.597zm-238.943 151.419c0-12.485 7.315-24.172 19.024-31.011 4.991 5.666 11.067 10.312 17.89 13.6-.834 18.561 1.538 37.035 7.464 54.568-24.946 1.014-44.378-16.664-44.378-37.157zm19.578-69.42c0-10.921 4.059-21.297 11.263-29.148 4.667 1.692 9.835 2.026 15.102.711 23.552-5.889 54.014-10.194 90.547-12.815 5.665 5.372 14.612 11.271 26.067 16.572-6.375 18.224-24.469 30.149-43.575 27.791-8.553-1.044-16.611 3.882-19.609 11.994-6.05 16.372-21.542 27.372-38.549 27.372-22.743 0-41.246-19.056-41.246-42.477zm154.267 305.86c-1.422-24.158-9.466-51.075-21.147-70.652 7.344-8.08 15.876-15.176 25.424-21.036 6.845 1.547 13.838 2.834 20.96 3.844 5.665 23.207 9.054 54.564 9.499 87.844zm80.459 0h-30.725c-.42-31.987-3.512-62.398-8.706-86.075 16.014 1.337 32.105 1.338 48.128.001-5.191 23.675-8.278 54.096-8.697 86.074zm80.942-57.884c9.413 13.846 15.812 29.72 18.552 46.715.925 5.735-3.402 11.169-9.444 11.169h-25.265c1.299-19.421 7.408-41.177 16.157-57.884zm-10.062-12.773c-11.68 19.578-19.715 46.498-21.135 70.657h-34.738c.444-33.278 3.83-64.636 9.493-87.844 7.123-1.01 14.116-2.297 20.962-3.845 9.545 5.86 18.075 12.954 25.418 21.032zm-86.241-29.414c-96.774 0-188.851-52.035-187.153-149.063 26.932 4.466 52.462-11.545 61.654-36.421.584-1.579 2.077-2.509 3.709-2.305 25.914 3.176 50.416-12.672 59.3-37.038 17.523 6.216 38.94 10.641 62.49 10.641 23.547 0 44.962-4.425 62.484-10.64 8.887 24.365 33.398 40.212 59.306 37.036 1.632-.201 3.125.725 3.708 2.305 9.195 24.884 34.728 40.883 61.653 36.422 1.676 96.548-89.693 149.063-187.151 149.063zm178.118-163.312c-17.008 0-32.5-11-38.55-27.371-2.996-8.114-11.063-13.035-19.608-11.995-19.105 2.342-37.2-9.57-43.575-27.791 11.455-5.301 20.402-11.2 26.067-16.572 36.533 2.621 66.995 6.926 90.547 12.815 4.996 1.249 10.183 1.071 15.102-.712 7.205 7.851 11.264 18.227 11.264 29.148-.001 23.422-18.504 42.478-41.247 42.478zm16.447 64.101c5.914-17.498 8.3-35.97 7.464-54.568 6.823-3.289 12.899-7.934 17.89-13.6 11.709 6.839 19.024 18.526 19.024 31.011 0 20.578-19.535 38.166-44.378 37.157zm-259.573-65.043h-.014c-12.155.006-22.038 9.899-22.032 22.054.002 4.141 3.359 7.496 7.5 7.496h.003c4.143-.002 7.499-3.361 7.497-7.504-.002-3.883 3.156-7.044 7.04-7.046h.004c3.889 0 7.039 3.145 7.041 7.039.002 4.141 3.359 7.496 7.5 7.496h.003c4.143-.002 7.499-3.361 7.497-7.504-.006-12.172-9.856-22.031-22.039-22.031z"/></g></svg>