<svg id="Capa_1" enable-background="new 0 0 512 512" height="512" viewBox="0 0 512 512" width="512" xmlns="http://www.w3.org/2000/svg"><g><path d="m371.437 489.876c11.544 0 20.288-10.355 18.451-21.752-10.408-64.562-66.39-113.871-133.888-113.871s-123.48 49.309-133.888 113.871c-1.837 11.397 6.907 21.752 18.451 21.752z" fill="#5ec783"/><path d="m256 410.287c39.702 0 74.698-1.94 105.32-5.854-24.866-30.613-62.806-50.179-105.32-50.179s-80.453 19.566-105.32 50.179c30.622 3.913 65.619 5.854 105.32 5.854z" fill="#3ba560"/><path d="m473.151 206.328c-2.631-2.315-4.175-5.611-4.441-9.106-7.453-97.792-99.83-175.083-212.71-175.083s-205.257 77.291-212.71 175.083c-.267 3.495-1.81 6.79-4.441 9.106-19.965 17.568-31.349 39.234-31.349 64.976 0 66.923 66.494 108.983 248.5 108.983s248.5-42.06 248.5-108.983c0-25.742-11.384-47.408-31.349-64.976z" fill="#5ec783"/><ellipse cx="256" cy="212.9" fill="#f2d1a5" rx="160.732" ry="107.482"/><path d="m256 105.418c-81.768 0-131.529 27.292-151.121 66.12 39.341 4.832 108.642-5.442 145.776-31.688 3.214-2.271 7.476-2.271 10.69 0 37.135 26.247 106.435 36.52 145.777 31.688-19.593-38.828-69.353-66.12-151.122-66.12z" fill="#d2996f"/><circle cx="140.488" cy="81.437" fill="#efedff" r="53.195"/><path d="m305.331 489.876c0-28.265-22.086-51.178-49.331-51.178s-49.331 22.913-49.331 51.178z" fill="#f5ea72"/><circle cx="371.512" cy="81.437" fill="#efedff" r="53.195"/><g><g><ellipse cx="176.355" cy="241.14" fill="#eda1ab" rx="29.387" ry="23.403"/><ellipse cx="335.645" cy="241.14" fill="#eda1ab" rx="29.387" ry="23.403"/><path d="m279.694 223.159c0-14.643-10.608-16.019-23.694-16.019s-23.694 1.376-23.694 16.019 10.608 26.513 23.694 26.513 23.694-11.87 23.694-26.513z" fill="#4e5660"/></g></g><path d="m330.732 193.701c-4.143 0-7.5 3.357-7.5 7.5v12c0 4.143 3.357 7.5 7.5 7.5s7.5-3.357 7.5-7.5v-12c0-4.143-3.357-7.5-7.5-7.5zm-54.585 9.268c-5.449-2.763-11.995-3.329-20.147-3.329s-14.697.566-20.146 3.329c-5.039 2.556-11.047 8.133-11.047 20.189 0 18.755 13.993 34.013 31.193 34.013s31.193-15.258 31.193-34.013c0-12.056-6.008-17.633-11.046-20.189zm-20.147 39.202c-8.929 0-16.193-8.529-16.193-19.013 0-5.907.655-8.519 16.193-8.519s16.193 2.611 16.193 8.519c0 10.484-7.264 19.013-16.193 19.013zm-74.732-48.47c-4.143 0-7.5 3.357-7.5 7.5v12c0 4.143 3.357 7.5 7.5 7.5s7.5-3.357 7.5-7.5v-12c0-4.143-3.358-7.5-7.5-7.5zm-54.545-101.964c4.143 0 7.5-3.357 7.5-7.5 0-3.455 2.811-6.266 6.266-6.266 3.454 0 6.265 2.811 6.265 6.266 0 4.143 3.357 7.5 7.5 7.5s7.5-3.357 7.5-7.5c0-11.726-9.539-21.266-21.265-21.266s-21.266 9.54-21.266 21.266c0 4.142 3.357 7.5 7.5 7.5zm351.383 108.961c-1.112-.979-1.794-2.416-1.918-4.046-1.048-13.749-3.742-27.401-8.009-40.58-1.277-3.94-5.506-6.097-9.446-4.825-3.94 1.276-6.101 5.505-4.825 9.446 3.902 12.05 6.366 24.532 7.323 37.1.424 5.555 2.897 10.586 6.965 14.165 19.114 16.819 28.804 36.787 28.804 59.346 0 32.309-16.925 56.13-51.74 72.825-39.658 19.017-103.334 28.658-189.26 28.658s-149.603-9.642-189.26-28.658c-34.815-16.695-51.74-40.516-51.74-72.825 0-22.56 9.69-42.527 28.804-59.347 4.067-3.579 6.541-8.61 6.965-14.165 2.457-32.238 14.62-62.92 35.335-89.448 7.055 14.201 19.506 25.255 34.657 30.479-21.393 19.532-32.993 45.314-32.993 74.077 0 33.253 14.773 61.627 42.723 82.056 29.469 21.54 72.87 32.926 125.51 32.926s96.041-11.386 125.51-32.926c27.949-20.429 42.723-48.803 42.723-82.056 0-28.764-11.608-54.542-33.003-74.073 15.149-5.22 27.6-16.269 34.658-30.465 5.305 6.799 10.095 13.904 14.275 21.245 2.06 3.618 6.648 4.846 10.228 2.807 3.6-2.05 4.857-6.629 2.807-10.229-6.151-10.804-13.491-21.139-21.822-30.783 6.183-37.267-22.717-70.661-59.863-70.661-11.411 0-22.093 3.17-31.221 8.668-53.813-19.711-114.74-19.72-168.581 0-9.128-5.499-19.81-8.668-31.221-8.668-37.162 0-66.035 33.409-59.866 70.643-26.407 30.541-41.882 66.858-44.811 105.267-.124 1.63-.806 3.066-1.918 4.046-22.493 19.792-33.896 43.548-33.896 70.607 0 77.777 83.355 102.887 160.81 111.729-24.387 21.777-40.876 51.481-46.102 83.898-2.57 15.949 9.692 30.445 25.854 30.445h5.974c4.143 0 7.5-3.357 7.5-7.5s-3.357-7.5-7.5-7.5h-5.974c-7.069 0-12.126-6.357-11.046-13.059 5.455-33.836 24.626-64.38 52.747-84.216 22.362 1.791 46.897 2.686 73.736 2.686s51.374-.895 73.736-2.686c28.122 19.836 47.292 50.38 52.747 84.217 1.082 6.712-3.989 13.058-11.046 13.058h-59.097c-3.579-28.823-27.467-51.178-56.341-51.178s-52.767 22.354-56.347 51.178h-17.18c-4.143 0-7.5 3.357-7.5 7.5s3.357 7.5 7.5 7.5h188.965c16.153 0 28.428-14.491 25.854-30.445-5.226-32.42-21.719-62.121-46.111-83.897 77.584-8.855 160.821-34.007 160.821-111.73 0-27.059-11.403-50.815-33.894-70.606zm-75.492-21.155c4.378 10.251 6.618 21.429 6.618 33.357 0 61.671-58.715 99.981-153.232 99.981s-153.232-38.31-153.232-99.981c0-11.932 2.242-23.113 6.622-33.367 42.502 3.652 108.984-7.684 145.595-33.558.617-.438 1.414-.438 2.031 0 36.406 25.73 102.853 37.237 145.598 33.568zm-8.051-14.494c-40.34 1.844-97.694-9.275-128.889-31.324-5.787-4.088-13.561-4.088-19.348 0-31.199 22.051-88.535 33.153-128.874 31.301 5.945-8.534 13.653-16.212 23.052-22.895 18.182-.005 34.51-8.057 45.64-20.768 41.111-11.304 98.604-11.302 139.71 0 11.13 12.712 27.457 20.764 45.64 20.768 9.409 6.69 17.122 14.375 23.069 22.918zm-23.051-129.307c25.196 0 45.695 20.499 45.695 45.695s-20.499 45.695-45.695 45.695-45.695-20.499-45.695-45.695 20.498-45.695 45.695-45.695zm-44.849 4.843c-15.965 17.512-19.849 41.903-11.732 62.777-35.432-7.146-81.093-7.411-117.866.01 8.345-21.448 3.833-45.717-11.725-62.784 45.389-14.599 95.867-14.624 141.323-.003zm-186.175-4.843c25.196 0 45.695 20.499 45.695 45.695s-20.499 45.695-45.695 45.695-45.695-20.499-45.695-45.695 20.499-45.695 45.695-45.695zm74.312 446.634c3.415-20.522 20.584-36.178 41.2-36.178s37.785 15.656 41.2 36.178zm66.102-410.929 4.266-4.265c2.93-2.929 2.93-7.677.001-10.606-2.929-2.93-7.678-2.929-10.606-.001l-4.266 4.265c-2.93 2.929-2.93 7.677-.001 10.606 2.928 2.928 7.677 2.931 10.606.001zm-49.806 0c2.931 2.929 7.678 2.928 10.607 0 2.929-2.93 2.929-7.678 0-10.607l-4.265-4.265c-2.93-2.928-7.678-2.928-10.607 0-2.929 2.93-2.929 7.678 0 10.607zm126.651 20.29c4.142 0 7.5-3.357 7.5-7.5 0-3.455 2.81-6.266 6.265-6.266s6.266 2.811 6.266 6.266c0 4.143 3.357 7.5 7.5 7.5s7.5-3.357 7.5-7.5c0-11.726-9.54-21.266-21.266-21.266s-21.265 9.54-21.265 21.266c0 4.142 3.357 7.5 7.5 7.5z"/></g></svg>