<svg id="Capa_1" enable-background="new 0 0 512 512" height="512" viewBox="0 0 512 512" width="512" xmlns="http://www.w3.org/2000/svg"><g><path d="m156.15 352.963c-45.559-.666-92.009 38.194-110.799 75.382-6.535 12.934 3.876 28.119 18.275 26.484 35.395-4.018 64.242 3.355 95.511 22.088h85.872v-123.954z" fill="#5fc5fc"/><path d="m374.887 504.5c11.069 0 19.453-9.929 17.692-20.857-9.98-61.906-63.659-109.187-128.38-109.187s-118.4 47.281-128.38 109.187c-1.762 10.928 6.623 20.857 17.692 20.857z" fill="#8cd6fe"/><path d="m169.971 414.884c28.979 9.525 60.922 14.535 94.227 14.535s65.248-5.01 94.227-14.535c-23.69-24.902-57.143-40.428-94.227-40.428-37.083 0-70.537 15.527-94.227 40.428z" fill="#5fc5fc"/><path d="m468.64 237.415c0 99.482-91.532 162.004-204.442 162.004s-204.441-62.522-204.441-162.004 113.079-229.915 204.441-229.915c91.363 0 204.442 130.433 204.442 229.915z" fill="#8cd6fe"/><path d="m317.121 504.5c0-35.363-23.694-56.179-52.922-56.179s-52.922 20.816-52.922 56.179z" fill="#efedff"/><path d="m375.525 241.049c0-93.939-64.97-170.734-111.327-170.734-46.356 0-111.326 76.795-111.326 170.734z" fill="#efedff"/><path d="m404.436 254c0-52.414-45.493-94.905-140.237-94.905s-140.238 42.491-140.238 94.905 45.493 95.905 140.237 95.905 140.238-43.491 140.238-95.905z" fill="#ffd4be"/><g><g><ellipse cx="184.554" cy="264.269" fill="#eda1ab" rx="29.387" ry="23.403"/><ellipse cx="343.843" cy="264.269" fill="#eda1ab" rx="29.387" ry="23.403"/><path d="m287.892 246.288c0-14.643-10.608-16.019-23.694-16.019-13.085 0-23.693 1.376-23.693 16.019s10.608 26.513 23.693 26.513c13.086-.001 23.694-11.871 23.694-26.513z" fill="#4e5660"/></g></g><path d="m189.467 216.829c-4.143 0-7.5 3.357-7.5 7.5v12c0 4.143 3.357 7.5 7.5 7.5s7.5-3.357 7.5-7.5v-12c0-4.143-3.358-7.5-7.5-7.5zm236.565-38.259h-5.38c-4.143 0-7.5 3.357-7.5 7.5s3.357 7.5 7.5 7.5h5.38c4.143 0 7.5-3.357 7.5-7.5 0-4.142-3.357-7.5-7.5-7.5zm10.983-57.561c-2.225-3.496-6.86-4.526-10.353-2.301-3.495 2.224-4.525 6.859-2.301 10.353 23.718 37.269 36.78 75.749 36.78 108.354 0 100.489-95.599 154.504-196.942 154.504-101.44 0-196.941-54.082-196.941-154.504 0-45.274 24.705-100.342 66.087-147.305 41.441-47.032 90.358-75.11 130.853-75.11 43.546 0 97.059 32.778 139.654 85.542 2.602 3.223 7.324 3.728 10.547 1.125 3.224-2.603 3.727-7.324 1.125-10.547-36.075-44.688-93.921-91.12-151.326-91.12-44.737 0-97.862 29.979-142.108 80.193-43.728 49.625-69.833 108.399-69.833 157.222 0 48.609 20.897 89.708 56.715 119.405-28.894 14.016-56.15 40.108-70.316 68.142-9.117 18.045 5.249 39.637 25.815 37.319 24.165-2.743 44.882-.051 66.302 8.686-.942 3.774-1.734 7.603-2.359 11.483-2.107 13.074 6.281 25.742 19.099 28.839 3.99.968 8.071-1.469 9.052-5.528.973-4.026-1.502-8.079-5.528-9.052-5.25-1.269-8.682-6.483-7.814-11.872 5.703-35.373 26.434-66.151 57.046-84.89 20.237 4.586 41.729 6.972 63.929 6.972 22.201 0 43.692-2.386 63.93-6.972 30.613 18.738 51.343 49.517 57.047 84.89 1.006 6.238-3.698 12.163-10.288 12.163h-50.609c-6.785-74.85-113.346-75.142-120.158 0h-19.286c-4.142 0-7.5 3.357-7.5 7.5s3.358 7.5 7.5 7.5h190.053c15.679 0 27.593-14.063 25.097-29.55-5.675-35.2-24.598-66.339-52.745-87.605 75.783-23.429 128.902-79.755 128.902-157.43 0-35.421-13.896-76.762-39.126-116.406zm-301.803 335.585c-23.227-9.221-46.459-12.163-72.432-9.217-8.45.945-14.602-7.999-10.735-15.65 13.955-27.618 41.993-53.145 70.614-64.596 17.215 11.748 36.973 21.059 58.504 27.715-21.022 15.884-36.897 37.271-45.951 61.748zm83.983 40.406c3.145-28.366 24.154-41.18 45.003-41.18 20.85 0 41.859 12.814 45.004 41.18zm119.736-253.171c4.143 0 7.5-3.357 7.5-7.5v-12c0-4.143-3.357-7.5-7.5-7.5s-7.5 3.357-7.5 7.5v12c0 4.143 3.357 7.5 7.5 7.5zm84.601-26.099c0 4.143 3.357 7.5 7.5 7.5h4.671c4.143 0 7.5-3.357 7.5-7.5s-3.357-7.5-7.5-7.5h-4.671c-4.142 0-7.5 3.358-7.5 7.5zm-179.479 8.368c-5.04 2.556-11.048 8.133-11.048 20.189 0 18.755 13.993 34.014 31.193 34.014s31.193-15.259 31.193-34.014c0-12.057-6.008-17.634-11.047-20.189-5.449-2.763-11.995-3.329-20.146-3.329s-14.697.566-20.145 3.329zm36.339 20.189c0 10.484-7.265 19.014-16.193 19.014-8.929 0-16.193-8.529-16.193-19.014 0-5.907.655-8.518 16.193-8.518 15.537 0 16.193 2.611 16.193 8.518zm-165.148-60.217c0-4.143-3.357-7.5-7.5-7.5h-5.379c-4.143 0-7.5 3.357-7.5 7.5s3.357 7.5 7.5 7.5h5.379c4.143 0 7.5-3.357 7.5-7.5zm171.073-73.661c2.721-3.122 2.397-7.86-.727-10.582-3.122-2.722-7.86-2.396-10.582.727-2.729 3.132-6.67 4.929-10.81 4.929-4.141 0-8.08-1.796-10.81-4.928-2.721-3.124-7.459-3.448-10.581-.728-3.123 2.721-3.449 7.459-.728 10.581 5.578 6.402 13.641 10.074 22.118 10.074 8.479 0 16.54-3.671 22.12-10.073zm87.932-5.544v-12c0-4.142-3.357-7.5-7.5-7.5s-7.5 3.358-7.5 7.5v12c0 4.143 3.357 7.5 7.5 7.5s7.5-3.357 7.5-7.5zm-281.555 103.365c-4.143 0-7.5 3.357-7.5 7.5s3.357 7.5 7.5 7.5h4.671c4.143 0 7.5-3.357 7.5-7.5s-3.357-7.5-7.5-7.5zm76.453-103.365v-12c0-4.142-3.357-7.5-7.5-7.5s-7.5 3.358-7.5 7.5v12c0 4.143 3.357 7.5 7.5 7.5s7.5-3.357 7.5-7.5zm-52.686 147.135c0 29.273 13.349 55.414 37.588 73.605 25.974 19.495 64.064 29.799 110.149 29.799 46.087 0 84.176-10.304 110.15-29.799 24.238-18.191 37.587-44.332 37.587-73.605 0-29.164-13.32-55.099-37.509-73.046-18.944-65.376-67.986-118.14-110.228-118.14-42.241 0-91.284 52.764-110.228 118.14-24.189 17.947-37.509 43.882-37.509 73.046zm280.475 0c0 24.794-10.924 46.098-31.591 61.609-23.357 17.529-58.333 26.795-101.146 26.795s-77.789-9.266-101.146-26.795c-20.668-15.512-31.592-36.815-31.592-61.609 0-53.913 50.862-87.404 132.737-87.404s132.738 33.491 132.738 87.404zm-132.738-176.186c28.885 0 69.553 36.001 90.5 91.357-24.102-11.546-54.893-17.576-90.5-17.576-35.606 0-66.397 6.029-90.499 17.575 20.948-55.354 61.615-91.356 90.499-91.356z"/></g></svg>